<?xml version="1.0" encoding="iso-8859-1"?>
<!-- Generator: Adobe Illustrator 19.0.0, SVG Export Plug-In . SVG Version: 6.00 Build 0)  -->
<svg version="1.1" id="Capa_1" xmlns="http://www.w3.org/2000/svg" xmlns:xlink="http://www.w3.org/1999/xlink" x="0px" y="0px"
	 viewBox="0 0 496.485 496.485" style="enable-background:new 0 0 496.485 496.485;" xml:space="preserve">
<path style="fill:#F3F3F3;" d="M424.929,62.906H32.209C14.429,62.906,0,77.32,0,95.116v237.956
	c0,17.796,14.429,32.209,32.209,32.209h392.704c17.796,0,32.209-14.429,32.209-32.209V95.116
	C457.138,77.32,442.709,62.906,424.929,62.906z"/>
<g>
	<rect x="419.716" y="297.045" style="fill:#6F6F6F;" width="76.769" height="35.545"/>
	<rect x="478.72" y="286.759" style="fill:#6F6F6F;" width="17.765" height="56.134"/>
</g>
<path style="fill:#E8E8E8;" d="M440.32,248.995c-10.395-0.621-19.115,7.68-19.115,18.075v1.21c0,8.735-7.277,15.376-16.213,15.174
	c0,0,0,0-0.202,0c0,0,0,0-0.202,0c-8.735,0.202-16.213-6.439-16.213-15.174v3.212c0-9.976-7.277-18.696-17.036-19.332
	c-10.426-0.403-18.944,7.664-19.223,17.811v-2.064c0,10.411-8.657,18.696-19.177,18.23c-9.821-0.59-17.191-9.356-17.191-19.177
	v-2.219c-0.279-9.542-7.571-17.967-17.144-18.572c-10.597-0.419-19.115,7.897-19.115,18.277l-0.217,6.532
	c0,10.395-8.518,18.696-19.115,18.292c-9.759-0.621-17.253-9.356-17.253-19.332v-1.148c-0.217-9.775-8.316-17.672-18.075-17.672
	c-10.178,0-18.292,8.316-18.292,18.292v-1.784c0,7.959-5.927,15.174-16.617,15.174c-8.316,0.621-15.376-6.237-15.376-14.336v-1.443
	c0-9.976-7.277-18.696-17.036-19.332c-10.597-0.419-19.332,7.897-19.332,18.292v-0.186c0,7.928-5.896,15.174-16.415,15.174
	c-8.937,0-16.213-7.277-16.213-15.996v4.592c0-9.775-7.478-18.696-17.237-19.115c-10.395-0.621-19.332,7.68-19.332,18.075v-0.217
	c0,8.735-7.277,15.376-15.996,15.174c-0.202,0-0.202,0-0.202,0c-0.202,0-0.202,0-0.419,0c-8.72,0.202-15.996-6.439-15.996-15.174
	v2.157c0-9.976-7.478-18.696-17.253-19.316C8.518,250.702,0,259.018,0,269.397c0,5.648,0,11.093,0,17.051v9.821h457.138v-31.573
	C455.602,256.38,449.086,249.352,440.32,248.995z"/>
<path style="fill:#ED6262;" d="M0,297.045v36.011c0,17.796,14.429,32.209,32.209,32.209h392.704
	c17.796,0,32.209-14.429,32.209-32.209v-36.011L0,297.045L0,297.045z"/>
<g>
	<rect x="32.225" y="95.162" style="fill:#168DE2;" width="179.588" height="126.123"/>
	<rect x="245.326" y="95.162" style="fill:#168DE2;" width="179.588" height="126.123"/>
</g>
<g>
	<path style="fill:#3AA2EB;" d="M32.225,95.162v64.124c0.605,3.258,3.165,6.035,6.609,6.175c4.08,0.248,7.509-3.025,7.509-7.106
		v-13.529c0-3.429,2.855-6.035,6.361-5.958c0,0,0,0,0.078,0c0,0,0,0,0.078,0c3.429-0.078,6.377,2.529,6.377,5.958v11.776
		c0,3.91,2.855,7.354,6.687,7.587c4.096,0.155,7.447-3.01,7.556-6.997v-12.21c0-4.096,3.398-7.354,7.54-7.168
		c3.863,0.233,6.749,3.677,6.749,7.54v13.902c0.109,3.739,2.979,7.059,6.734,7.292c4.158,0.171,7.509-3.103,7.509-7.184
		l0.078-15.593c0-4.08,3.351-7.354,7.509-7.184c3.832,0.248,6.78,3.677,6.78,7.602v13.483c0.078,3.832,3.274,6.935,7.106,6.935
		c4.003,0,7.184-3.258,7.184-7.184V145.09c0-3.258,2.7-5.958,6.035-5.958h0.496c3.258-0.248,6.035,2.451,6.035,5.632v13.607
		c0,3.925,2.855,7.354,6.703,7.587c4.158,0.171,7.587-3.103,7.587-7.184v-12.955c0-3.274,2.7-5.958,5.958-5.958h0.481
		c3.506,0,6.377,2.855,6.377,6.284v11.233c0,3.832,2.932,7.339,6.78,7.509c4.08,0.248,7.587-3.025,7.587-7.106v-12.955
		c0-3.429,2.855-6.035,6.284-5.958c0.078,0,0.078,0,0.078,0c0.078,0,0.078,0,0.155,0c3.429-0.078,6.284,2.529,6.284,5.958v12.179
		c0,3.925,2.932,7.354,6.78,7.587c4.158,0.171,7.509-3.103,7.509-7.184c0-2.219,0-4.36,0-6.703V95.162H32.225z"/>
	<path style="fill:#3AA2EB;" d="M245.326,95.162v64.124c0.605,3.258,3.165,6.035,6.609,6.175c4.08,0.248,7.509-3.025,7.509-7.106
		v-13.529c0-3.429,2.855-6.035,6.361-5.958c0,0,0,0,0.078,0c0,0,0,0,0.078,0c3.429-0.078,6.361,2.529,6.361,5.958v11.776
		c0,3.91,2.855,7.354,6.703,7.587c4.096,0.155,7.447-3.01,7.556-6.997v-12.21c0-4.096,3.398-7.354,7.54-7.168
		c3.863,0.233,6.749,3.677,6.749,7.54v13.902c0.109,3.739,2.979,7.059,6.734,7.292c4.158,0.171,7.509-3.103,7.509-7.184
		l0.078-15.593c0-4.08,3.351-7.354,7.509-7.184c3.832,0.248,6.78,3.677,6.78,7.602v13.483c0.078,3.832,3.274,6.935,7.106,6.935
		c4.003,0,7.184-3.258,7.184-7.184V145.09c0-3.258,2.7-5.958,6.035-5.958h0.496c3.258-0.248,6.035,2.451,6.035,5.632v13.607
		c0,3.925,2.855,7.354,6.703,7.587c4.158,0.171,7.587-3.103,7.587-7.184v-12.955c0-3.274,2.7-5.958,5.958-5.958h0.481
		c3.506,0,6.361,2.855,6.361,6.284v11.233c0,3.832,2.932,7.339,6.78,7.509c4.081,0.248,7.587-3.025,7.587-7.106v-12.955
		c0-3.429,2.855-6.035,6.284-5.958c0.078,0,0.078,0,0.078,0c0.078,0,0.078,0,0.155,0c3.429-0.078,6.284,2.529,6.284,5.958v12.179
		c0,3.925,2.948,7.354,6.78,7.587c4.158,0.171,7.509-3.103,7.509-7.184c0-2.219,0-4.36,0-6.703V95.162H245.326z"/>
</g>
<path style="fill:#E95353;" d="M117.776,356.437c10.395,0.621,19.115-7.696,19.115-18.075v-1.21c0-8.735,7.277-15.375,16.213-15.174
	c0,0,0,0,0.202,0c0,0,0,0,0.202,0c8.735-0.202,16.213,6.439,16.213,15.174v-3.212c0,9.976,7.277,18.696,17.036,19.332
	c10.426,0.403,18.944-7.664,19.223-17.811v2.079c0-10.411,8.657-18.696,19.177-18.23c9.821,0.59,17.191,9.356,17.191,19.177v2.219
	c0.279,9.542,7.571,17.967,17.144,18.572c10.597,0.419,19.115-7.897,19.115-18.277l0.217-6.516c0-10.395,8.518-18.696,19.115-18.292
	c9.775,0.621,17.253,9.356,17.253,19.332v1.117c0.202,9.775,8.316,17.672,18.075,17.672c10.178,0,18.292-8.316,18.292-18.292v1.784
	c0-7.959,5.927-15.174,16.632-15.174c8.316-0.621,15.375,6.237,15.375,14.336v1.443c0,9.976,7.277,18.696,17.036,19.332
	c10.597,0.419,19.332-7.897,19.332-18.292v0.186c0-7.928,5.896-15.174,16.415-15.174c8.937,0,16.213,7.277,16.213,15.996v-4.577
	c0,3.15,0.993,6.066,2.358,8.782c1.396-3.615,2.234-7.494,2.234-11.59v-36.011H100.957v43.691
	C102.493,349.037,109.009,356.081,117.776,356.437z"/>
<circle style="fill:#6F6F6F;" cx="101.004" cy="365.343" r="68.236"/>
<circle style="fill:#B9EECE;" cx="101.004" cy="365.343" r="42.744"/>
<g>
</g>
<g>
</g>
<g>
</g>
<g>
</g>
<g>
</g>
<g>
</g>
<g>
</g>
<g>
</g>
<g>
</g>
<g>
</g>
<g>
</g>
<g>
</g>
<g>
</g>
<g>
</g>
<g>
</g>
</svg>
