<?xml version="1.0" encoding="iso-8859-1"?>
<!-- Generator: Adobe Illustrator 19.0.0, SVG Export Plug-In . SVG Version: 6.00 Build 0)  -->
<svg version="1.1" id="Capa_1" xmlns="http://www.w3.org/2000/svg" xmlns:xlink="http://www.w3.org/1999/xlink" x="0px" y="0px"
	 viewBox="0 0 496.485 496.485" style="enable-background:new 0 0 496.485 496.485;" xml:space="preserve">
<g>
	<path style="fill:#FFBD49;" d="M89.414,180.604c-15.344,0-27.803,12.443-27.803,27.803v64.621h55.591v-64.636
		C117.201,193.047,104.758,180.604,89.414,180.604z"/>
	<path style="fill:#FFBD49;" d="M407.071,180.604c-15.345,0-27.803,12.443-27.803,27.803v64.621h55.591v-64.636
		C434.874,193.047,422.431,180.604,407.071,180.604z"/>
</g>
<polygon style="fill:#CACACA;" points="248.242,143.383 0,264.805 0,288.652 496.485,288.652 496.485,264.805 "/>
<path style="fill:#C1C1C1;" d="M456.828,258.909v-0.559c0,9.464-7.882,16.679-17.579,16.446c0,0,0,0-0.217,0c0,0,0,0-0.217,0
	c-9.464,0.217-17.579-6.982-17.579-16.446v-3.258c0-10.814-7.897-20.278-18.479-20.961c-11.295-0.434-20.542,8.301-20.852,19.316
	v8.999c0,11.28-9.387,20.278-20.79,19.782c-10.643-0.636-18.634-10.147-18.634-20.79v-6.578
	c-0.31-10.349-8.207-19.487-18.587-20.139c-11.497-0.45-20.728,8.564-20.728,19.828l-0.233,6.749
	c0,11.264-9.232,20.294-20.728,19.828c-10.597-0.667-18.711-10.147-18.711-20.961v-10.349c-0.217-10.597-9.014-19.161-19.611-19.161
	c-11.047,0-19.828,9.014-19.828,19.828v11.652c0,8.642-6.439,16.446-18.029,16.446c-9.014,0.683-16.679-6.765-16.679-15.546V252.61
	c0-10.814-7.882-20.278-18.479-20.961c-11.497-0.45-20.961,8.564-20.961,19.828v4.158c0,9.014-7.432,16.446-16.446,16.446
	c-12.102,0-18.928-8.332-18.928-17.346v5.306c0-10.597-8.114-20.294-18.711-20.744c-11.264-0.683-20.961,8.347-20.961,19.611v-0.559
	c0,9.464-7.882,16.679-17.346,16.446c-0.233,0-0.233,0-0.233,0c-11.171,0-17.796-7.742-17.796-16.446v-3.258
	c0-3.072-0.791-5.942-1.955-8.626L0,264.805v23.847h496.485v-23.847l-35.809-17.517
	C458.271,250.546,456.828,254.549,456.828,258.909z"/>
<path style="fill:#F3F3F3;" d="M248.242,484.484L248.242,484.484c-9.464,0-17.439-6.997-18.68-16.368
	c-18.044-135.944-40.06-233.239-29.618-369.571c1.939-25.29,22.931-86.497,48.299-86.497l0,0c25.367,0,46.359,61.207,48.299,86.497
	c10.442,136.332-11.574,233.627-29.618,369.571C265.681,477.487,257.707,484.484,248.242,484.484z"/>
<path style="opacity:0.5;fill:#FFFFFF;enable-background:new    ;" d="M228.336,362.643c-0.186-7.649,5.648-14.196,13.281-14.196
	h1.427c8.735,0,16.368-6.361,16.927-14.926c0.357-9.123-6.703-16.586-15.593-16.834h-12.304c-9.107,0-16.384-7.571-15.965-16.787
	c0.512-8.595,8.192-15.05,16.787-15.05h10.364c8.347-0.248,15.732-6.625,16.26-15.019c0.372-9.278-6.904-16.741-16.012-16.741
	l-4.236-0.186c-9.092,0-16.384-7.463-16.012-16.741c0.543-8.549,8.192-15.096,16.927-15.096h7.152
	c8.549-0.186,15.469-7.277,15.469-15.825c0-8.921-7.277-16.012-16.012-16.012h-14.46c-6.935,0-13.281-5.167-13.281-14.553
	c-0.543-7.277,5.461-13.467,12.552-13.467h13.467c8.735,0,16.368-6.361,16.912-14.926c0.372-9.278-6.904-16.927-16.012-16.927
	h-2.141c-6.951,0-13.281-5.182-13.281-14.367c0-7.82,6.361-14.196,14.01-14.196h-5.492c8.549,0,16.384-6.547,16.741-15.096
	c0.543-9.092-6.734-16.927-15.825-16.927h1.676c-7.633,0-13.467-6.361-13.281-14.01c0-0.186,0-0.186,0-0.186
	c0-9.014,6.253-14.367,13.281-14.367h1.427c8.735,0,16.368-6.547,16.927-15.096c0.171-4.313-1.427-8.13-3.972-11.093
	c-2.529-1.21-5.105-2.017-7.742-2.017c-25.367,0-46.359,61.207-48.299,86.497c-8.875,115.821,5.694,203.559,21.333,310.675h17.734
	c8.549,0,16.384-6.547,16.741-15.282c0.543-9.092-6.734-16.741-15.825-16.741h1.676c-7.633,0-13.467-6.361-13.281-14.196
	c0,0,0,0,0-0.186C228.336,362.83,228.336,362.83,228.336,362.643z"/>
<polygon style="fill:#ED6262;" points="248.242,386.071 168.355,443.772 168.355,479.829 248.242,452.026 328.13,479.829 
	328.13,443.772 "/>
<path style="fill:#3AA2EB;" d="M221.029,66.676c4.903-8.72,15.236-15.608,29.324-16.027c14.103,0.403,24.545,7.308,29.324,16.027
	c-10.224-4.53-15.05-8.378-29.324-8.27C236.435,58.283,230.896,62.363,221.029,66.676z"/>
<g>
</g>
<g>
</g>
<g>
</g>
<g>
</g>
<g>
</g>
<g>
</g>
<g>
</g>
<g>
</g>
<g>
</g>
<g>
</g>
<g>
</g>
<g>
</g>
<g>
</g>
<g>
</g>
<g>
</g>
</svg>
