<?xml version="1.0" encoding="iso-8859-1"?>
<!-- Generator: Adobe Illustrator 19.0.0, SVG Export Plug-In . SVG Version: 6.00 Build 0)  -->
<svg version="1.1" id="Capa_1" xmlns="http://www.w3.org/2000/svg" xmlns:xlink="http://www.w3.org/1999/xlink" x="0px" y="0px"
	 viewBox="0 0 496.314 496.314" style="enable-background:new 0 0 496.314 496.314;" xml:space="preserve">
<rect x="215.761" y="76.629" style="fill:#FFBD49;" width="40.774" height="419.685"/>
<polygon style="fill:#3AA2EB;" points="424.58,153.259 141.242,153.259 141.242,0 424.58,0 474.477,76.629 "/>
<polygon style="fill:#ED6262;" points="71.734,175.538 355.072,175.538 355.072,328.782 71.734,328.782 21.838,252.168 "/>
<g>
	<path style="opacity:0.25;fill:#FFFFFF;enable-background:new    ;" d="M152.661,80.353c6.796,0.403,12.505-5.027,12.505-11.823
		V46.576c0-5.71,4.763-10.069,10.612-9.93c0,0,0,0,0.14,0c0,0,0,0,0.14,0c5.71-0.14,10.612,4.22,10.612,9.93v24.25
		c0,6.532,4.763,12.241,11.155,12.645c6.827,0.264,12.397-5.011,12.583-11.652V39.44c0-6.811,5.663-12.241,12.552-11.931
		c6.423,0.388,11.248,6.128,11.248,12.552v30.937c0.186,6.237,4.949,11.76,11.217,12.148c6.935,0.264,12.505-5.167,12.505-11.962
		l0.14-26.36c0-6.796,5.57-12.241,12.505-11.962c6.392,0.403,11.295,6.113,11.295,12.645v28.532
		c0.14,6.392,5.446,11.559,11.823,11.559c6.672,0,11.962-5.446,11.962-11.962V39.626c0-5.446,4.484-9.93,10.069-9.93
		c7.385,0,10.876,4.375,10.876,9.387v33.264c0,6.532,4.763,12.241,11.155,12.645c6.935,0.279,12.645-5.167,12.645-11.962V48.221
		c0-5.167,3.848-9.93,10.736-9.93c5.849,0,10.612,4.763,10.612,10.473v19.084c0,6.392,4.903,12.241,11.28,12.505
		c6.796,0.403,12.645-5.027,12.645-11.823V46.576c0-5.71,4.763-10.069,10.473-9.93c0.14,0,0.14,0,0.14,0
		c6.734,0,10.736,4.655,10.736,9.93v24.25c0,6.532,4.903,12.241,11.295,12.645c6.935,0.264,12.505-5.167,12.505-11.962V24.948
		L424.58,0H141.242v67.848C141.242,74.24,146.129,80.089,152.661,80.353z"/>
	<path style="opacity:0.25;fill:#FFFFFF;enable-background:new    ;" d="M343.653,255.891c-6.796,0.403-12.505-5.027-12.505-11.823
		V222.13c0-5.71-4.763-10.069-10.612-9.93c0,0,0,0-0.14,0c0,0,0,0-0.14,0c-5.71-0.14-10.612,4.22-10.612,9.93v24.25
		c0,6.532-4.763,12.241-11.155,12.645c-6.827,0.264-12.397-5.011-12.583-11.652v-32.396c0-6.811-5.663-12.241-12.552-11.931
		c-6.423,0.388-11.248,6.113-11.248,12.552v30.937c-0.186,6.237-4.949,11.76-11.217,12.148c-6.935,0.264-12.505-5.167-12.505-11.962
		l-0.14-26.36c0-6.796-5.57-12.241-12.505-11.962c-6.392,0.403-11.28,6.113-11.28,12.645v28.532
		c-0.14,6.392-5.446,11.559-11.823,11.559c-6.656,0-11.962-5.446-11.962-11.962V215.18c0-5.446-4.484-9.93-10.069-9.93
		c-7.385,0-10.876,4.375-10.876,9.387v33.264c0,6.532-4.763,12.241-11.155,12.645c-6.935,0.279-12.645-5.167-12.645-11.962v-24.793
		c0-5.167-3.848-9.93-10.736-9.93c-5.849,0-10.612,4.763-10.612,10.473v19.084c0,6.392-4.887,12.241-11.28,12.505
		c-6.796,0.403-12.645-5.027-12.645-11.823v-21.938c0-5.71-4.763-10.069-10.473-9.93c-0.14,0-0.14,0-0.14,0c-0.14,0-0.14,0-0.264,0
		c-5.71-0.14-10.473,4.22-10.473,9.93v24.25c0,6.532-4.903,12.241-11.295,12.645c-6.935,0.264-12.505-5.167-12.505-11.962v-46.561
		l16.244-24.948h283.338v67.848C355.072,249.763,350.185,255.612,343.653,255.891z"/>
</g>
<g>
</g>
<g>
</g>
<g>
</g>
<g>
</g>
<g>
</g>
<g>
</g>
<g>
</g>
<g>
</g>
<g>
</g>
<g>
</g>
<g>
</g>
<g>
</g>
<g>
</g>
<g>
</g>
<g>
</g>
</svg>
