<?xml version="1.0" encoding="iso-8859-1"?>
<!-- Generator: Adobe Illustrator 19.0.0, SVG Export Plug-In . SVG Version: 6.00 Build 0)  -->
<svg version="1.1" id="Capa_1" xmlns="http://www.w3.org/2000/svg" xmlns:xlink="http://www.w3.org/1999/xlink" x="0px" y="0px"
	 viewBox="0 0 496.485 496.485" style="enable-background:new 0 0 496.485 496.485;" xml:space="preserve">
<g>
	<polygon style="fill:#CACACA;" points="355.561,397.715 138.287,397.715 125.688,424.06 367.88,424.06 	"/>
	<polygon style="fill:#CACACA;" points="373.139,442.865 120.304,442.865 102.912,479.201 390.129,479.201 	"/>
</g>
<g>
	<polygon style="fill:#777777;" points="122.089,381.626 65.738,496.485 119.048,496.485 158.937,381.626 	"/>
	<polygon style="fill:#777777;" points="374.396,381.626 337.548,381.626 377.437,496.485 430.747,496.485 	"/>
</g>
<path style="fill:#FFDB6F;" d="M395.388,36.631H101.097c-17.144,0-31.03,13.886-31.03,31.03V350.58
	c0,17.144,13.886,31.03,31.03,31.03h294.291c17.144,0,31.03-13.886,31.03-31.03V67.662
	C426.418,50.533,412.532,36.631,395.388,36.631z"/>
<path style="fill:#FFBD49;" d="M316.059,0H180.441c-8.564,0-15.515,6.951-15.515,15.515v21.116h166.648V15.515
	C331.574,6.951,324.624,0,316.059,0z"/>
<g>
	<rect x="102.865" y="69.43" style="fill:#168DE2;" width="128.977" height="157.572"/>
	<rect x="264.642" y="69.43" style="fill:#168DE2;" width="128.977" height="157.572"/>
</g>
<circle style="fill:#FFFFFF;" cx="167.362" cy="304.252" r="45.103"/>
<circle style="fill:#ED6262;" cx="167.362" cy="304.252" r="31.62"/>
<circle style="fill:#FFFFFF;" cx="329.123" cy="304.252" r="45.103"/>
<circle style="fill:#ED6262;" cx="329.123" cy="304.252" r="31.62"/>
<g>
	<path style="fill:#3AA2EB;" d="M102.865,127.209c0,5.011,3.832,9.604,8.968,9.821c5.322,0.31,9.806-3.956,9.806-9.294v-21.768
		c0-4.484,3.739-7.897,8.316-7.789c0,0,0,0,0.109,0c0,0,0,0,0.109,0c4.484-0.093,8.332,3.32,8.332,7.789v23.583
		c0,5.12,3.739,9.604,8.751,9.914c5.353,0.202,9.728-3.925,9.868-9.138v-29.96c0-5.337,4.437-9.604,9.852-9.356
		c5.027,0.295,8.813,4.794,8.813,9.837v28.812c0.14,4.903,3.879,9.216,8.797,9.542c5.446,0.217,9.821-4.049,9.821-9.387
		l0.109-25.228c0-5.337,4.375-9.604,9.821-9.387c5.011,0.326,8.859,4.794,8.859,9.93v26.934c0.109,5.011,4.267,9.061,9.278,9.061
		c5.229,0,9.387-4.267,9.387-9.387V69.43H102.865V127.209z"/>
	<path style="fill:#3AA2EB;" d="M264.642,127.209c0,5.011,3.832,9.604,8.968,9.821c5.337,0.326,9.821-3.941,9.821-9.278v-21.783
		c0-4.484,3.739-7.897,8.316-7.789c0,0,0,0,0.109,0c0,0,0,0,0.109,0c4.484-0.109,8.316,3.305,8.316,7.789v23.583
		c0,5.12,3.739,9.604,8.751,9.914c5.353,0.202,9.728-3.925,9.868-9.138v-29.96c0-5.337,4.437-9.604,9.852-9.356
		c5.042,0.295,8.828,4.81,8.828,9.837v28.812c0.14,4.903,3.879,9.216,8.797,9.542c5.446,0.217,9.821-4.049,9.821-9.387l0.109-25.228
		c0-5.337,4.375-9.604,9.821-9.387c5.011,0.326,8.859,4.794,8.859,9.93v26.934c0.109,5.011,4.267,9.061,9.278,9.061
		c5.229,0,9.387-4.267,9.387-9.387V69.43H264.673v57.778H264.642z"/>
</g>
<g>
</g>
<g>
</g>
<g>
</g>
<g>
</g>
<g>
</g>
<g>
</g>
<g>
</g>
<g>
</g>
<g>
</g>
<g>
</g>
<g>
</g>
<g>
</g>
<g>
</g>
<g>
</g>
<g>
</g>
</svg>
