<?xml version="1.0" encoding="iso-8859-1"?>
<!-- Generator: Adobe Illustrator 19.0.0, SVG Export Plug-In . SVG Version: 6.00 Build 0)  -->
<svg version="1.1" id="Capa_1" xmlns="http://www.w3.org/2000/svg" xmlns:xlink="http://www.w3.org/1999/xlink" x="0px" y="0px"
	 viewBox="0 0 495.182 495.182" style="enable-background:new 0 0 495.182 495.182;" xml:space="preserve">
<path style="fill:#EC9821;" d="M234.17,157.626c-22.171,0-44.358,0-66.529,0c0-11.186,0-22.373,0-33.559
	c21.613-8.642,44.916-8.642,66.529,0C234.17,135.253,234.17,146.44,234.17,157.626z"/>
<g>
	<rect x="173.04" y="124.734" style="fill:#454545;" width="11.155" height="11.155"/>
	<rect x="184.18" y="135.889" style="fill:#454545;" width="11.155" height="11.155"/>
	<rect x="195.305" y="124.734" style="fill:#454545;" width="11.155" height="11.155"/>
	<rect x="206.491" y="135.889" style="fill:#454545;" width="11.155" height="11.155"/>
	<rect x="217.631" y="124.734" style="fill:#454545;" width="11.155" height="11.155"/>
</g>
<g>
	<circle style="fill:#EC9821;" cx="17.517" cy="281.158" r="17.129"/>
	<rect x="17.517" y="291.351" style="fill:#EC9821;" width="36.274" height="6.935"/>
	<circle style="fill:#EC9821;" cx="384.31" cy="281.158" r="17.129"/>
	<rect x="348.036" y="291.351" style="fill:#EC9821;" width="36.274" height="6.935"/>
</g>
<g>
	<path style="fill:#454545;" d="M22.497,404.922v36.6c0,13.871,11.248,25.119,25.119,25.119h18.075
		c13.871,0,25.119-11.249,25.119-25.119v-36.6H22.497z"/>
	<path style="fill:#454545;" d="M311.017,404.922v36.6c0,13.871,11.249,25.119,25.119,25.119h18.075
		c13.871,0,25.119-11.249,25.119-25.119v-36.6H311.017z"/>
</g>
<path style="fill:#FFE21F;" d="M269.777,154.042c-45.692-6.222-92.036-6.222-137.728,0c-48.873,6.656-88.824,52.689-88.824,102.012
	v47.12h315.361v-47.12C358.586,206.732,318.65,160.698,269.777,154.042z"/>
<path style="fill:#168DE2;" d="M56.087,290.312v-34.257c0-42.651,35.576-83.534,77.684-89.259c43.722-5.942,88.871-6.175,134.268,0
	c42.108,5.725,77.684,46.623,77.684,89.259v34.257H56.087z"/>
<path style="fill:#FFE21F;" d="M336.632,289.8c-90.159-12.086-181.279-12.086-271.438,0c-25.538,3.429-44.606,25.321-44.606,51.091
	v72.021c120.211,0,240.438,0,360.665,0v-72.021C381.238,315.121,362.17,293.213,336.632,289.8z"/>
<path style="fill:#777777;" d="M383.395,384.365H18.432C8.254,384.365,0,392.619,0,402.797v4.251
	c0,10.178,8.254,18.432,18.432,18.432H383.41c10.178,0,18.432-8.254,18.432-18.432v-4.251
	C401.827,392.619,393.573,384.365,383.395,384.365z"/>
<circle style="fill:#FFFFFF;" cx="87.149" cy="339.06" r="32.97"/>
<circle style="fill:#E95353;" cx="87.149" cy="339.06" r="23.087"/>
<circle style="fill:#FFFFFF;" cx="314.678" cy="339.06" r="32.97"/>
<circle style="fill:#E95353;" cx="314.678" cy="339.06" r="23.087"/>
<rect x="138.023" y="315.958" style="fill:#FF9F5F;" width="125.781" height="46.173"/>
<polygon style="fill:#777777;" points="458.55,442.159 458.55,186.438 426.31,186.438 426.31,442.159 407.304,442.159 
	407.304,466.626 477.572,466.626 477.572,442.159 "/>
<path style="fill:#454545;" d="M479.666,28.54h-74.473c-8.564,0-15.515,6.951-15.515,15.515v196.81
	c0,8.564,6.951,15.515,15.515,15.515h74.473c8.564,0,15.515-6.951,15.515-15.515V44.055C495.182,35.475,488.246,28.54,479.666,28.54
	z"/>
<circle style="fill:#ED6262;" cx="442.461" cy="74.729" r="30.704"/>
<circle style="fill:#79DCA0;" cx="442.461" cy="142.452" r="30.704"/>
<circle style="fill:#FFE21F;" cx="442.461" cy="210.192" r="30.704"/>
<path style="fill:#1A98E5;" d="M267.481,166.749c-43.163-5.865-87.94-6.144-133.151,0c-41.674,5.663-76.878,46.064-77.033,88.266
	c0.977,0.326,1.924,0.729,3.01,0.776c6.889,0.419,12.676-5.104,12.676-11.993v-22.233c0-5.787,4.825-10.193,10.752-10.054
	c0,0,0,0,0.14,0c0,0,0,0,0.14,0c5.787-0.14,10.752,4.267,10.752,10.054v24.576c0,6.609,4.825,12.397,11.295,12.816
	c6.904,0.264,12.552-5.073,12.738-11.807v-32.815c0-6.889,5.741-12.397,12.722-12.086c6.501,0.388,11.388,6.206,11.388,12.707
	v31.341c0.186,6.315,5.011,11.9,11.373,12.319c7.028,0.279,12.676-5.229,12.676-12.117l0.14-26.702
	c0-6.889,5.648-12.397,12.676-12.117c6.47,0.419,11.435,6.191,11.435,12.816v28.905c0.14,6.47,5.508,11.714,11.993,11.714
	c6.749,0,12.117-5.508,12.117-12.117v-34.444c0-5.508,4.546-10.054,10.193-10.054h0.822c5.508-0.419,10.193,4.127,10.193,9.511
	v33.683c0,6.609,4.825,12.397,11.295,12.816c7.028,0.279,12.816-5.229,12.816-12.117v-25.166c0-5.508,4.546-10.054,10.054-10.054
	c7.385,0,11.574,5.058,11.574,10.612v19.332c0,6.47,4.965,12.397,11.435,12.676c6.889,0.419,12.816-5.104,12.816-11.993v-22.233
	c0-5.787,4.825-10.193,10.612-10.054c0.14,0,0.14,0,0.14,0c0.14,0,0.14,0,0.279,0c5.787-0.14,10.612,4.267,10.612,10.054v24.576
	c0,6.609,4.965,12.397,11.435,12.816c1.784,0.078,3.46-0.233,4.996-0.838v-2.839C344.529,212.984,309.248,172.428,267.481,166.749z"
	/>
<g>
</g>
<g>
</g>
<g>
</g>
<g>
</g>
<g>
</g>
<g>
</g>
<g>
</g>
<g>
</g>
<g>
</g>
<g>
</g>
<g>
</g>
<g>
</g>
<g>
</g>
<g>
</g>
<g>
</g>
</svg>
