<?xml version="1.0" encoding="iso-8859-1"?>
<!-- Generator: Adobe Illustrator 19.0.0, SVG Export Plug-In . SVG Version: 6.00 Build 0)  -->
<svg version="1.1" id="Capa_1" xmlns="http://www.w3.org/2000/svg" xmlns:xlink="http://www.w3.org/1999/xlink" x="0px" y="0px"
	 viewBox="0 0 493.382 493.382" style="enable-background:new 0 0 493.382 493.382;" xml:space="preserve">
<path style="fill:#E95353;" d="M405.907,0H87.474C61.766,0,40.929,20.837,40.929,46.545v339.534
	c0,25.709,20.837,46.545,46.545,46.545h318.433c25.709,0,46.545-20.837,46.545-46.545V46.545C452.453,20.837,431.616,0,405.907,0z"
	/>
<path style="fill:#168DE2;" d="M102.99,324.018c-28.563-68.965-28.563-146.463,0-215.428c95.806,0,191.597,0,287.403,0
	c28.563,68.965,28.563,146.463,0,215.428C294.586,324.018,198.78,324.018,102.99,324.018z"/>
<polygon style="fill:#454545;" points="381.502,493.382 449.474,493.382 382.402,432.624 336.912,432.624 353.777,455.618 
	139.59,455.618 156.47,432.624 110.98,432.624 43.908,493.382 111.88,493.382 128.419,470.838 364.963,470.838 "/>
<g>
	<path style="fill:#FFBD49;" d="M147.316,357.376h-40.929c-13.715,0-24.824,11.109-24.824,24.824
		c0,13.7,11.109,24.824,24.824,24.824h40.929c13.7,0,24.824-11.109,24.824-24.824C172.141,368.5,161.016,357.376,147.316,357.376z"
		/>
	<path style="fill:#FFBD49;" d="M386.994,357.376h-40.929c-13.715,0-24.824,11.109-24.824,24.824
		c0,13.7,11.109,24.824,24.824,24.824h40.929c13.715,0,24.824-11.109,24.824-24.824C411.819,368.5,400.71,357.376,386.994,357.376z"
		/>
</g>
<g>
	<circle style="fill:#FFFFFF;" cx="246.691" cy="50.424" r="38.291"/>
	<path style="opacity:0.25;fill:#FFFFFF;enable-background:new    ;" d="M362.046,108.591h-230.71
		c-25.91,0-46.918,21.008-46.918,46.918v26.577c0,6.92,5.306,13.265,12.381,13.56c7.37,0.434,13.56-5.446,13.56-12.816v-23.769
		c0-6.191,5.151-10.907,11.497-10.752c0,0,0,0,0.14,0c0,0,0,0,0.14,0c6.191-0.14,11.497,4.561,11.497,10.752v26.283
		c0,7.075,5.151,13.265,12.086,13.7c7.385,0.295,13.436-5.43,13.622-12.629v-35.095c0-7.37,6.128-13.265,13.591-12.924
		c6.966,0.419,12.179,6.641,12.179,13.591v33.513c0.202,6.765,5.368,12.738,12.148,13.172c7.509,0.295,13.56-5.601,13.56-12.971
		l0.14-28.548c0-7.37,6.035-13.265,13.56-12.971c6.92,0.434,12.226,6.625,12.226,13.7v30.906c0.155,6.92,5.896,12.521,12.816,12.521
		c7.215,0,12.971-5.896,12.971-12.955v-36.833c0-5.896,4.856-10.752,10.907-10.752c15.515,0,11.792,11.931,11.792,46.189
		c0,7.075,5.151,13.25,12.086,13.7c7.509,0.295,13.7-5.601,13.7-12.955V160.83c0-5.896,4.856-10.752,10.752-10.752
		c7.913,0,12.381,5.446,12.381,11.342v20.682c0,6.92,5.306,13.265,12.226,13.56c7.37,0.434,13.7-5.446,13.7-12.816v-23.769
		c0-6.191,5.151-10.907,11.342-10.752c0.155,0,0.155,0,0.155,0c0.155,0,0.155,0,0.295,0c6.191-0.14,11.342,4.561,11.342,10.752
		v26.283c0,7.075,5.306,13.265,12.226,13.7c7.509,0.295,13.56-5.601,13.56-12.971v-30.549
		C408.964,129.598,387.956,108.591,362.046,108.591z"/>
	<path style="fill:#FFFFFF;" d="M390.392,331.776H102.99c-3.134,0-5.973-1.893-7.168-4.794c-29.556-71.385-29.556-149.985,0-221.37
		c1.195-2.901,4.034-4.794,7.168-4.794h287.403c3.134,0,5.973,1.893,7.168,4.794c29.556,71.385,29.556,149.985,0,221.37
		C396.35,329.883,393.526,331.776,390.392,331.776z M108.218,316.261h276.93c25.398-64.667,25.398-135.246,0-199.913h-276.93
		C82.82,181.015,82.82,251.594,108.218,316.261z"/>
</g>
<g>
</g>
<g>
</g>
<g>
</g>
<g>
</g>
<g>
</g>
<g>
</g>
<g>
</g>
<g>
</g>
<g>
</g>
<g>
</g>
<g>
</g>
<g>
</g>
<g>
</g>
<g>
</g>
<g>
</g>
</svg>
