<?xml version="1.0" encoding="iso-8859-1"?>
<!-- Generator: Adobe Illustrator 19.0.0, SVG Export Plug-In . SVG Version: 6.00 Build 0)  -->
<svg version="1.1" id="Capa_1" xmlns="http://www.w3.org/2000/svg" xmlns:xlink="http://www.w3.org/1999/xlink" x="0px" y="0px"
	 viewBox="0 0 490.744 490.744" style="enable-background:new 0 0 490.744 490.744;" xml:space="preserve">
<g>
	<path style="fill:#ED6262;" d="M468.527,192.588h-25.383c-12.272,0-22.218,9.945-22.218,22.218v22.218h47.6
		c12.272,0,22.218-9.945,22.218-22.218C490.76,202.533,480.799,192.588,468.527,192.588z"/>
	<path style="fill:#ED6262;" d="M47.585,192.588H22.218C9.945,192.588,0,202.533,0,214.805c0,12.272,9.945,22.218,22.218,22.218
		h47.6v-22.218C69.818,202.533,59.857,192.588,47.585,192.588z"/>
</g>
<path style="fill:#FFE21F;" d="M327.727,104.043c-54.458-9.821-110.251-9.821-164.709,0c-55.125,9.945-95.108,58.166-95.108,114.192
	v58.321h354.909v-58.321C422.834,162.225,382.852,113.988,327.727,104.043z"/>
<path style="fill:#168DE2;" d="M85.318,259.148v-40.913c0-47.787,33.978-88.607,80.787-97.063c51.619-9.309,105.363-9.588,158.518,0
	c46.809,8.456,80.787,49.261,80.787,97.063v40.913H85.318z"/>
<g>
	<path style="fill:#454545;" d="M378.818,312.008v66.544c0,8.564,6.951,15.515,15.515,15.515h40.029
		c8.564,0,15.515-6.951,15.515-15.515v-66.544H378.818z"/>
	<path style="fill:#454545;" d="M40.882,312.008v66.544c0,8.564,6.951,15.515,15.515,15.515h40.029
		c8.564,0,15.515-6.951,15.515-15.515v-66.544H40.882z"/>
</g>
<path style="fill:#FFE21F;" d="M409.46,230.755c-109.009-13.033-219.183-13.033-328.192,0
	c-39.052,5.554-64.109,50.207-46.142,83.099c6.237,11.667,12.49,23.614,18.742,35.793c8.983,17.439,26.872,28.858,46.375,28.889
	c96.752,0,193.505,0,290.257,0c19.503-0.047,37.392-11.45,46.375-28.889c6.253-12.179,12.505-24.126,18.742-35.793
	C473.585,280.962,448.512,236.325,409.46,230.755z"/>
<g>
	<circle style="fill:#E95353;" cx="113.648" cy="299.828" r="36.057"/>
	<circle style="fill:#E95353;" cx="377.158" cy="299.828" r="36.057"/>
</g>
<g>
	<path style="fill:#FFFFFF;" d="M113.586,257.906c-23.087,0-41.86,18.773-41.86,41.86c0,23.071,18.773,41.86,41.86,41.86
		s41.86-18.773,41.86-41.86C155.446,276.68,136.657,257.906,113.586,257.906z M113.586,330.021
		c-16.679,0-30.255-13.576-30.255-30.255s13.576-30.27,30.255-30.27c16.694,0,30.255,13.576,30.255,30.27
		S130.265,330.021,113.586,330.021z"/>
	<path style="fill:#FFFFFF;" d="M377.158,257.906c-23.087,0-41.86,18.773-41.86,41.86c0,23.071,18.773,41.86,41.86,41.86
		c23.087,0,41.86-18.773,41.86-41.86C419.033,276.68,400.244,257.906,377.158,257.906z M377.158,330.021
		c-16.679,0-30.255-13.576-30.255-30.255s13.576-30.27,30.255-30.27c16.679,0,30.255,13.576,30.255,30.27
		S393.852,330.021,377.158,330.021z"/>
</g>
<polygon style="fill:#E95353;" points="172.389,273.204 196.267,326.328 294.493,326.328 318.355,273.204 "/>
<path style="opacity:0.25;fill:#FFFFFF;enable-background:new    ;" d="M324.639,121.171c-51.402-9.263-105.146-9.619-158.518,0
	c-37.066,6.687-65.784,33.792-76.257,68.468c1.645,4.763,5.834,8.487,11.109,8.704c7.09,0.434,13.064-5.26,13.064-12.35v-22.9
	c0-5.958,4.965-10.504,11.078-10.364c0,0,0,0,0.14,0c0,0,0,0,0.14,0c5.958-0.14,11.078,4.406,11.078,10.364v25.321
	c0,6.811,4.965,12.769,11.636,13.203c7.121,0.279,12.94-5.229,13.126-12.164v-33.808c0-7.106,5.911-12.769,13.095-12.459
	c6.703,0.403,11.745,6.392,11.745,13.095v32.287c0.186,6.516,5.167,12.272,11.714,12.676c7.246,0.279,13.064-5.384,13.064-12.49
	l0.14-27.508c0-7.09,5.818-12.769,13.064-12.49c6.672,0.419,11.776,6.392,11.776,13.203v29.774
	c0.14,6.672,5.679,12.071,12.35,12.071c6.951,0,12.49-5.679,12.49-12.49v-35.468c0-5.679,4.686-10.364,10.504-10.364
	c7.711,0,11.357,4.561,11.357,9.79v34.707c0,6.811,4.965,12.769,11.636,13.203c7.23,0.279,13.203-5.384,13.203-12.49v-25.879
	c0-5.679,4.686-10.364,10.364-10.364c7.602,0,11.916,5.213,11.916,10.923v19.921c0,6.672,5.104,12.769,11.776,13.064
	c7.09,0.434,13.203-5.26,13.203-12.35v-22.9c0-5.958,4.965-10.504,10.923-10.364c0.14,0,0.14,0,0.14,0c0.14,0,0.14,0,0.279,0
	c5.958-0.14,10.923,4.406,10.923,10.364v25.321c0,6.811,5.104,12.769,11.776,13.203c6.501,0.248,11.621-4.391,12.645-10.473
	C391.199,155.755,362.232,127.967,324.639,121.171z"/>
<g>
</g>
<g>
</g>
<g>
</g>
<g>
</g>
<g>
</g>
<g>
</g>
<g>
</g>
<g>
</g>
<g>
</g>
<g>
</g>
<g>
</g>
<g>
</g>
<g>
</g>
<g>
</g>
<g>
</g>
</svg>
