<?xml version="1.0" encoding="iso-8859-1"?>
<!-- Generator: Adobe Illustrator 19.0.0, SVG Export Plug-In . SVG Version: 6.00 Build 0)  -->
<svg version="1.1" id="Capa_1" xmlns="http://www.w3.org/2000/svg" xmlns:xlink="http://www.w3.org/1999/xlink" x="0px" y="0px"
	 viewBox="0 0 496.485 496.485" style="enable-background:new 0 0 496.485 496.485;" xml:space="preserve">
<polygon style="fill:#FFCB5A;" points="62.061,182.388 0,244.449 0,343.994 126.542,343.994 126.542,182.388 "/>
<polygon style="fill:#168DE2;" points="111.026,260.135 111.026,197.888 68.484,197.888 15.515,250.857 15.515,260.135 "/>
<path style="fill:#6F6F6F;" d="M480.97,343.994H126.542V131.328c0-8.564,6.951-15.515,15.515-15.515H480.97
	c8.564,0,15.515,6.951,15.515,15.515v197.151C496.485,337.043,489.534,343.994,480.97,343.994z"/>
<circle style="fill:#454545;" cx="63.271" cy="343.994" r="36.678"/>
<circle style="fill:#CACACA;" cx="63.271" cy="343.994" r="22.512"/>
<circle style="fill:#454545;" cx="441.592" cy="343.994" r="36.678"/>
<circle style="fill:#CACACA;" cx="441.592" cy="343.994" r="22.512"/>
<circle style="fill:#454545;" cx="340.092" cy="343.994" r="36.678"/>
<circle style="fill:#CACACA;" cx="340.092" cy="343.994" r="22.512"/>
<path style="fill:#686868;" d="M480.97,115.813H142.057c-8.564,0-15.515,6.951-15.515,15.515v71.835
	c0,7.897,6.051,15.112,14.103,15.453c8.394,0.512,15.453-6.222,15.453-14.615v-27.788c0-7.059,5.88-12.428,13.095-12.257
	c0,0,0,0,0.171,0c0,0,0,0,0.171,0c7.059-0.171,13.095,5.213,13.095,12.257v24.219c0,8.052,5.88,15.112,13.762,15.624
	c8.425,0.326,15.313-6.191,15.531-14.398v-25.135c0-8.409,6.997-15.112,15.5-14.739c7.928,0.465,13.886,7.571,13.886,15.5v28.61
	c0.233,7.711,6.113,14.507,13.855,15.003c8.564,0.341,15.453-6.377,15.453-14.77l0.171-32.085c0-8.394,6.889-15.112,15.453-14.786
	c7.897,0.512,13.933,7.556,13.933,15.624v27.757c0.171,7.897,6.718,14.274,14.615,14.274c8.223,0,14.77-6.718,14.77-14.77v-25.367
	c0-6.718,5.539-12.257,12.428-12.257c9.138,0,13.436,5.415,13.436,11.59v27.989c0,8.052,5.88,15.112,13.777,15.608
	c8.564,0.341,15.624-6.377,15.624-14.77v-26.671c0-6.718,5.539-12.257,12.257-12.257c8.983,0,14.103,6.16,14.103,12.924v23.102
	c0,7.897,6.051,15.112,13.933,15.453c8.394,0.512,15.624-6.206,15.624-14.6v-26.64c0-7.059,5.88-12.428,12.924-12.257
	c0.171,0,0.171,0,0.171,0c8.301,0,13.265,5.756,13.265,12.257v25.072c0,8.068,6.051,15.112,13.933,15.608
	c8.564,0.341,15.453-6.377,15.453-14.77v-70.827C496.485,122.748,489.534,115.813,480.97,115.813z"/>
<g>
</g>
<g>
</g>
<g>
</g>
<g>
</g>
<g>
</g>
<g>
</g>
<g>
</g>
<g>
</g>
<g>
</g>
<g>
</g>
<g>
</g>
<g>
</g>
<g>
</g>
<g>
</g>
<g>
</g>
</svg>
