<?xml version="1.0" encoding="iso-8859-1"?>
<!-- Generator: Adobe Illustrator 19.0.0, SVG Export Plug-In . SVG Version: 6.00 Build 0)  -->
<svg version="1.1" id="Capa_1" xmlns="http://www.w3.org/2000/svg" xmlns:xlink="http://www.w3.org/1999/xlink" x="0px" y="0px"
	 viewBox="0 0 496.488 496.488" style="enable-background:new 0 0 496.488 496.488;" xml:space="preserve">
<path style="fill:#FFCB5A;" d="M494.535,303.381v-30.115c-4.158-61.285-138.162-61.285-138.162-61.285
	c-19.766-12.847-37.376-23.071-52.24-31.061c-36.957-19.875-78.429-29.975-120.398-29.091c-21.225,0.45-68.825,3.274-81.47,5.601
	c-47.678,8.766-78.988,53.853-78.988,53.853c-3.584,0.915-6.284,2.731-8.301,5.042c-7.773,8.72-5.896,21.24-5.896,39.626
	c-20.433,29.774,0,54.008,0,54.008l3.987-1.691l6.997-2.948l2.172-0.9l12.784,2.312l52.938,9.604l15.05,2.731l1.288,0.233
	l7.882-4.096l1.458-0.76l242.021,4.856l3.894-2.669l2.669-1.831h82.758l3.832,1.241l6.92,2.25l3.087,1.008
	C509.073,317.577,494.535,303.381,494.535,303.381z"/>
<path style="fill:#168DE2;" d="M335.303,207.993c-11.776-7.23-23.459-14.134-34.832-20.247
	c-34.863-18.742-73.278-28.563-116.565-28.176c-76.847,1.614-109.413,3.646-148.061,48.423H335.303z"/>
<path style="fill:#454545;" d="M114.15,301.208c0,4.856-0.667,9.557-1.955,14.01l-7.882,4.096l-1.288-0.233
	c-6.827,15.112-22,25.616-39.657,25.616c-22.621,0-41.224-17.284-43.303-39.377l-6.997,2.948c-0.326-2.312-0.496-4.686-0.496-7.075
	c0-28.051,22.73-50.781,50.797-50.781C91.42,250.427,114.15,273.157,114.15,301.208z"/>
<g>
	<path style="fill:#ED6262;" d="M40.158,218.947l-25.166-2.622h-0.016c-5.539,6.222-6.051,14.693-6.051,22.823
		c0,0,7.742-1.66,21.628-6.299C44.472,228.225,40.158,218.947,40.158,218.947z"/>
	<path style="fill:#ED6262;" d="M456.818,238.822L456.818,238.822c0,17.361,14.057,31.418,31.387,31.418
		C488.205,252.894,474.148,238.822,456.818,238.822z"/>
</g>
<g>
	<path style="fill:#777777;" d="M111.575,164.21v43.753h-9.309v-42.512C104.236,164.799,110.008,164.21,111.575,164.21z"/>
	<path style="fill:#777777;" d="M193.029,159.71v48.252h-9.309v-48.407C185.861,159.555,191.028,159.493,193.029,159.71z"/>
</g>
<path style="fill:#EC9821;" d="M232.857,225.045h-25.972c-1.474,0-2.669,1.195-2.669,2.669c0,1.474,1.195,2.669,2.669,2.669h25.972
	c1.474,0,2.669-1.195,2.669-2.669C235.525,226.239,234.331,225.045,232.857,225.045z"/>
<path style="fill:#F7BB4F;" d="M367.668,284.281c-6.501-0.388-11.947,4.81-11.947,11.295v-2.312c0,5.461-4.546,9.604-10.131,9.48
	c0,0,0,0-0.124,0c0,0,0,0-0.124,0c-5.461,0.124-10.131-4.034-10.131-9.48v0.109c0-6.237-4.546-11.683-10.643-12.071
	c-6.516-0.248-11.838,4.794-12.009,11.124v7.664c0,6.501-5.399,11.683-11.978,11.404c-6.144-0.372-10.736-5.849-10.736-11.978
	v-6.284c-0.171-5.958-4.732-11.217-10.721-11.605c-6.625-0.264-11.947,4.934-11.947,11.435l-0.124,1.893
	c0,6.501-5.322,11.683-11.947,11.435c-6.097-0.388-10.783-5.849-10.783-12.086v-3.972c-0.124-6.097-5.198-11.031-11.295-11.031
	c-6.361,0-11.435,5.198-11.435,11.419v9.201c0,5.198-4.282,9.48-9.604,9.48h-0.776c-5.198,0.388-9.619-3.894-9.619-8.952v-8.487
	c0-6.237-4.546-11.683-10.643-12.071c-6.625-0.264-12.071,4.934-12.071,11.435v0.403c0,4.918-3.662,9.48-10.256,9.48
	c-5.585,0-10.131-4.546-10.131-10.007v5.042c0-6.113-4.67-11.683-10.783-11.947c-6.485-0.388-12.086,4.81-12.086,11.295v-2.312
	c0,5.461-4.546,9.604-9.992,9.48c-0.124,0-0.124,0-0.124,0c-0.124,0-0.124,0-0.264,0c-5.461,0.124-10.007-4.034-10.007-9.48v0.109
	c0-6.237-4.67-11.683-10.783-12.071c-6.625-0.264-11.947,4.934-11.947,11.435v24.452l10.55,1.908l1.288,0.233l7.882-4.096
	l1.458-0.745l242.021,4.856l3.894-2.669l2.669-1.831h16.306v-18.587C378.575,290.131,373.905,284.545,367.668,284.281z"/>
<path style="fill:#454545;" d="M458.742,301.208c0,6.004-1.04,11.776-2.963,17.113l-6.92-2.25
	c-6.066,16.694-22.094,28.641-40.882,28.641c-19.254,0-35.607-12.521-41.317-29.882h-4.391l-2.669,1.831
	c-1.552-4.872-2.389-10.054-2.389-15.438c0-28.051,22.73-50.781,50.781-50.781C436.012,250.427,458.742,273.157,458.742,301.208z"/>
<path style="fill:#6F6F6F;" d="M63.369,257.719c-24.017,0-43.504,19.471-43.504,43.489c0,1.396,0.062,2.762,0.202,4.127
	c2.064,22.094,20.682,39.377,43.303,39.377c17.656,0,32.83-10.519,39.641-25.616c2.467-5.446,3.832-11.497,3.832-17.889
	C106.858,277.175,87.402,257.719,63.369,257.719z"/>
<circle style="fill:#CACACA;" cx="63.369" cy="301.208" r="28.889"/>
<path style="fill:#6F6F6F;" d="M407.961,257.719c-24.017,0-43.504,19.471-43.504,43.489c0,4.763,0.76,9.34,2.172,13.622
	c5.71,17.361,22.063,29.882,41.317,29.882c18.804,0,34.832-11.947,40.898-28.641c1.691-4.639,2.607-9.635,2.607-14.864
	C451.465,277.175,431.994,257.719,407.961,257.719z"/>
<circle style="fill:#CACACA;" cx="407.961" cy="301.208" r="28.889"/>
<g>
</g>
<g>
</g>
<g>
</g>
<g>
</g>
<g>
</g>
<g>
</g>
<g>
</g>
<g>
</g>
<g>
</g>
<g>
</g>
<g>
</g>
<g>
</g>
<g>
</g>
<g>
</g>
<g>
</g>
</svg>
