<?xml version="1.0" encoding="iso-8859-1"?>
<!-- Generator: Adobe Illustrator 19.0.0, SVG Export Plug-In . SVG Version: 6.00 Build 0)  -->
<svg version="1.1" id="Capa_1" xmlns="http://www.w3.org/2000/svg" xmlns:xlink="http://www.w3.org/1999/xlink" x="0px" y="0px"
	 viewBox="0 0 496.485 496.485" style="enable-background:new 0 0 496.485 496.485;" xml:space="preserve">
<path style="fill:#ED6262;" d="M480.97,83.192H62.061C27.788,83.192,0,110.98,0,145.253v201.045c0,8.564,6.951,15.515,15.515,15.515
	H480.97c8.564,0,15.515-6.951,15.515-15.515V98.707C496.485,90.143,489.534,83.192,480.97,83.192z"/>
<path style="fill:#FFCB5A;" d="M480.97,83.192H62.061C27.788,83.192,0,110.98,0,145.253V258.7h496.485V98.707
	C496.485,90.143,489.534,83.192,480.97,83.192z"/>
<g>
	<rect x="328.44" y="129.738" style="fill:#0F71C7;" width="79.438" height="104.355"/>
	<rect x="135.137" y="129.738" style="fill:#0F71C7;" width="79.438" height="104.355"/>
	<path style="fill:#0F71C7;" d="M117.915,129.738H62.061c-8.549,0-15.515,6.951-15.515,15.515v88.84h71.37V129.738z"/>
	<rect x="425.1" y="129.738" style="fill:#0F71C7;" width="71.385" height="104.355"/>
</g>
<rect x="178.735" y="129.738" style="fill:#F3F3F3;" width="92.781" height="232.076"/>
<rect x="194.25" y="145.253" style="fill:#168DE2;" width="61.75" height="75.248"/>
<rect x="271.515" y="129.738" style="fill:#E5E5E5;" width="92.781" height="232.076"/>
<rect x="287.03" y="145.253" style="fill:#168DE2;" width="61.75" height="75.248"/>
<circle style="fill:#454545;" cx="72.27" cy="361.813" r="51.479"/>
<circle style="fill:#777777;" cx="72.27" cy="361.813" r="31.853"/>
<circle style="fill:#454545;" cx="424.2" cy="361.813" r="51.479"/>
<circle style="fill:#777777;" cx="424.2" cy="361.813" r="31.853"/>
<path style="opacity:0.25;fill:#FFFFFF;enable-background:new    ;" d="M496.485,258.7H0v34.847
	c0,10.597,8.114,20.294,18.928,20.744c11.264,0.683,20.728-8.347,20.728-19.611v2.42c0-9.464,7.882-16.679,17.579-16.446
	c0,0,0,0,0.233,0c0,0,0,0,0.217,0c9.464-0.233,17.579,6.982,17.579,16.446v1.412c0,10.814,7.882,20.278,18.479,20.961
	c11.311,0.434,20.542-8.301,20.852-19.316v-14.895c0-11.279,9.387-20.278,20.806-19.782c10.643,0.636,18.634,10.147,18.634,20.79
	v12.474c0.31,10.349,8.208,19.487,18.587,20.139c11.497,0.45,20.728-8.564,20.728-19.828l0.233-4.887
	c0-11.264,9.232-20.294,20.728-19.828c10.597,0.683,18.711,10.147,18.711,20.961v8.502c0.217,10.597,9.014,19.161,19.611,19.161
	c11.047,0,19.828-9.014,19.828-19.828v-17.563c0-9.014,7.447-16.446,16.679-16.446c12.226,0,18.029,7.215,18.029,15.546v16.322
	c0,10.814,7.882,20.278,18.479,20.961c11.497,0.45,20.961-8.564,20.961-19.828v-2.312c0-9.014,7.432-16.446,16.446-16.446h1.35
	c9.697,0,17.579,7.882,17.579,17.346v-7.168c0,10.597,8.114,20.294,18.711,20.744c11.264,0.683,20.961-8.347,20.961-19.611v2.42
	c0-9.464,7.882-16.679,17.346-16.446c0.233,0,0.233,0,0.233,0c0.233,0,0.233,0,0.45,0c9.464-0.233,17.346,6.982,17.346,16.446v1.412
	c0,10.814,8.114,20.278,18.711,20.961c11.497,0.45,20.728-8.564,20.728-19.828V258.7H496.485z"/>
<path style="fill:#FFBD49;" d="M480.97,83.192H62.061c-24.405,0-45.32,14.212-55.451,34.707c3.274,1.862,7.447,3.196,12.319,3.305
	c11.264,0.403,20.728-4.903,20.728-11.512v-3.119c0-5.554,7.882-9.79,17.579-9.666c0,0,0,0,0.233,0c0,0,0,0,0.233,0
	c9.464-0.14,17.579,4.096,17.579,9.666v5.384c0,6.346,7.882,11.916,18.479,12.304c11.295,0.264,20.542-4.872,20.852-11.342V99.623
	c0-6.625,9.387-11.916,20.806-11.621c10.643,0.372,18.634,5.958,18.634,12.21v11.885c0.31,6.066,8.208,11.435,18.587,11.823
	c11.497,0.264,20.744-5.027,20.744-11.652l0.217-7.432c0-6.609,9.232-11.916,20.728-11.652c10.597,0.403,18.711,5.958,18.711,12.304
	v9.542c0.233,6.222,9.014,11.248,19.611,11.248c11.047,0,19.828-5.291,19.828-11.652V99.793c0-5.291,7.432-9.666,16.679-9.666
	c7.184,0,18.029,2.001,18.029,9.138v14.15c0,6.346,7.882,11.916,18.479,12.304c11.481,0.264,20.945-5.027,20.945-11.652v-5.911
	c0-5.291,7.432-9.666,16.446-9.666c7.525,0,18.928,2.731,18.928,10.193v0.357c0,6.222,8.114,11.916,18.711,12.179
	c11.264,0.403,20.961-4.903,20.961-11.512v-3.134c0-5.554,7.897-9.79,17.361-9.666c0.233,0,0.233,0,0.233,0c0.217,0,0.217,0,0.45,0
	c9.464-0.14,17.346,4.096,17.346,9.666v5.384c0,6.346,8.114,11.916,18.711,12.304c11.481,0.264,20.713-5.027,20.728-11.636V98.707
	C496.485,90.143,489.534,83.192,480.97,83.192z"/>
<path style="fill:#FFCB5A;" d="M495.895,301.444H480.97c-8.254,0-14.941-6.687-14.941-14.941l0,0
	c0-8.239,6.687-14.926,14.941-14.926h14.926V301.444z"/>
<g>
</g>
<g>
</g>
<g>
</g>
<g>
</g>
<g>
</g>
<g>
</g>
<g>
</g>
<g>
</g>
<g>
</g>
<g>
</g>
<g>
</g>
<g>
</g>
<g>
</g>
<g>
</g>
<g>
</g>
</svg>
