<?xml version="1.0" encoding="iso-8859-1"?>
<!-- Generator: Adobe Illustrator 19.0.0, SVG Export Plug-In . SVG Version: 6.00 Build 0)  -->
<svg version="1.1" id="Capa_1" xmlns="http://www.w3.org/2000/svg" xmlns:xlink="http://www.w3.org/1999/xlink" x="0px" y="0px"
	 viewBox="0 0 496.485 496.485" style="enable-background:new 0 0 496.485 496.485;" xml:space="preserve">
<polygon style="fill:#E5E5E5;" points="418.909,144.787 325.818,144.787 325.818,290.785 14.584,290.785 14.584,368.361 
	496.485,368.361 496.485,237.878 "/>
<path style="fill:#DDDDDD;" d="M496.485,331.311c0-10.287-7.866-19.689-18.37-20.123c-10.938-0.652-20.123,8.099-20.123,19.037
	v4.592c0,9.185-7.649,16.182-17.067,15.965c0,0,0,0-0.217,0c0,0,0,0-0.217,0c-9.185,0.217-17.067-6.78-17.067-15.965v-0.559
	c0-10.504-7.649-19.689-17.936-20.34c-10.969-0.419-19.937,8.052-20.232,18.742v5.896c0,10.954-9.107,19.689-20.185,19.192
	c-10.333-0.621-18.091-9.852-18.091-20.185v-3.537c-0.295-10.038-7.959-18.913-18.044-19.549
	c-11.155-0.434-20.123,8.301-20.123,19.239l-0.217-3.817c0,10.938-8.968,19.689-20.123,19.254
	c-10.287-0.652-18.153-9.852-18.153-20.34v0.326c-0.217-10.287-8.751-18.587-19.037-18.587c-10.721,0-19.254,8.751-19.254,19.254
	v8.471c0,8.378-6.237,15.965-17.501,15.965c-8.751,0.652-16.182-6.563-16.182-15.096v-7.277c0-10.504-7.649-19.689-17.936-20.34
	c-11.155-0.434-20.34,8.316-20.34,19.239v1.427c0,8.347-6.206,15.965-17.284,15.965c-9.402,0-17.067-7.649-17.067-16.834v-7.758
	c0-10.287-7.882-19.689-18.153-20.123c-10.938-0.652-20.34,8.099-20.34,19.037v12.35c0,9.185-7.664,16.182-16.849,15.965
	c-0.217,0-0.217,0-0.217,0c-0.217,0-0.217,0-0.434,0c-9.185,0.217-16.849-6.78-16.849-15.965v-8.316
	c0-10.504-7.882-19.689-18.153-20.34C23.567,305.741,14.6,314.492,14.6,325.43v42.946h481.885V331.311z"/>
<polygon style="fill:#168DE2;" points="477.277,239.073 411.633,160.303 341.271,160.303 341.271,239.073 "/>
<rect y="76.893" style="fill:#FFCB5A;" width="325.818" height="213.892"/>
<circle style="fill:#454545;" cx="91.85" cy="368.33" r="51.231"/>
<circle style="fill:#777777;" cx="91.85" cy="368.33" r="27.912"/>
<path style="fill:#454545;" d="M411.12,317.13c-28.3,0-51.231,22.931-51.231,51.231s22.947,51.231,51.231,51.231
	C478.875,419.592,478.798,317.13,411.12,317.13z"/>
<circle style="fill:#777777;" cx="411.12" cy="368.33" r="27.912"/>
<path style="opacity:0.25;fill:#FFFFFF;enable-background:new    ;" d="M325.834,76.893H0v73.79c0,6.951,5.322,13.312,12.428,13.607
	c7.401,0.45,13.607-5.477,13.607-12.862V127.55c0-6.206,5.182-10.954,11.543-10.799c0,0,0,0,0.155,0c0,0,0,0,0.155,0
	c6.206-0.155,11.528,4.577,11.528,10.799v26.376c0,7.106,5.182,13.312,12.133,13.762c7.416,0.295,13.483-5.446,13.684-12.676
	v-35.235c0-7.401,6.16-13.312,13.653-12.986c6.997,0.419,12.226,6.656,12.226,13.653v33.652c0.202,6.78,5.384,12.785,12.195,13.219
	c7.54,0.295,13.607-5.616,13.607-13.017l0.14-28.672c0-7.401,6.066-13.312,13.607-13.017c6.951,0.45,12.272,6.656,12.272,13.762
	v31.03c0.155,6.951,5.911,12.567,12.862,12.567c7.246,0,13.017-5.911,13.017-13.017v-36.973c0-5.632,4.205-10.799,11.838-10.799
	c5.911-0.45,10.938,4.437,10.938,10.209v36.166c0,7.106,5.182,13.312,12.133,13.762c7.54,0.295,13.762-5.616,13.762-13.017v-26.965
	c0-5.601,4.158-10.799,11.683-10.799c6.361,0,11.543,5.167,11.543,11.388v20.759c0,6.951,5.322,13.312,12.272,13.607
	c7.401,0.45,13.762-5.477,13.762-12.862V127.55c0-6.206,5.182-10.954,11.388-10.799c0.155,0,0.155,0,0.155,0c0.14,0,0.14,0,0.295,0
	c6.206-0.155,11.388,4.577,11.388,10.799v26.376c0,7.106,5.322,13.312,12.272,13.762c7.54,0.295,13.607-5.617,13.607-13.017V76.893
	H325.834z"/>
<g>
</g>
<g>
</g>
<g>
</g>
<g>
</g>
<g>
</g>
<g>
</g>
<g>
</g>
<g>
</g>
<g>
</g>
<g>
</g>
<g>
</g>
<g>
</g>
<g>
</g>
<g>
</g>
<g>
</g>
</svg>
