<?xml version="1.0" encoding="iso-8859-1"?>
<!-- Generator: Adobe Illustrator 19.0.0, SVG Export Plug-In . SVG Version: 6.00 Build 0)  -->
<svg version="1.1" id="Capa_1" xmlns="http://www.w3.org/2000/svg" xmlns:xlink="http://www.w3.org/1999/xlink" x="0px" y="0px"
	 viewBox="0 0 496.485 496.485" style="enable-background:new 0 0 496.485 496.485;" xml:space="preserve">
<rect x="219.927" y="248.242" style="fill:#FFBD49;" width="56.615" height="248.242"/>
<g>
	<rect x="219.927" y="359.052" style="fill:#EC9821;" width="56.615" height="22.854"/>
	<rect x="219.927" y="409.91" style="fill:#EC9821;" width="56.615" height="22.854"/>
	<rect x="219.927" y="460.8" style="fill:#EC9821;" width="56.615" height="22.854"/>
</g>
<polygon style="fill:#ED6262;" points="248.242,8.952 107.318,90.314 107.318,253.052 248.242,334.429 389.167,253.052 
	389.167,90.314 "/>
<path style="opacity:0.25;fill:#FFFFFF;enable-background:new    ;" d="M194.808,276.356c-0.465,7.292-6.827,12.567-14.274,12.567
	h-11.171l-62.061-35.84V90.329l62.681-36.15h8.068c7.602,0,13.653,6.516,13.188,14.119c-0.31,7.137-6.827,12.722-13.964,12.722
	H155.71c-6.361,0-11.636,5.275-11.636,11.947c0,7.804,5.368,12.102,11.171,12.102h27.772c7.602,0,13.808,6.361,13.498,14.119
	c-0.465,7.137-6.982,12.567-14.274,12.567h-37.392c-5.896,0-11.016,5.12-10.55,11.326c0,7.835,5.384,12.257,11.171,12.257h38.167
	c7.447,0,13.498,5.896,13.498,13.343c0,7.137-5.741,13.188-13.033,13.343h-31.961c-7.292,0-13.808,5.43-14.274,12.722
	c-0.31,7.758,5.896,13.964,13.498,13.964L181,208.865c7.602,0,13.653,6.361,13.343,14.119c-0.31,6.982-6.516,12.412-13.653,12.567
	h-34.754c-7.137,0-13.653,5.43-13.964,12.567c-0.465,7.758,5.741,14.119,13.343,14.119h36.461
	C189.223,262.547,195.119,268.753,194.808,276.356z"/>
<path style="fill:#E05F5F;" d="M389.213,90.329v162.754l-62.681,36.15h-8.068c-7.602,0-13.653-6.516-13.188-14.119
	c0.155-7.292,6.827-12.722,13.964-12.722h21.411c6.128,0,11.792-4.624,11.792-12.878c0-6.051-4.965-11.171-11.171-11.171h-27.772
	c-7.758,0-13.808-6.361-13.498-14.119c0.465-7.292,6.827-12.567,14.274-12.567h37.236c5.679,0,10.55-3.925,10.55-12.257
	c0-6.206-4.965-11.326-11.016-11.326h-38.322c-7.292,0-13.343-5.896-13.343-13.343c0-7.292,5.741-13.188,12.878-13.343h32.116
	c7.292,0,13.808-5.585,14.274-12.722c0.31-7.758-5.896-13.964-13.498-13.964l-29.634-0.155c-7.602,0-13.808-6.361-13.498-14.119
	c0.465-6.982,6.672-12.412,13.653-12.567h34.754c7.292,0,13.653-5.43,14.119-12.722c0.31-7.758-5.741-14.119-13.343-14.119H314.74
	c-7.447-0.155-13.343-6.361-13.033-14.119c0.465-7.137,6.827-12.412,14.119-12.412h11.171L389.213,90.329z"/>
<path style="fill:#F3F3F3;" d="M248.242,343.381L99.561,257.536V85.83L248.242,0l148.682,85.83V257.52L248.242,343.381z
	 M115.076,248.568l133.167,76.909l133.167-76.909V94.798L248.242,17.904L115.076,94.798V248.568z"/>
<path style="fill:#FFFFFF;" d="M194.762,254.417V88.964h53.605c20.309,0,33.559,0.822,39.734,2.482
	c9.48,2.482,17.423,7.882,23.816,16.198c6.392,8.316,9.588,19.053,9.588,32.225c0,10.162-1.846,18.696-5.523,25.616
	c-3.693,6.92-8.378,12.366-14.057,16.306c-5.679,3.956-11.45,6.563-17.33,7.851c-7.975,1.583-19.518,2.374-34.645,2.374h-21.783
	v62.417h-33.404V254.417z M228.166,116.953v46.949h18.277c13.172,0,21.969-0.869,26.407-2.591c4.437-1.738,7.913-4.437,10.442-8.13
	c2.529-3.693,3.786-7.975,3.786-12.862c0-6.02-1.769-10.985-5.306-14.895s-8.021-6.361-13.436-7.339
	c-3.987-0.76-11.993-1.133-24.033-1.133L228.166,116.953L228.166,116.953z"/>
<g>
</g>
<g>
</g>
<g>
</g>
<g>
</g>
<g>
</g>
<g>
</g>
<g>
</g>
<g>
</g>
<g>
</g>
<g>
</g>
<g>
</g>
<g>
</g>
<g>
</g>
<g>
</g>
<g>
</g>
</svg>
