<?xml version="1.0" encoding="iso-8859-1"?>
<!-- Generator: Adobe Illustrator 19.0.0, SVG Export Plug-In . SVG Version: 6.00 Build 0)  -->
<svg version="1.1" id="Capa_1" xmlns="http://www.w3.org/2000/svg" xmlns:xlink="http://www.w3.org/1999/xlink" x="0px" y="0px"
	 viewBox="0 0 496.485 496.485" style="enable-background:new 0 0 496.485 496.485;" xml:space="preserve">
<circle style="fill:#6F6F6F;" cx="248.242" cy="248.242" r="248.242"/>
<path style="fill:#777777;" d="M437.651,150.528c9.557,0.372,17.237-7.121,17.237-16.493v-23.707C410.36,43.815,334.569,0,248.522,0
	S86.683,43.815,42.139,110.328v24.886c0,8.813,6.749,16.865,15.732,17.237c9.371,0.559,17.237-6.935,17.237-16.306V86.233
	c0-7.866,6.563-13.871,14.615-13.684c0,0,0,0,0.186,0c0,0,0,0,0.186,0c7.866-0.186,14.615,5.803,14.615,13.684v45.925
	c0,8.983,6.563,16.865,15.36,17.424c9.402,0.357,17.082-6.904,17.33-16.058V86.575c0-9.387,7.804-16.865,17.299-16.446
	c8.859,0.528,15.5,8.44,15.5,17.284v50.828c0.264,8.595,6.827,16.198,15.453,16.741c9.557,0.372,17.237-7.121,17.237-16.477
	l0.186-54.706c0-9.371,7.68-16.865,17.237-16.493c8.813,0.559,15.546,8.425,15.546,17.424v49.866
	c0.186,8.813,7.494,15.919,16.306,15.919c9.185,0,16.493-7.494,16.493-16.493V86.823c0-7.494,6.191-13.669,13.871-13.669
	c10.178,0,14.988,6.02,14.988,12.924v50.129c0,8.999,6.563,16.865,15.36,17.424c9.557,0.372,17.423-7.121,17.423-16.493V88.483
	c0-7.137,5.306-13.684,14.801-13.684c8.052,0,14.615,6.547,14.615,14.429v44.684c0,8.813,6.749,16.865,15.546,17.237
	c9.371,0.559,17.423-6.935,17.423-16.291V86.233c0-7.246,5.601-13.684,14.615-13.684c0.186,0,0.186,0,0.372,0
	c7.866-0.186,14.429,5.803,14.429,13.684v46.871C422.105,142.088,428.854,149.969,437.651,150.528z"/>
<circle style="fill:#F3F3F3;" cx="248.242" cy="248.242" r="180.705"/>
<g>
	<path style="fill:#168DE2;" d="M267.745,239.538c-4.856-10.876-17.61-15.763-28.486-10.907
		c-10.876,4.856-15.763,17.594-10.907,28.486c4.856,10.876,17.594,15.763,28.486,10.923
		C267.714,263.168,272.601,250.415,267.745,239.538z M253.052,259.537c-6.191,2.762-13.436-0.016-16.198-6.206
		c-2.762-6.191,0.016-13.436,6.206-16.198c6.191-2.762,13.436,0.016,16.198,6.206C262.02,249.515,259.243,256.776,253.052,259.537z"
		/>
	<path style="fill:#168DE2;" d="M267.745,239.538c-2.482-5.554-7.013-9.511-12.319-11.45l88.529-22.528l-75.931,50.797
		C270.134,251.128,270.227,245.093,267.745,239.538z"/>
</g>
<path style="fill:#E5E5E5;" d="M376.941,135.385c0.155,0,0.155,0,0.31,0c6.377-0.155,11.698,4.717,11.698,11.093v37.997
	c0,7.292,5.461,13.669,12.614,14.119c7.742,0.295,13.964-5.772,13.964-13.359v-5.26c-26.95-65.939-91.648-112.438-167.284-112.438
	S107.908,114.036,80.974,179.976v6.175c0,7.137,5.461,13.669,12.753,13.979c7.587,0.45,13.964-5.616,13.964-13.219v-40.448
	c0-6.377,5.322-11.233,11.838-11.093c0,0,0,0,0.155,0c0,0,0,0,0.155,0c6.377-0.155,11.838,4.717,11.838,11.093v37.221
	c0,7.292,5.322,13.669,12.443,14.119c7.618,0.295,13.84-5.601,14.057-13.017v-38.043c0-7.602,6.33-13.669,14.01-13.328
	c7.168,0.434,12.552,6.842,12.552,14.01v41.193c0.202,6.966,5.523,13.126,12.536,13.576c7.742,0.31,13.964-5.772,13.964-13.359
	l0.155-44.342c0-7.587,6.222-13.669,13.964-13.359c7.137,0.45,12.598,6.827,12.598,14.119v40.417
	c0.155,7.137,6.082,12.909,13.219,12.909c7.447,0,13.359-6.082,13.359-13.359v-38.276c0-6.082,5.011-11.078,11.233-11.078
	c8.239,0,12.148,4.856,12.148,10.473v40.634c0,7.292,5.322,13.669,12.459,14.119c7.742,0.31,14.119-5.772,14.119-13.359v-39.439
	c0-5.787,4.298-11.093,11.993-11.093c6.532,0,11.838,5.306,11.838,11.698v36.228c0,7.137,5.461,13.669,12.598,13.979
	c7.587,0.465,14.119-5.616,14.119-13.203v-39.44c0-6.377,5.306-11.233,11.683-11.093
	C376.941,135.385,376.941,135.385,376.941,135.385z"/>
<g>
	<rect x="241.261" y="87.056" style="fill:#777777;" width="13.964" height="49.09"/>
	<rect x="356.895" y="237.832" style="fill:#777777;" width="49.09" height="13.964"/>
	<rect x="90.484" y="237.832" style="fill:#777777;" width="49.09" height="13.964"/>
	
		<rect x="335.446" y="126.053" transform="matrix(-0.7071 -0.7071 0.7071 -0.7071 478.0665 499.2318)" style="fill:#777777;" width="13.963" height="49.105"/>
	
		<rect x="129.49" y="143.637" transform="matrix(-0.7069 -0.7073 0.7073 -0.7069 156.4022 366.0464)" style="fill:#777777;" width="49.105" height="13.963"/>
	
		<rect x="297.115" y="98.077" transform="matrix(-0.9217 -0.3879 0.3879 -0.9217 537.5873 338.2583)" style="fill:#777777;" width="11.636" height="33.59"/>
	
		<rect x="372.96" y="174.81" transform="matrix(-0.3772 -0.9261 0.9261 -0.3772 344.2243 614.6734)" style="fill:#777777;" width="11.652" height="33.574"/>
	
		<rect x="111.882" y="281.224" transform="matrix(-0.3772 -0.9261 0.9261 -0.3772 -113.8877 519.4372)" style="fill:#777777;" width="11.652" height="33.574"/>
	
		<rect x="361.4" y="293.696" transform="matrix(-0.9217 -0.388 0.388 -0.9217 610.5577 722.3013)" style="fill:#777777;" width="33.592" height="11.637"/>
	
		<rect x="101.476" y="184.269" transform="matrix(-0.9218 -0.3876 0.3876 -0.9218 153.6006 411.1542)" style="fill:#777777;" width="33.574" height="11.636"/>
	
		<rect x="178.265" y="108.452" transform="matrix(-0.3777 -0.9259 0.9259 -0.3777 162.9199 338.0341)" style="fill:#777777;" width="33.574" height="11.636"/>
</g>
<g>
</g>
<g>
</g>
<g>
</g>
<g>
</g>
<g>
</g>
<g>
</g>
<g>
</g>
<g>
</g>
<g>
</g>
<g>
</g>
<g>
</g>
<g>
</g>
<g>
</g>
<g>
</g>
<g>
</g>
</svg>
