<?xml version="1.0" encoding="iso-8859-1"?>
<!-- Generator: Adobe Illustrator 19.0.0, SVG Export Plug-In . SVG Version: 6.00 Build 0)  -->
<svg version="1.1" id="Capa_1" xmlns="http://www.w3.org/2000/svg" xmlns:xlink="http://www.w3.org/1999/xlink" x="0px" y="0px"
	 viewBox="0 0 494.437 494.437" style="enable-background:new 0 0 494.437 494.437;" xml:space="preserve">
<path style="fill:#F3F3F3;" d="M358.943,494.437c-0.031-2.079-0.357-4.08-0.621-6.097c0.279-2.126,0.652-4.236,0.652-6.439
	c0-27.353-22.171-49.524-49.524-49.524c-3.739,0-7.354,0.496-10.861,1.272l-21.876-113.695h-58.694l-17.315,89.988
	c-14.801,6.47-25.771,19.937-28.812,36.228c-22.869,4.267-40.2,24.188-40.37,48.252h227.421V494.437z"/>
<path style="fill:#ED6262;" d="M247.234,192.279c-87.304,0-158.348,71.028-158.348,158.332c0,23.723,5.275,46.763,15.701,68.453
	c3.212,6.672,10.69,10.085,17.625,8.347c7.106-1.707,12.055-8.161,11.869-15.484c0-70.175,54.117-116.317,113.136-116.317
	c59.283,0,113.136,46.654,113.136,116.302c-0.202,7.323,4.748,13.777,11.869,15.484c7.075,1.784,14.46-1.753,17.625-8.347
	c10.426-21.706,15.701-44.715,15.701-68.437C405.582,263.308,334.553,192.279,247.234,192.279z"/>
<path style="fill:#E5E5E5;" d="M304.33,380.509c80.291-101.795,73.635-249.778-20.309-343.723L247.234,0l-36.786,36.786
	c-93.944,93.944-100.6,241.928-20.309,343.723H304.33z"/>
<path style="fill:#F3F3F3;" d="M261.725,364.529c0.574-9.511-7.044-17.501-16.555-17.501h-46.918
	c-7.99,0-14.072-6.656-13.886-14.832c0,0,0,0,0-0.186c0,0,0,0,0-0.186c-0.186-7.99,5.896-14.832,13.886-14.832h50.16
	c9.123,0,17.129-6.656,17.687-15.593c0.372-9.542-7.013-17.346-16.306-17.594h-61.549c-9.526,0-17.129-7.913-16.694-17.563
	c0.528-8.983,8.564-15.732,17.548-15.732h59.501c8.735-0.264,16.446-6.935,17.005-15.701c0.372-9.697-7.23-17.501-16.741-17.501
	l-53.093-0.186c-9.511,0-17.129-7.804-16.741-17.501c0.574-8.937,8.564-15.794,17.687-15.794h56.134
	c8.937-0.186,16.167-7.602,16.167-16.555c0-9.325-7.602-16.741-16.741-16.741h-63.783c-7.602,0-13.886-6.284-13.886-14.072
	c0-10.349,6.128-15.22,13.126-15.22h62.743c9.138,0,17.113-6.656,17.687-15.593c0.372-9.697-7.23-17.687-16.741-17.687h-50.89
	c-7.215,0-13.886-5.368-13.886-15.019c0-8.176,6.656-14.832,14.646-14.832h42.93c8.937,0,17.129-6.842,17.501-15.794
	c0.574-9.511-7.044-17.687-16.555-17.687h-22.512l-12.21,12.21c-93.944,93.898-100.6,241.881-20.309,343.676h54.07
	C253.161,380.509,261.337,373.667,261.725,364.529z"/>
<circle style="fill:#FFFFFF;" cx="247.234" cy="144.058" r="61.921"/>
<circle style="fill:#168DE2;" cx="247.234" cy="144.058" r="46.173"/>
<path style="fill:#EC9821;" d="M163.266,338.572c7.509,14.6,16.415,28.672,26.872,41.937H304.33
	c10.457-13.265,19.363-27.338,26.872-41.937H163.266z"/>
<g>
</g>
<g>
</g>
<g>
</g>
<g>
</g>
<g>
</g>
<g>
</g>
<g>
</g>
<g>
</g>
<g>
</g>
<g>
</g>
<g>
</g>
<g>
</g>
<g>
</g>
<g>
</g>
<g>
</g>
</svg>
