<?xml version="1.0" encoding="iso-8859-1"?>
<!-- Generator: Adobe Illustrator 19.0.0, SVG Export Plug-In . SVG Version: 6.00 Build 0)  -->
<svg version="1.1" id="Capa_1" xmlns="http://www.w3.org/2000/svg" xmlns:xlink="http://www.w3.org/1999/xlink" x="0px" y="0px"
	 viewBox="0 0 496.485 496.485" style="enable-background:new 0 0 496.485 496.485;" xml:space="preserve">
<path style="fill:#ED6262;" d="M445.456,57.127H51.029c-8.208,0-14.864,6.656-14.864,14.864s6.656,14.879,14.864,14.879h394.426
	c8.207,0,14.864-6.656,14.864-14.864S453.663,57.127,445.456,57.127z"/>
<path style="fill:#3AA2EB;" d="M389.585,43.396v57.158h-6.377c-34.149,0-66.42,12.257-94.813,31.263
	c-0.062,0.062-0.124,0.093-0.186,0.14c-11.404,7.711-18.96,19.921-18.96,33.683v18.727h-42.031V165.64
	c0-13.777-7.556-25.972-18.96-33.683c-0.047-0.047-0.109-0.078-0.171-0.124c-28.393-19.006-60.664-31.263-94.813-31.263h-6.377
	V43.396h6.501c34.149,0,66.42-12.257,94.813-31.263C219.726,4.499,233.363,0,248.242,0c14.957,0,28.781,4.546,40.2,12.241
	c28.036,18.913,60.013,31.154,93.836,31.154H389.585z"/>
<path style="fill:#0F71C7;" d="M298.248,144.415c-33.327,0-66.669,0-99.995,0c-41.953,0.822-75.124,36.15-72.192,77.312
	c2.467,37.05,4.903,74.519,7.323,112.361c2.498,38.369,33.016,81.082,71.664,86.668c28.672,3.91,57.763,3.91,86.435,0
	c38.648-5.585,69.167-48.314,71.664-86.668c2.405-37.857,4.841-75.311,7.323-112.361
	C373.357,180.596,340.201,145.237,298.248,144.415z"/>
<g>
	<path style="opacity:0.25;fill:#FFFFFF;enable-background:new    ;" d="M117.682,84.806c6.408,0.388,11.807-4.748,11.807-11.171
		V52.938c0-5.384,4.484-9.495,10.007-9.371c0,0,0,0,0.124,0c0,0,0,0,0.124,0c5.384-0.124,10.007,3.987,10.007,9.371v22.885
		c0,6.16,4.499,11.543,10.519,11.931c6.439,0.248,11.698-4.732,11.869-11V46.189c0-6.423,5.337-11.543,11.838-11.264
		c6.066,0.357,10.612,5.772,10.612,11.838v29.184c0.171,5.896,4.67,11.093,10.581,11.466c6.547,0.248,11.807-4.872,11.807-11.295
		l0.124-24.871c0-6.408,5.26-11.543,11.807-11.295c6.035,0.388,10.643,5.772,10.643,11.931v26.919
		c0.124,6.035,5.136,10.907,11.171,10.907c6.284,0,11.295-5.136,11.295-11.295V46.375c0-4.934,3.677-9.371,10.271-9.371
		c5.135-0.388,9.495,3.848,9.495,8.859V77.25c0,6.16,4.484,11.543,10.519,11.931c6.547,0.264,11.931-4.872,11.931-11.28V54.474
		c0-5.136,4.236-9.371,9.371-9.371c6.858,0,10.783,4.717,10.783,9.883v18.013c0,6.035,4.624,11.543,10.643,11.807
		c6.408,0.388,11.931-4.748,11.931-11.171V52.938c0-4.918,3.786-9.371,10.007-9.371c0.124,0,0.124,0,0.248,0
		c5.384-0.124,9.883,3.987,9.883,9.371v22.885c0,6.16,4.624,11.543,10.659,11.931c6.547,0.264,11.807-4.872,11.807-11.28V43.396
		h-7.323c-33.823,0-65.8-12.241-93.836-31.154C277.023,4.546,263.199,0,248.242,0c-14.879,0-28.517,4.499-40.029,12.133
		c-28.393,19.006-60.664,31.279-94.813,31.279h-6.501v29.603C106.899,79.034,111.523,84.558,117.682,84.806z"/>
	<path style="opacity:0.25;fill:#FFFFFF;enable-background:new    ;" d="M126.045,221.727c2.467,37.05,4.903,74.519,7.323,112.361
		c2.032,31.279,22.823,65.086,51.324,79.67h17.889c5.741,0,11-4.406,11.249-10.271c0.372-6.113-4.53-11.249-10.643-11.249h-19.735
		c-5.136,0-9.045-4.282-8.921-9.542c0,0,0,0,0-0.124c0,0,0,0,0-0.124c-0.124-5.135,3.786-9.542,8.921-9.542h21.814
		c5.865,0,11-4.282,11.373-10.023c0.233-6.128-4.499-11.14-10.473-11.311h-29.122c-6.128,0-11-5.089-10.736-11.28
		c0.341-5.772,5.508-10.116,11.28-10.116h27.819c5.617-0.171,10.566-4.453,10.923-10.085c0.248-6.237-4.639-11.249-10.752-11.249
		l-23.692-0.093c-6.113,0-11-5.011-10.768-11.249c0.372-5.741,5.508-10.147,11.373-10.147h25.647
		c5.741-0.124,10.395-4.887,10.395-10.628c0-5.989-4.887-10.768-10.752-10.768h-30.565c-4.887,0-8.921-4.034-8.921-9.045v-0.729
		c-0.372-4.887,3.662-9.045,8.44-9.045h29.898c5.865,0,11-4.282,11.373-10.023c0.248-6.237-4.639-11.373-10.752-11.373h-22.311
		c-4.67,0-8.921-3.475-8.921-9.65c0-5.26,4.282-9.542,9.418-9.542h17.16c5.741,0,11-4.406,11.248-10.147
		c0.372-6.113-4.53-11.373-10.643-11.373h-19.735c-5.136,0-9.045-4.282-8.921-9.418c0-0.124,0-0.124,0-0.124
		c0-0.124,0-0.124,0-0.248c-0.124-5.136,3.786-9.418,8.921-9.418h21.814c5.865,0,11-4.406,11.373-10.147
		c0.248-6.237-4.655-11.248-10.768-11.248c-2.544,0-5.104,0-7.649,0C156.3,145.237,123.128,180.581,126.045,221.727z"/>
</g>
<path style="fill:#454545;" d="M212.077,402.742v68.36c0,14.01,11.373,25.383,25.383,25.383h21.566
	c14.01,0,25.383-11.373,25.383-25.383v-68.36H212.077z"/>
<path style="fill:#3AA2EB;" d="M248.972,291.747c-0.481,0-0.962,0-1.443,0c-37.748,0.14-65.629,35.685-59.547,72.937l8.813,84.93
	c59.066,0,43.83,0,102.896,0l8.813-84.93C314.601,327.432,286.72,291.902,248.972,291.747z"/>
<circle style="fill:#FFE21F;" cx="248.242" cy="72.006" r="43.613"/>
<path style="fill:#FFFFFF;" d="M248.242,22.9c-27.074,0-49.09,22.016-49.09,49.09s22.016,49.09,49.09,49.09
	s49.09-22.032,49.09-49.09S275.316,22.9,248.242,22.9z M248.242,110.142c-21.023,0-38.136-17.113-38.136-38.152
	s17.113-38.152,38.136-38.152c21.039,0,38.152,17.113,38.152,38.152C286.394,93.044,269.281,110.142,248.242,110.142z"/>
<g>
</g>
<g>
</g>
<g>
</g>
<g>
</g>
<g>
</g>
<g>
</g>
<g>
</g>
<g>
</g>
<g>
</g>
<g>
</g>
<g>
</g>
<g>
</g>
<g>
</g>
<g>
</g>
<g>
</g>
</svg>
