<?xml version="1.0" encoding="iso-8859-1"?>
<!-- Generator: Adobe Illustrator 19.0.0, SVG Export Plug-In . SVG Version: 6.00 Build 0)  -->
<svg version="1.1" id="Capa_1" xmlns="http://www.w3.org/2000/svg" xmlns:xlink="http://www.w3.org/1999/xlink" x="0px" y="0px"
	 viewBox="0 0 496.485 496.485" style="enable-background:new 0 0 496.485 496.485;" xml:space="preserve">
<polygon style="fill:#6F6F6F;" points="416.178,384.644 0,384.644 0,231.308 496.485,231.308 "/>
<polygon style="fill:#F3F3F3;" points="355.39,96.031 288.923,96.031 288.923,129.916 30.534,129.916 30.534,231.308 
	435.619,231.308 "/>
<rect x="56.863" y="106.395" style="fill:#E95353;" width="109.227" height="23.521"/>
<rect x="84.108" y="16.19" style="fill:#FFCB5A;" width="54.706" height="90.205"/>
<g>
	<rect x="56.863" y="157.518" style="fill:#168DE2;" width="42.946" height="42.946"/>
	<rect x="119.094" y="157.518" style="fill:#168DE2;" width="42.946" height="42.946"/>
	<rect x="181.341" y="157.518" style="fill:#168DE2;" width="42.946" height="42.946"/>
	<rect x="243.572" y="157.518" style="fill:#168DE2;" width="42.946" height="42.946"/>
	<rect x="305.804" y="157.518" style="fill:#168DE2;" width="42.946" height="42.946"/>
</g>
<rect y="384.644" style="fill:#3AA2EB;" width="496.485" height="95.651"/>
<path style="opacity:0.25;fill:#FFFFFF;enable-background:new    ;" d="M125.719,97.583c0.217-5.477-4.08-9.992-9.449-9.992h-4.794
	c-4.298,0-7.835-3.553-7.835-7.835c0-5.756,3.956-9.03,8.27-9.03h0.279c5.042,0,9.666-3.863,9.883-8.906
	c0.326-5.368-3.972-9.992-9.34-9.992h-2.544c-4.515,0-7.944-3.755-7.835-8.27c0-0.109,0-0.109,0-0.109c0-0.109,0-0.109,0-0.217
	c-0.109-4.499,3.32-8.254,7.835-8.254h4.375c5.151,0,9.666-3.863,9.992-8.906c0.217-5.477-4.08-9.883-9.449-9.883H84.108v90.205
	h31.635C120.894,106.395,125.409,102.64,125.719,97.583z"/>
<path style="fill:#666666;" d="M0.357,231.308v89.15c0,10.597,8.114,20.294,18.928,20.744c11.264,0.683,20.744-8.347,20.744-19.611
	v-13.095c0-9.464,7.882-16.679,17.579-16.446c0,0,0,0,0.217,0c0,0,0,0,0.233,0c9.464-0.217,17.579,6.997,17.579,16.446v16.927
	c0,10.814,7.882,20.278,18.479,20.961c11.295,0.434,20.542-8.301,20.852-19.316v-30.41c0-11.28,9.387-20.278,20.806-19.782
	c10.643,0.636,18.634,10.147,18.634,20.79v27.989c0.31,10.349,8.208,19.487,18.603,20.139c11.497,0.45,20.728-8.564,20.728-19.828
	l0.217-20.402c0-11.264,9.232-20.294,20.728-19.828c10.597,0.683,18.711,10.147,18.711,20.961v24.017
	c0.217,10.597,9.014,19.161,19.611,19.161c11.047,0,19.828-9.014,19.828-19.828v-33.078c0-8.642,6.439-16.446,18.029-16.446
	c9.014-0.683,16.679,6.765,16.679,15.546v31.837c0,10.814,7.882,20.278,18.479,20.961c11.497,0.45,20.961-8.564,20.961-19.828
	v-17.827c0-8.595,6.408-16.446,17.796-16.446c9.697,0,17.579,7.882,17.579,17.346v8.363c0,10.597,8.114,20.294,18.711,20.744
	c11.264,0.683,20.961-8.347,20.961-19.611v-13.095c0-8.751,6.563-16.446,18.029-16.446c8.797-0.202,15.965,6.113,16.958,14.6
	l39.455-75.326H0.357V231.308z"/>
<g>
</g>
<g>
</g>
<g>
</g>
<g>
</g>
<g>
</g>
<g>
</g>
<g>
</g>
<g>
</g>
<g>
</g>
<g>
</g>
<g>
</g>
<g>
</g>
<g>
</g>
<g>
</g>
<g>
</g>
</svg>
