<?xml version="1.0" encoding="iso-8859-1"?>
<!-- Generator: Adobe Illustrator 19.0.0, SVG Export Plug-In . SVG Version: 6.00 Build 0)  -->
<svg version="1.1" id="Capa_1" xmlns="http://www.w3.org/2000/svg" xmlns:xlink="http://www.w3.org/1999/xlink" x="0px" y="0px"
	 viewBox="0 0 490.434 490.434" style="enable-background:new 0 0 490.434 490.434;" xml:space="preserve">
<g>
	<path style="fill:#454545;" d="M334.398,458.674v20.527c0,6.191,5.027,11.217,11.217,11.217h42.946
		c6.191,0,11.217-5.011,11.217-11.217v-20.294C386.544,460.148,353.296,457.464,334.398,458.674z"/>
	<path style="fill:#454545;" d="M90.655,458.923v20.294c0,6.191,5.027,11.217,11.217,11.217h42.946
		c6.191,0,11.217-5.011,11.217-11.217V458.69C137.138,457.464,103.889,460.148,90.655,458.923z"/>
</g>
<g>
	<polygon style="fill:#CACACA;" points="463.407,119.11 452.189,119.11 452.189,106.915 406.14,106.915 406.14,95.697 
		463.407,95.697 	"/>
	<polygon style="fill:#CACACA;" points="27.027,119.11 38.245,119.11 38.245,106.915 84.294,106.915 84.294,95.697 27.027,95.697 	
		"/>
</g>
<path style="fill:#F3F3F3;" d="M422.679,132.686H67.77c-10.768,67.894-10.768,137.076,0,204.986h354.909
	C433.416,269.777,433.416,200.595,422.679,132.686z"/>
<path style="fill:#168DE2;" d="M419.592,190.867c-1.288,11.249-10.768,19.797-22.094,19.797H92.92
	c-11.326,0-20.775-8.549-22.063-19.797c-4.872-42.356-3.987-85.225,2.684-127.379h20.185c-0.341,2.42-0.667,4.887-0.946,7.339
	c42.186,0.031,110.235,0.031,152.452,0.031s110.235,0,152.452-0.031c-0.31-2.436-0.621-4.903-0.946-7.339h20.154
	C423.548,105.643,424.479,148.496,419.592,190.867z"/>
<path style="fill:#E5E5E5;" d="M428.311,343.304l-5.632-5.632H67.77l-5.632,5.632c-5.973,5.973-8.782,14.414-7.571,22.792
	l10.178,69.865c1.8,12.226,11.683,21.644,24.002,22.792c34.475,3.227,278.481,3.227,312.972,0
	c12.272-1.148,22.202-10.566,23.971-22.792l10.178-69.865C437.093,357.717,434.285,349.277,428.311,343.304z"/>
<path style="fill:#454545;" d="M381.859,361.332l-11.745,46.701c-4.655,13.933-17.718,23.35-32.411,23.35H152.747
	c-14.724,0-27.757-9.418-32.442-23.35l-11.714-46.701c-0.59-1.769,0.698-3.553,2.56-3.553h268.148
	C381.13,357.779,382.448,359.564,381.859,361.332z"/>
<path style="fill:#E95353;" d="M100.492,379.159c-1.924-17.361-15.531-31.108-32.861-33.233
	c1.396,30.239,15.22,49.416,35.824,59.811L100.492,379.159z"/>
<path style="fill:#168DE2;" d="M108.435,426.449c-15.065,7.292-34.211-0.838-35.561-25.041
	C84.713,412.843,108.435,426.449,108.435,426.449z"/>
<path style="fill:#454545;" d="M100.569,265.573v39.533c0,12.474,10.116,22.559,22.559,22.559h244.146
	c12.474,0,22.575-10.085,22.575-22.559v-39.533H100.569z"/>
<path style="fill:#F3F3F3;" d="M414.239,43.598C411.152,19.627,391.385,1.288,367.259,0h-244.1
	C99.049,1.303,79.298,19.627,76.21,43.598l-3.537,27.245h345.073L414.239,43.598z"/>
<g>
	<path style="fill:#ED6262;" d="M468.201,113.664h-20.806c-6.191,0-11.217,5.011-11.217,11.217v42.682
		c0,6.191,5.027,11.217,11.217,11.217h20.806c6.191,0,11.217-5.027,11.217-11.217v-42.682
		C479.418,118.675,474.391,113.664,468.201,113.664z"/>
	<path style="fill:#ED6262;" d="M43.039,113.664H22.233c-6.191,0-11.217,5.011-11.217,11.217v42.682
		c0,6.191,5.027,11.217,11.217,11.217h20.806c6.191,0,11.217-5.027,11.217-11.217v-42.682
		C54.256,118.675,49.23,113.664,43.039,113.664z"/>
</g>
<path style="fill:#E95353;" d="M389.942,379.159l-2.948,26.577c20.589-10.395,34.428-29.572,35.824-59.811
	C405.488,348.051,391.882,361.813,389.942,379.159z"/>
<path style="fill:#168DE2;" d="M381.999,426.449c15.065,7.292,34.211-0.838,35.561-25.041
	C405.721,412.843,381.999,426.449,381.999,426.449z"/>
<polygon style="fill:#454545;" points="403.565,337.672 392.285,348.998 98.133,348.998 86.885,337.672 "/>
<g>
	<rect x="176.175" y="274.463" style="fill:#4F4F4F;" width="137.93" height="6.873"/>
	<rect x="176.175" y="293.19" style="fill:#4F4F4F;" width="137.93" height="6.873"/>
	<rect x="176.175" y="311.901" style="fill:#4F4F4F;" width="137.93" height="6.873"/>
	<rect x="185.623" y="357.779" style="fill:#4F4F4F;" width="6.873" height="73.619"/>
	<rect x="166.912" y="357.779" style="fill:#4F4F4F;" width="6.873" height="73.619"/>
	<rect x="223.03" y="357.779" style="fill:#4F4F4F;" width="6.873" height="73.619"/>
	<rect x="204.35" y="357.779" style="fill:#4F4F4F;" width="6.873" height="73.619"/>
	<rect x="260.484" y="357.779" style="fill:#4F4F4F;" width="6.873" height="73.619"/>
	<rect x="241.773" y="357.779" style="fill:#4F4F4F;" width="6.873" height="73.619"/>
	<rect x="316.587" y="357.779" style="fill:#4F4F4F;" width="6.873" height="73.619"/>
	<rect x="297.922" y="357.779" style="fill:#4F4F4F;" width="6.873" height="73.619"/>
	<rect x="279.195" y="357.779" style="fill:#4F4F4F;" width="6.873" height="73.619"/>
</g>
<polygon style="fill:#FFFFFF;" points="359.377,388.67 347.881,402.804 142.569,402.804 131.041,388.67 "/>
<path style="fill:#1C99E5;" d="M396.722,63.472c0.341,2.436,0.652,4.903,0.946,7.339c-42.217,0.031-110.235,0.031-152.452,0.031
	s-110.251,0-152.452-0.031c0.279-2.436,0.621-4.903,0.946-7.339h-20.17c-3.693,23.273-5.43,46.778-5.585,70.284
	c0.388,7.246,5.927,13.731,13.374,14.041c8.052,0.481,14.817-5.958,14.817-14.01v-26.003c0-6.765,5.632-11.916,12.567-11.76
	c0,0,0,0,0.155,0c0,0,0,0,0.155,0c6.765-0.155,12.567,4.996,12.567,11.76v28.734c0,7.727,5.632,14.491,13.203,14.972
	c8.083,0.31,14.677-5.927,14.895-13.793V99.328c0-8.068,6.703-14.507,14.864-14.134c7.618,0.45,13.328,7.246,13.328,14.864v36.631
	c0.217,7.385,5.865,13.917,13.281,14.398c8.223,0.326,14.817-6.113,14.817-14.165l0.155-31.216c0-8.052,6.609-14.491,14.817-14.181
	c7.571,0.481,13.374,7.246,13.374,14.988v33.792c0.155,7.571,6.439,13.684,14.01,13.684c7.897,0,14.165-6.439,14.165-14.181V99.545
	c0-6.439,5.322-11.76,11.916-11.76h0.962c6.439-0.481,11.916,4.825,11.916,11.109v39.393c0,7.727,5.632,14.491,13.203,14.972
	c8.207,0.326,14.972-6.113,14.972-14.165v-29.37c0-6.454,5.322-11.76,11.76-11.76h0.962c6.92,0,12.567,5.632,12.567,12.397v22.606
	c0,7.571,5.803,14.491,13.374,14.817c8.052,0.481,14.972-5.958,14.972-14.01v-25.988c0-6.765,5.632-11.916,12.397-11.76
	c0.155,0,0.155,0,0.155,0c0.155,0,0.155,0,0.326,0c6.765-0.155,12.397,4.996,12.397,11.76v28.734
	c0,7.727,5.803,14.491,13.374,14.972c7.851,0.31,14.057-5.616,14.615-13.172c0.062-25.026-1.629-50.067-5.554-74.861h-20.092V63.472
	z"/>
<g>
</g>
<g>
</g>
<g>
</g>
<g>
</g>
<g>
</g>
<g>
</g>
<g>
</g>
<g>
</g>
<g>
</g>
<g>
</g>
<g>
</g>
<g>
</g>
<g>
</g>
<g>
</g>
<g>
</g>
</svg>
