<?xml version="1.0" encoding="iso-8859-1"?>
<!-- Generator: Adobe Illustrator 19.0.0, SVG Export Plug-In . SVG Version: 6.00 Build 0)  -->
<svg version="1.1" id="Capa_1" xmlns="http://www.w3.org/2000/svg" xmlns:xlink="http://www.w3.org/1999/xlink" x="0px" y="0px"
	 viewBox="0 0 496.485 496.485" style="enable-background:new 0 0 496.485 496.485;" xml:space="preserve">
<polygon style="fill:#777777;" points="476.688,141.929 464.151,141.929 464.151,105.049 406.668,105.049 406.668,92.513 
	476.688,92.513 "/>
<rect x="444.354" y="122.038" style="fill:#454545;" width="52.131" height="85.411"/>
<polygon style="fill:#777777;" points="19.797,141.929 32.334,141.929 32.334,105.049 89.817,105.049 89.817,92.513 19.797,92.513 
	"/>
<g>
	<rect y="122.038" style="fill:#454545;" width="52.131" height="85.411"/>
	<path style="fill:#454545;" d="M95.542,423.544v42.465c0,5.198,4.205,9.402,9.402,9.402h46.313c5.198,0,9.402-4.205,9.402-9.402
		v-42.465H95.542z"/>
	<path style="fill:#454545;" d="M335.825,423.544v42.465c0,5.198,4.205,9.402,9.402,9.402h46.313c5.198,0,9.402-4.205,9.402-9.402
		v-42.465H335.825z"/>
</g>
<rect x="109.009" y="348.11" style="fill:#CACACA;" width="278.466" height="45.227"/>
<rect x="109.009" y="393.352" style="fill:#E5E5E5;" width="278.466" height="45.227"/>
<path style="fill:#454545;" d="M386.219,33.385c-91.26-16.415-184.708-16.415-275.952,0c-25.414,4.577-43.923,26.671-43.923,52.488
	v147.394c121.266,0,242.533,0,363.799,0c0-59.578,0-87.816,0-147.394C430.142,60.055,411.633,37.962,386.219,33.385z"/>
<path style="fill:#E5E5E5;" d="M384,45.719c-88.235-15.872-180.271-16.415-271.515,0c-19.472,3.506-33.606,20.387-33.606,40.153
	V220.73h338.727V85.872C417.606,66.106,403.472,49.226,384,45.719z"/>
<rect x="66.343" y="233.266" style="fill:#6F6F6F;" width="363.799" height="114.843"/>
<g>
	<path style="fill:#F3F3F3;" d="M136.285,338.49H59.92v65.769c0,18.96,15.376,34.32,34.335,34.32h52.286L136.285,338.49z"/>
	<path style="fill:#F3F3F3;" d="M360.2,338.49l-10.271,100.088h52.286c18.96,0,34.32-15.375,34.32-34.32V338.49H360.2z"/>
</g>
<path style="fill:#E95353;" d="M393.573,356.829c-15.158,0-27.462,12.288-27.462,27.462h32.365
	c15.158,0,27.462-12.288,27.462-27.462H393.573z"/>
<circle style="fill:#168DE2;" cx="380.587" cy="410.263" r="9.976"/>
<circle style="fill:#FFBD49;" cx="411.462" cy="410.263" r="9.976"/>
<path style="fill:#E95353;" d="M102.912,356.829c15.158,0,27.462,12.288,27.462,27.462H98.009
	c-15.158,0-27.462-12.288-27.462-27.462H102.912z"/>
<circle style="fill:#168DE2;" cx="115.867" cy="410.263" r="9.976"/>
<circle style="fill:#FFBD49;" cx="85.07" cy="410.263" r="9.976"/>
<g>
	<rect x="201.356" y="378.007" style="fill:#777777;" width="93.712" height="30.689"/>
	<polygon style="fill:#777777;" points="385.288,250.426 379.02,256.694 117.496,256.694 111.228,250.426 	"/>
	<polygon style="fill:#777777;" points="366.701,269.013 360.464,275.25 136.052,275.25 129.815,269.013 	"/>
	<polygon style="fill:#777777;" points="348.144,287.554 341.876,293.822 154.64,293.822 148.371,287.554 	"/>
	<polygon style="fill:#777777;" points="329.588,306.11 323.32,312.378 173.165,312.378 166.896,306.11 	"/>
	<polygon style="fill:#777777;" points="311.032,324.666 304.764,330.934 191.721,330.934 185.453,324.666 	"/>
</g>
<path style="fill:#F3F3F3;" d="M384,45.719c-88.235-15.872-180.271-16.415-271.515,0c-19.472,3.506-33.606,20.387-33.606,40.153
	v33.389c1.117,6.175,5.958,11.404,12.474,11.683c7.696,0.465,14.165-5.694,14.165-13.405v-24.84c0-6.47,5.384-11.388,12.009-11.233
	c0,0,0,0,0.155,0c0,0,0,0,0.155,0c6.47-0.155,12.009,4.779,12.009,11.233v27.462c0,7.385,5.384,13.855,12.629,14.32
	c7.727,0.295,14.041-5.679,14.243-13.188V84.616c0-7.711,6.408-13.855,14.212-13.514c7.277,0.434,12.738,6.935,12.738,14.212v35.018
	c0.217,7.059,5.601,13.312,12.707,13.762c7.851,0.31,14.165-5.849,14.165-13.545l0.155-29.836c0-7.696,6.315-13.855,14.165-13.545
	c7.23,0.465,12.784,6.935,12.784,14.32v32.303c0.155,7.23,6.16,13.095,13.39,13.095c7.54,0,13.545-6.16,13.545-13.545V84.817
	c0-6.16,5.089-11.248,11.388-11.248c8.347,0,12.319,4.934,12.319,10.628v37.655c0,7.385,5.384,13.855,12.629,14.32
	c7.851,0.31,14.32-5.849,14.32-13.545V94.545c0-6.16,5.073-11.233,11.233-11.233c8.239,0,12.94,5.663,12.94,11.854v21.613
	c0,7.23,5.539,13.855,12.784,14.165c7.696,0.465,14.32-5.694,14.32-13.405v-24.84c0-6.47,5.384-11.388,11.854-11.233
	c0.155,0,0.155,0,0.155,0c0.155,0,0.155,0,0.31,0c6.47-0.155,11.854,4.779,11.854,11.233v27.462c0,7.385,5.539,13.855,12.784,14.32
	c7.851,0.31,14.165-5.849,14.165-13.56V85.857C417.606,66.106,403.472,49.226,384,45.719z"/>
<g>
</g>
<g>
</g>
<g>
</g>
<g>
</g>
<g>
</g>
<g>
</g>
<g>
</g>
<g>
</g>
<g>
</g>
<g>
</g>
<g>
</g>
<g>
</g>
<g>
</g>
<g>
</g>
<g>
</g>
</svg>
