<?xml version="1.0" encoding="iso-8859-1"?>
<!-- Generator: Adobe Illustrator 19.0.0, SVG Export Plug-In . SVG Version: 6.00 Build 0)  -->
<svg version="1.1" id="Capa_1" xmlns="http://www.w3.org/2000/svg" xmlns:xlink="http://www.w3.org/1999/xlink" x="0px" y="0px"
	 viewBox="0 0 498.797 498.797" style="enable-background:new 0 0 498.797 498.797;" xml:space="preserve">
<path style="fill:#F3F3F3;" d="M456.657,116.581H73.154c-34.273,0-62.061,27.788-62.061,62.061v159.511h476.61V147.611
	C487.688,130.482,473.802,116.581,456.657,116.581z"/>
<rect x="11.093" y="258.358" style="fill:#FFCB5A;" width="476.61" height="79.825"/>
<rect x="11.093" y="258.358" style="fill:#EC9821;" width="476.61" height="10.162"/>
<g>
	<rect x="303.849" y="139.854" style="fill:#168DE2;" width="78.538" height="81.625"/>
	<path style="fill:#168DE2;" d="M464.431,221.479v-73.868c0-4.267-3.475-7.758-7.758-7.758h-53.434v81.625L464.431,221.479
		L464.431,221.479z"/>
	<path style="fill:#168DE2;" d="M137.169,221.479v-81.625H73.154c-21.38,0-38.788,17.392-38.788,38.788v42.837H137.169z"/>
</g>
<rect x="157.991" y="139.854" style="fill:#ED6262;" width="62.526" height="198.315"/>
<rect x="220.532" y="139.854" style="fill:#E95353;" width="62.526" height="198.315"/>
<path style="fill:#777777;" d="M490.341,321.133H8.44c-4.67,0-8.44,3.615-8.44,8.068v17.904c0,4.453,3.786,8.068,8.44,8.068h481.901
	c4.67,0,8.456-3.615,8.456-8.068V329.2C498.781,324.748,494.995,321.133,490.341,321.133z"/>
<circle style="fill:#454545;" cx="85.768" cy="338.261" r="43.954"/>
<circle style="fill:#CACACA;" cx="85.768" cy="338.261" r="24.173"/>
<circle style="fill:#454545;" cx="408.669" cy="338.261" r="43.954"/>
<circle style="fill:#CACACA;" cx="408.669" cy="338.261" r="24.173"/>
<path style="opacity:0.25;fill:#FFFFFF;enable-background:new    ;" d="M487.409,267.729H11.093v14.243
	c0,4.406,7.789,8.456,18.168,8.642c10.814,0.279,19.89-3.475,19.89-8.161v1.008c0-3.941,7.571-6.951,16.865-6.858c0,0,0,0,0.217,0
	c0,0,0,0,0.217,0c9.076-0.093,16.865,2.917,16.865,6.858v0.59c0,4.499,7.571,8.456,17.734,8.735
	c10.845,0.186,19.704-3.46,19.999-8.037v-6.206c0-4.701,8.999-8.456,19.952-8.239c10.225,0.264,17.889,4.22,17.889,8.657v5.198
	c0.295,4.313,7.882,8.114,17.842,8.394c11.031,0.186,19.89-3.568,19.89-8.254l0.217-2.032c0-4.686,8.859-8.456,19.89-8.254
	c10.162,0.279,17.951,4.22,17.951,8.735v3.537c0.217,4.406,8.642,7.975,18.82,7.975c10.597,0,19.022-3.755,19.022-8.254v-7.308
	c0-3.755,7.137-6.858,15.996-6.858c5.554,0,17.299,1.071,17.299,6.47v6.796c0,4.499,7.571,8.44,17.734,8.735
	c11.031,0.186,20.108-3.568,20.108-8.254v-1.008c0-3.755,7.137-6.858,15.779-6.858c5.834,0,18.168,1.536,18.168,7.23v-2.979
	c0,4.406,7.789,8.456,17.951,8.642c10.814,0.279,20.108-3.475,20.108-8.161v1.008c0-3.941,7.571-6.951,16.648-6.858
	c0.217,0,0.217,0,0.217,0c5.461,0,17.082,1.443,17.082,6.858v0.59c0,4.499,7.789,8.456,17.951,8.735
	c11.031,0.186,19.89-3.568,19.89-8.254v-16.803H487.409z"/>
<g>
</g>
<g>
</g>
<g>
</g>
<g>
</g>
<g>
</g>
<g>
</g>
<g>
</g>
<g>
</g>
<g>
</g>
<g>
</g>
<g>
</g>
<g>
</g>
<g>
</g>
<g>
</g>
<g>
</g>
</svg>
