<?xml version="1.0" encoding="iso-8859-1"?>
<!-- Generator: Adobe Illustrator 19.0.0, SVG Export Plug-In . SVG Version: 6.00 Build 0)  -->
<svg version="1.1" id="Capa_1" xmlns="http://www.w3.org/2000/svg" xmlns:xlink="http://www.w3.org/1999/xlink" x="0px" y="0px"
	 viewBox="0 0 493.808 493.808" style="enable-background:new 0 0 493.808 493.808;" xml:space="preserve">
<path style="fill:#CACACA;" d="M492.589,228.402c-12.443,11.062-245.682,54.768-245.682,54.768S13.652,239.464,1.225,228.402
	c-2.451-2.219-0.915-6.33,2.389-6.33h486.524C493.505,222.072,495.041,226.184,492.589,228.402z"/>
<path style="fill:#DBDBDB;" d="M490.107,222.072H3.552c-3.258,0-4.81,4.034-2.327,6.361c2.327,2.172,12.567,5.43,27.617,9.309
	c9.775,2.482,21.721,5.275,34.754,8.378c0-10.488,7.292-15.981,15.515-15.825c0,0,0,0,0.155,0c0,0,0,0,0.155,0
	c8.114-0.155,15.515,5.384,15.515,15.825c0,2.482,0.465,4.81,1.396,6.982c9.309,2.017,18.773,4.034,28.238,6.051
	c2.948-2.948,4.81-6.982,4.81-11.636c0-13.452,8.564-20.17,18.308-19.704c8.968,0.434,16.446,6.951,16.446,21.566
	c0.31,9.154,7.137,17.222,16.291,17.687c10.085,0.465,18.153-7.447,18.153-17.377l0.31-7.447c0-9.93,8.068-17.842,18.153-17.377
	c9.309,0.465,16.446,8.844,16.446,18.308v5.585c0.155,9.154,7.913,16.756,17.222,16.756c9.775,0,17.377-7.913,17.377-17.377
	c0-11.792,6.64-17.222,14.739-17.222h1.086c8.068-0.465,14.739,6.051,14.739,13.653v3.724c0,9.464,6.982,17.842,16.291,18.463
	c10.085,0.31,18.308-7.602,18.308-17.377c0-11.093,6.594-16.601,14.429-16.601c10.799,0,16.756,7.292,16.756,15.205
	c0,1.862,1.707,6.361,4.81,10.395c0.155,0.155,0.31,0.465,0.465,0.621c9.775-2.017,19.549-4.034,29.013-6.051
	c0.31-1.396,0.465-2.638,0.465-4.034c0-13.188,6.191-18.789,15.205-18.618c10.457,0,15.981,6.656,15.981,15.825
	c13.033-3.103,24.824-5.896,34.599-8.378c15.05-3.879,25.29-7.137,27.617-9.309C495.072,226.106,493.52,222.072,490.107,222.072z"/>
<path style="fill:#E5E5E5;" d="M246.907,166.45c-41.208,0-74.597,33.404-74.597,74.597c0,41.208,33.404,86.311,74.597,86.311
	s74.597-45.103,74.597-86.311C321.504,199.854,288.115,166.45,246.907,166.45z"/>
<g>
	<path style="fill:#168DE2;" d="M239.072,249.317v-66.56c-28.858,3.879-51.262,28.408-51.262,58.306
		c0,2.715,0.248,5.477,0.636,8.254H239.072z"/>
	<path style="fill:#168DE2;" d="M305.368,249.317c0.388-2.777,0.636-5.554,0.636-8.254c0-29.898-22.404-54.427-51.262-58.306v66.56
		L305.368,249.317L305.368,249.317z"/>
</g>
<circle style="fill:#FFFFFF;" cx="246.907" cy="289.966" r="24.343"/>
<circle style="fill:#FFBD49;" cx="246.907" cy="289.966" r="18.618"/>
<circle style="fill:#6F6F6F;" cx="109.024" cy="258.284" r="24.871"/>
<circle style="fill:#777777;" cx="109.024" cy="258.284" r="15.515"/>
<circle style="fill:#6F6F6F;" cx="384.79" cy="258.284" r="24.871"/>
<g>
	<path style="fill:#3AA2EB;" d="M213.782,192.655c1.117,2.172,3.305,3.739,5.927,3.739h4.825c3.258,0,5.741,2.715,5.663,6.051
		c0,0,0,0,0,0.078c0,0,0,0,0,0.078c0.078,3.258-2.405,6.051-5.663,6.051h-3.181c-3.724,0-6.982,2.715-7.199,6.361
		c-0.155,3.879,2.855,7.059,6.64,7.168h3.6c3.879,0,6.982,3.227,6.796,7.152c-0.217,3.662-3.491,6.408-7.152,6.408h-2.529
		c-3.553,0.109-6.703,2.824-6.92,6.392c-0.155,3.956,2.948,7.137,6.811,7.137l17.672,0.078v-66.56
		C229.747,184.013,221.229,187.597,213.782,192.655z"/>
	<path style="fill:#3AA2EB;" d="M279.225,242.118c-0.233-3.568-3.367-6.284-6.92-6.392h-2.529c-3.662,0-6.935-2.746-7.152-6.408
		c-0.171-3.925,2.917-7.152,6.796-7.152h3.6c3.786-0.109,6.796-3.289,6.64-7.168c-0.233-3.646-3.491-6.361-7.215-6.361h-3.181
		c-3.258,0-5.741-2.793-5.663-6.051c0-0.078,0-0.078,0-0.078c0-0.078,0-0.078,0-0.078c-0.078-3.336,2.405-6.051,5.663-6.051h4.825
		c2.638,0,4.81-1.567,5.927-3.739c-7.447-5.058-15.965-8.642-25.29-9.899v66.56l17.672-0.078
		C276.277,249.239,279.38,246.074,279.225,242.118z"/>
</g>
<circle style="fill:#777777;" cx="384.79" cy="258.284" r="15.515"/>
<g>
</g>
<g>
</g>
<g>
</g>
<g>
</g>
<g>
</g>
<g>
</g>
<g>
</g>
<g>
</g>
<g>
</g>
<g>
</g>
<g>
</g>
<g>
</g>
<g>
</g>
<g>
</g>
<g>
</g>
</svg>
