<?xml version="1.0" encoding="iso-8859-1"?>
<!-- Generator: Adobe Illustrator 19.0.0, SVG Export Plug-In . SVG Version: 6.00 Build 0)  -->
<svg version="1.1" id="Capa_1" xmlns="http://www.w3.org/2000/svg" xmlns:xlink="http://www.w3.org/1999/xlink" x="0px" y="0px"
	 viewBox="0 0 496.469 496.469" style="enable-background:new 0 0 496.469 496.469;" xml:space="preserve">
<path style="fill:#EC9821;" d="M289.342,82.075c-27.4,0-54.8,0-82.199,0c0-13.824,0-27.648,0-41.472
	c26.717-10.674,55.482-10.674,82.199,0C289.342,54.427,289.342,68.251,289.342,82.075z"/>
<g>
	<rect x="213.799" y="41.441" style="fill:#454545;" width="13.777" height="13.777"/>
	<rect x="227.576" y="55.218" style="fill:#454545;" width="13.777" height="13.777"/>
	<rect x="241.416" y="41.441" style="fill:#454545;" width="13.777" height="13.777"/>
	<rect x="255.131" y="55.218" style="fill:#454545;" width="13.777" height="13.777"/>
	<rect x="268.909" y="41.441" style="fill:#454545;" width="13.777" height="13.777"/>
</g>
<g>
	<circle style="fill:#EC9821;" cx="21.644" cy="234.698" r="21.163"/>
	<rect x="21.644" y="247.296" style="fill:#EC9821;" width="44.808" height="8.58"/>
	<circle style="fill:#EC9821;" cx="474.919" cy="234.698" r="21.163"/>
	<rect x="430.08" y="247.296" style="fill:#EC9821;" width="44.808" height="8.58"/>
</g>
<g>
	<path style="fill:#454545;" d="M27.803,387.615v45.227c0,17.129,13.886,31.03,31.03,31.03h22.342
		c17.144,0,31.03-13.902,31.03-31.03v-45.227L27.803,387.615L27.803,387.615z"/>
	<path style="fill:#454545;" d="M384.279,387.615v45.227c0,17.129,13.886,31.03,31.03,31.03h22.342
		c17.144,0,31.03-13.902,31.03-31.03v-45.227L384.279,387.615L384.279,387.615z"/>
</g>
<path style="fill:#FFE21F;" d="M333.328,77.638c-56.46-7.696-113.711-7.696-170.17,0c-60.369,8.223-109.739,65.102-109.739,126.045
	v58.228h389.648v-58.228C443.066,142.755,393.697,85.861,333.328,77.638z"/>
<path style="fill:#168DE2;" d="M69.306,246.008v-42.325c0-52.689,43.954-103.222,95.992-110.297
	c27.4-3.724,55.296-5.616,82.944-5.616c27.648,0,55.544,1.893,82.944,5.616c52.038,7.075,95.992,57.592,95.992,110.297v42.325
	H69.306z"/>
<path style="fill:#FFE21F;" d="M415.93,245.372c-111.399-14.926-223.977-14.926-335.376,0
	c-31.558,4.236-55.125,31.294-55.125,63.131v88.995c148.542,0,297.084,0,445.611,0v-88.995
	C471.056,276.651,447.488,249.592,415.93,245.372z"/>
<path style="fill:#777777;" d="M471.692,362.217H24.793C11.093,362.217,0,373.326,0,387.01v1.195
	c0,13.7,11.109,24.793,24.793,24.793h446.883c13.7,0,24.793-11.109,24.793-24.793v-1.195
	C496.485,373.31,485.376,362.217,471.692,362.217z"/>
<circle style="fill:#FFFFFF;" cx="107.675" cy="306.238" r="40.743"/>
<circle style="fill:#E95353;" cx="107.675" cy="306.238" r="28.532"/>
<circle style="fill:#FFFFFF;" cx="388.81" cy="306.238" r="40.743"/>
<circle style="fill:#E95353;" cx="388.81" cy="306.238" r="28.532"/>
<rect x="170.543" y="277.706" style="fill:#FF9F5F;" width="155.462" height="57.065"/>
<path style="fill:#1A98E5;" d="M331.186,93.386c-27.4-3.724-55.296-5.616-82.944-5.616s-55.56,1.893-82.944,5.616
	c-51.914,7.059-95.791,57.391-95.961,109.956c1.21,0.403,2.389,0.915,3.739,0.962c8.58,0.512,15.794-6.361,15.794-14.926v-27.695
	c0-7.215,6.004-12.707,13.39-12.521c0,0,0,0,0.171,0c0,0,0,0,0.171,0c7.215-0.171,13.39,5.322,13.39,12.521v30.611
	c0,8.239,6.004,15.453,14.072,15.965c8.611,0.341,15.639-6.33,15.872-14.708v-40.882c0-8.595,7.152-15.453,15.841-15.065
	c8.114,0.481,14.196,7.727,14.196,15.841v39.036c0.233,7.882,6.253,14.832,14.165,15.344c8.751,0.341,15.794-6.516,15.794-15.096
	l0.171-33.264c0-8.58,7.028-15.453,15.794-15.112c8.068,0.512,14.243,7.727,14.243,15.965v36.011
	c0.171,8.068,6.858,14.584,14.926,14.584c8.409,0,15.096-6.858,15.096-15.096v-42.915c0-6.858,5.663-12.521,12.707-12.521
	c9.309,0,13.731,5.508,13.731,11.838v41.968c0,8.239,6.004,15.438,14.072,15.965c8.751,0.341,15.965-6.516,15.965-15.096v-31.294
	c0-6.873,5.663-12.536,12.521-12.536c9.185,0,14.414,6.315,14.414,13.219v24.095c0,8.068,6.175,15.453,14.243,15.794
	c8.58,0.512,15.965-6.361,15.965-14.926v-27.695c0-7.215,6.004-12.707,13.219-12.521c8.657,0,13.731,5.772,13.731,12.521v30.611
	c0,8.239,6.175,15.453,14.243,15.965c2.219,0.093,4.313-0.295,6.222-1.04v-3.537C427.179,150.978,383.224,100.461,331.186,93.386z"
	/>
<g>
</g>
<g>
</g>
<g>
</g>
<g>
</g>
<g>
</g>
<g>
</g>
<g>
</g>
<g>
</g>
<g>
</g>
<g>
</g>
<g>
</g>
<g>
</g>
<g>
</g>
<g>
</g>
<g>
</g>
</svg>
