<?xml version="1.0" encoding="iso-8859-1"?>
<!-- Generator: Adobe Illustrator 19.0.0, SVG Export Plug-In . SVG Version: 6.00 Build 0)  -->
<svg version="1.1" id="Capa_1" xmlns="http://www.w3.org/2000/svg" xmlns:xlink="http://www.w3.org/1999/xlink" x="0px" y="0px"
	 viewBox="0 0 496.485 496.485" style="enable-background:new 0 0 496.485 496.485;" xml:space="preserve">
<path style="fill:#CACACA;" d="M470.125,172.094c-3.615,0-6.532-2.917-6.532-6.532v-45.087c0-3.506-2.855-6.346-6.346-6.346h-34.583
	c-3.615,0-6.532-2.917-6.532-6.532c0-3.615,2.917-6.532,6.532-6.532h34.583c10.705,0,19.409,8.72,19.409,19.409v45.087
	C476.656,169.162,473.74,172.094,470.125,172.094z"/>
<path style="fill:#E95353;" d="M483.421,128.543h-26.593c-7.215,0-13.064,5.849-13.064,13.064v62.045
	c0,7.215,5.849,13.064,13.064,13.064h26.593c7.215,0,13.064-5.849,13.064-13.064v-62.045
	C496.485,134.392,490.636,128.543,483.421,128.543z"/>
<path style="fill:#CACACA;" d="M26.36,172.094c3.615,0,6.532-2.917,6.532-6.532v-45.087c0-3.506,2.855-6.346,6.346-6.346h34.583
	c3.615,0,6.532-2.917,6.532-6.532c0-3.615-2.917-6.532-6.532-6.532H39.238c-10.705,0-19.409,8.72-19.409,19.409v45.087
	C19.828,169.162,22.745,172.094,26.36,172.094z"/>
<path style="fill:#E95353;" d="M39.657,128.543H13.064C5.849,128.543,0,134.392,0,141.607v62.045
	c0,7.215,5.849,13.064,13.064,13.064h26.593c7.215,0,13.064-5.849,13.064-13.064v-62.045
	C52.72,134.392,46.871,128.543,39.657,128.543z"/>
<g>
	<path style="fill:#454545;" d="M363.303,401.765v60.881c0,7.215,5.849,13.064,13.064,13.064h42.729
		c7.215,0,13.064-5.849,13.064-13.064v-60.881H363.303z"/>
	<path style="fill:#454545;" d="M64.326,401.765v60.881c0,7.215,5.849,13.064,13.064,13.064h42.729
		c7.215,0,13.064-5.849,13.064-13.064v-60.881H64.326z"/>
</g>
<path style="fill:#777777;" d="M358.865,20.775H137.619c-40.479,0-73.294,32.815-73.294,73.294v230.431
	c1.024-0.884,2.079-1.753,3.181-2.529v-27.71c0-35.204,28.532-63.752,63.752-63.752h233.969c35.204,0,63.752,28.548,63.752,63.752
	v27.71c1.117,0.776,2.157,1.645,3.181,2.529V94.068C432.159,53.589,399.345,20.775,358.865,20.775z"/>
<path style="fill:#6F6F6F;" d="M428.963,321.955v-27.71c0-35.204-28.548-63.752-63.752-63.752H131.258
	c-35.204,0-63.752,28.532-63.752,63.752v27.71c-10.783,7.587-17.842,20.092-17.842,34.288c0,14.181,7.059,26.702,17.842,34.288
	v7.633H91.57h313.313h24.064v-7.633c10.783-7.587,17.842-20.092,17.842-34.288C446.821,342.063,439.746,329.542,428.963,321.955z"/>
<g>
	<circle style="fill:#FFBD49;" cx="105.689" cy="351.884" r="32.24"/>
	<circle style="fill:#FFBD49;" cx="390.796" cy="351.884" r="32.24"/>
</g>
<path style="fill:#454545;" d="M315.733,286.084H180.752c-15.36,0-27.819,12.443-27.819,27.803v6.222
	c0,15.36,12.443,27.803,27.819,27.803h134.982c15.36,0,27.803-12.443,27.803-27.803v-6.222
	C343.552,298.543,331.093,286.084,315.733,286.084z"/>
<g>
	<rect x="97.156" y="72.378" style="fill:#E5E5E5;" width="302.173" height="125.58"/>
	<path style="fill:#E5E5E5;" d="M435.976,398.165H60.509c-8.099,0-14.662,6.563-14.662,14.662c0,8.099,6.563,14.662,14.662,14.662
		h375.467c8.099,0,14.662-6.563,14.662-14.662C450.638,404.728,444.075,398.165,435.976,398.165z"/>
</g>
<path style="fill:#F3F3F3;" d="M399.329,72.378H97.156v48.593c0,6.454,4.934,12.35,11.528,12.614
	c6.858,0.403,12.614-5.073,12.614-11.931v-2.296c0-5.756,4.794-10.147,10.705-10.007c0,0,0,0,0.14,0c0,0,0,0,0.14,0
	c5.756-0.14,10.69,4.251,10.69,10.007v4.624c0,6.578,4.794,12.35,11.249,12.753c6.873,0.264,12.505-5.058,12.691-11.745v-12.831
	c0-6.873,5.71-12.35,12.66-12.04c6.485,0.388,11.342,6.175,11.342,12.66v11.373c0.186,6.299,4.996,11.854,11.311,12.257
	c6.997,0.279,12.614-5.213,12.614-12.071l0.14-6.749c0-6.858,5.616-12.35,12.614-12.071c6.439,0.419,11.388,6.175,11.388,12.753
	v8.937c0.14,6.439,5.492,11.652,11.931,11.652c6.718,0,12.071-5.492,12.071-12.071v-14.445c0-5.244,3.91-10.007,10.969-10.007
	c5.492-0.419,10.147,4.112,10.147,9.464v13.715c0,6.578,4.794,12.335,11.249,12.753c6.997,0.279,12.753-5.213,12.753-12.071v-5.198
	c0-5.492,4.53-10.007,10.007-10.007c7.339,0,11.528,5.042,11.528,10.566v-0.59c0,6.454,4.934,12.35,11.388,12.614
	c6.858,0.403,12.753-5.073,12.753-11.931v-2.296c0-5.756,4.794-10.147,10.566-10.007c0.14,0,0.14,0,0.14,0c0.14,0,0.14,0,0.279,0
	c5.756-0.14,10.566,4.251,10.566,10.007v4.624c0,6.578,4.934,12.35,11.388,12.753c6.997,0.279,12.614-5.213,12.614-12.071
	L399.329,72.378L399.329,72.378z"/>
<g>
</g>
<g>
</g>
<g>
</g>
<g>
</g>
<g>
</g>
<g>
</g>
<g>
</g>
<g>
</g>
<g>
</g>
<g>
</g>
<g>
</g>
<g>
</g>
<g>
</g>
<g>
</g>
<g>
</g>
</svg>
