<?xml version="1.0" encoding="iso-8859-1"?>
<!-- Generator: Adobe Illustrator 19.0.0, SVG Export Plug-In . SVG Version: 6.00 Build 0)  -->
<svg version="1.1" id="Capa_1" xmlns="http://www.w3.org/2000/svg" xmlns:xlink="http://www.w3.org/1999/xlink" x="0px" y="0px"
	 viewBox="0 0 496.485 496.485" style="enable-background:new 0 0 496.485 496.485;" xml:space="preserve">
<g>
	<path style="fill:#E95353;" d="M39.455,149.682H19.72c-10.892,0-19.72,8.828-19.72,19.72s8.828,19.72,19.72,19.72h39.455v-19.72
		C59.175,158.511,50.347,149.682,39.455,149.682z"/>
	<path style="fill:#E95353;" d="M476.765,149.682H457.03c-10.892,0-19.72,8.828-19.72,19.72v19.72h39.455
		c10.892,0,19.72-8.828,19.72-19.72C496.485,158.511,487.657,149.682,476.765,149.682z"/>
</g>
<path style="fill:#FFCB5A;" d="M449.939,189.106H46.545C28.362,207.29,18.184,217.468,0,235.652v119.374
	c18.184,18.184,28.362,28.362,46.545,46.545h403.394c18.184-18.184,28.362-28.362,46.545-46.545V235.652
	C478.301,217.468,468.123,207.275,449.939,189.106z"/>
<path style="fill:#FFBD49;" d="M46.545,189.106C28.362,207.29,18.184,217.468,0,235.652h496.485
	c-18.184-18.184-28.362-28.362-46.545-46.545H46.545z"/>
<path style="fill:#FFDB6F;" d="M449.939,401.555c18.184-18.184,28.362-28.362,46.545-46.545H0
	c18.184,18.184,28.362,28.362,46.545,46.545H449.939z"/>
<g>
	<path style="fill:#6F6F6F;" d="M47.042,401.555v33.808c0,8.564,6.951,15.515,15.515,15.515h73.107
		c8.564,0,15.515-6.951,15.515-15.515v-33.808H47.042z"/>
	<path style="fill:#6F6F6F;" d="M345.305,401.555v33.808c0,8.564,6.951,15.515,15.515,15.515h73.107
		c8.564,0,15.515-6.951,15.515-15.515v-33.808H345.305z"/>
</g>
<path style="fill:#777777;" d="M409.305,258.676h-24.669c-20.247,0-36.647,16.415-36.647,36.647
	c0,20.247,16.415,36.647,36.647,36.647h61.316v-36.647C445.952,275.091,429.537,258.676,409.305,258.676z"/>
<circle style="fill:#FBECDA;" cx="387.165" cy="295.339" r="28.222"/>
<path style="fill:#777777;" d="M111.849,258.676H87.18c-20.247,0-36.647,16.415-36.647,36.647v36.647h61.316
	c20.247,0,36.647-16.415,36.647-36.647C148.511,275.091,132.096,258.676,111.849,258.676z"/>
<circle style="fill:#FBECDA;" cx="109.32" cy="295.339" r="28.222"/>
<path style="fill:#FFBD49;" d="M421.174,78.654c-5.942-19.627-24.033-33.047-44.544-33.047H119.87
	c-20.511,0-38.602,13.421-44.544,33.047L46.561,189.122h403.394L421.174,78.654z"/>
<path style="fill:#168DE2;" d="M66.622,189.122L90.329,87.063c3.832-12.583,15.779-21.442,29.541-21.442h256.76
	c13.777,0,25.709,8.844,29.696,22.032l23.552,101.469H66.622z"/>
<path style="fill:#EC9821;" d="M301.04,271.942H195.46c-12.924,0-23.397,10.473-23.397,23.397c0,12.924,10.473,23.397,23.397,23.397
	H301.04c12.924,0,23.397-10.473,23.397-23.397C324.437,282.415,313.949,271.942,301.04,271.942z"/>
<path style="fill:#3AA2EB;" d="M406.326,87.653c-3.987-13.188-15.919-22.032-29.696-22.032H119.87
	c-13.762,0-25.709,8.844-29.525,21.442l-13.777,59.299c0.977,0.279,1.893,0.729,2.963,0.76c8.285,0.496,15.251-6.128,15.251-14.429
	v-27.431c0-6.966,5.803-12.272,12.94-12.102c0,0,0,0,0.171,0c0,0,0,0,0.171,0c6.966-0.171,12.94,5.136,12.94,12.102v23.909
	c0,7.959,5.803,14.926,13.591,15.422c8.316,0.326,15.112-6.113,15.344-14.212v-24.824c0-8.301,6.904-14.926,15.298-14.553
	c7.835,0.465,13.715,7.463,13.715,15.298v28.253c0.233,7.618,6.035,14.336,13.684,14.817c8.456,0.326,15.251-6.299,15.251-14.584
	l0.171-31.682c0-8.285,6.796-14.926,15.251-14.6c7.789,0.496,13.762,7.463,13.762,15.422v27.4
	c0.171,7.789,6.64,14.088,14.429,14.088c8.13,0,14.6-6.625,14.6-14.6V105.79c0-6.33,4.717-12.102,13.265-12.102
	c6.625-0.496,12.272,4.98,12.272,11.435v27.632c0,7.959,5.803,14.926,13.591,15.422c8.456,0.341,15.422-6.299,15.422-14.584v-26.345
	c0-6.299,4.686-12.102,13.095-12.102c7.137,0,12.94,5.803,12.94,12.769v22.823c0,7.804,5.973,14.926,13.762,15.251
	c8.285,0.496,15.422-6.144,15.422-14.429v-26.298c0-6.966,5.803-12.272,12.769-12.102c0.171,0,0.171,0,0.171,0
	c0.171,0,0.171,0,0.326,0c6.966-0.171,12.769,5.136,12.769,12.102v24.747c0,7.959,5.973,14.926,13.762,15.422
	c1.396,0.047,2.653-0.341,3.925-0.652L406.326,87.653z"/>
<path style="fill:#FCB747;" d="M496.314,235.652v-0.171c-14.119-14.119-23.552-23.552-35.592-35.592
	c-2.529,3.305-4.065,7.401-4.065,11.885v-1.489c0,9.464-7.882,16.679-17.579,16.462c0,0,0,0-0.217,0c0,0,0,0-0.233,0
	c-9.464,0.217-17.579-6.982-17.579-16.462v6.284c0-10.814-7.882-20.278-18.479-20.961c-11.311-0.434-20.542,8.301-20.852,19.316
	v-5.058c0,11.295-9.387,20.294-20.79,19.782c-10.643-0.636-18.634-10.147-18.634-20.79v0.388
	c-0.31-10.349-8.208-19.487-18.603-20.139c-11.497-0.45-20.728,8.564-20.728,19.828l-0.233,4.267
	c0,11.264-9.247,20.278-20.728,19.828c-10.597-0.683-18.711-10.147-18.711-20.961v1.552c-0.233-10.597-9.014-19.161-19.611-19.161
	c-11.047,0-19.828,9.014-19.828,19.828v-4.732c0,9.014-7.432,16.462-16.679,16.462c-12.21,0-18.029-7.199-18.029-15.546v1.226
	c0-10.814-7.882-20.278-18.479-20.961c-11.497-0.45-20.961,8.564-20.961,19.828v-2.994c0,9.03-7.432,16.462-16.446,16.462
	c-12.102,0-18.928-8.332-18.928-17.361v7.773c0-10.597-8.114-20.294-18.711-20.744c-11.264-0.683-20.961,8.347-20.961,19.611v-3.041
	c0,9.464-7.882,16.679-17.346,16.462c-0.233,0-0.233,0-0.233,0c-0.233,0-0.233,0-0.45,0c-9.464,0.217-17.346-6.982-17.346-16.462
	v5.151c0-5.26-1.97-10.147-5.151-13.917C22.745,212.891,13.622,222.03,0,235.652H496.314z"/>
<path style="opacity:0.2;fill:#FFFFFF;enable-background:new    ;" d="M0,355.01v0.171c14.119,14.119,23.552,23.552,35.592,35.592
	c2.529-3.305,4.08-7.401,4.08-11.885v1.489c0-9.464,7.882-16.679,17.579-16.446c0,0,0,0,0.233,0c0,0,0,0,0.233,0
	c9.464-0.217,17.579,6.982,17.579,16.446v-6.284c0,10.814,7.882,20.278,18.479,20.961c11.311,0.434,20.542-8.301,20.852-19.316
	v5.042c0-11.28,9.387-20.294,20.806-19.782c10.643,0.636,18.634,10.147,18.634,20.79v-0.388c0.31,10.349,8.208,19.487,18.603,20.139
	c11.497,0.45,20.728-8.564,20.728-19.828l0.233-4.267c0-11.264,9.247-20.278,20.728-19.844
	c10.597,0.683,18.711,10.147,18.711,20.961v-1.552c0.233,10.597,9.014,19.161,19.611,19.161c11.047,0,19.828-9.014,19.828-19.828
	v4.732c0-8.642,6.439-16.462,18.029-16.462c9.014-0.667,16.679,6.765,16.679,15.546v-1.226c0,10.814,7.882,20.278,18.479,20.961
	c11.497,0.45,20.961-8.564,20.961-19.828v2.994c0-8.595,6.392-16.462,17.796-16.462c9.697,0,17.579,7.882,17.579,17.361v-7.773
	c0,10.597,8.114,20.294,18.711,20.744c11.264,0.683,20.961-8.347,20.961-19.611v3.041c0-8.766,6.578-16.446,18.029-16.446
	c9.464-0.217,17.346,6.982,17.346,16.446v-5.151c0,5.26,1.97,10.147,5.151,13.917c11.373-11.373,20.495-20.495,34.118-34.118H0z"/>
<g>
</g>
<g>
</g>
<g>
</g>
<g>
</g>
<g>
</g>
<g>
</g>
<g>
</g>
<g>
</g>
<g>
</g>
<g>
</g>
<g>
</g>
<g>
</g>
<g>
</g>
<g>
</g>
<g>
</g>
</svg>
