<?xml version="1.0" encoding="iso-8859-1"?>
<!-- Generator: Adobe Illustrator 19.0.0, SVG Export Plug-In . SVG Version: 6.00 Build 0)  -->
<svg version="1.1" id="Capa_1" xmlns="http://www.w3.org/2000/svg" xmlns:xlink="http://www.w3.org/1999/xlink" x="0px" y="0px"
	 viewBox="0 0 496.485 496.485" style="enable-background:new 0 0 496.485 496.485;" xml:space="preserve">
<g>
	<path style="fill:#454545;" d="M79.127,480.97c0,8.564,6.951,15.515,15.515,15.515h50.828c8.564,0,15.515-6.951,15.515-15.515
		v-48.33H79.127V480.97z"/>
	<path style="fill:#454545;" d="M335.484,432.64v48.33c0,8.564,6.951,15.515,15.515,15.515h50.843
		c8.564,0,15.515-6.951,15.515-15.515v-48.33H335.484z"/>
</g>
<path style="fill:#FFCB5A;" d="M407.459,0H89.026C63.317,0,42.48,20.837,42.48,46.545V401.61c0,25.709,20.837,46.545,46.545,46.545
	h318.433c25.709,0,46.545-20.837,46.545-46.545V46.545C454.004,20.837,433.168,0,407.459,0z"/>
<rect x="42.48" y="74.349" style="fill:#F3F3F3;" width="411.524" height="257.427"/>
<rect x="57.996" y="89.879" style="fill:#168DE2;" width="380.494" height="226.397"/>
<g>
	<circle style="fill:#ED6262;" cx="120.568" cy="389.958" r="34.661"/>
	<circle style="fill:#ED6262;" cx="375.917" cy="389.958" r="34.661"/>
</g>
<g>
	<path style="fill:#FFFFFF;" d="M120.568,432.376c-23.381,0-42.418-19.037-42.418-42.403c0-23.381,19.037-42.403,42.418-42.403
		s42.418,19.022,42.418,42.403C162.971,413.339,143.95,432.376,120.568,432.376z M120.568,363.07
		c-14.832,0-26.903,12.055-26.903,26.888c0,14.832,12.071,26.888,26.903,26.888s26.903-12.055,26.903-26.888
		C147.456,375.125,135.401,363.07,120.568,363.07z"/>
	<path style="fill:#FFFFFF;" d="M375.917,432.376c-23.381,0-42.418-19.037-42.418-42.403c0-23.381,19.037-42.403,42.418-42.403
		c23.381,0,42.403,19.022,42.403,42.403C418.335,413.339,399.313,432.376,375.917,432.376z M375.917,363.07
		c-14.832,0-26.903,12.055-26.903,26.888c0,14.832,12.071,26.888,26.903,26.888c14.832,0,26.888-12.055,26.888-26.888
		C402.82,375.125,390.749,363.07,375.917,363.07z"/>
</g>
<g>
	<path style="fill:#ED6262;" d="M286.177,370.455h-75.885c-10.783,0-19.518,8.735-19.518,19.518
		c0,10.768,8.735,19.518,19.518,19.518h75.885c10.768,0,19.518-8.735,19.518-19.518C305.695,379.19,296.96,370.455,286.177,370.455z
		"/>
	<path style="fill:#ED6262;" d="M310.877,18.789H185.623c-10.147,0-18.385,8.239-18.385,18.385c0,10.162,8.239,18.385,18.385,18.385
		h125.254c10.147,0,18.385-8.239,18.385-18.385S321.024,18.789,310.877,18.789z"/>
</g>
<rect x="240.795" y="77.933" style="fill:#F3F3F3;" width="14.91" height="250.259"/>
<g>
	<path style="fill:#454545;" d="M103.905,316.261l81.982-121.282c2.312-3.413,1.412-8.052-2.001-10.349
		c-3.413-2.312-8.052-1.412-10.349,2.001l-87.63,129.645h17.998V316.261z"/>
	<path style="fill:#454545;" d="M327.323,316.261l81.982-121.282c2.312-3.413,1.412-8.052-2.001-10.349
		c-3.413-2.312-8.052-1.412-10.349,2.001l-87.63,129.645h17.998V316.261z"/>
</g>
<path style="opacity:0.15;fill:#FFFFFF;enable-background:new    ;" d="M453.663,74.349H42.48v60.99
	c0,8.782,6.718,16.803,15.686,17.175c9.325,0.559,17.175-6.904,17.175-16.244v-10.845c0-7.835,6.532-13.808,14.553-13.622
	c0,0,0,0,0.186,0c0,0,0,0,0.186,0c7.835-0.186,14.553,5.787,14.553,13.622v14.01c0,8.952,6.532,16.803,15.298,17.361
	c9.356,0.357,17.02-6.873,17.268-15.996v-25.166c0-9.34,7.773-16.803,17.222-16.384c8.813,0.528,15.438,8.409,15.438,17.222v23.18
	c0.264,8.564,6.796,16.136,15.407,16.679c9.511,0.372,17.175-7.09,17.175-16.431l0.186-16.896c0-9.34,7.649-16.803,17.175-16.431
	c8.766,0.559,15.484,8.409,15.484,17.361v19.89c0.186,8.766,7.463,15.872,16.244,15.872c9.138,0,16.415-7.463,16.415-16.431v-27.384
	c0-7.463,6.16-13.622,13.808-13.622h1.117c7.463-0.559,13.808,5.601,13.808,12.878v26.376c0,8.952,6.532,16.803,15.298,17.361
	c9.526,0.372,17.361-7.09,17.361-16.431v-14.77c0-7.463,6.16-13.622,13.622-13.622h1.117c8.021,0,14.553,6.532,14.553,14.367v6.92
	c0,8.782,6.718,16.803,15.5,17.175c9.325,0.559,17.361-6.904,17.361-16.244v-10.845c0-7.835,6.532-13.808,14.367-13.622
	c0.186,0,0.186,0,0.186,0c0.186,0,0.186,0,0.372,0c7.835-0.186,14.367,5.787,14.367,13.622v14.01c0,8.952,6.718,16.803,15.5,17.361
	c9.526,0.372,17.175-7.09,17.175-16.431V74.349H453.663z"/>
<g>
</g>
<g>
</g>
<g>
</g>
<g>
</g>
<g>
</g>
<g>
</g>
<g>
</g>
<g>
</g>
<g>
</g>
<g>
</g>
<g>
</g>
<g>
</g>
<g>
</g>
<g>
</g>
<g>
</g>
</svg>
