<?xml version="1.0" encoding="iso-8859-1"?>
<!-- Generator: Adobe Illustrator 19.0.0, SVG Export Plug-In . SVG Version: 6.00 Build 0)  -->
<svg version="1.1" id="Capa_1" xmlns="http://www.w3.org/2000/svg" xmlns:xlink="http://www.w3.org/1999/xlink" x="0px" y="0px"
	 viewBox="0 0 497.726 497.726" style="enable-background:new 0 0 497.726 497.726;" xml:space="preserve">
<path id="SVGCleanerId_0" style="fill:#FFBD49;" d="M52.208,199.215H22.28c-12.304,0-22.28,9.976-22.28,22.28
	s9.976,22.28,22.28,22.28h52.208v-22.28C74.488,209.175,64.512,199.215,52.208,199.215z"/>
<path style="fill:#FFBD49;" d="M445.518,199.215h29.929c12.303,0,22.28,9.976,22.28,22.28s-9.976,22.28-22.28,22.28h-52.208v-22.28
	C423.238,209.175,433.214,199.215,445.518,199.215z"/>
<path style="fill:#FFCB5A;" d="M435.821,266.938H61.905l42.031-122.585c8.921-26.034,33.404-43.52,60.928-43.52h167.998
	c27.524,0,52.007,17.486,60.928,43.52L435.821,266.938z"/>
<path id="SVGCleanerId_1" style="fill:#168DE2;" d="M106.992,234.729l27.415-79.95c4.453-13.017,16.694-21.768,30.472-21.768
	h167.998c13.762,0,26.003,8.751,30.456,21.768l27.415,79.95H106.992z"/>
<path style="fill:#FFCB5A;" d="M371.65,227.219H126.076c-53.357,0-96.628,43.256-96.628,96.628c0,34.195-3.972,55.529,16.105,55.529
	h406.621c8.89,0,16.105-7.215,16.105-16.105v-39.424C468.278,270.476,425.007,227.219,371.65,227.219z"/>
<g>
	<path style="fill:#6F6F6F;" d="M115.634,428.28H69.12c-8.564,0-15.515-6.951-15.515-15.515v-33.404h77.545v33.404
		C131.15,421.345,124.199,428.28,115.634,428.28z"/>
	<path style="fill:#6F6F6F;" d="M428.606,428.28h-46.514c-8.564,0-15.515-6.951-15.515-15.515v-33.404h77.545v33.404
		C444.121,421.345,437.17,428.28,428.606,428.28z"/>
</g>
<path id="SVGCleanerId_2" style="fill:#EC9821;" d="M290.351,285.634h-82.96c-12.226,0-22.14,9.914-22.14,22.14
	c0,12.226,9.914,22.14,22.14,22.14h82.96c12.226,0,22.14-9.914,22.14-22.14C312.491,295.548,302.576,285.634,290.351,285.634z"/>
<path style="fill:#3AA2EB;" d="M129.086,195.615c5.88,0.357,10.83-4.36,10.83-10.24V161.87c0-4.949,4.127-8.704,9.185-8.595
	c0,0,0,0,0.124,0c0,0,0,0,0.124,0c4.949-0.124,9.185,3.646,9.185,8.595v20.992c0,5.648,4.112,10.597,9.65,10.954
	c5.911,0.233,10.736-4.344,10.892-10.085v-28.036c0-5.896,4.903-10.597,10.861-10.333c5.554,0.326,9.728,5.306,9.728,10.861v26.779
	c0.155,5.399,4.282,10.178,9.712,10.519c6.004,0.233,10.83-4.468,10.83-10.364l0.109-22.823c0-5.88,4.825-10.597,10.83-10.364
	c5.539,0.357,9.775,5.306,9.775,10.954v24.7c0.124,5.539,4.717,10.007,10.24,10.007c5.772,0,10.364-4.717,10.364-10.364v-29.432
	c0-4.701,3.879-8.595,8.704-8.595h0.714c4.701-0.357,8.704,3.537,8.704,8.114v28.796c0,5.648,4.127,10.597,9.65,10.954
	c6.004,0.233,10.954-4.468,10.954-10.364v-21.473c0-4.717,3.879-8.595,8.595-8.595h0.698c5.058,0,9.185,4.127,9.185,9.061v16.524
	c0,5.539,4.236,10.597,9.775,10.83c5.88,0.357,10.954-4.36,10.954-10.24v-18.991c0-4.949,4.127-8.704,9.061-8.595
	c0.124,0,0.124,0,0.124,0c0.109,0,0.109,0,0.233,0c4.949-0.124,9.061,3.646,9.061,8.595v20.992c0,5.648,4.236,10.597,9.775,10.954
	c3.15,0.124,5.927-1.164,7.897-3.227l-12.288-35.809c-4.453-13.017-16.694-21.768-30.456-21.768H164.864
	c-13.762,0-26.003,8.751-30.472,21.768l-12.66,36.942C123.516,193.939,126.061,195.491,129.086,195.615z"/>
<path style="fill:#F7C052;" d="M451.553,336.881c-9.961-0.59-18.323,7.37-18.323,17.315v-3.537c0,8.363-6.966,14.739-15.531,14.538
	c0,0,0,0-0.202,0c0,0,0,0-0.202,0c-8.363,0.202-15.531-6.175-15.531-14.538v7.773c0-9.557-6.966-17.92-16.322-18.51
	c-9.992-0.388-18.153,7.339-18.416,17.051v4.143c0,9.961-8.285,17.92-18.37,17.47c-9.402-0.559-16.462-8.968-16.462-18.37v-2.001
	c-0.279-9.138-7.246-17.206-16.431-17.796c-10.147-0.403-18.323,7.556-18.323,17.517l-0.202-4.701
	c0,9.961-8.161,17.92-18.323,17.517c-9.356-0.59-16.524-8.968-16.524-18.51v1.52c-0.202-9.356-7.959-16.927-17.315-16.927
	c-9.759,0-17.517,7.959-17.517,17.517v6.485c0,7.587-5.648,14.538-15.934,14.538c-7.959,0.59-14.739-5.973-14.739-13.731v-5.399
	c0-9.557-6.966-17.92-16.322-18.51c-10.162-0.403-18.51,7.556-18.51,17.517v-6.982c0,7.54-5.601,14.538-15.732,14.538
	c-8.564,0-15.531-6.966-15.531-15.329v15.344c0-9.356-7.168-17.92-16.524-18.323c-9.961-0.59-18.51,7.37-18.51,17.315v-11.171
	c0,8.363-6.966,14.739-15.329,14.538c-0.202,0-0.202,0-0.202,0c-0.202,0-0.202,0-0.403,0c-8.363,0.202-15.329-6.175-15.329-14.538
	v7.773c0-9.557-7.168-17.92-16.524-18.51c-10.147-0.403-18.323,7.571-18.323,17.517v7.013c0.636,8.301,7.401,14.91,15.856,14.91
	h406.621c8.89,0,16.105-7.215,16.105-16.105v-8.068C468.278,345.833,461.11,337.284,451.553,336.881z"/>
<circle style="fill:#FFFFFF;" cx="127.612" cy="307.79" r="42.527"/>
<circle style="fill:#E95353;" cx="127.612" cy="307.79" r="29.2"/>
<circle style="fill:#FFFFFF;" cx="370.114" cy="307.79" r="42.527"/>
<circle style="fill:#E95353;" cx="370.114" cy="307.79" r="29.2"/>
<polygon style="fill:#FFBD49;" points="294.229,100.817 198.827,100.817 206.584,69.446 286.472,69.446 "/>
<g>
	<path id="SVGCleanerId_0_1_" style="fill:#FFBD49;" d="M52.208,199.215H22.28c-12.304,0-22.28,9.976-22.28,22.28
		s9.976,22.28,22.28,22.28h52.208v-22.28C74.488,209.175,64.512,199.215,52.208,199.215z"/>
</g>
<path style="fill:#FFBD49;" d="M475.446,199.215h-29.929c-12.303,0-22.28,9.976-22.28,22.28v22.28h52.208
	c12.303,0,22.28-9.976,22.28-22.28C497.726,209.175,487.75,199.215,475.446,199.215z"/>
<path style="fill:#FFCB5A;" d="M393.79,144.337c-8.921-26.034-33.404-43.52-60.928-43.52H164.864
	c-27.524,0-52.007,17.486-60.944,43.52L61.905,266.938h373.915L393.79,144.337z"/>
<g>
	<path id="SVGCleanerId_1_1_" style="fill:#168DE2;" d="M106.992,234.729l27.415-79.95c4.453-13.017,16.694-21.768,30.472-21.768
		h167.998c13.762,0,26.003,8.751,30.456,21.768l27.415,79.95H106.992z"/>
</g>
<path style="fill:#FFCB5A;" d="M371.65,227.219H126.076c-53.357,0-96.628,43.256-96.628,96.628c0,34.18-3.972,55.513,16.105,55.513
	h406.621c8.89,0,16.105-7.215,16.105-16.105v-39.408C468.278,270.476,425.022,227.219,371.65,227.219z"/>
<g>
	<path style="fill:#6F6F6F;" d="M53.605,379.361v33.404c0,8.564,6.951,15.515,15.515,15.515h46.514
		c8.564,0,15.515-6.951,15.515-15.515v-33.404H53.605z"/>
	<path style="fill:#6F6F6F;" d="M366.577,379.361v33.404c0,8.564,6.951,15.515,15.515,15.515h46.514
		c8.564,0,15.515-6.951,15.515-15.515v-33.404H366.577z"/>
</g>
<g>
	<path id="SVGCleanerId_2_1_" style="fill:#EC9821;" d="M290.351,285.634h-82.96c-12.226,0-22.14,9.914-22.14,22.14
		c0,12.226,9.914,22.14,22.14,22.14h82.96c12.226,0,22.14-9.914,22.14-22.14C312.491,295.548,302.576,285.634,290.351,285.634z"/>
</g>
<path style="fill:#3AA2EB;" d="M129.086,195.615c5.88,0.357,10.83-4.36,10.83-10.24V161.87c0-4.949,4.127-8.704,9.185-8.595
	c0,0,0,0,0.124,0c0,0,0,0,0.124,0c4.949-0.124,9.185,3.646,9.185,8.595v20.992c0,5.648,4.112,10.597,9.65,10.954
	c5.911,0.233,10.736-4.344,10.892-10.085v-28.036c0-5.896,4.903-10.597,10.861-10.333c5.554,0.326,9.728,5.306,9.728,10.861v26.779
	c0.155,5.399,4.282,10.178,9.712,10.519c6.004,0.233,10.83-4.468,10.83-10.364l0.109-22.823c0-5.896,4.825-10.597,10.83-10.364
	c5.539,0.357,9.775,5.306,9.775,10.954v24.7c0.124,5.523,4.717,10.007,10.24,10.007c5.772,0,10.364-4.701,10.364-10.364v-29.432
	c0-4.701,3.879-8.595,8.704-8.595h0.714c4.701-0.357,8.704,3.537,8.704,8.13v28.796c0,5.648,4.127,10.597,9.65,10.954
	c6.004,0.233,10.954-4.468,10.954-10.364v-21.473c0-4.717,3.879-8.595,8.595-8.595h0.698c5.058,0,9.185,4.112,9.185,9.061v16.524
	c0,5.539,4.236,10.597,9.775,10.83c5.88,0.357,10.954-4.36,10.954-10.24V161.87c0-11.466,18.479-11.466,18.479,0v20.992
	c0,5.648,4.236,10.597,9.775,10.954c3.15,0.124,5.927-1.164,7.897-3.227l-12.288-35.809c-4.453-13.017-16.694-21.768-30.456-21.768
	H164.864c-13.762,0-26.003,8.751-30.472,21.768l-12.66,36.942C123.516,193.939,126.061,195.491,129.086,195.615z"/>
<path style="fill:#F7C052;" d="M451.553,336.881c-9.961-0.59-18.323,7.37-18.323,17.315v-3.537c0,8.363-6.966,14.724-15.531,14.538
	c0,0,0,0-0.202,0c0,0,0,0-0.202,0c-8.363,0.202-15.531-6.175-15.531-14.538v7.773c0-9.557-6.966-17.92-16.322-18.525
	c-9.992-0.388-18.153,7.339-18.416,17.067v4.143c0,9.961-8.285,17.92-18.37,17.47c-9.402-0.559-16.462-8.968-16.462-18.37v-2.001
	c-0.279-9.138-7.246-17.206-16.431-17.796c-10.147-0.403-18.323,7.556-18.323,17.517l-0.202-4.701
	c0,9.961-8.161,17.92-18.323,17.517c-9.356-0.59-16.524-8.952-16.524-18.51v1.52c-0.202-9.356-7.959-16.927-17.315-16.927
	c-9.759,0-17.517,7.959-17.517,17.517v6.485c0,7.587-5.648,14.538-15.934,14.538c-7.959,0.59-14.739-5.973-14.739-13.731v-5.399
	c0-9.557-6.966-17.92-16.322-18.51c-10.162-0.403-18.51,7.556-18.51,17.517v-6.982c0,7.54-5.601,14.538-15.732,14.538
	c-8.564,0-15.531-6.966-15.531-15.329v15.344c0-9.356-7.168-17.92-16.524-18.323c-9.961-0.59-18.51,7.37-18.51,17.315v-11.171
	c0,8.363-6.966,14.724-15.329,14.538c-0.202,0-0.202,0-0.202,0c-0.202,0-0.202,0-0.403,0c-8.363,0.202-15.329-6.175-15.329-14.538
	v7.773c0-9.557-7.168-17.92-16.524-18.525c-10.147-0.388-18.323,7.571-18.323,17.517v7.013c0.636,8.301,7.401,14.91,15.856,14.91
	h406.621c8.89,0,16.105-7.215,16.105-16.105v-8.068C468.278,345.833,461.11,337.284,451.553,336.881z"/>
<circle style="fill:#FFFFFF;" cx="127.612" cy="307.79" r="42.527"/>
<circle style="fill:#E95353;" cx="127.612" cy="307.79" r="29.2"/>
<circle style="fill:#FFFFFF;" cx="370.114" cy="307.79" r="42.527"/>
<circle style="fill:#E95353;" cx="370.114" cy="307.79" r="29.2"/>
<polygon style="fill:#FFBD49;" points="286.472,69.446 206.584,69.446 198.827,100.817 294.229,100.817 "/>
<g>
</g>
<g>
</g>
<g>
</g>
<g>
</g>
<g>
</g>
<g>
</g>
<g>
</g>
<g>
</g>
<g>
</g>
<g>
</g>
<g>
</g>
<g>
</g>
<g>
</g>
<g>
</g>
<g>
</g>
</svg>
