<?xml version="1.0" encoding="iso-8859-1"?>
<!-- Generator: Adobe Illustrator 19.0.0, SVG Export Plug-In . SVG Version: 6.00 Build 0)  -->
<svg version="1.1" id="Capa_1" xmlns="http://www.w3.org/2000/svg" xmlns:xlink="http://www.w3.org/1999/xlink" x="0px" y="0px"
	 viewBox="0 0 497.54 497.54" style="enable-background:new 0 0 497.54 497.54;" xml:space="preserve">
<path style="fill:#86DAF1;" d="M370.975,142.414c-3.367-13.933-15.825-23.754-30.161-23.754H156.711
	c-14.336,0-26.795,9.821-30.161,23.754l-45.04,186.57h334.507L370.975,142.414z"/>
<polygon style="fill:#6F6F6F;" points="63.077,324.748 133.997,497.54 248.762,497.54 248.762,232.882 "/>
<polygon style="fill:#777777;" points="434.448,324.748 248.762,232.882 248.762,497.54 363.528,497.54 "/>
<path style="fill:#DAEFF6;" d="M302.972,82.308H194.568c-8.564,0-15.515,6.951-15.515,15.515v20.852h139.435V97.823
	C318.487,89.243,311.536,82.308,302.972,82.308z"/>
<rect x="232.068" style="fill:#CACACA;" width="33.373" height="82.292"/>
<path style="fill:#168DE2;" d="M312.359,147.658H185.166c-13.296,0-24.08,10.783-24.08,24.08s10.783,24.08,24.08,24.08h127.193
	c13.296,0,24.079-10.783,24.079-24.08C336.438,158.441,325.655,147.658,312.359,147.658z"/>
<g>
	<path style="fill:#686868;" d="M133.997,497.54h24.576c-0.636-0.667-1.21-1.443-1.614-2.358c0,0,0,0-0.047-0.093
		c0,0,0,0-0.047-0.093c-1.893-3.832-0.481-8.518,3.398-10.318l16.446-7.633c4.422-2.048,6.796-7.075,5.073-11.543
		c-1.97-4.701-7.292-6.827-11.854-4.872l-21.969,10.193c-4.624,2.141-10.085,0.016-12.04-4.748
		c-1.769-4.484,0.621-9.557,4.965-11.574l20.976-9.728c4.174-2.095,6.408-7.059,4.717-11.435c-2.001-4.794-7.432-6.858-12.04-4.717
		l-17.92,8.192c-4.608,2.141-10.054,0.062-12.055-4.717c-1.738-4.468,0.605-9.573,5.027-11.636l19.347-8.968
		c4.282-2.095,6.128-7.323,4.112-11.652c-2.095-4.515-7.447-6.408-11.885-4.344l-23.04,10.69c-3.693,1.707-8.145,0.078-9.899-3.693
		c-2.312-4.996-0.481-8.751,2.932-10.333l22.559-10.457c4.422-2.048,6.796-7.075,5.073-11.543c-2.001-4.794-7.478-6.951-12.086-4.81
		l-16.818,7.804c-3.693,1.707-8.145,0.078-9.852-3.615l-0.264-0.559c-1.846-3.972-0.109-8.688,3.77-10.488l12.94-6.004
		c4.329-2.001,6.765-7.168,4.934-11.59c-1.862-4.732-7.385-6.997-12.009-4.856l-14.864,6.92c-3.879,1.8-8.316-0.062-10.023-3.972
		c-0.047-0.093-0.047-0.093-0.047-0.093c-0.047-0.093-0.047-0.093-0.093-0.186c-1.893-3.832-0.434-8.425,3.444-10.224l16.446-7.633
		c4.422-2.048,6.765-7.168,5.027-11.636c-0.977-2.358-2.808-4.034-4.949-4.887l-41.27,20.418L133.997,497.54z"/>
	<path style="fill:#686868;" d="M181.907,492.342l-11.171,5.182h23.211c-0.047-0.14-0.016-0.295-0.078-0.419
		C192.008,492.373,186.531,490.217,181.907,492.342z"/>
</g>
<path style="fill:#7C7C7C;" d="M363.528,497.54l70.935-172.792l-49.431-24.452c-1.862,0.977-3.429,2.529-4.251,4.701
	c-1.583,4.515,0.931,9.557,5.415,11.45l16.694,7.075c3.925,1.66,5.539,6.206,3.786,10.1c-0.047,0.093-0.047,0.093-0.078,0.186
	c0,0,0,0-0.047,0.093c-1.567,3.972-5.958,5.973-9.883,4.313l-15.112-6.392c-4.686-1.986-10.131,0.465-11.823,5.26
	c-1.676,4.484,0.915,9.557,5.322,11.419l13.141,5.57c3.755,1.583,6.004,5.896,3.879,10.907c-1.583,3.739-5.973,5.523-9.728,3.941
	l-17.067-7.23c-4.686-1.986-10.085,0.372-11.916,5.213c-1.583,4.515,0.962,9.464,5.446,11.357l22.9,9.697
	c3.444,1.458,5.446,5.135,3.289,10.224c-1.629,3.832-6.02,5.616-9.759,4.034l-23.397-9.914c-4.499-1.893-9.79,0.155-11.729,4.748
	c-1.862,4.406,0.155,9.557,4.515,11.512l19.642,8.316c4.499,1.908,6.997,6.935,5.415,11.45c-1.831,4.856-7.199,7.106-11.885,5.12
	l-18.184-7.587c-4.686-1.986-10.054,0.279-11.885,5.12c-1.552,4.437,0.853,9.325,5.089,11.264l21.287,9.014
	c4.422,1.877,6.966,6.858,5.353,11.388c-1.8,4.825-7.184,7.152-11.869,5.167l-22.295-9.433c-4.624-1.8-9.883,0.496-11.683,5.26
	c-1.583,4.515,0.962,9.464,5.461,11.357l16.694,7.075c3.925,1.66,5.492,6.299,3.739,10.193c-0.047,0.093-0.047,0.093-0.047,0.093
	c-0.047,0.093-0.047,0.093-0.047,0.093c-1.614,4.065-5.989,6.066-9.93,4.406l-15.096-6.392c-4.686-1.986-10.085,0.372-11.792,5.167
	c-0.233,0.621-0.202,1.257-0.279,1.893h61.207V497.54z"/>
<g>
</g>
<g>
</g>
<g>
</g>
<g>
</g>
<g>
</g>
<g>
</g>
<g>
</g>
<g>
</g>
<g>
</g>
<g>
</g>
<g>
</g>
<g>
</g>
<g>
</g>
<g>
</g>
<g>
</g>
</svg>
