<?xml version="1.0" encoding="iso-8859-1"?>
<!-- Generator: Adobe Illustrator 19.0.0, SVG Export Plug-In . SVG Version: 6.00 Build 0)  -->
<svg version="1.1" id="Capa_1" xmlns="http://www.w3.org/2000/svg" xmlns:xlink="http://www.w3.org/1999/xlink" x="0px" y="0px"
	 viewBox="0 0 496.331 496.331" style="enable-background:new 0 0 496.331 496.331;" xml:space="preserve">
<path style="fill:#454545;" d="M340.384,9.577L213.966,135.994c-12.769,12.769-12.769,33.466,0,46.235l100.135,100.135
	c12.769,12.769,33.466,12.769,46.235,0l126.417-126.417c12.769-12.769,12.769-33.466,0-46.235L386.619,9.577
	C373.85-3.192,353.153-3.192,340.384,9.577z M445.84,115.685c7.82,7.804,7.82,20.48,0,28.284s-20.48,7.804-28.284,0l-65.195-65.195
	c-7.804-7.804-7.82-20.48,0-28.284c7.82-7.82,20.48-7.804,28.284,0L445.84,115.685z"/>
<path style="fill:#E5E5E5;" d="M237.348,205.611L0.307,442.651c-3.444,30.798,22.575,56.816,53.372,53.372l23.986-23.986
	L92.529,486.9c8.999,8.999,23.599,8.999,32.597,0c8.999-8.999,8.999-23.599,0-32.597l-14.864-14.864l22.916-22.916l3.755,3.755
	c8.999,8.999,23.599,8.999,32.597,0l0,0c8.999-8.999,8.999-23.599,0-32.597l-3.755-3.755L290.72,258.983L237.348,205.611z"/>
<path style="fill:#F3F3F3;" d="M30.903,492.998c13.777-5.229,16.896-22.838,7.152-33.14l-7.633-7.633
	c-8.363-8.363-8.068-21.969,0.745-30.053c8.363-7.416,21.318-6.284,29.2,1.598l11.093,11.093c7.897,7.432,20.496,8.347,28.688,1.148
	c8.844-8.177,9.014-21.69,0.667-30.037l-14.383-14.708c-8.347-8.347-8.176-21.861,0.667-30.037
	c8.347-7.339,21.364-6.346,29.37,1.676l10.24,10.24c8.006,7.664,20.852,7.509,28.703-0.341c8.176-8.176,8.006-21.364,0-29.37
	l-7.866-7.866c-6.361-6.361-7.447-16.911,1.164-25.538c6.175-7.168,17.346-7.339,23.862-0.838l10.473,10.473
	c8.006,8.006,20.852,9.169,29.2,1.831c8.844-8.176,9.185-21.861,0.838-30.208l-9.154-9.154c-6.687-6.687-6.672-17.687,0-24.359
	c8.952-8.952,20.17-7.866,26.872-1.164l5.616,5.632c7.851,7.851,21.023,9.014,29.2,1.505c7.432-6.578,8.89-17.377,4.251-25.616
	l-32.489-32.489L0.307,442.651C-2.237,465.365,11.292,485.38,30.903,492.998z"/>
<g>
</g>
<g>
</g>
<g>
</g>
<g>
</g>
<g>
</g>
<g>
</g>
<g>
</g>
<g>
</g>
<g>
</g>
<g>
</g>
<g>
</g>
<g>
</g>
<g>
</g>
<g>
</g>
<g>
</g>
</svg>
