<?xml version="1.0" encoding="iso-8859-1"?>
<!-- Generator: Adobe Illustrator 19.0.0, SVG Export Plug-In . SVG Version: 6.00 Build 0)  -->
<svg version="1.1" id="Capa_1" xmlns="http://www.w3.org/2000/svg" xmlns:xlink="http://www.w3.org/1999/xlink" x="0px" y="0px"
	 viewBox="0 0 496.482 496.482" style="enable-background:new 0 0 496.482 496.482;" xml:space="preserve">
<path style="fill:#FFCB5A;" d="M496.438,295.719c0.047-73.247-112.175-80.57-112.175-80.57
	c-92.796-98.351-195.584-86.125-195.584-86.125c-99.452,3.894-142.243,58.337-142.243,58.337H27.788
	c-15.344,0-27.772,12.443-27.772,27.788v85.566c0,15.344,12.443,27.788,27.772,27.788h405.38
	C500.395,338.495,496.438,295.719,496.438,295.719z"/>
<path style="fill:#FFBD49;" d="M395.621,281.539c-7.432-0.45-13.684,5.508-13.684,12.94v10.954c0,6.253-5.213,11.016-11.605,10.861
	c0,0,0,0-0.155,0c0,0,0,0-0.155,0c-6.253,0.155-11.605-4.608-11.605-10.861v-7.789c0-7.137-5.213-13.39-12.195-13.84
	c-7.463-0.295-13.56,5.492-13.762,12.753v8.595c0,7.447-6.191,13.39-13.731,13.064c-7.028-0.419-12.303-6.703-12.303-13.731v-11.683
	c-0.202-6.827-5.415-12.862-12.272-13.296c-7.587-0.295-13.684,5.648-13.684,13.095l-0.155,14.755
	c0,7.432-6.097,13.39-13.684,13.095c-6.997-0.45-12.35-6.703-12.35-13.84v-10.923c-0.155-6.997-5.942-12.645-12.94-12.645
	c-7.292,0-13.095,5.942-13.095,13.095v8.813c0,5.679-4.236,10.861-11.9,10.861c-5.958,0.45-11.016-4.468-11.016-10.255v-11.124
	c0-7.137-5.198-13.39-12.195-13.84c-7.587-0.295-13.84,5.648-13.84,13.095v9.961c0,5.663-4.205,10.861-11.745,10.861
	c-6.392,0-11.605-5.198-11.605-11.45v-6.811c0-6.997-5.353-13.39-12.35-13.684c-7.432-0.45-13.84,5.508-13.84,12.94v9.93
	c0,6.253-5.213,11.016-11.45,10.861c-0.155,0-0.155,0-0.155,0c-0.155,0-0.155,0-0.295,0c-6.253,0.155-11.45-4.608-11.45-10.861
	v-8.533c0-7.137-5.353-13.39-12.35-13.824c-7.587-0.295-13.684,5.648-13.684,13.095v32.349h327.696v-33.28
	C408.111,288.226,402.758,281.833,395.621,281.539z"/>
<g>
	<circle style="fill:#454545;" cx="102.09" cy="315.718" r="52.224"/>
	<circle style="fill:#454545;" cx="384.31" cy="315.718" r="52.224"/>
</g>
<g>
	<path style="fill:#168DE2;" d="M174.794,150.854c-42.574,4.158-71.897,18.246-89.786,30.332c-4.655,3.15-7.447,8.378-7.447,13.995
		v9.759c0,9.325,7.556,16.865,16.865,16.865h80.368L174.794,150.854L174.794,150.854z"/>
	<path style="fill:#168DE2;" d="M324.794,191.07c-53.713-37.314-103.331-41.798-123.888-41.798v72.533h114.254
		c9.325,0,16.865-7.556,16.865-16.865C332.04,199.417,329.34,194.219,324.794,191.07z"/>
	<path style="fill:#168DE2;" d="M174.794,150.854c-42.574,4.158-71.897,18.246-89.786,30.332c-4.655,3.15-7.447,8.378-7.447,13.995
		v9.759c0,9.325,7.556,16.865,16.865,16.865h80.368L174.794,150.854L174.794,150.854z"/>
</g>
<g>
	<circle style="fill:#F3F3F3;" cx="384.31" cy="315.718" r="32.784"/>
	<circle style="fill:#F3F3F3;" cx="102.09" cy="315.718" r="32.784"/>
</g>
<path style="fill:#FFBD49;" d="M23.847,327.882c-5.43,0-9.775-4.453-9.557-9.992c0.326-5.104,4.887-9.014,10.1-9.014h7.975
	c5.104-0.109,9.232-4.344,9.232-9.449c0-5.322-4.344-9.557-9.557-9.557H25.6c-4.158,0-7.928-3.103-7.928-8.688
	c-0.326-4.344,3.258-8.037,7.494-8.037h8.13c5.213,0,9.775-3.801,10.1-8.906c0.217-5.539-4.127-10.1-9.557-10.1h-7.277
	c-4.143,0-7.928-3.088-7.928-8.58c0-4.67,3.801-8.471,8.363-8.471h4.965c5.104,0,9.775-3.91,9.992-9.014
	c0.326-5.43-4.018-10.1-9.449-10.1h-7.246c-4.561,0-8.037-3.801-7.928-8.363c0-0.109,0-0.109,0-0.109c0-0.109,0-0.109,0-0.217
	c-0.109-4.561,3.367-8.363,7.928-8.363h6.237c5.213,0,9.775-3.91,10.1-9.014c0.062-1.66-0.372-3.15-1.024-4.515H27.788
	C12.443,187.393,0,199.836,0,215.18v85.566c0,15.344,12.443,27.788,27.788,27.788h9.309c-0.807-0.217-1.598-0.512-2.467-0.512
	L23.847,327.882z"/>
<path style="fill:#3AA2EB;" d="M200.906,149.287v37.95c1.505,4.174,5.415,7.199,10.069,7.199c6.097,0,10.954-4.98,10.954-10.954
	v-7.37c0-4.98,4.112-9.076,9.201-9.076c6.765,0,9.961,3.987,9.961,8.58v9.309c0,5.973,4.36,11.202,10.193,11.574
	c6.346,0.248,11.574-4.732,11.574-10.954v-8.332c0-4.98,4.112-9.076,9.076-9.076h0.745c5.353,0,9.712,4.36,9.712,9.573v5.694
	c0,5.849,4.468,11.202,10.318,11.45c6.222,0.372,11.574-4.608,11.574-10.83v-5.772C258.777,152.732,218.81,149.287,200.906,149.287z
	"/>
<g>
</g>
<g>
</g>
<g>
</g>
<g>
</g>
<g>
</g>
<g>
</g>
<g>
</g>
<g>
</g>
<g>
</g>
<g>
</g>
<g>
</g>
<g>
</g>
<g>
</g>
<g>
</g>
<g>
</g>
</svg>
