<?xml version="1.0" encoding="iso-8859-1"?>
<!-- Generator: Adobe Illustrator 19.0.0, SVG Export Plug-In . SVG Version: 6.00 Build 0)  -->
<svg version="1.1" id="Capa_1" xmlns="http://www.w3.org/2000/svg" xmlns:xlink="http://www.w3.org/1999/xlink" x="0px" y="0px"
	 viewBox="0 0 496.504 496.504" style="enable-background:new 0 0 496.504 496.504;" xml:space="preserve">
<g>
	<path style="fill:#F3F3F3;" d="M59.386,405.927c-4.81,0-8.704-3.894-8.704-8.704V45.246L20.319,14.867
		c-3.398-3.398-3.398-8.921,0-12.319s8.921-3.398,12.319,0l32.923,32.923c1.629,1.629,2.544,3.848,2.544,6.16v355.576
		C68.106,402.017,64.196,405.927,59.386,405.927z"/>
	<path style="fill:#F3F3F3;" d="M437.118,405.927c4.81,0,8.704-3.894,8.704-8.704V45.246l30.363-30.363
		c3.398-3.398,3.398-8.921,0-12.319s-8.921-3.398-12.319,0l-32.923,32.923c-1.629,1.629-2.544,3.848-2.544,6.16v355.576
		C428.399,402.017,432.293,405.927,437.118,405.927z"/>
</g>
<g>
	<polygon style="fill:#777777;" points="118.716,115.824 118.716,98.416 54.607,98.416 54.607,132.55 36.982,132.55 36.982,228.356 
		89.656,228.356 89.656,132.55 72.031,132.55 72.031,115.824 	"/>
	<polygon style="fill:#777777;" points="376.733,115.824 376.733,98.416 440.842,98.416 440.842,132.55 458.467,132.55 
		458.467,228.356 405.793,228.356 405.793,132.55 423.418,132.55 423.418,115.824 	"/>
</g>
<path style="fill:#ED6262;" d="M417.833,272.977v155.741H77.616V272.977c0-19.239,15.593-34.847,34.847-34.847h270.538
	C402.24,238.13,417.833,253.723,417.833,272.977z"/>
<path style="fill:#E95353;" d="M220.759,428.719h54.024l134.191-178.75c-6.377-7.199-15.593-11.838-25.988-11.838H112.448
	c-10.349,0-19.549,4.608-25.926,11.776L220.759,428.719z"/>
<path style="fill:#777777;" d="M436.156,388.503H59.386c-9.619,0-17.424,7.804-17.424,17.423v30.689
	c0,9.619,7.804,17.423,17.424,17.423h376.754c9.619,0,17.423-7.804,17.423-17.423v-30.689
	C453.58,396.307,445.776,388.503,436.156,388.503z"/>
<g>
	<rect x="154.013" y="339.786" style="fill:#454545;" width="187.578" height="114.238"/>
	<path style="fill:#454545;" d="M68.385,479.065c0,9.619,7.804,17.423,17.424,17.423h33.714c9.619,0,17.424-7.804,17.424-17.423
		v-25.041H68.385V479.065z"/>
	<path style="fill:#454545;" d="M358.596,454.039v25.041c0,9.619,7.804,17.423,17.424,17.423h33.714
		c9.619,0,17.423-7.804,17.423-17.423v-25.041H358.596z"/>
</g>
<g>
	<circle style="fill:#FFE21F;" cx="102.673" cy="421.271" r="21.876"/>
	<circle style="fill:#FFE21F;" cx="392.884" cy="421.271" r="21.876"/>
</g>
<g>
	<rect x="172.305" y="356.325" style="fill:#6F6F6F;" width="150.916" height="9.076"/>
	<rect x="172.305" y="380.435" style="fill:#6F6F6F;" width="150.916" height="9.076"/>
	<rect x="172.305" y="404.391" style="fill:#6F6F6F;" width="150.916" height="9.076"/>
	<rect x="172.305" y="428.377" style="fill:#6F6F6F;" width="150.916" height="9.076"/>
</g>
<rect x="112.076" y="88.642" style="fill:#F3F3F3;" width="271.298" height="149.488"/>
<rect x="129.499" y="106.065" style="fill:#168DE2;" width="236.451" height="114.641"/>
<path style="fill:#ED6262;" d="M400.937,88.642H94.512v-4.592c0-20.651,16.741-37.407,37.407-37.407h231.61
	c20.651,0,37.407,16.741,37.407,37.407V88.642z"/>
<path style="fill:#E95353;" d="M331.801,19.646H163.632c-14.91,0-26.996,12.086-26.996,26.996h222.161
	C358.798,31.732,346.727,19.646,331.801,19.646z"/>
<g>
	<path style="opacity:0.25;fill:#FFFFFF;enable-background:new    ;" d="M365.95,106.065H129.499v53.543
		c0,5.042,3.863,9.666,9.014,9.868c5.368,0.326,9.868-3.972,9.868-9.34v-17.315c0-4.499,3.755-7.944,8.378-7.835c0,0,0,0,0.109,0
		c0,0,0,0,0.109,0c4.499-0.109,8.378,3.336,8.378,7.835v19.146c0,5.151,3.755,9.666,8.797,9.976c5.384,0.202,9.79-3.956,9.93-9.201
		v-25.553c0-5.368,4.468-9.666,9.914-9.418c5.073,0.295,8.875,4.825,8.875,9.899v24.421c0.14,4.934,3.91,9.278,8.859,9.588
		c5.477,0.217,9.868-4.08,9.868-9.449l0.109-20.806c0-5.368,4.406-9.666,9.883-9.449c5.042,0.326,8.906,4.825,8.906,9.976v22.512
		c0.109,5.042,4.298,9.123,9.34,9.123c5.26,0,9.449-4.298,9.449-9.449v-26.81c0-4.298,3.537-7.835,7.944-7.835
		c5.834,0,8.58,3.444,8.58,7.401v26.252c0,5.151,3.755,9.666,8.797,9.976c5.477,0.217,9.976-4.08,9.976-9.449v-19.565
		c0-4.298,3.537-7.835,7.835-7.835c5.741,0,9.014,3.941,9.014,8.27v15.065c0,5.042,3.863,9.666,8.906,9.868
		c5.368,0.326,9.976-3.972,9.976-9.34v-17.315c0-4.499,3.755-7.944,8.27-7.835c0.109,0,0.109,0,0.109,0c0.109,0,0.109,0,0.217,0
		c4.515-0.109,8.27,3.336,8.27,7.835v19.146c0,5.151,3.863,9.666,8.906,9.976c5.477,0.217,9.868-4.08,9.868-9.449L365.95,106.065
		L365.95,106.065z"/>
	<path style="opacity:0.25;fill:#FFFFFF;enable-background:new    ;" d="M382.489,238.13H113.627
		c-19.534,0-35.359,15.825-35.359,35.359v19.254c0,7.246,5.554,13.871,12.955,14.181c7.711,0.465,14.181-5.71,14.181-13.405v-2.606
		c0-6.47,5.399-11.404,12.024-11.249c0,0,0,0,0.155,0c0,0,0,0,0.155,0c6.47-0.155,12.024,4.779,12.024,11.249v5.213
		c0,7.401,5.399,13.871,12.645,14.336c7.727,0.295,14.057-5.679,14.258-13.203v-14.445c0-7.727,6.423-13.871,14.227-13.529
		c7.277,0.434,12.753,6.935,12.753,14.227v12.784c0.217,7.075,5.616,13.327,12.722,13.777c7.866,0.31,14.181-5.849,14.181-13.56
		l0.155-7.587c0-7.711,6.315-13.871,14.181-13.56c7.246,0.465,12.8,6.935,12.8,14.336v10.054c0.155,7.246,6.16,13.095,13.405,13.095
		c7.556,0,13.56-6.16,13.56-13.56v-16.26c0-6.159,5.089-11.248,11.404-11.248c8.409,0,12.335,4.98,12.335,10.628v15.407
		c0,7.401,5.399,13.871,12.645,14.336c7.866,0.31,14.336-5.849,14.336-13.56v-5.818c0-6.175,5.089-11.249,11.248-11.249
		c8.285,0,12.94,5.694,12.94,11.869v-0.652c0,7.246,5.554,13.871,12.8,14.181c7.711,0.465,14.336-5.71,14.336-13.405v-2.607
		c0-6.47,5.399-11.404,11.869-11.249c0.155,0,0.155,0,0.155,0c0.155,0,0.155,0,0.31,0c6.47-0.155,11.869,4.779,11.869,11.249v5.213
		c0,7.401,5.554,13.871,12.8,14.336c7.866,0.31,14.181-5.865,14.181-13.56v-23.428C417.833,253.956,402.007,238.13,382.489,238.13z"
		/>
</g>
<g>
</g>
<g>
</g>
<g>
</g>
<g>
</g>
<g>
</g>
<g>
</g>
<g>
</g>
<g>
</g>
<g>
</g>
<g>
</g>
<g>
</g>
<g>
</g>
<g>
</g>
<g>
</g>
<g>
</g>
</svg>
