<?xml version="1.0" encoding="iso-8859-1"?>
<!-- Generator: Adobe Illustrator 19.0.0, SVG Export Plug-In . SVG Version: 6.00 Build 0)  -->
<svg version="1.1" id="Capa_1" xmlns="http://www.w3.org/2000/svg" xmlns:xlink="http://www.w3.org/1999/xlink" x="0px" y="0px"
	 viewBox="0 0 496.5 496.5" style="enable-background:new 0 0 496.5 496.5;" xml:space="preserve">
<path style="fill:#FFCB5A;" d="M405.271,201.922c-19.642,0-37.36-11.248-46.158-28.796c-21.023-41.984-78.289-72.052-145.61-72.052
	c-72.425,0-133.229,34.863-149.768,81.78c-4.251,12.071-12.738,22.125-24.017,28.191c-23.645,12.722-39.703,37.748-39.703,66.591
	v32.737c0,17.129,13.886,31.03,31.03,31.03h449.939c8.533,0,15.515-6.982,15.515-15.515v-32.892
	C496.5,242.727,455.695,201.922,405.271,201.922z"/>
<g>
	<path style="fill:#168DE2;" d="M205.203,193.637v-75.574c-64.372,2.56-116.845,34.397-127.271,75.574H205.203z"/>
	<path style="fill:#168DE2;" d="M349.122,193.637c-10.426-41.177-62.898-73.014-127.271-75.574v75.574H349.122z"/>
</g>
<path style="opacity:0.25;fill:#FFFFFF;enable-background:new    ;" d="M477.572,269.785c-11.264-0.683-20.744,8.347-20.744,19.611
	v5.337c0,9.464-7.882,16.679-17.579,16.446c0,0,0,0-0.217,0c0,0,0,0-0.233,0c-9.464,0.217-17.579-6.982-17.579-16.446v-9.169
	c0-10.814-7.882-20.278-18.479-20.961c-11.311-0.434-20.542,8.301-20.852,19.316v22.652c0,11.28-9.387,20.278-20.806,19.782
	c-10.643-0.636-18.634-10.147-18.634-20.79v-20.232c-0.31-10.349-8.207-19.487-18.587-20.139
	c-11.497-0.45-20.728,8.564-20.728,19.828l-0.217,12.645c0,11.264-9.247,20.294-20.728,19.844
	c-10.597-0.683-18.711-10.147-18.711-20.961v-16.26c-0.233-10.597-9.014-19.161-19.611-19.161c-11.047,0-19.828,9.014-19.828,19.828
	v25.321c0,8.642-6.439,16.446-18.029,16.446c-9.014,0.683-16.679-6.765-16.679-15.546v-24.079c0-10.814-7.882-20.278-18.479-20.961
	c-11.497-0.45-20.961,8.564-20.961,19.828v10.069c0,8.595-6.408,16.446-17.811,16.446c-9.697,0-17.579-7.882-17.579-17.346v-0.605
	c0-10.597-8.114-20.278-18.711-20.728c-11.264-0.683-20.961,8.347-20.961,19.611v5.337c0,9.464-7.882,16.679-17.346,16.446
	c-0.233,0-0.233,0-0.233,0c-11.155,0-17.811-7.727-17.811-16.446v-9.169c0-10.814-8.114-20.278-18.711-20.961
	C9.247,264.169,0.031,273.152,0,284.4v25.988c0,17.129,13.886,31.03,31.03,31.03H480.97c8.533,0,15.515-6.982,15.515-15.515v-32.892
	c0-1.164-0.124-2.281-0.171-3.429C495.849,279.358,488.06,270.22,477.572,269.785z"/>
<circle style="fill:#454545;" cx="97.404" cy="341.341" r="54.086"/>
<circle style="fill:#777777;" cx="97.404" cy="341.341" r="34.863"/>
<circle style="fill:#454545;" cx="421.872" cy="341.341" r="54.086"/>
<circle style="fill:#777777;" cx="421.872" cy="341.341" r="34.863"/>
<path style="fill:#ED6262;" d="M481.171,242.479h-18.37c-9.138,0-16.555,7.416-16.555,16.555c0,9.138,7.416,16.555,16.555,16.555
	h31.992C492.451,263.533,487.765,252.331,481.171,242.479z"/>
<g>
</g>
<g>
</g>
<g>
</g>
<g>
</g>
<g>
</g>
<g>
</g>
<g>
</g>
<g>
</g>
<g>
</g>
<g>
</g>
<g>
</g>
<g>
</g>
<g>
</g>
<g>
</g>
<g>
</g>
</svg>
