<?xml version="1.0" encoding="iso-8859-1"?>
<!-- Generator: Adobe Illustrator 19.0.0, SVG Export Plug-In . SVG Version: 6.00 Build 0)  -->
<svg version="1.1" id="Capa_1" xmlns="http://www.w3.org/2000/svg" xmlns:xlink="http://www.w3.org/1999/xlink" x="0px" y="0px"
	 viewBox="0 0 493.196 493.196" style="enable-background:new 0 0 493.196 493.196;" xml:space="preserve">
<path style="fill:#CACACA;" d="M462.398,274.448H425.1c-3.087,0-5.585-2.498-5.585-5.585s2.498-5.585,5.585-5.585h37.298
	c2.203,0,4.003-1.8,4.003-4.003v-34.63c0-3.088,2.498-5.585,5.585-5.585s5.585,2.498,5.585,5.585v34.63
	C477.572,267.652,470.761,274.448,462.398,274.448z"/>
<path style="fill:#777777;" d="M484.399,177.757H459.59c-4.624,0-8.378,3.755-8.378,8.378v59.982c0,4.624,3.755,8.378,8.378,8.378
	h24.809c4.624,0,8.378-3.755,8.378-8.378v-59.982C492.777,181.512,489.022,177.757,484.399,177.757z"/>
<path style="fill:#CACACA;" d="M30.798,274.448h37.298c3.088,0,5.585-2.498,5.585-5.585s-2.498-5.585-5.585-5.585H30.798
	c-2.219,0-4.003-1.8-4.003-4.003v-34.63c0-3.088-2.498-5.585-5.585-5.585s-5.585,2.498-5.585,5.585v34.63
	C15.624,267.652,22.435,274.448,30.798,274.448z"/>
<path style="fill:#777777;" d="M8.797,177.757h24.809c4.624,0,8.378,3.755,8.378,8.378v59.982c0,4.624-3.755,8.378-8.378,8.378
	H8.797c-4.624,0-8.378-3.755-8.378-8.378v-59.982C0.419,181.512,4.174,177.757,8.797,177.757z"/>
<path style="fill:#E95353;" d="M394.628,0H98.568c-20.046,0-36.29,16.244-36.29,36.29v135.168h368.64V36.29
	C430.918,16.244,414.673,0,394.628,0z"/>
<path style="fill:#EBCDB7;" d="M441.654,394.116c-0.481,3.91-1.024,7.82-1.645,11.698H53.201c-6.175-38.819-6.175-78.383,0-117.232
	H440.01c1.396,8.797,2.482,17.579,3.243,26.438C445.533,341.349,444.99,367.88,441.654,394.116z"/>
<path style="fill:#F6E2CD;" d="M438.815,272.275l-9.79-132.965c-1.676-22.776-20.635-40.417-43.489-40.417H107.66
	c-22.838,0-41.813,17.625-43.489,40.417l-9.79,132.965L438.815,272.275L438.815,272.275z"/>
<path style="fill:#454545;" d="M437.574,255.162c-7.711,7.401-18.447,12.009-30.425,12.009H86.047
	c-11.978,0-22.714-4.608-30.425-12.009l-2.42,33.404H440.01L437.574,255.162z"/>
<path style="fill:#168DE2;" d="M415.108,140.335c-1.133-15.407-14.119-27.477-29.572-27.477H107.66
	c-15.453,0-28.439,12.071-29.572,27.477l-7.975,108.482c4.67,2.87,10.162,4.406,15.95,4.406h321.102
	c5.787,0,11.28-1.536,15.95-4.406L415.108,140.335z"/>
<path style="fill:#454545;" d="M50.874,382.898c-2.389,17.486-1.381,35.545,2.746,53.295c2.001,8.533,10.799,14.91,19.316,14.91
	c115.774,0,231.548,0,347.322,0c8.518,0,17.315-6.377,19.316-14.91c4.127-17.734,5.135-35.809,2.746-53.295
	C311.839,382.898,181.357,382.898,50.874,382.898z"/>
<g>
	<polygon style="fill:#6F6F6F;" points="338.928,436.705 154.267,436.705 145.889,417.001 347.307,417.001 	"/>
	<path style="fill:#6F6F6F;" d="M420.274,451.103H375.56v30.922c0,6.159,4.996,11.171,11.171,11.171h31.48
		c6.144,0,11.171-5.027,11.171-11.171v-33.296C426.527,450.265,423.362,451.103,420.274,451.103z"/>
	<path style="fill:#6F6F6F;" d="M63.829,448.729v33.296c0,6.144,5.027,11.171,11.171,11.171h31.48
		c6.16,0,11.171-4.996,11.171-11.171v-30.922h-44.73C69.834,451.103,66.669,450.265,63.829,448.729z"/>
	<polygon style="fill:#6F6F6F;" points="360.076,398.352 133.12,398.352 103.796,335.469 389.399,335.469 	"/>
</g>
<g>
	<path style="fill:#F6E2CD;" d="M443.237,315.004l-53.838,20.464l-29.308,62.883h69.772c5.71,0,11.559-2.234,12.226-7.928
		C445.037,365.397,445.424,340.123,443.237,315.004z"/>
	<path style="fill:#F6E2CD;" d="M103.812,335.469l-53.838-20.464c-2.188,25.119-1.815,50.393,1.133,75.419
		c0.667,5.694,6.501,7.928,12.226,7.928h69.787L103.812,335.469z"/>
</g>
<g>
	<path style="fill:#99E7B8;" d="M394.799,418.087c-10.861,0-19.642,8.797-19.642,19.642h23.645c10.845,0,19.642-8.797,19.642-19.642
		H394.799z"/>
	<path style="fill:#99E7B8;" d="M98.397,418.087c10.845,0,19.642,8.797,19.642,19.642H94.394c-10.845,0-19.642-8.797-19.642-19.642
		H98.397z"/>
</g>
<g>
	<path style="fill:#454545;" d="M231.858,363.706c-0.155,1.97-0.217,4.422,0,6.392h-96.52l-2.979-6.392H231.858z"/>
	<path style="fill:#454545;" d="M360.836,363.706l-2.979,6.392h-96.52c0.217-1.97,0.155-4.422,0-6.392H360.836z"/>
	<path style="fill:#454545;" d="M125.704,349.417h110.328c-1.474,2.544-2.684,5.616-3.413,9.014H129.924L125.704,349.417z"/>
	<path style="fill:#454545;" d="M367.492,349.417l-4.22,9.014h-102.71c-0.729-3.398-1.924-6.47-3.398-9.014H367.492z"/>
	<path style="fill:#454545;" d="M232.634,375.374c0.729,3.429,1.893,6.501,3.413,9.014H142.01l-4.22-9.014H232.634z"/>
	<path style="fill:#454545;" d="M355.406,375.374l-4.22,9.014h-94.037c1.505-2.513,2.684-5.585,3.398-9.014H355.406z"/>
</g>
<circle style="fill:#E95353;" cx="400.912" cy="371.479" r="17.548"/>
<circle style="fill:#FFBD49;" cx="424.851" cy="347.601" r="7.975"/>
<circle style="fill:#E95353;" cx="92.3" cy="371.479" r="17.548"/>
<circle style="fill:#FFBD49;" cx="68.329" cy="347.601" r="7.975"/>
<path style="fill:#DD4E4E;" d="M394.628,0H98.568C79.981,0,64.822,14.041,62.712,32.054v34.863c0,7.851,6.02,15.05,14.041,15.376
	c8.363,0.496,15.376-6.191,15.376-14.538V40.774c0-7.013,5.849-12.366,13.033-12.195c0,0,0,0,0.171,0c0,0,0,0,0.171,0
	c7.028-0.171,13.033,5.182,13.033,12.195v29.805c0,8.021,5.849,15.05,13.7,15.546c8.378,0.326,15.236-6.16,15.469-14.32V31.992
	c0-8.363,6.966-15.05,15.422-14.677c7.897,0.465,13.824,7.525,13.824,15.422v38.012c0.233,7.664,6.082,14.445,13.793,14.941
	c8.518,0.341,15.376-6.346,15.376-14.708l0.171-32.396c0-8.363,6.858-15.05,15.376-14.708c7.851,0.496,13.871,7.525,13.871,15.546
	v35.064c0.171,7.851,6.687,14.196,14.538,14.196c8.192,0,14.708-6.687,14.708-14.708V32.209c0-6.687,5.523-12.195,12.366-12.195
	c9.107,0,13.374,5.384,13.374,11.528v40.867c0,8.021,5.849,15.05,13.715,15.546c8.518,0.341,15.546-6.346,15.546-14.708V42.775
	c0-6.687,5.523-12.195,12.195-12.195c8.983,0,14.041,6.175,14.041,12.862v23.459c0,7.851,6.02,15.05,13.871,15.376
	c8.363,0.496,15.546-6.191,15.546-14.538V40.774c0-6.485,4.872-12.195,13.374-12.195c7.013-0.171,12.862,5.182,12.862,12.195v29.805
	c0,8.021,6.02,15.05,13.871,15.546c8.518,0.326,15.375-6.361,15.375-14.708V36.29C430.918,16.244,414.673,0,394.628,0z"/>
<path style="fill:#1A98E5;" d="M416.877,179.852v-15.546l-1.769-23.971c-1.133-15.407-14.119-27.477-29.572-27.477H107.66
	c-15.453,0-28.439,12.071-29.572,27.477l-3.367,45.816c2.296,2.234,5.213,3.801,8.611,3.941c7.866,0.465,14.476-5.834,14.476-13.7
	v-25.398c0-6.609,5.508-11.652,12.272-11.497c0,0,0,0,0.155,0c0,0,0,0,0.155,0c6.609-0.155,12.272,4.872,12.272,11.497v28.082
	c0,7.556,5.508,14.165,12.909,14.646c7.897,0.31,14.352-5.803,14.569-13.483v-37.516c0-7.882,6.547-14.165,14.522-13.824
	c7.432,0.434,13.017,7.09,13.017,14.522v35.809c0.217,7.215,5.741,13.607,12.986,14.072c8.021,0.31,14.476-5.973,14.476-13.855
	l0.155-30.503c0-7.866,6.454-14.165,14.476-13.855c7.401,0.481,13.064,7.09,13.064,14.646v33.032
	c0.155,7.401,6.299,13.374,13.7,13.374c7.711,0,13.855-6.299,13.855-13.855v-39.346c0-6.299,5.198-11.497,11.652-11.497h0.946
	c6.299-0.481,11.652,4.717,11.652,10.861v38.493c0,7.556,5.508,14.165,12.909,14.631c8.021,0.31,14.646-5.973,14.646-13.855v-28.703
	c0-6.299,5.198-11.497,11.497-11.497h0.946c6.765,0,12.288,5.508,12.288,12.117v22.094c0,7.401,5.663,14.165,13.064,14.491
	c7.866,0.465,14.646-5.834,14.646-13.7v-25.398c0-6.609,5.508-11.652,12.117-11.497c0.155,0,0.155,0,0.155,0c0.155,0,0.155,0,0.31,0
	c6.609-0.155,12.117,4.872,12.117,11.497v28.082c0,7.556,5.663,14.165,13.064,14.646
	C410.422,194.033,416.877,187.733,416.877,179.852z"/>
<g>
</g>
<g>
</g>
<g>
</g>
<g>
</g>
<g>
</g>
<g>
</g>
<g>
</g>
<g>
</g>
<g>
</g>
<g>
</g>
<g>
</g>
<g>
</g>
<g>
</g>
<g>
</g>
<g>
</g>
</svg>
