<?xml version="1.0" encoding="iso-8859-1"?>
<!-- Generator: Adobe Illustrator 19.0.0, SVG Export Plug-In . SVG Version: 6.00 Build 0)  -->
<svg version="1.1" id="Capa_1" xmlns="http://www.w3.org/2000/svg" xmlns:xlink="http://www.w3.org/1999/xlink" x="0px" y="0px"
	 viewBox="0 0 496.485 496.485" style="enable-background:new 0 0 496.485 496.485;" xml:space="preserve">
<g>
	<polygon style="fill:#6F6F6F;" points="339.565,0 156.92,0 128.14,28.796 139.45,40.277 163.561,16.182 240.159,16.182 
		240.159,86.947 256.326,86.947 256.326,16.182 332.769,16.182 356.864,40.277 368.361,28.796 	"/>
	<polygon style="fill:#6F6F6F;" points="371.029,496.485 424.774,496.485 357.035,431.538 323.925,431.538 339.797,453.415 
		156.688,453.415 172.56,431.538 139.45,431.538 71.711,496.485 125.44,496.485 145.377,469.023 351.108,469.023 	"/>
</g>
<path style="fill:#F3F3F3;" d="M384,68.174c-88.747-25.197-182.784-25.197-271.531,0c-32.318,9.185-54.427,39.052-54.427,72.657
	v218.903c0,41.72,33.823,75.543,75.543,75.543h229.314c41.72,0,75.543-33.823,75.543-75.543V140.831
	C438.443,107.225,416.334,77.359,384,68.174z"/>
<path style="fill:#FFBD49;" d="M58.042,286.673v73.061c0,41.72,33.823,75.543,75.543,75.543h229.314
	c41.72,0,75.543-33.823,75.543-75.543v-73.061H58.042z"/>
<path style="fill:#168DE2;" d="M406.094,266.892V140.831c0-19.285-12.722-36.368-30.922-41.534
	c-41.286-11.714-83.999-17.656-126.929-17.656s-85.644,5.942-126.929,17.656c-18.199,5.167-30.922,22.249-30.922,41.534v126.061
	H406.094z"/>
<g>
	<path style="opacity:0.25;fill:#FFFFFF;enable-background:new    ;" d="M90.391,266.892h315.687v-71.494
		c0-6.734-5.167-12.893-12.04-13.188c-7.168-0.434-13.188,5.306-13.188,12.474v23.118c0,6.02-5.011,10.597-11.186,10.457
		c0,0,0,0-0.14,0c0,0,0,0-0.14,0c-6.02,0.14-11.171-4.437-11.171-10.457v-25.569c0-6.873-5.011-12.893-11.745-13.328
		c-7.184-0.279-13.064,5.275-13.25,12.272v34.133c0,7.168-5.973,12.893-13.219,12.583c-6.765-0.403-11.854-6.454-11.854-13.219
		v-32.597c-0.202-6.578-5.213-12.381-11.823-12.8c-7.308-0.279-13.188,5.446-13.188,12.614l-0.14,27.772
		c0,7.168-5.88,12.909-13.188,12.614c-6.734-0.434-11.885-6.454-11.885-13.328v-30.068c-0.14-6.734-5.741-12.179-12.474-12.179
		c-7.028,0-12.614,5.741-12.614,12.614v35.824c0,5.725-4.732,10.457-10.612,10.457h-0.853c-5.741,0.434-10.612-4.298-10.612-9.883
		v-35.033c0-6.873-5.011-12.893-11.745-13.328c-7.308-0.279-13.328,5.446-13.328,12.614v26.128c0,5.741-4.732,10.457-10.457,10.457
		h-0.853c-6.16,0-11.171-5.011-11.171-11.031v-20.108c0-6.734-5.151-12.893-11.885-13.188c-7.168-0.434-13.328,5.306-13.328,12.474
		v23.118c0,6.02-5.011,10.597-11.031,10.457c-0.14,0-0.14,0-0.14,0c-0.14,0-0.14,0-0.295,0c-6.02,0.14-11.031-4.437-11.031-10.457
		v-25.569c0-6.873-5.151-12.893-11.9-13.328c-7.308-0.279-13.188,5.446-13.188,12.614v75.357H90.391z"/>
	<path style="opacity:0.25;fill:#FFFFFF;enable-background:new    ;" d="M438.443,286.673H58.042v58.104
		c0,8.114,6.222,15.546,14.507,15.888c8.626,0.512,15.888-6.392,15.888-15.034v0.171c0-7.246,6.035-12.769,13.467-12.598
		c0,0,0,0,0.171,0c0,0,0,0,0.171,0c7.261-0.171,13.467,5.353,13.467,12.598v2.762c0,8.285,6.051,15.546,14.165,16.058
		c8.657,0.341,15.748-6.361,15.981-14.801v-13.095c0-8.642,7.184-15.546,15.934-15.158c8.161,0.481,14.274,7.773,14.274,15.934
		v11.233c0.233,7.928,6.284,14.926,14.243,15.438c8.813,0.341,15.888-6.563,15.888-15.189l0.171-5.43
		c0-8.642,7.075-15.546,15.888-15.205c8.114,0.528,14.336,7.773,14.336,16.058v8.192c0.171,8.114,6.904,14.677,15.019,14.677
		c8.456,0,15.189-6.904,15.189-15.189v-15.127c0-6.904,5.694-12.614,12.784-12.614c9.356,0,13.808,5.523,13.808,11.916v14.181
		c0,8.285,6.051,15.546,14.165,16.058c8.813,0.341,16.058-6.563,16.058-15.189v-3.444c0-6.904,5.694-12.598,12.598-12.598h1.039
		c7.432,0,13.467,6.035,13.467,13.296v-3.801c0,8.114,6.222,15.546,14.336,15.888c8.626,0.512,16.058-6.392,16.058-15.019v0.171
		c0-7.246,6.035-12.769,13.297-12.598c0.171,0,0.171,0,0.171,0c0.171,0,0.171,0,0.341,0c7.246-0.171,13.297,5.353,13.297,12.598
		v2.762c0,8.285,6.222,15.546,14.336,16.058c8.813,0.341,15.888-6.563,15.888-15.205L438.443,286.673L438.443,286.673z"/>
</g>
<circle style="fill:#E95353;" cx="135.618" cy="350.332" r="37.64"/>
<path style="fill:#FFFFFF;" d="M135.618,395.497c-24.933,0-45.211-20.294-45.211-45.211c0-24.933,20.278-45.227,45.211-45.227
	s45.227,20.294,45.227,45.227C180.829,375.203,160.551,395.497,135.618,395.497z M135.618,320.202
	c-16.586,0-30.068,13.498-30.068,30.068c0,16.57,13.483,30.068,30.068,30.068c16.586,0,30.068-13.498,30.068-30.068
	C165.686,333.7,152.188,320.202,135.618,320.202z"/>
<circle style="fill:#E95353;" cx="360.867" cy="350.332" r="37.64"/>
<path style="fill:#FFFFFF;" d="M360.867,395.497c-24.933,0-45.227-20.294-45.227-45.211c0-24.933,20.278-45.227,45.227-45.227
	c24.933,0,45.227,20.294,45.227,45.227C406.094,375.203,385.8,395.497,360.867,395.497z M360.867,320.202
	c-16.586,0-30.068,13.498-30.068,30.068c0,16.57,13.483,30.068,30.068,30.068c16.586,0,30.068-13.498,30.068-30.068
	C390.935,333.7,377.453,320.202,360.867,320.202z"/>
<g>
</g>
<g>
</g>
<g>
</g>
<g>
</g>
<g>
</g>
<g>
</g>
<g>
</g>
<g>
</g>
<g>
</g>
<g>
</g>
<g>
</g>
<g>
</g>
<g>
</g>
<g>
</g>
<g>
</g>
</svg>
