<?xml version="1.0" encoding="iso-8859-1"?>
<!-- Generator: Adobe Illustrator 19.0.0, SVG Export Plug-In . SVG Version: 6.00 Build 0)  -->
<svg version="1.1" id="Capa_1" xmlns="http://www.w3.org/2000/svg" xmlns:xlink="http://www.w3.org/1999/xlink" x="0px" y="0px"
	 viewBox="0 0 496.469 496.469" style="enable-background:new 0 0 496.469 496.469;" xml:space="preserve">
<g>
	<circle style="fill:#E5E5E5;" cx="21.644" cy="215.071" r="21.163"/>
	<rect x="21.644" y="227.669" style="fill:#E5E5E5;" width="44.808" height="8.58"/>
	<circle style="fill:#E5E5E5;" cx="474.919" cy="215.071" r="21.163"/>
	<rect x="430.08" y="227.669" style="fill:#E5E5E5;" width="44.808" height="8.58"/>
</g>
<g>
	<path style="fill:#454545;" d="M27.803,367.988V413.2c0,17.129,13.886,31.03,31.03,31.03h22.342c17.144,0,31.03-13.902,31.03-31.03
		v-45.211H27.803z"/>
	<path style="fill:#454545;" d="M384.279,367.988V413.2c0,17.129,13.886,31.03,31.03,31.03h22.342
		c17.144,0,31.03-13.902,31.03-31.03v-45.211H384.279z"/>
</g>
<path style="fill:#168DE2;" d="M333.328,58.011c-56.46-7.696-113.711-7.696-170.17,0c-60.369,8.223-109.739,65.102-109.739,126.045
	v58.228h389.648v-58.228C443.066,123.128,393.712,66.234,333.328,58.011z"/>
<path style="fill:#6F6F6F;" d="M69.306,226.382v-42.325c0-52.689,43.954-103.222,95.992-110.297
	c27.4-3.724,55.296-5.616,82.944-5.616c27.648,0,55.544,1.893,82.944,5.616c52.038,7.075,95.992,57.592,95.992,110.297v42.325
	H69.306z"/>
<path style="fill:#168DE2;" d="M415.93,225.745c-111.399-14.926-223.977-14.926-335.376,0
	c-31.558,4.236-55.125,31.279-55.125,63.131v88.995c148.542,0,297.069,0,445.611,0v-88.995
	C471.056,257.024,447.488,229.981,415.93,225.745z"/>
<path style="fill:#777777;" d="M471.692,342.59H24.793C11.093,342.59,0,353.699,0,367.383v1.195c0,13.7,11.109,24.793,24.793,24.793
	h446.883c13.7,0,24.793-11.109,24.793-24.793v-1.195C496.485,353.699,485.376,342.59,471.692,342.59z"/>
<circle style="fill:#FFFFFF;" cx="92.16" cy="286.611" r="40.743"/>
<circle style="fill:#FFE21F;" cx="92.16" cy="286.611" r="28.532"/>
<circle style="fill:#FFFFFF;" cx="404.325" cy="286.611" r="40.743"/>
<circle style="fill:#FFE21F;" cx="404.325" cy="286.611" r="28.532"/>
<path style="fill:#3AA2EB;" d="M248.242,342.59c52.581,0,97.745-39.983,117.791-97.311c3.243-9.294,8.564-17.175,15.158-23.599
	c-88.436-9.371-177.447-9.371-265.883,0c6.578,6.423,11.9,14.305,15.158,23.599C150.497,302.592,195.662,342.59,248.242,342.59z"/>
<path style="fill:#7F7F7F;" d="M496.392,366.468c-0.496-13.25-11.326-23.878-24.7-23.878H24.793c-12.04,0-22.063,8.58-24.312,19.952
	c0.745,6.377,8.363,12.024,18.649,12.303c11.264,0.434,20.728-5.337,20.728-12.536v1.552c0-6.051,7.882-10.659,17.579-10.519
	c0,0,0,0,0.233,0c7.571,0,17.811,3.258,17.811,10.519v0.9c0,6.904,7.897,12.955,18.479,13.39
	c11.295,0.279,20.542-5.306,20.852-12.335v-4.561c0-7.215,9.387-12.955,20.806-12.629c10.643,0.403,18.634,6.485,18.634,13.281
	v3.025c0.31,6.609,8.208,12.443,18.587,12.862c11.497,0.295,20.744-5.477,20.744-12.676L193.8,362
	c0-7.199,9.232-12.955,20.728-12.676c10.597,0.434,18.711,6.485,18.711,13.39v5.43c0.217,6.765,9.014,12.241,19.611,12.241
	c11.047,0,19.828-5.756,19.828-12.676v-6.253c0-7.556,10.411-10.504,18.029-10.504c9.014-0.434,16.679,4.313,16.679,9.93v5.477
	c0,6.904,7.882,12.955,18.479,13.39c11.497,0.295,20.961-5.477,20.961-12.676v-1.474c0-7.494,10.24-10.504,17.796-10.504
	c9.697,0,17.579,5.042,17.579,11.093v-4.577c0,6.765,8.114,12.955,18.711,13.25c11.264,0.434,20.961-5.337,20.961-12.536v1.552
	c0-7.54,10.349-10.519,18.029-10.519c9.464-0.14,17.346,4.468,17.346,10.519v0.9c0,6.904,8.114,12.955,18.711,13.39
	C486.912,378.43,495.554,373.17,496.392,366.468z"/>
<path style="fill:#757575;" d="M331.186,73.759c-27.4-3.724-55.296-5.616-82.944-5.616s-55.56,1.893-82.944,5.616
	c-31.884,4.344-60.695,25.026-78.258,52.503v28.92c0,10.085,7.354,18.897,17.222,19.534c10.535,0.403,19.146-7.742,19.425-17.998
	v-50.021c0-10.519,8.751-18.913,19.378-18.432c9.93,0.59,17.377,9.464,17.377,19.378v47.787c0.279,9.635,7.649,18.153,17.33,18.773
	c10.705,0.419,19.316-7.975,19.316-18.479l0.202-40.712c0-10.504,8.611-18.913,19.332-18.494
	c9.868,0.636,17.424,9.449,17.424,19.534v44.079c0.217,9.868,8.394,17.858,18.277,17.858c10.287,0,18.479-8.409,18.479-18.494
	v-52.519c0-8.394,6.935-15.329,15.546-15.329c11.388,0,16.803,6.734,16.803,14.491v51.371c0,10.085,7.354,18.897,17.222,19.534
	c10.721,0.419,19.534-7.975,19.534-18.479v-38.322c0-8.409,6.935-15.329,15.329-15.329c11.311,0,17.641,7.789,17.641,16.167v29.479
	c0,9.868,7.556,18.913,17.439,19.316c10.504,0.636,19.534-7.773,19.534-18.277v-24.716
	C392.347,99.095,363.334,78.134,331.186,73.759z"/>
<g>
</g>
<g>
</g>
<g>
</g>
<g>
</g>
<g>
</g>
<g>
</g>
<g>
</g>
<g>
</g>
<g>
</g>
<g>
</g>
<g>
</g>
<g>
</g>
<g>
</g>
<g>
</g>
<g>
</g>
</svg>
