<?xml version="1.0" encoding="iso-8859-1"?>
<!-- Generator: Adobe Illustrator 19.0.0, SVG Export Plug-In . SVG Version: 6.00 Build 0)  -->
<svg version="1.1" id="Capa_1" xmlns="http://www.w3.org/2000/svg" xmlns:xlink="http://www.w3.org/1999/xlink" x="0px" y="0px"
	 viewBox="0 0 496.485 496.485" style="enable-background:new 0 0 496.485 496.485;" xml:space="preserve">
<path style="fill:#E5E5E5;" d="M331.636,135.734H31.03C13.886,135.734,0,149.62,0,166.765v193.629
	c0,17.129,13.886,31.03,31.03,31.03h331.636V166.765C362.667,149.62,348.781,135.734,331.636,135.734z"/>
<path style="fill:#FFCB5A;" d="M434.424,216.398h-71.758v175.026h133.818V278.458C472.25,254.224,458.659,240.632,434.424,216.398z"
	/>
<polygon style="fill:#168DE2;" points="479.93,291.305 479.93,289.443 423.44,232.952 379.221,232.952 379.221,291.305 "/>
<circle style="fill:#6F6F6F;" cx="429.615" cy="391.424" r="49.028"/>
<circle style="fill:#7F7F7F;" cx="429.615" cy="391.424" r="32.675"/>
<g>
	<polygon style="fill:#E95353;" points="318.557,225.458 283.803,225.458 283.803,190.689 254.929,190.689 254.929,225.458 
		220.16,225.458 220.16,254.332 254.929,254.332 254.929,289.086 283.803,289.086 283.803,254.332 318.557,254.332 	"/>
	<path style="fill:#E95353;" d="M285.867,95.814c-16.322,0-29.541,13.234-29.541,29.556v10.364h59.097v-10.38
		C315.423,109.048,302.189,95.814,285.867,95.814z"/>
	<path style="fill:#E95353;" d="M348.967,120.421h-17.222c-2.576,0-4.655-2.079-4.655-4.655s2.079-4.655,4.655-4.655h17.222
		c2.576,0,4.655,2.079,4.655,4.655C353.621,118.342,351.527,120.421,348.967,120.421z"/>
	<path style="fill:#E95353;" d="M240.469,120.421h-17.237c-2.56,0-4.655-2.079-4.655-4.655s2.079-4.655,4.655-4.655h17.237
		c2.576,0,4.655,2.079,4.655,4.655C245.108,118.342,243.029,120.421,240.469,120.421z"/>
	<path style="fill:#E95353;" d="M285.867,82.564c-2.576,0-4.655-2.079-4.655-4.655V60.688c0-2.576,2.079-4.655,4.655-4.655
		c2.56,0,4.655,2.079,4.655,4.655v17.222C290.521,80.485,288.427,82.564,285.867,82.564z"/>
</g>
<path style="fill:#DDDCDB;" d="M61.688,391.424h300.978v-32.287c0-6.423-4.918-12.303-11.481-12.567
	c-6.827-0.403-12.567,5.058-12.567,11.885v7.09c0,5.741-4.779,10.116-10.659,9.976c0,0,0,0-0.14,0c0,0,0,0-0.14,0
	c-5.741,0.14-10.659-4.236-10.659-9.976v-4.189c0-6.563-4.779-12.303-11.202-12.707c-6.858-0.264-12.459,5.042-12.645,11.714v4.934
	c0,6.842-5.694,12.303-12.614,11.993c-6.454-0.388-11.295-6.16-11.295-12.614v-7.758c-0.186-6.268-4.98-11.807-11.279-12.21
	c-6.966-0.279-12.567,5.198-12.567,12.024l-0.14,10.597c0,6.827-5.601,12.304-12.567,12.024
	c-6.423-0.419-11.342-6.144-11.342-12.707v-7.059c-0.14-6.423-5.461-11.621-11.885-11.621c-6.687,0-12.024,5.461-12.024,12.024v5.12
	c0,5.461-4.515,9.976-10.116,9.976c-7.432,0-10.938-4.391-10.938-9.433v-7.261c0-6.563-4.779-12.288-11.202-12.707
	c-6.966-0.279-12.707,5.198-12.707,12.024v6.175c0,5.477-4.515,9.976-9.976,9.976c-7.339,0-11.481-5.058-11.481-10.519v-3.289
	c0-6.423-4.918-12.304-11.342-12.567c-6.78-0.388-12.645,5.073-12.645,11.916v6.16c0,5.741-4.779,10.116-10.519,9.976
	c-0.14,0-0.14,0-0.14,0c-0.14,0-0.14,0-0.279,0c-5.741,0.14-10.519-4.236-10.519-9.976v-4.887c0-6.563-4.918-12.303-11.342-12.707
	c-6.966-0.279-12.567,5.198-12.567,12.024C61.688,359.99,61.688,391.424,61.688,391.424z"/>
<path style="fill:#F2F2F2;" d="M331.636,135.734H31.03C13.886,135.734,0,149.62,0,166.765v3.708c0,7.727,5.927,14.801,13.808,15.127
	c8.223,0.496,15.127-6.082,15.127-14.305v-8.533c0-6.904,5.756-12.164,12.831-12.009c0,0,0,0,0.171,0c0,0,0,0,0.171,0
	c6.904-0.171,12.831,5.104,12.831,12.009v5.042c0,7.897,5.756,14.801,13.483,15.298c8.254,0.326,14.988-6.066,15.205-14.088v-5.958
	c0-8.239,6.842-14.801,15.174-14.429c7.773,0.465,13.591,7.401,13.591,15.174v9.34c0.233,7.556,5.989,14.212,13.576,14.693
	c8.378,0.326,15.127-6.237,15.127-14.46l0.171-12.738c0-8.223,6.734-14.801,15.127-14.476c7.727,0.496,13.653,7.401,13.653,15.298
	v8.502c0.171,7.727,6.578,13.979,14.305,13.979c8.052,0,14.476-6.578,14.476-14.476v-6.175c0-6.578,5.43-12.009,12.164-12.009
	c8.937,0,13.157,5.275,13.157,11.342v8.735c0,7.897,5.756,14.801,13.483,15.298c8.394,0.326,15.298-6.253,15.298-14.476v-7.432
	c0-6.578,5.43-12.009,12.009-12.009c8.844,0,13.808,6.097,13.808,12.66v3.956c0,7.727,5.911,14.801,13.638,15.127
	c8.223,0.496,15.298-6.082,15.298-14.305v-7.432c0-6.904,5.756-12.164,12.66-12.009c0.171,0,0.171,0,0.171,0
	c8.13,0,12.986,5.632,12.986,12.009v5.865c0,7.897,5.927,14.801,13.653,15.298c8.394,0.326,15.127-6.253,15.127-14.476v-6.92
	C360.153,147.402,347.322,135.734,331.636,135.734z"/>
<rect x="29.665" y="190.689" style="fill:#168DE2;" width="98.397" height="98.397"/>
<path style="fill:#3AA2EB;" d="M29.665,217.763c0,5.384,4.127,10.318,9.619,10.535c5.725,0.341,10.55-4.236,10.55-9.961v-5.942
	c0-4.81,4.003-8.487,8.937-8.363c0,0,0,0,0.109,0c0,0,0,0,0.109,0c4.81-0.109,8.937,3.553,8.937,8.363v3.506
	c0,5.492,4.018,10.318,9.402,10.659c5.741,0.217,10.442-4.22,10.597-9.821v-4.143c0-5.741,4.763-10.318,10.566-10.054
	c5.415,0.326,9.48,5.167,9.48,10.566v6.516c0.155,5.26,4.174,9.899,9.449,10.24c5.849,0.233,10.535-4.344,10.535-10.085
	l0.093-29.091H29.665V217.763z"/>
<circle style="fill:#6F6F6F;" cx="75.543" cy="391.424" r="49.028"/>
<circle style="fill:#7F7F7F;" cx="75.543" cy="391.424" r="32.675"/>
<g>
</g>
<g>
</g>
<g>
</g>
<g>
</g>
<g>
</g>
<g>
</g>
<g>
</g>
<g>
</g>
<g>
</g>
<g>
</g>
<g>
</g>
<g>
</g>
<g>
</g>
<g>
</g>
<g>
</g>
</svg>
