<?xml version="1.0" encoding="iso-8859-1"?>
<!-- Generator: Adobe Illustrator 19.0.0, SVG Export Plug-In . SVG Version: 6.00 Build 0)  -->
<svg version="1.1" id="Capa_1" xmlns="http://www.w3.org/2000/svg" xmlns:xlink="http://www.w3.org/1999/xlink" x="0px" y="0px"
	 viewBox="0 0 494.545 494.545" style="enable-background:new 0 0 494.545 494.545;" xml:space="preserve">
<g>
	<circle style="fill:#CACACA;" cx="394.504" cy="298.923" r="88.421"/>
	<circle style="fill:#CACACA;" cx="100.042" cy="298.923" r="88.421"/>
</g>
<g>
	<path style="fill:#C1C1C1;" d="M100.057,210.517c-48.826,0-88.421,39.579-88.421,88.421c0,16.4,4.546,31.697,12.319,44.854
		c1.939-2.544,3.305-5.57,3.305-9.014v-76.086c0-6.997,5.741-12.738,12.738-12.645c9.433,0,13.808,5.477,13.808,11.962v77.731
		c0,8.27,6.128,15.546,14.289,16.043c20.589,0.915,15.95-20.232,15.95-74.426c0-7.618,6.749-13.405,13.607-12.645h0.186
		c7.385-0.093,13.421,5.927,13.421,13.312V330c0,8.254,6.128,15.546,14.383,16.043c8.657,0.388,15.95-6.516,15.95-15.174V275.2
		c0-7.292,6.128-12.738,13.421-12.629c0.093,0,0.093,0,0.202,0c8.301,0,13.607,5.927,13.607,12.629v53.729
		c0,5.818,3.196,11.093,7.944,13.871c7.416-12.94,11.729-27.896,11.729-43.892C188.478,250.096,148.899,210.517,100.057,210.517z"/>
	<path style="fill:#C1C1C1;" d="M394.504,210.517c-48.826,0-88.421,39.579-88.421,88.421c0,16.4,4.546,31.697,12.319,44.854
		c1.939-2.544,3.289-5.57,3.289-9.014v-76.086c0-6.997,5.741-12.738,12.738-12.645c9.433,0,13.808,5.477,13.808,11.962v77.731
		c0,8.27,6.128,15.546,14.289,16.043c8.751,0.388,15.95-6.516,15.95-15.174v-59.268c0-6.997,5.741-12.738,12.738-12.738
		c10.519,1.179,14.491,6.485,14.491,13.421V330c0,8.254,6.128,15.546,14.383,16.043c8.642,0.388,15.934-6.516,15.934-15.174V275.2
		c0-7.292,6.128-12.738,13.421-12.629c0.093,0,0.093,0,0.186,0c0.093,0,0.093,0,0.202,0c7.292-0.093,13.421,5.337,13.421,12.629
		v53.729c0,5.818,3.196,11.093,7.959,13.871c7.416-12.94,11.729-27.896,11.729-43.892
		C482.909,250.096,443.33,210.517,394.504,210.517z"/>
</g>
<g>
	<path style="fill:#777777;" d="M100.057,198.881C44.885,198.881,0,243.766,0,298.923C0,354.095,44.885,398.98,100.057,398.98
		s100.057-44.901,100.057-100.057C200.114,243.751,155.229,198.881,100.057,198.881z M100.057,375.707
		c-42.325,0-76.784-34.444-76.784-76.784s34.444-76.769,76.784-76.769s76.784,34.444,76.784,76.769
		C176.842,341.264,142.398,375.707,100.057,375.707z"/>
	<path style="fill:#777777;" d="M394.504,198.881c-55.172,0-100.057,44.885-100.057,100.042
		c0,55.172,44.885,100.057,100.057,100.057s100.042-44.901,100.042-100.057C494.545,243.751,449.676,198.881,394.504,198.881z
		 M394.504,375.707c-42.341,0-76.784-34.444-76.784-76.784s34.444-76.769,76.784-76.769s76.769,34.444,76.769,76.769
		C471.273,341.264,436.829,375.707,394.504,375.707z"/>
</g>
<path style="fill:#F3F3F3;" d="M407.568,298.24L356.15,111.003l-24.095,0.14l10.147,36.973H174.313l-17.284-35.887
	c-2.793-5.803-9.759-8.254-15.531-5.446c-5.787,2.793-8.223,9.744-5.43,15.531l18.51,38.431L89.631,292.437
	c-3.801,7.727,1.831,16.787,10.442,16.787H233.41c0.031,0,0.062-0.016,0.093-0.016c3.708-0.047,6.858-1.707,8.626-3.925
	L351.884,183.35L385.117,304.4c1.645,5.973,7.835,9.868,14.305,8.145C405.628,310.838,409.274,304.431,407.568,298.24z
	 M118.768,285.952l48.624-98.568l47.476,98.568H118.768z M236.358,276.907L185.53,171.373h145.827L236.358,276.907z"/>
<path style="fill:#FFCB5A;" d="M193.288,123.539h-69.896c-6.423,0-11.636-5.213-11.636-11.636c0-6.423,5.213-11.636,11.636-11.636
	h69.896c6.423,0,11.636,5.213,11.636,11.636S199.711,123.539,193.288,123.539z"/>
<path style="fill:#ED6262;" d="M410.515,147.634c-8.564,0-15.515-6.935-15.515-15.515v-5.523h-53.713
	c-8.564,0-15.515-6.935-15.515-15.515s6.951-15.515,15.515-15.515h69.229c8.564,0,15.515,6.935,15.515,15.515v21.039
	C426.031,140.699,419.08,147.634,410.515,147.634z"/>
<g>
</g>
<g>
</g>
<g>
</g>
<g>
</g>
<g>
</g>
<g>
</g>
<g>
</g>
<g>
</g>
<g>
</g>
<g>
</g>
<g>
</g>
<g>
</g>
<g>
</g>
<g>
</g>
<g>
</g>
</svg>
