<?xml version="1.0" encoding="iso-8859-1"?>
<!-- Generator: Adobe Illustrator 19.0.0, SVG Export Plug-In . SVG Version: 6.00 Build 0)  -->
<svg version="1.1" id="Capa_1" xmlns="http://www.w3.org/2000/svg" xmlns:xlink="http://www.w3.org/1999/xlink" x="0px" y="0px"
	 viewBox="0 0 495.166 495.166" style="enable-background:new 0 0 495.166 495.166;" xml:space="preserve">
<g>
	<path style="fill:#777777;" d="M57.189,141.328H20.402C9.138,141.328,0,150.466,0,161.73v11.838
		c0,11.264,9.138,20.402,20.402,20.402h57.189v-32.24C77.591,150.466,68.468,141.328,57.189,141.328z"/>
	<path style="fill:#777777;" d="M474.779,141.328h-36.802c-11.264,0-20.402,9.138-20.402,20.402v32.24h57.189
		c11.264,0,20.402-9.138,20.402-20.402V161.73C495.182,150.466,486.043,141.328,474.779,141.328z"/>
</g>
<path style="fill:#6F6F6F;" d="M394.907,33.218H100.274c-17.144,0-31.03,13.886-31.03,31.03v156.3h356.709v-156.3
	C425.937,47.104,412.051,33.218,394.907,33.218z"/>
<path style="fill:#168DE2;" d="M85.892,203.9V65.381c0-8.564,6.951-15.515,15.515-15.515h292.368
	c8.564,0,15.515,6.951,15.515,15.515v138.504H85.892V203.9z"/>
<path style="fill:#6F6F6F;" d="M402.603,193.645H92.579c-39.61,0-71.727,32.116-71.727,71.727v123.64h453.477v-123.64
	C474.329,225.761,442.213,193.645,402.603,193.645z"/>
<g>
	<path style="fill:#454545;" d="M20.852,389.011v57.422c0,8.564,6.951,15.515,15.515,15.515h56.444
		c8.564,0,15.515-6.951,15.515-15.515v-57.422H20.852z"/>
	<path style="fill:#454545;" d="M386.855,389.011v57.422c0,8.564,6.951,15.515,15.515,15.515h56.444
		c8.564,0,15.515-6.951,15.515-15.515v-57.422H386.855z"/>
</g>
<path style="fill:#3AA2EB;" d="M393.775,49.866H101.407c-8.564,0-15.515,6.951-15.515,15.515v46.282
	c0,6.904,5.291,13.219,12.335,13.514c7.339,0.434,13.498-5.43,13.498-12.769V88.716c0-6.16,5.136-10.861,11.45-10.721
	c0,0,0,0,0.14,0c0,0,0,0,0.14,0c6.16-0.14,11.45,4.546,11.45,10.721v26.19c0,7.044,5.136,13.219,12.04,13.653
	c7.37,0.279,13.374-5.415,13.576-12.583V81.005c0-7.354,6.113-13.219,13.545-12.878c6.935,0.403,12.133,6.609,12.133,13.545v33.389
	c0.202,6.734,5.353,12.691,12.117,13.11c7.494,0.295,13.498-5.57,13.498-12.909l0.155-28.455c0-7.339,6.02-13.219,13.498-12.924
	c6.904,0.434,12.179,6.609,12.179,13.653v30.798c0.155,6.904,5.865,12.474,12.769,12.474c7.199,0,12.924-5.865,12.924-12.909V81.191
	c0-5.865,4.841-10.721,10.861-10.721h0.884c5.865-0.434,10.861,4.406,10.861,10.131v35.902c0,7.044,5.136,13.219,12.04,13.653
	c7.494,0.295,13.653-5.57,13.653-12.924V90.469c0-5.88,4.841-10.721,10.721-10.721h0.884c6.315,0,11.45,5.136,11.45,11.295v20.62
	c0,6.904,5.291,13.219,12.179,13.514c7.339,0.434,13.653-5.43,13.653-12.769V88.716c0-6.16,5.135-10.861,11.311-10.721
	c0.155,0,0.155,0,0.155,0c0.14,0,0.14,0,0.295,0c6.16-0.14,11.295,4.546,11.295,10.721v26.19c0,7.044,5.291,13.219,12.179,13.653
	c7.494,0.295,13.514-5.585,13.514-12.924V65.381C409.29,56.817,402.339,49.866,393.775,49.866z"/>
<path style="fill:#777777;" d="M457.045,331.404c-10.287-0.621-18.944,7.618-18.944,17.904v0.59c0,8.642-7.199,15.236-16.058,15.034
	c0,0,0,0-0.202,0c0,0,0,0-0.202,0c-8.642,0.202-16.058-6.392-16.058-15.034v-4.08c0-9.883-7.199-18.525-16.88-19.146
	c-10.318-0.403-18.758,7.587-19.037,17.641v16.4c0,10.302-8.564,18.525-18.991,18.06c-9.728-0.574-17.02-9.263-17.02-18.991v-8.797
	c-0.279-9.449-7.494-17.796-16.989-18.401c-10.504-0.419-18.944,7.82-18.944,18.106l-0.202,1.877
	c0,10.287-8.44,18.525-18.944,18.122c-9.681-0.621-17.082-9.263-17.082-19.146v-5.167c-0.202-9.681-8.239-17.501-17.904-17.501
	c-10.085,0-18.106,8.239-18.106,18.106v13.436c0,8.239-6.796,15.034-15.236,15.034c-11.217,0-16.462-6.64-16.462-14.196v-12.319
	c0-9.883-7.199-18.525-16.88-19.146c-10.504-0.419-19.146,7.82-19.146,18.106v-0.481c0,7.789-5.787,15.034-16.26,15.034
	c-8.859,0-16.058-7.199-16.058-15.856v3.739c0-9.681-7.401-18.525-17.082-18.944c-10.287-0.621-19.146,7.618-19.146,17.904v0.59
	c0,8.642-7.199,15.236-15.856,15.034c-0.202,0-0.202,0-0.202,0c-10.178,0-16.26-7.059-16.26-15.034v-4.08
	c0-9.883-7.416-18.525-17.082-19.146c-10.504-0.403-18.944,7.82-18.944,18.122v37.826c0,2.25,0.434,4.375,1.071,6.408h451.336
	c0.636-2.033,1.071-4.158,1.071-6.408v-32.272C474.329,340.666,466.913,331.807,457.045,331.404z"/>
<circle style="fill:#F3F3F3;" cx="118.52" cy="299.737" r="55.358"/>
<circle style="fill:#FFBD49;" cx="118.52" cy="299.737" r="38.059"/>
<circle style="fill:#F3F3F3;" cx="376.661" cy="299.737" r="55.358"/>
<circle style="fill:#FFBD49;" cx="376.661" cy="299.737" r="38.059"/>
<g>
</g>
<g>
</g>
<g>
</g>
<g>
</g>
<g>
</g>
<g>
</g>
<g>
</g>
<g>
</g>
<g>
</g>
<g>
</g>
<g>
</g>
<g>
</g>
<g>
</g>
<g>
</g>
<g>
</g>
</svg>
