<?xml version="1.0" encoding="iso-8859-1"?>
<!-- Generator: Adobe Illustrator 19.0.0, SVG Export Plug-In . SVG Version: 6.00 Build 0)  -->
<svg version="1.1" id="Capa_1" xmlns="http://www.w3.org/2000/svg" xmlns:xlink="http://www.w3.org/1999/xlink" x="0px" y="0px"
	 viewBox="0 0 496.5 496.5" style="enable-background:new 0 0 496.5 496.5;" xml:space="preserve">
<polygon style="fill:#F3F3F3;" points="478.534,342.854 330.55,342.854 330.55,170.465 410.702,170.465 478.534,254.557 "/>
<polygon style="fill:#168DE2;" points="457.216,254.852 403.968,186.725 346.826,186.725 346.826,254.852 "/>
<path style="fill:#FFE38F;" d="M298.015,92.424H48.718c-17.967,0-32.551,14.569-32.551,32.551v217.879H330.55V124.959
	C330.55,106.992,315.982,92.424,298.015,92.424z"/>
<path style="fill:#777777;" d="M482.102,342.838H14.383C6.439,342.838,0,349.277,0,357.221c0,7.944,6.439,14.383,14.383,14.383
	h467.735c7.944,0,14.383-6.439,14.383-14.383C496.485,349.277,490.046,342.838,482.102,342.838z"/>
<circle style="fill:#666666;" cx="82.975" cy="357.221" r="46.856"/>
<circle style="fill:#CACACA;" cx="82.975" cy="357.221" r="30.301"/>
<circle style="fill:#666666;" cx="410.965" cy="357.221" r="46.856"/>
<circle style="fill:#CACACA;" cx="410.965" cy="357.221" r="30.301"/>
<path style="fill:#FFDB6F;" d="M298.015,92.424H48.718c-17.967,0-32.551,14.569-32.551,32.551v17.842
	c0,6.703,5.136,12.847,11.993,13.126c7.137,0.434,13.126-5.275,13.126-12.412v-18.339c0-5.989,4.996-10.566,11.124-10.426
	c0,0,0,0,0.14,0c0,0,0,0,0.14,0c6.004-0.124,11.155,4.437,11.155,10.426v15.282c0,6.858,4.996,12.847,11.698,13.281
	c7.152,0.279,13.002-5.26,13.203-12.226v-16.074c0-7.152,5.942-12.847,13.172-12.521c6.749,0.403,11.807,6.423,11.807,13.172v19.022
	c0.202,6.547,5.198,12.335,11.776,12.753c7.277,0.279,13.126-5.415,13.126-12.552l0.14-21.969c0-7.137,5.849-12.847,13.126-12.567
	c6.703,0.434,11.838,6.423,11.838,13.265v18.292c0.14,6.703,5.71,12.133,12.412,12.133c6.997,0,12.552-5.71,12.552-12.552v-16.291
	c0-5.71,4.717-10.411,10.566-10.411c7.773,0,11.419,4.608,11.419,9.852v18.479c0,6.842,4.996,12.847,11.698,13.265
	c7.277,0.295,13.265-5.415,13.265-12.552v-17.361c0-5.71,4.717-10.411,10.426-10.411c7.664,0,11.993,5.275,11.993,10.985v14.336
	c0,6.703,5.135,12.847,11.854,13.126c7.137,0.434,13.265-5.275,13.265-12.412v-17.346c0-5.477,4.22-10.426,11.124-10.426
	c0.14,0,0.14,0,0.279,0c5.989-0.14,10.985,4.422,10.985,10.426v16.012c0,6.842,5.135,12.847,11.838,13.265
	c7.277,0.279,13.126-5.43,13.126-12.552v-16.958C330.55,106.992,315.982,92.424,298.015,92.424z"/>
<rect x="62.728" y="146.339" style="fill:#FFBD49;" width="221.293" height="142.6"/>
<path style="fill:#FFCB5A;" d="M62.728,288.939H284.02v-35.468c0-4.717-3.615-9.045-8.44-9.247
	c-5.027-0.295-9.247,3.724-9.247,8.735v12.893c0,4.22-3.522,7.432-7.835,7.339c0,0,0,0-0.109,0c0,0,0,0-0.109,0
	c-4.22,0.093-7.835-3.119-7.835-7.339V255.1c0-4.825-3.522-9.045-8.239-9.34c-5.042-0.202-9.154,3.708-9.294,8.611v11.311
	c0,5.027-4.189,9.045-9.278,8.813c-4.748-0.279-8.301-4.53-8.301-9.263v-13.39c-0.14-4.608-3.662-8.688-8.285-8.983
	c-5.12-0.202-9.247,3.817-9.247,8.844l-0.093,15.469c0,5.027-4.112,9.045-9.247,8.844c-4.717-0.295-8.332-4.515-8.332-9.34v-12.878
	c-0.109-4.717-4.018-8.533-8.735-8.533c-4.918,0-8.844,4.018-8.844,8.844v11.45c0,3.832-2.855,7.339-8.037,7.339
	c-4.018,0.295-7.432-3.01-7.432-6.935v-13.017c0-4.825-3.522-9.03-8.239-9.34c-5.12-0.202-9.34,3.817-9.34,8.844v12.226
	c0,3.817-2.839,7.339-7.944,7.339c-4.313,0-7.835-3.506-7.835-7.727V254.2c0-4.717-3.615-9.045-8.332-9.247
	c-5.027-0.31-9.34,3.724-9.34,8.735v12.195c0,4.22-3.506,7.432-7.727,7.339c-0.109,0-0.109,0-0.109,0c-0.093,0-0.093,0-0.202,0
	c-4.22,0.093-7.727-3.119-7.727-7.339v-11.264c0-4.825-3.615-9.045-8.332-9.34c-5.12-0.202-9.247,3.817-9.247,8.844v34.816H62.728z"
	/>
<g>
</g>
<g>
</g>
<g>
</g>
<g>
</g>
<g>
</g>
<g>
</g>
<g>
</g>
<g>
</g>
<g>
</g>
<g>
</g>
<g>
</g>
<g>
</g>
<g>
</g>
<g>
</g>
<g>
</g>
</svg>
