<?xml version="1.0" encoding="iso-8859-1"?>
<!-- Generator: Adobe Illustrator 19.0.0, SVG Export Plug-In . SVG Version: 6.00 Build 0)  -->
<svg version="1.1" id="Capa_1" xmlns="http://www.w3.org/2000/svg" xmlns:xlink="http://www.w3.org/1999/xlink" x="0px" y="0px"
	 viewBox="0 0 493.397 493.397" style="enable-background:new 0 0 493.397 493.397;" xml:space="preserve">
<polygon style="fill:#3AA2EB;" points="46.918,298.969 245.139,298.969 245.139,33.381 "/>
<path style="fill:#168DE2;" d="M226.226,58.717c0.977,1.52,1.66,3.274,1.614,5.275c0,0,0,0,0,0.124c0,0,0,0,0,0.124
	c0.124,5.058-3.739,9.402-8.797,9.402h-3.941L201.93,91.299c1.877,2.017,4.515,3.305,7.478,3.382h9.418
	c6.035,0,10.861,5.027,10.581,11.124c-0.341,5.694-5.43,9.976-11.124,9.976h-11.931c-5.539,0.171-10.426,4.391-10.768,9.945
	c-0.248,6.144,4.577,11.093,10.612,11.093l14.414,0.124c6.035,0,10.845,4.949,10.612,11.093c-0.357,5.663-5.43,10.007-11.217,10.007
	H208.71c-5.663,0.124-10.256,4.825-10.256,10.488c0,5.911,4.825,10.612,10.612,10.612h9.588c4.825,0,8.797,3.972,8.797,8.921v0.729
	c0.357,4.825-3.615,8.921-8.316,8.921H207.67c-5.787,0-10.845,4.22-11.217,9.883c-0.248,6.144,4.577,11.217,10.612,11.217h10.519
	c4.825,0,8.813,3.972,8.813,8.797v0.729c0,5.182-4.22,9.402-9.278,9.402h-7.975c-5.663,0-10.861,4.344-11.093,10.007
	c-0.357,6.02,4.453,11.217,10.488,11.217h10.504c5.058,0,8.921,4.22,8.797,9.278c0,0.124,0,0.124,0,0.124c0,0.124,0,0.124,0,0.248
	c0.124,5.058-3.739,9.278-8.797,9.278h-9.371c-5.787,0-10.845,4.344-11.217,10.007c-0.248,6.144,4.577,11.093,10.612,11.093h36.073
	V33.381L226.226,58.717z"/>
<path style="fill:#FFCB5A;" d="M239.926,28.928c125.859,98.785,86.776,251.268,7.571,290.444h201.294
	C460.164,171.652,358.059,47.22,239.926,28.928z"/>
<path style="fill:#E5E5E5;" d="M245.139,14.933c-6.423,0-11.636,5.213-11.636,11.636v311.746c0,6.423,5.213,11.636,11.636,11.636
	c6.423,0,11.636-5.213,11.636-11.636V26.57C256.776,20.146,251.563,14.933,245.139,14.933z"/>
<polygon style="fill:#ED6262;" points="435.122,478.464 58.259,478.464 0,319.372 493.382,319.372 "/>
<path style="fill:#E95353;" d="M32.768,408.863c4.049-3.568,6.64-8.766,6.64-14.615v-37.066c0-9.402,7.835-16.57,17.47-16.353
	c0,0,0,0,0.217,0c10.907,0,17.687,7.804,17.687,16.353v32.303c0,10.736,7.835,20.154,18.37,20.837
	c11.233,0.434,20.418-8.254,20.713-19.192v-33.528c0-11.217,9.325-20.17,20.666-19.658c10.581,0.636,18.525,10.085,18.525,20.666
	v38.152c0.31,10.287,8.161,19.363,18.479,20.015c11.419,0.45,20.604-8.502,20.604-19.704l0.248-42.791
	c0-11.202,9.185-20.154,20.604-19.72c10.519,0.667,18.587,10.085,18.587,20.837v37.019c0.217,10.519,8.952,19.037,19.487,19.037
	c10.969,0,19.704-8.952,19.704-19.72v-33.839c0-8.952,7.385-16.353,16.57-16.353c12.148,0,17.92,7.168,17.92,15.453v37.329
	c0,10.752,7.835,20.154,18.37,20.821c11.419,0.45,20.837-8.518,20.837-19.704v-35.561c0-8.968,7.385-16.353,16.353-16.353
	c12.055,0,18.82,8.316,18.82,17.253v30.813c0,10.535,8.068,20.154,18.587,20.604c11.202,0.667,20.821-8.285,20.821-19.487v-35.53
	c0-8.704,6.516-16.353,17.92-16.353c9.402-0.217,17.237,6.951,17.237,16.353v33.435c0,6.284,2.948,11.854,7.339,15.748
	l31.853-86.993H0L32.768,408.863z"/>
<g>
</g>
<g>
</g>
<g>
</g>
<g>
</g>
<g>
</g>
<g>
</g>
<g>
</g>
<g>
</g>
<g>
</g>
<g>
</g>
<g>
</g>
<g>
</g>
<g>
</g>
<g>
</g>
<g>
</g>
</svg>
