<?xml version="1.0" encoding="iso-8859-1"?>
<!-- Generator: Adobe Illustrator 19.0.0, SVG Export Plug-In . SVG Version: 6.00 Build 0)  -->
<svg version="1.1" id="Capa_1" xmlns="http://www.w3.org/2000/svg" xmlns:xlink="http://www.w3.org/1999/xlink" x="0px" y="0px"
	 viewBox="0 0 496.485 496.485" style="enable-background:new 0 0 496.485 496.485;" xml:space="preserve">
<path style="fill:#ED6262;" d="M337.873,77.669C331.466,33.094,293.267,0,248.242,0s-83.223,33.094-89.631,77.669L103.61,452.484
	h289.264L337.873,77.669z"/>
<path style="fill:#E95353;" d="M418.769,452.484H77.715c-12.148,0-22,9.852-22,22c0,12.148,9.852,22.001,22,22.001h341.054
	c12.148,0,22-9.852,22-22S430.918,452.484,418.769,452.484z"/>
<g>
	<polygon style="fill:#F3F3F3;" points="352.675,178.176 143.841,178.176 156.874,89.119 339.642,89.119 	"/>
	<polygon style="fill:#F3F3F3;" points="379.826,363.427 116.689,363.427 129.722,274.37 366.794,274.37 	"/>
</g>
<path style="opacity:0.2;fill:#FFFFFF;enable-background:new    ;" d="M204.459,433.524l-54.629-6.051
	c-8.921-0.993-14.895-9.169-13.669-18.277c0,0,0,0,0.031-0.217c0,0,0,0,0.031-0.217c0.776-8.937,8.425-15.825,17.33-14.848
	l50.114,5.554c10.193,1.133,19.937-5.306,21.675-15.22c1.583-10.597-5.679-20.216-16.012-21.659l-51.278-5.679
	c-10.659-1.164-18.153-10.938-16.493-21.644c1.707-9.961,11.512-16.493,21.535-15.391l55.668,6.175
	c9.775,0.791,19.208-5.71,20.914-15.407c1.629-10.783-5.896-20.418-16.508-21.597l-60.044-6.873
	c-10.612-1.179-18.137-10.83-16.524-21.597c1.753-9.914,11.512-16.555,21.706-15.438l54.582,6.051
	c9.992,0.884,18.991-6.501,20.092-16.477c1.148-10.395-6.423-19.627-16.601-20.744l-51.572-5.71
	c-8.487-0.946-14.724-8.72-13.762-17.424l0.14-1.272c0.295-8.564,8.114-15.003,16.384-14.088l54.877,6.082
	c10.193,1.133,19.921-5.306,21.675-15.22c1.629-10.783-5.88-20.635-16.493-21.814l-53.201-5.896
	c-8.502-0.946-14.724-8.72-13.793-17.222c1.257-11.388,9.806-16.958,18.323-16.027l48.718,5.399
	c9.976,1.102,19.952-5.523,21.488-15.453c1.815-10.55-5.663-20.62-16.275-21.799l-53.17-5.896
	c-8.921-0.993-14.895-9.169-13.684-18.06c0.031-0.217,0.031-0.217,0.031-0.217c0.031-0.217,0.031-0.217,0.047-0.419
	c0.776-8.937,8.394-15.608,17.315-14.631l51.184,5.679c10.193,1.133,19.952-5.523,21.69-15.438
	c1.629-10.783-5.911-20.418-16.524-21.597l-15.282-1.691c-38.819,5.973-70.113,36.476-75.854,76.397L103.61,452.484h117.062
	C220.905,443.004,214.156,434.61,204.459,433.524z"/>
<g>
</g>
<g>
</g>
<g>
</g>
<g>
</g>
<g>
</g>
<g>
</g>
<g>
</g>
<g>
</g>
<g>
</g>
<g>
</g>
<g>
</g>
<g>
</g>
<g>
</g>
<g>
</g>
<g>
</g>
</svg>
