<?xml version="1.0" encoding="iso-8859-1"?>
<!-- Generator: Adobe Illustrator 19.0.0, SVG Export Plug-In . SVG Version: 6.00 Build 0)  -->
<svg version="1.1" id="Capa_1" xmlns="http://www.w3.org/2000/svg" xmlns:xlink="http://www.w3.org/1999/xlink" x="0px" y="0px"
	 viewBox="0 0 496.485 496.485" style="enable-background:new 0 0 496.485 496.485;" xml:space="preserve">
<rect y="63.139" style="fill:#FFCB5A;" width="496.485" height="203.714"/>
<rect x="57.437" y="266.791" style="fill:#777777;" width="31.185" height="144.291"/>
<rect x="31.387" y="411.082" style="fill:#454545;" width="83.27" height="22.264"/>
<rect x="408.126" y="266.791" style="fill:#777777;" width="30.627" height="144.291"/>
<rect x="381.828" y="411.082" style="fill:#454545;" width="83.27" height="22.264"/>
<g>
	<polygon style="fill:#ED6262;" points="99.142,63.185 0,215.699 0,141.382 50.89,63.185 	"/>
	<polygon style="fill:#ED6262;" points="195.025,63.185 62.526,266.744 14.119,266.744 146.618,63.185 	"/>
	<polygon style="fill:#ED6262;" points="290.754,63.185 158.255,266.744 110.002,266.744 242.347,63.185 	"/>
	<polygon style="fill:#ED6262;" points="386.482,63.185 254.138,266.744 205.731,266.744 338.075,63.185 	"/>
	<polygon style="fill:#ED6262;" points="482.366,63.185 349.867,266.744 301.459,266.744 433.959,63.185 	"/>
	<polygon style="fill:#ED6262;" points="496.485,114.075 496.485,188.548 445.595,266.744 397.188,266.744 	"/>
</g>
<path style="opacity:0.25;fill:#FFFFFF;enable-background:new    ;" d="M496.485,63.185H0v112.438
	c0,10.597,8.114,20.278,18.928,20.728c11.264,0.683,20.728-8.332,20.728-19.611v-36.352c0-9.464,7.882-16.679,17.579-16.446
	c0,0,0,0,0.233,0c0,0,0,0,0.217,0c9.464-0.217,17.579,6.982,17.579,16.446v40.2c0,10.814,7.882,20.278,18.479,20.961
	c11.295,0.434,20.542-8.301,20.852-19.316v-53.682c0-11.28,9.387-20.278,20.806-19.782c10.643,0.636,18.634,10.147,18.634,20.79
	v51.262c0.31,10.349,8.208,19.487,18.587,20.139c11.497,0.45,20.728-8.564,20.728-19.828l0.233-43.675
	c0-11.264,9.247-20.294,20.728-19.828c10.597,0.683,18.711,10.147,18.711,20.961v47.29c0.217,10.597,9.014,19.161,19.611,19.161
	c11.047,0,19.828-9.014,19.828-19.828v-56.367c0-9.014,7.432-16.446,16.679-16.446c12.226,0,18.029,7.215,18.029,15.546v55.11
	c0,10.814,7.882,20.278,18.479,20.961c11.497,0.45,20.961-8.564,20.961-19.828v-41.1c0-9.014,7.432-16.446,16.446-16.446
	c12.102,0,18.928,8.332,18.928,17.346v31.635c0,10.597,8.114,20.278,18.711,20.728c11.264,0.683,20.961-8.332,20.961-19.611v-36.352
	c0-8.642,6.656-16.446,17.579-16.446c0.217,0,0.217,0,0.45,0c9.464-0.217,17.346,6.982,17.346,16.446v40.2
	c0,10.814,8.114,20.278,18.711,20.961c11.497,0.45,20.728-8.564,20.728-19.828V63.185H496.485z"/>
<g>
</g>
<g>
</g>
<g>
</g>
<g>
</g>
<g>
</g>
<g>
</g>
<g>
</g>
<g>
</g>
<g>
</g>
<g>
</g>
<g>
</g>
<g>
</g>
<g>
</g>
<g>
</g>
<g>
</g>
</svg>
