<?xml version="1.0" encoding="iso-8859-1"?>
<!-- Generator: Adobe Illustrator 19.0.0, SVG Export Plug-In . SVG Version: 6.00 Build 0)  -->
<svg version="1.1" id="Capa_1" xmlns="http://www.w3.org/2000/svg" xmlns:xlink="http://www.w3.org/1999/xlink" x="0px" y="0px"
	 viewBox="0 0 496.485 496.485" style="enable-background:new 0 0 496.485 496.485;" xml:space="preserve">
<path style="fill:#168DE2;" d="M482.816,269.253l-6.237-31.108c-0.124-0.621-0.279-1.226-0.465-1.831
	c-2.265-7.649-8.72-13.436-16.694-14.801l-54.412-9.402c-4.127-0.698-7.944-2.638-11-5.508l-30.146-28.61
	c-25.445-24.545-97.776-22.326-97.776-22.326H41.612c-6.827,0-12.784,4.67-14.398,11.326l-15.546,63.674v45.521l472.297-1.288
	L482.816,269.253z"/>
<g>
	<path style="fill:#3AA2EB;" d="M46.778,162.26c-6.842,0-12.784,4.67-14.398,11.311l-11.093,45.49h125.161V162.26H46.778z"/>
	<rect x="157.712" y="162.26" style="fill:#3AA2EB;" width="104.805" height="56.801"/>
</g>
<path style="fill:#86DAF1;" d="M384.264,206.432l-24.979-23.692c-15.205-14.677-53.543-20.185-85.473-20.511v56.584h105.503
	c3.956,0,7.168-3.212,7.168-7.168C386.498,209.659,385.691,207.782,384.264,206.432z"/>
<path style="fill:#0F71C7;" d="M489.906,274.885H6.594c-3.631,0-6.594,2.948-6.594,6.594v28.781c0,3.631,2.948,6.594,6.594,6.594
	h483.313c3.631,0,6.578-2.948,6.578-6.594v-28.781C496.485,277.848,493.537,274.885,489.906,274.885z"/>
<rect x="11.667" y="256.313" style="fill:#CD484B;" width="13.746" height="19.952"/>
<g>
	<rect x="11.667" y="232.699" style="fill:#FFBD49;" width="13.746" height="19.952"/>
	<path style="fill:#FFBD49;" d="M476.579,238.129c-0.124-0.621-0.279-1.226-0.465-1.831h-19.161c-7.385,0-11.792,8.208-7.727,14.367
		l9.48,14.398c1.707,2.607,4.639,4.174,7.758,4.174h16.353L476.579,238.129z"/>
</g>
<g>
	<rect x="36.848" y="228.929" style="fill:#F3F3F3;" width="226.894" height="13.746"/>
	<path style="fill:#F3F3F3;" d="M366.282,228.929H270.32v13.746h95.961c3.801,0,6.873-3.072,6.873-6.873l0,0
		C373.155,232.016,370.083,228.929,366.282,228.929z"/>
</g>
<path style="fill:#454545;" d="M457.014,316.853H371.34c-2.405-15.934,4.422-32.396,18.339-41.968
	c6.966-4.81,15.422-7.618,24.498-7.618c9.092,0,17.548,2.808,24.498,7.618C452.592,284.458,459.404,300.919,457.014,316.853z"/>
<circle style="fill:#6F6F6F;" cx="414.099" cy="307.885" r="32.985"/>
<circle style="fill:#CACACA;" cx="414.099" cy="307.885" r="22.512"/>
<path style="fill:#454545;" d="M157.168,316.853H71.494c-2.405-15.934,4.422-32.396,18.339-41.968
	c6.966-4.81,15.407-7.618,24.498-7.618s17.548,2.808,24.498,7.618C152.747,284.458,159.558,300.919,157.168,316.853z"/>
<circle style="fill:#6F6F6F;" cx="114.331" cy="307.885" r="32.985"/>
<circle style="fill:#CACACA;" cx="114.331" cy="307.885" r="22.512"/>
<g style="opacity:0.2;">
	<path style="fill:#FFFFFF;" d="M358.353,219.852c8.208,0.326,14.801-6.113,14.801-14.165v-18.882l-9.294-8.813
		c-25.445-24.545-97.776-22.326-97.776-22.326H121.422c4.313,2.622,7.23,7.447,7.23,12.784v36.6
		c0.217,7.385,5.865,13.902,13.281,14.383c8.208,0.326,14.801-6.113,14.801-14.165l0.155-31.185c0-8.052,6.594-14.491,14.801-14.165
		c7.556,0.481,13.359,7.246,13.359,14.972v33.761c0.155,7.556,6.439,13.684,13.995,13.684c7.882,0,14.165-6.439,14.165-14.165
		v-40.231c0-6.439,5.306-11.745,11.9-11.745h0.962c6.439-0.481,11.9,4.825,11.9,11.109v39.346c0,7.727,5.632,14.476,13.188,14.957
		c8.208,0.326,14.972-6.113,14.972-14.165v-29.324c0-6.439,5.306-11.745,11.745-11.745c8.642,0,13.514,5.958,13.514,12.397v22.59
		c0,7.571,5.787,14.491,13.359,14.801c8.052,0.481,14.972-5.958,14.972-13.995v-25.972c0-6.749,5.632-11.9,12.397-11.745
		c0.155,0,0.155,0,0.155,0c0.155,0,0.155,0,0.326,0c6.765-0.155,12.397,4.996,12.397,11.745v28.703
		C344.995,212.607,350.798,219.371,358.353,219.852z"/>
	<path style="fill:#FFFFFF;" d="M32.178,216.144c8.052,0.481,14.801-5.958,14.801-13.995v-25.972c0-6.749,5.632-11.9,12.552-11.745
		c0,0,0,0,0.155,0c0,0,0,0,0.155,0c6.765-0.155,12.552,4.996,12.552,11.745v28.703c0,7.727,5.632,14.476,13.188,14.957
		c8.068,0.31,14.662-5.927,14.879-13.793v-38.322c0-5.275,3.025-9.635,7.292-12.071H41.612c-6.827,0-12.784,4.686-14.398,11.326
		l-8.471,34.692C18.913,209.116,24.576,215.834,32.178,216.144z"/>
</g>
<g>
</g>
<g>
</g>
<g>
</g>
<g>
</g>
<g>
</g>
<g>
</g>
<g>
</g>
<g>
</g>
<g>
</g>
<g>
</g>
<g>
</g>
<g>
</g>
<g>
</g>
<g>
</g>
<g>
</g>
</svg>
