<?xml version="1.0" encoding="iso-8859-1"?>
<!-- Generator: Adobe Illustrator 19.0.0, SVG Export Plug-In . SVG Version: 6.00 Build 0)  -->
<svg version="1.1" id="Capa_1" xmlns="http://www.w3.org/2000/svg" xmlns:xlink="http://www.w3.org/1999/xlink" x="0px" y="0px"
	 viewBox="0 0 496.485 496.485" style="enable-background:new 0 0 496.485 496.485;" xml:space="preserve">
<path style="fill:#E5E5E5;" d="M22.544,172.684c-4.282,0-7.758-3.475-7.758-7.758V117.9c0-10.721,8.735-19.456,19.44-19.456h34.847
	c4.282,0,7.758,3.475,7.758,7.758s-3.475,7.758-7.758,7.758H34.242c-2.172,0-3.925,1.769-3.925,3.941v47.026
	C30.301,169.208,26.841,172.684,22.544,172.684z"/>
<path style="fill:#6F6F6F;" d="M22.544,126.464L22.544,126.464C10.085,126.464,0,136.564,0,149.008v66.56
	c0,12.459,10.1,22.544,22.544,22.544l0,0c12.459,0,22.544-10.1,22.544-22.544v-66.56C45.103,136.564,35.002,126.464,22.544,126.464z
	"/>
<path style="fill:#E5E5E5;" d="M473.941,172.684c4.282,0,7.758-3.475,7.758-7.758V117.9c0-10.721-8.735-19.456-19.44-19.456h-34.847
	c-4.282,0-7.758,3.475-7.758,7.758s3.475,7.758,7.758,7.758h34.847c2.172,0,3.925,1.769,3.925,3.941v47.026
	C466.184,169.208,469.659,172.684,473.941,172.684z"/>
<path style="fill:#6F6F6F;" d="M473.941,126.464L473.941,126.464c-12.459,0-22.544,10.1-22.544,22.544v66.56
	c0,12.459,10.1,22.544,22.544,22.544l0,0c12.459,0,22.543-10.1,22.543-22.544v-66.56
	C496.485,136.564,486.385,126.464,473.941,126.464z"/>
<path style="fill:#FFBD49;" d="M381.037,0H115.34C81.067,0,53.279,27.788,53.279,62.061V386.25h389.818V62.061
	C443.097,27.788,415.31,0,381.037,0z"/>
<path style="fill:#168DE2;" d="M412.067,169.286V62.061c0-17.113-13.917-31.03-31.03-31.03H115.34
	c-17.113,0-31.03,13.917-31.03,31.03v107.21h327.758V169.286z"/>
<path style="fill:#FFDB6F;" d="M457.34,291.499h-47.337v-17.703c0-42.682-34.614-77.421-77.421-77.421H163.731
	c-42.76,0-77.421,34.661-77.421,77.421v17.703H39.098c-12.21,0-22.125,9.899-22.125,22.109v108.048
	c0,12.21,9.899,22.125,22.125,22.125H457.34c12.21,0,22.125-9.899,22.125-22.125V313.608
	C479.465,301.397,469.551,291.499,457.34,291.499z"/>
<g>
	<rect x="177.121" y="252.556" style="fill:#FFBD49;" width="142.196" height="18.51"/>
	<rect x="177.121" y="288.116" style="fill:#FFBD49;" width="142.196" height="18.51"/>
	<rect x="177.121" y="323.662" style="fill:#FFBD49;" width="142.196" height="18.51"/>
	<rect x="177.121" y="359.207" style="fill:#FFBD49;" width="142.196" height="18.51"/>
</g>
<circle style="fill:#FFFFFF;" cx="97.42" cy="351.108" r="41.612"/>
<circle style="fill:#6F6F6F;" cx="97.42" cy="351.108" r="32.908"/>
<circle style="fill:#777777;" cx="90.422" cy="344.095" r="15.701"/>
<circle style="fill:#FFFFFF;" cx="399.05" cy="351.108" r="41.612"/>
<circle style="fill:#6F6F6F;" cx="399.05" cy="351.108" r="32.908"/>
<circle style="fill:#777777;" cx="392.006" cy="344.095" r="15.701"/>
<g>
	<path style="fill:#6F6F6F;" d="M42.139,443.78v37.19c0,8.564,6.951,15.515,15.515,15.515h64.59c8.564,0,15.515-6.951,15.515-15.515
		v-37.19H42.139z"/>
	<path style="fill:#6F6F6F;" d="M358.617,443.78v37.19c0,8.564,6.951,15.515,15.515,15.515h64.59
		c8.564,0,15.515-6.951,15.515-15.515v-37.19H358.617z"/>
</g>
<path style="fill:#3AA2EB;" d="M381.037,31.03H115.34c-15.981,0-29.013,12.179-30.689,27.71v27.415
	c0,10.24,7.478,19.208,17.501,19.859c10.705,0.419,19.472-7.866,19.751-18.292V55.761c0-10.69,8.89-19.223,19.704-18.742
	c10.085,0.605,17.656,9.619,17.656,19.704v36.383c0.295,9.806,7.773,18.448,17.61,19.084c10.892,0.434,19.642-8.114,19.642-18.789
	l0.217-40.805c0-10.674,8.751-19.208,19.642-18.789c10.038,0.636,17.718,9.604,17.718,19.859v35.281
	c0.217,10.038,8.549,18.153,18.572,18.153c10.457,0,18.789-8.533,18.789-18.789V56.056c0-8.549,7.044-15.593,15.794-15.593h1.288
	c8.533-0.636,15.794,6.408,15.794,14.724v35.592c0,10.256,7.478,19.208,17.501,19.859c10.892,0.434,19.859-8.114,19.859-18.789
	V57.949c0-8.549,7.044-15.593,15.577-15.593h1.288c9.185,0,16.663,7.478,16.663,16.446v29.386c0,10.038,7.68,19.223,17.718,19.642
	c9.418,0.574,17.284-6.16,19.099-15.05v-30.72C412.067,44.963,398.15,31.03,381.037,31.03z"/>
<path style="opacity:0.2;fill:#FFFFFF;enable-background:new    ;" d="M16.974,411.307v10.364c0,12.21,9.899,22.125,22.125,22.125
	H457.34c12.21,0,22.125-9.914,22.125-22.125c0-7.851-0.605-12.288-0.605-12.288v8.378c0-14.414-10.519-27.058-24.654-27.958
	c-15.081-0.59-27.415,11.078-27.819,25.771v-6.749c0,15.05-12.521,27.058-27.741,26.391c-14.212-0.853-24.855-13.545-24.855-27.741
	v0.527c-0.419-13.808-10.954-25.988-24.809-26.872c-15.329-0.605-27.664,11.419-27.664,26.453l-0.31,5.694
	c0,15.034-12.335,27.058-27.664,26.469c-14.134-0.9-24.948-13.529-24.948-27.958v2.064c-0.31-14.134-12.024-25.553-26.159-25.553
	c-14.739,0-26.453,12.024-26.453,26.453v-6.33c0,12.024-9.914,21.954-22.249,21.954c-16.074,0-24.048-9.604-24.048-20.744v1.645
	c0-14.429-10.519-27.058-24.654-27.958c-15.329-0.605-27.958,11.419-27.958,26.453v-4.003c0,12.04-9.93,21.954-21.954,21.954
	c-15.981,0-25.259-11.155-25.259-23.149v10.38c0-14.134-10.83-27.058-24.948-27.664C30.41,386.405,18.137,397.297,16.974,411.307z"
	/>
<g>
</g>
<g>
</g>
<g>
</g>
<g>
</g>
<g>
</g>
<g>
</g>
<g>
</g>
<g>
</g>
<g>
</g>
<g>
</g>
<g>
</g>
<g>
</g>
<g>
</g>
<g>
</g>
<g>
</g>
</svg>
