<?xml version="1.0" encoding="iso-8859-1"?>
<!-- Generator: Adobe Illustrator 19.0.0, SVG Export Plug-In . SVG Version: 6.00 Build 0)  -->
<svg version="1.1" id="Capa_1" xmlns="http://www.w3.org/2000/svg" xmlns:xlink="http://www.w3.org/1999/xlink" x="0px" y="0px"
	 viewBox="0 0 496.547 496.547" style="enable-background:new 0 0 496.547 496.547;" xml:space="preserve">
<path style="fill:#ED6262;" d="M409.414,109.754c-22.187-22.187-40.495-40.65-67.491-67.646H92.439
	c-18.618,0-33.823,15.205-33.823,33.823v386.793c0,18.618,15.205,33.823,33.823,33.823h311.699c18.618,0,33.823-15.05,33.823-33.823
	V138.302L409.414,109.754z M399.95,178.641c-4.344,4.344-10.038,6.547-15.515,6.827c-3.32,1.117-12.288-0.853-18.463-6.827
	l-65.164-65.319c-9.464-9.309-9.464-24.514,0-33.978c9.154-9.309,24.514-9.309,33.823,0l65.319,65.319
	c0.776,0.776,1.396,1.552,2.017,2.327C409.259,156.455,408.483,169.953,399.95,178.641z"/>
<path style="fill:#E95353;" d="M227.949,0H112.826c-8.844,0-16.012,7.168-16.012,16.012v26.143H243.96V16.012
	C243.96,7.168,236.792,0,227.949,0z"/>
<path style="fill:#FFBD49;" d="M297.736,332.567V206.181l15.034-15.05c3.134-3.134,3.134-8.192,0-11.326
	c-3.134-3.134-8.192-3.134-11.326,0l-15.05,15.05H160.008l-15.05-15.05c-3.134-3.134-8.192-3.134-11.326,0
	c-3.134,3.134-3.134,8.192,0,11.326l15.05,15.05v126.386l-15.05,15.05c-3.134,3.134-3.134,8.192,0,11.326
	c3.134,3.134,8.192,3.134,11.326,0l15.05-15.05h126.371l15.05,15.05c3.134,3.134,8.192,3.134,11.326,0
	c3.134-3.134,3.134-8.192,0-11.326L297.736,332.567z"/>
<path style="fill:#FFFFFF;" d="M223.216,225.327c0,0-29.82,41.798-29.82,58.275c0,16.462,13.343,29.82,29.82,29.82
	c16.462,0,29.82-13.343,29.82-29.82C253.037,267.124,223.216,225.327,223.216,225.327z"/>
<g>
	<path style="fill:#EF6F6F;" d="M117.884,479.17c0.621-10.318-7.633-18.975-17.936-18.975h-6.904
		c-8.657,0-15.267-7.215-15.05-16.089c0,0,0,0,0-0.202c0.047,0,0.062-16.291,15.05-16.291h10.411
		c9.899,0,18.556-7.215,19.177-16.911c0.403-10.349-7.602-18.804-17.672-19.084H82.199c-10.333,0-18.572-8.58-18.106-19.037
		c0.574-9.744,9.278-17.051,19.022-17.051h20.558c9.464-0.279,17.827-7.509,18.432-17.02c0.419-10.519-7.835-18.975-18.153-18.975
		l-13.591-0.202c-10.318,0-18.556-8.456-18.153-18.975c0.621-9.697,9.278-17.113,19.177-17.113h16.896
		c9.697-0.202,17.532-8.254,17.532-17.936c0-10.1-8.254-18.153-18.153-18.153H82.479c-7.851,0-15.05-5.849-15.05-16.493
		c-0.621-8.254,6.191-15.267,14.227-15.267h24.048c9.899,0,18.556-7.215,19.177-16.912c0.419-10.519-7.835-19.177-18.153-19.177
		H95.511c-8.254,0-15.05-6.811-15.05-15.05c0-11.047,7.587-17.315,15.872-17.315h2.56c9.697,0,18.572-7.432,18.975-17.113
		c0.621-10.333-7.618-19.192-17.936-19.192h-6.889c-8.657,0-15.267-7.215-15.05-15.872c0-0.202,0-0.202,0-0.202
		c0-10.224,7.09-16.291,15.05-16.291h10.411c9.899,0,18.556-7.432,19.177-17.113c0.403-10.473-7.789-18.897-18.044-18.944h-12.21
		c-18.572,0-33.792,15.05-33.792,33.792v386.777c0,18.37,14.879,33.389,33.171,33.73h7.137
		C108.591,496.485,117.465,489.069,117.884,479.17z"/>
	<path style="fill:#EF6F6F;" d="M437.962,138.302v324.422c0,18.773-15.205,33.823-33.823,33.823h-12.102
		c-10.24-0.155-18.463-8.533-18.153-19.084c0.621-9.619,9.309-17.067,19.239-17.067h10.395c7.975,0,15.05-5.803,15.05-16.291
		c0,0,0,0,0-0.155c0.31-8.688-6.361-15.981-15.05-15.981h-6.827c-10.395,0-18.618-8.844-17.998-19.084
		c0.465-9.775,9.309-17.222,18.928-17.222h2.638c8.301,0,15.825-6.175,15.825-17.222c0-8.223-6.827-15.05-15.05-15.05h-11.171
		c-10.395,0-18.618-8.688-18.153-19.239c0.621-9.619,9.309-16.912,19.084-16.912h24.204c7.494,0,14.119-5.275,14.119-16.446
		c0-8.533-6.827-15.36-15.05-15.36h-25.135c-9.93,0-18.153-7.913-18.153-17.998c0-9.775,7.758-17.842,17.532-17.998h16.911
		c9.93,0,18.463-7.447,19.084-17.067c0.465-10.55-7.758-19.084-18.153-19.084l-13.498-0.155c-10.395,0-18.618-8.533-18.153-18.928
		c0.465-6.516,4.344-11.947,9.93-14.739c3.103-0.155,6.206-0.931,9.154-2.327h19.859c9.775,0,18.463-7.292,19.084-17.067
		c0.465-10.395-7.758-19.084-18.153-19.084h-12.412c-0.621-0.776-1.241-1.552-2.017-2.327l-23.893-23.893
		c3.258-5.896,9.775-9.775,17.067-9.775h10.395c2.172,0,4.189-0.465,5.896-1.241L437.962,138.302z"/>
</g>
<g>
</g>
<g>
</g>
<g>
</g>
<g>
</g>
<g>
</g>
<g>
</g>
<g>
</g>
<g>
</g>
<g>
</g>
<g>
</g>
<g>
</g>
<g>
</g>
<g>
</g>
<g>
</g>
<g>
</g>
</svg>
