<?xml version="1.0" encoding="iso-8859-1"?>
<!-- Generator: Adobe Illustrator 19.0.0, SVG Export Plug-In . SVG Version: 6.00 Build 0)  -->
<svg version="1.1" id="Capa_1" xmlns="http://www.w3.org/2000/svg" xmlns:xlink="http://www.w3.org/1999/xlink" x="0px" y="0px"
	 viewBox="0 0 496.485 496.485" style="enable-background:new 0 0 496.485 496.485;" xml:space="preserve">
<g>
	<path style="fill:#EC9821;" d="M243.898,70.315c0-4.282-3.475-7.758-7.758-7.758c-4.282,0-7.758,3.475-7.758,7.758
		c0,4.329,0.931,8.44,2.56,12.179l13.343-10.318C244.193,71.54,243.898,70.982,243.898,70.315z"/>
	<path style="fill:#EC9821;" d="M266.721,40.712V19.611h-15.515v27.772c0,4.344,3.568,7.758,7.758,7.758
		c16.555,0,21.225,23.04,5.275,29.324c-4.701,1.288-5.958,1.21-10.395,0l-13.188,10.24c11.217,8.502,26.159,8.037,36.771,0
		c4.189-3.258,7.602-7.292,9.619-12.257C294.71,65.722,285.106,45.475,266.721,40.712z"/>
</g>
<g>
	<path style="fill:#E5E5E5;" d="M468.123,222.518L287.108,82.494c-2.11,4.856-5.492,8.983-9.65,12.148l181.17,140.148
		L468.123,222.518z"/>
	<path style="fill:#E5E5E5;" d="M230.943,82.494L49.928,222.518l9.495,12.272l181.17-140.148
		C236.435,91.477,233.053,87.35,230.943,82.494z"/>
	<path style="fill:#E5E5E5;" d="M253.843,84.387l5.182-4.003l5.182,4.003c5.182-1.908,8.828-6.563,9.557-12.21l-14.739-11.404
		l-14.739,11.404C245,77.824,248.661,82.479,253.843,84.387z"/>
	<path style="fill:#E5E5E5;" d="M244.271,72.176l-13.343,10.318c2.11,4.856,5.492,8.983,9.65,12.148l13.25-10.24
		C248.661,82.479,245,77.824,244.271,72.176z"/>
</g>
<path style="fill:#FFCB5A;" d="M222.379,0c0,20.247,16.415,36.647,36.647,36.647c20.232,0,36.647-16.415,36.647-36.647H222.379z"/>
<path style="fill:#E95353;" d="M480.97,210.51H15.515C6.951,210.51,0,217.46,0,226.025V480.97c0,8.564,6.951,15.515,15.515,15.515
	H480.97c8.564,0,15.515-6.951,15.515-15.515V226.025C496.485,217.445,489.534,210.51,480.97,210.51z"/>
<g>
	<rect x="46.545" y="257.086" style="fill:#CD484B;" width="21.566" height="192.9"/>
	<rect x="94.27" y="257.086" style="fill:#CD484B;" width="21.566" height="192.9"/>
	<rect x="141.995" y="257.086" style="fill:#CD484B;" width="21.566" height="192.9"/>
	<rect x="189.735" y="257.086" style="fill:#CD484B;" width="21.566" height="192.9"/>
	<rect x="237.459" y="257.086" style="fill:#CD484B;" width="21.566" height="192.9"/>
	<rect x="285.184" y="257.086" style="fill:#CD484B;" width="21.566" height="192.9"/>
	<rect x="332.909" y="257.086" style="fill:#CD484B;" width="21.566" height="192.9"/>
	<rect x="380.587" y="257.086" style="fill:#CD484B;" width="21.566" height="192.9"/>
	<rect x="428.373" y="257.086" style="fill:#CD484B;" width="21.566" height="192.9"/>
</g>
<path style="fill:#EF6C6C;" d="M480.97,210.51H15.515C6.951,210.51,0,217.46,0,226.025v101.717c0,10.597,8.114,20.278,18.928,20.728
	c11.264,0.683,20.728-8.332,20.728-19.611v-37.298c0-9.464,7.882-16.679,17.579-16.462c0,0,0,0,0.233,0c0,0,0,0,0.233,0
	c9.464-0.217,17.579,6.997,17.579,16.462v32.504c0,10.814,7.882,20.278,18.479,20.961c11.311,0.434,20.542-8.301,20.852-19.316
	v-33.745c0-11.295,9.387-20.294,20.806-19.782c10.643,0.636,18.634,10.147,18.634,20.79v38.4
	c0.31,10.349,8.208,19.487,18.603,20.139c11.497,0.45,20.728-8.564,20.728-19.828l0.233-43.055c0-11.264,9.247-20.278,20.728-19.844
	c10.597,0.683,18.711,10.147,18.711,20.961v37.236c0.233,10.597,9.014,19.161,19.611,19.161c11.047,0,19.828-9.014,19.828-19.828
	v-34.056c0-9.014,7.432-16.446,16.679-16.446c12.21,0,18.029,7.199,18.029,15.546v37.562c0,10.814,7.882,20.278,18.479,20.961
	c11.497,0.45,20.961-8.564,20.961-19.828V294.26c0-9.014,7.432-16.462,16.446-16.462c12.102,0,18.928,8.332,18.928,17.346v31.015
	c0,10.597,8.114,20.294,18.696,20.744c11.264,0.683,20.961-8.347,20.961-19.611v-35.747c0-9.464,7.882-16.679,17.346-16.462
	c0.233,0,0.233,0,0.233,0c11.155,0,17.796,7.727,17.796,16.462v33.637c0,10.814,8.114,20.278,18.711,20.961
	c11.497,0.45,20.728-8.564,20.728-19.828V225.994C496.485,217.445,489.534,210.51,480.97,210.51z"/>
<g>
</g>
<g>
</g>
<g>
</g>
<g>
</g>
<g>
</g>
<g>
</g>
<g>
</g>
<g>
</g>
<g>
</g>
<g>
</g>
<g>
</g>
<g>
</g>
<g>
</g>
<g>
</g>
<g>
</g>
</svg>
