<?xml version="1.0" encoding="iso-8859-1"?>
<!-- Generator: Adobe Illustrator 19.0.0, SVG Export Plug-In . SVG Version: 6.00 Build 0)  -->
<svg version="1.1" id="Capa_1" xmlns="http://www.w3.org/2000/svg" xmlns:xlink="http://www.w3.org/1999/xlink" x="0px" y="0px"
	 viewBox="0 0 496.516 496.516" style="enable-background:new 0 0 496.516 496.516;" xml:space="preserve">
<rect x="132.515" y="0.031" style="fill:#777777;" width="231.424" height="395.326"/>
<g>
	<polygon style="fill:#515151;" points="363.97,20.527 363.97,112.485 403.921,112.485 419.266,20.527 	"/>
	<polygon style="fill:#515151;" points="363.97,147.921 363.97,239.88 403.921,239.88 419.266,147.921 	"/>
	<polygon style="fill:#515151;" points="363.97,275.316 363.97,367.275 403.921,367.275 419.266,275.316 	"/>
	<polygon style="fill:#515151;" points="77.25,20.527 92.61,112.485 132.546,112.485 132.546,20.527 	"/>
	<polygon style="fill:#515151;" points="77.25,147.921 92.61,239.88 132.546,239.88 132.546,147.921 	"/>
	<polygon style="fill:#515151;" points="77.25,275.316 92.61,367.275 132.546,367.275 132.546,275.316 	"/>
</g>
<path style="fill:#7C7C7C;" d="M132.546,0.031v395.326h58.911c8.44,0,16.151-6.454,16.508-15.081
	c0.543-8.968-6.64-16.508-15.608-16.508h-13.653c-7.54,0-13.281-6.284-13.095-13.995c0,0,0,0,0-0.186
	c0,0,0.062-14.181,13.095-14.181h16.71c8.611,0,16.151-6.284,16.694-14.708c0.357-8.999-6.609-16.353-15.376-16.601h-27.446
	c-8.983,0-16.151-7.478-15.748-16.555c0.512-8.487,8.083-14.848,16.555-14.848h25.522c8.239-0.248,15.515-6.532,16.043-14.801
	c0.357-9.154-6.811-16.508-15.794-16.508l-19.472-0.186c-8.968,0-16.151-7.354-15.794-16.508c0.543-8.44,8.068-14.895,16.694-14.895
	h22.357c8.425-0.186,15.251-7.184,15.251-15.608c0-8.797-7.184-15.794-15.794-15.794H169.55c-7.184,0-13.095-5.927-13.095-13.281
	c0-9.728,5.756-14.352,12.381-14.352h28.579c8.611,0,16.151-6.284,16.679-14.708c0.357-9.154-6.811-16.694-15.794-16.694h-17.424
	c-7.184,0-13.095-5.927-13.095-13.095c0-9.666,6.656-15.081,13.808-15.081h9.883c8.44,0,16.151-6.454,16.508-14.895
	c0.543-8.968-6.64-16.694-15.608-16.694h-13.653c-7.54,0-13.281-6.284-13.095-13.824c0-0.186,0-0.186,0-0.186
	c0-8.89,6.16-14.181,13.095-14.181h16.71c8.611,0,16.151-6.454,16.694-14.895C212.48,7.354,205.297,0,196.329,0h-63.783V0.031z"/>
<path style="fill:#6D6D6D;" d="M300.218,0.031c-8.968,0-16.151,7.354-15.794,16.508c0.543,8.44,8.083,14.895,16.694,14.895h16.71
	c6.935,0,13.095,5.275,13.095,14.181c0,0,0,0,0,0.186c0.186,7.54-5.57,13.824-13.095,13.824h-13.653
	c-8.968,0-16.151,7.711-15.608,16.694c0.357,8.44,8.083,14.895,16.508,14.895h9.883c7.54,0,13.824,6.284,13.824,13.995
	c0,9.092-6.268,14.181-13.095,14.181h-17.423c-8.968,0-16.151,7.54-15.794,16.694c0.543,8.44,8.068,14.708,16.694,14.708h28.579
	c6.997,0,12.924,6.097,12.381,13.281c0,9.247-6.237,14.352-13.095,14.352h-29.587c-8.611,0-15.794,6.997-15.794,15.794
	c0,8.44,6.811,15.438,15.251,15.608h22.342c8.611,0,16.151,6.454,16.694,14.895c0.357,9.154-6.827,16.508-15.794,16.508
	l-19.471,0.171c-8.968,0-16.151,7.354-15.794,16.508c0.527,8.27,7.804,14.553,16.043,14.801h25.522
	c8.471,0,16.058,6.361,16.555,14.848c0.403,9.092-6.765,16.555-15.748,16.555h-27.446c-8.766,0.248-15.732,7.602-15.376,16.601
	c0.543,8.425,8.083,14.708,16.694,14.708h16.71c7.54,0,13.281,6.47,13.095,13.995c0,0.186,0,0.186,0,0.186c0,0.186,0,0.186,0,0.186
	c0.186,7.711-5.57,13.995-13.095,13.995h-13.653c-8.968,0-16.151,7.54-15.608,16.508c0.357,8.611,8.083,15.081,16.508,15.081h58.911
	V0.031H300.218z"/>
<circle style="fill:#ED6262;" cx="248.258" cy="73.883" r="53.357"/>
<path style="opacity:0.2;fill:#FFFFFF;enable-background:new    ;" d="M300.777,69.694v-4.158
	c-4.034-25.476-25.91-45.009-52.519-45.009s-48.485,19.534-52.519,45.025v3.398c0,6.253,5.12,11.248,11.497,11
	c5.88-0.372,10.38-5.632,10.38-11.621V51.262c0-5.244,4.375-9.247,9.619-9.123c0.124,0,0.124,0,0.248,0c0,0,0,0,0.124,0
	c5.244-0.124,9.619,3.879,9.619,9.123V83.72c0,6.253,5.384,11.248,11.636,10.876c5.88-0.248,10.38-5.632,10.38-11.497V53.263
	c0-5.011,3.801-9.619,10.504-9.619c4.996,0,9.123,4.127,9.123,9.123v17.548c0,6.253,5.244,11.248,11.621,11
	C296.401,80.943,300.777,75.683,300.777,69.694z"/>
<circle style="fill:#FFE21F;" cx="248.258" cy="197.694" r="53.357"/>
<path style="opacity:0.3;fill:#FFFFFF;enable-background:new    ;" d="M300.777,193.505v-4.158
	c-4.018-25.476-25.895-45.009-52.519-45.009c-26.608,0-48.485,19.534-52.519,45.025v3.398c0,6.253,5.12,11.248,11.497,11
	c5.88-0.372,10.38-5.632,10.38-11.621v-17.051c0-5.244,4.375-9.247,9.619-9.123c0.124,0,0.124,0,0.248,0c0,0,0,0,0.124,0
	c5.244-0.124,9.619,3.879,9.619,9.123v32.458c0,6.253,5.384,11.249,11.636,10.876c5.88-0.248,10.38-5.632,10.38-11.497v-29.82
	c0-5.26,4.375-9.619,9.759-9.619c6.361,0,9.883,4.391,9.883,9.123v17.548c0,6.253,5.244,11.248,11.621,11
	C296.401,204.753,300.777,199.509,300.777,193.505z"/>
<circle style="fill:#79DCA0;" cx="248.258" cy="321.505" r="53.357"/>
<path style="opacity:0.2;fill:#FFFFFF;enable-background:new    ;" d="M300.777,317.316v-4.158
	c-4.018-25.476-25.895-45.009-52.519-45.009c-26.608,0-48.485,19.534-52.519,45.025v3.398c0,6.253,5.12,11.249,11.497,11
	c5.88-0.372,10.38-5.632,10.38-11.636v-17.051c0-5.244,4.375-9.247,9.619-9.123c0.124,0,0.124,0,0.248,0c0,0,0,0,0.124,0
	c5.244-0.124,9.619,3.879,9.619,9.123v32.458c0,6.253,5.384,11.249,11.636,10.876c5.88-0.248,10.38-5.632,10.38-11.497v-29.82
	c0-5.26,4.375-9.619,9.759-9.619c6.361,0,9.883,4.391,9.883,9.123v17.548c0,6.253,5.244,11.249,11.621,11
	C296.401,328.564,300.777,323.32,300.777,317.316z"/>
<rect x="173.708" y="395.357" style="fill:#CACACA;" width="149.101" height="41.069"/>
<rect x="212.449" y="436.426" style="fill:#F3F3F3;" width="71.618" height="60.09"/>
<g>
</g>
<g>
</g>
<g>
</g>
<g>
</g>
<g>
</g>
<g>
</g>
<g>
</g>
<g>
</g>
<g>
</g>
<g>
</g>
<g>
</g>
<g>
</g>
<g>
</g>
<g>
</g>
<g>
</g>
</svg>
