<?xml version="1.0" encoding="iso-8859-1"?>
<!-- Generator: Adobe Illustrator 19.0.0, SVG Export Plug-In . SVG Version: 6.00 Build 0)  -->
<svg version="1.1" id="Capa_1" xmlns="http://www.w3.org/2000/svg" xmlns:xlink="http://www.w3.org/1999/xlink" x="0px" y="0px"
	 viewBox="0 0 495.352 495.352" style="enable-background:new 0 0 495.352 495.352;" xml:space="preserve">
<path style="fill:#777777;" d="M468.581,140.862l-67.056-67.056c-4.546-4.546-11.916-4.546-16.462,0
	c-4.546,4.546-4.546,11.916,0,16.462l17.47,17.47v73.992c0,6.423,5.213,11.636,11.636,11.636h34.552v131.212
	c0,43.07-35.049,78.119-78.119,78.119H359.99c-6.423,0-11.636,5.213-11.636,11.636c0,6.423,5.213,11.636,11.636,11.636h10.612
	c55.901,0,101.392-45.49,101.392-101.392V149.101C471.994,145.998,470.769,143.05,468.581,140.862z M448.721,170.077h-22.916V131.01
	l22.916,22.916V170.077z"/>
<path style="fill:#F3F3F3;" d="M366.134,27.462C364.428,11.947,351.085,0,335.259,0H90.43C75.225,0,62.658,10.861,59.865,25.29
	c-0.31,1.862-0.465,3.724-0.465,5.741v420.305h306.89V31.03C366.289,29.789,366.289,28.703,366.134,27.462z"/>
<rect x="105.992" y="46.483" style="fill:#168DE2;" width="213.752" height="138.659"/>
<rect x="23.358" y="451.274" style="fill:#ED6262;" width="379.004" height="44.079"/>
<rect x="105.992" y="228.895" style="fill:#CACACA;" width="55.079" height="116.86"/>
<path style="fill:#E5E5E5;" d="M366.134,27.462c-0.776,6.051-6.206,10.705-12.722,10.55c-6.516-0.465-11.481-6.361-11.481-13.033
	v-2.793c0-5.741-4.965-10.24-10.705-10.085c-0.155,0-0.155,0-0.31,0c0,0,0,0-0.155,0c-5.896-0.155-10.705,4.344-10.705,10.085v0.465
	c0,6.982-6.051,12.567-13.033,12.102c-6.516-0.31-11.481-6.206-11.481-12.878v2.638c0-5.554-4.267-10.705-11.636-10.705
	c-5.585,0-10.24,4.499-10.24,10.085v3.258c0,6.982-5.896,12.567-13.033,12.257c-6.516-0.31-11.326-6.206-11.326-12.878V14.584
	c0-5.136-3.615-9.619-11.171-9.619c-5.741,0-10.24,4.499-10.24,10.085v12.722c0,6.827-5.43,12.257-12.257,12.257
	c-6.672,0-12.102-5.275-12.102-11.792v-7.137c0-6.672-5.12-12.567-11.636-12.878c-7.137-0.31-12.878,5.275-12.878,12.257v4.81
	c0,6.982-5.741,12.567-12.878,12.257c-6.361-0.31-11.326-6.051-11.481-12.412v-9.619c0-6.516-4.965-12.412-11.481-12.878
	c-7.137-0.31-12.878,5.275-12.878,12.257v11.171c-0.155,6.827-5.896,12.102-12.878,11.947c-6.516-0.465-11.481-6.361-11.481-13.033
	v-2.793c0-5.741-4.965-10.24-10.861-10.085c-0.155,0-0.155,0-0.155,0c-0.155,0-0.155,0-0.155,0
	c-5.896-0.155-10.861,4.344-10.861,10.085v0.465c0,6.982-5.741,12.567-12.722,12.102c-5.43-0.31-9.93-4.344-11.326-9.464
	C62.658,10.861,75.225,0,90.43,0h244.829C351.085,0,364.428,11.947,366.134,27.462z"/>
<path style="fill:#3AA2EB;" d="M319.744,46.483H105.992v40.851c0,4.561,3.491,8.735,8.145,8.937c4.856,0.295,8.921-3.584,8.921-8.44
	V72.145c0-4.08,3.398-7.184,7.571-7.09c0,0,0,0,0.093,0c0,0,0,0,0.093,0c4.08-0.093,7.571,3.01,7.571,7.09v17.299
	c0,4.655,3.398,8.735,7.959,9.03c4.872,0.186,8.844-3.568,8.983-8.316V67.041c0-4.856,4.034-8.735,8.952-8.518
	c4.577,0.264,8.021,4.36,8.021,8.952v22.094c0.14,4.453,3.537,8.394,8.006,8.673c4.949,0.202,8.921-3.693,8.921-8.533l0.093-18.804
	c0-4.856,3.972-8.735,8.921-8.533c4.561,0.295,8.052,4.36,8.052,9.03v20.34c0.093,4.561,3.879,8.254,8.44,8.254
	c4.748,0,8.533-3.879,8.533-8.533V67.181c0-3.879,3.196-7.09,7.184-7.09h0.59c3.879-0.295,7.184,2.917,7.184,6.687V90.5
	c0,4.655,3.398,8.735,7.959,9.03c4.949,0.202,9.03-3.693,9.03-8.533V73.309c0-3.879,3.196-7.09,7.075-7.09h0.59
	c4.174,0,7.571,3.398,7.571,7.478v13.622c0,4.561,3.491,8.735,8.052,8.937c4.856,0.295,9.03-3.584,9.03-8.44v-15.67
	c0-4.08,3.398-7.184,7.478-7.09c0.093,0,0.093,0,0.093,0c0.093,0,0.093,0,0.202,0c4.081-0.093,7.463,3.01,7.463,7.09v17.299
	c0,4.655,3.491,8.735,8.052,9.03c4.949,0.186,8.921-3.693,8.921-8.533L319.744,46.483L319.744,46.483z"/>
<path style="fill:#E8E8E8;" d="M59.4,451.336h306.89v-36.368c0-6.547-5.011-12.536-11.698-12.816
	c-6.966-0.419-12.816,5.151-12.816,12.117v0.202c0,5.849-4.872,10.302-10.861,10.178c0,0,0,0-0.14,0c0,0,0,0-0.14,0
	c-5.849,0.14-10.861-4.329-10.861-10.178v-2.576c0-6.687-4.872-12.536-11.419-12.955c-6.982-0.264-12.691,5.135-12.893,11.931
	v10.907c0,6.982-5.803,12.536-12.862,12.226c-6.578-0.388-11.528-6.268-11.528-12.847v-9.418
	c-0.186-6.392-5.073-12.04-11.497-12.443c-7.106-0.279-12.816,5.291-12.816,12.257l-0.14,4.732c0,6.966-5.71,12.536-12.816,12.257
	c-6.547-0.419-11.559-6.268-11.559-12.955v-6.951c-0.14-6.547-5.57-11.838-12.117-11.838c-6.827,0-12.257,5.57-12.257,12.257v12.552
	c0,5.291-3.941,10.162-11.14,10.162c-5.57,0.419-10.302-4.174-10.302-9.604v-11.792c0-6.687-4.872-12.536-11.419-12.955
	c-7.106-0.279-12.955,5.291-12.955,12.257v3.134c0,5.275-3.925,10.162-11,10.162c-5.989,0-10.861-4.872-10.861-10.721v2.731
	c0-6.547-5.011-12.536-11.559-12.816c-6.966-0.419-12.955,5.151-12.955,12.117v0.202c0,5.849-4.872,10.302-10.721,10.178
	c-0.14,0-0.14,0-0.14,0c-6.889,0-11-4.779-11-10.178v-2.576c0-6.687-5.011-12.536-11.559-12.955
	c-7.106-0.279-12.816,5.291-12.816,12.257v40.122H59.4z"/>
<g>
</g>
<g>
</g>
<g>
</g>
<g>
</g>
<g>
</g>
<g>
</g>
<g>
</g>
<g>
</g>
<g>
</g>
<g>
</g>
<g>
</g>
<g>
</g>
<g>
</g>
<g>
</g>
<g>
</g>
</svg>
