<?xml version="1.0" encoding="iso-8859-1"?>
<!-- Generator: Adobe Illustrator 19.0.0, SVG Export Plug-In . SVG Version: 6.00 Build 0)  -->
<svg version="1.1" id="Capa_1" xmlns="http://www.w3.org/2000/svg" xmlns:xlink="http://www.w3.org/1999/xlink" x="0px" y="0px"
	 viewBox="0 0 496.547 496.547" style="enable-background:new 0 0 496.547 496.547;" xml:space="preserve">
<path style="fill:#454545;" d="M367.337,452.569v29.277c0,5.26,4.267,9.526,9.526,9.526h45.863c5.26,0,9.526-4.267,9.526-9.526
	v-29.277H367.337z"/>
<polygon style="fill:#6F6F6F;" points="445.362,71.843 482.599,71.843 482.599,101.896 473.91,101.896 473.91,86.877 
	446.929,86.877 "/>
<rect x="459.093" y="98.079" style="fill:#E95353;" width="37.454" height="55.979"/>
<g>
	<path style="fill:#454545;" d="M458.923,313.507h0.016C458.907,309.938,458.876,308.775,458.923,313.507z"/>
	<path style="fill:#454545;" d="M64.233,452.569v29.277c0,5.26,4.267,9.526,9.526,9.526h45.863c5.26,0,9.526-4.267,9.526-9.526
		v-29.277H64.233z"/>
</g>
<polygon style="fill:#6F6F6F;" points="51.122,71.843 13.886,71.843 13.886,101.896 22.559,101.896 22.559,86.877 49.555,86.877 "/>
<rect y="98.079" style="fill:#E95353;" width="37.454" height="55.979"/>
<path style="fill:#F3F3F3;" d="M458.628,290.824c-0.047-3.305-0.124-6.594-0.186-9.883c-2.048-97.14-9.123-183.544-13.886-232.758
	c-2.374-24.405-22.885-43.008-47.414-43.008H99.359c-24.529,0-45.072,18.603-47.43,43.024
	c-4.763,49.199-11.838,135.618-13.886,232.743c-0.062,3.289-0.14,6.578-0.186,9.883c-0.853,45.118-0.419,95.015,1.769,141.002
	c0.543,11.605,10.1,20.728,21.721,20.728h373.807c11.621,0,21.178-9.123,21.721-20.728
	C459.047,385.885,459.497,335.988,458.628,290.824z"/>
<path style="fill:#E5E5E5;" d="M456.875,431.81c-0.543,11.605-10.1,20.744-21.721,20.744H61.331
	c-11.621,0-21.178-9.154-21.721-20.744c-2.234-47.352-2.576-95.232-1.769-140.986l61.502,17.625l24.529,76.428
	c2.405,7.478,9.34,12.536,17.175,12.536h214.373c7.835,0,14.77-5.058,17.175-12.536l24.529-76.428l61.502-17.625
	C459.435,336.578,459.109,384.458,456.875,431.81z"/>
<path style="fill:#6F6F6F;" d="M395.512,313.507l-22.916,71.385c-2.405,7.478-9.34,12.536-17.175,12.536H141.064
	c-7.835,0-14.77-5.058-17.175-12.536l-22.916-71.385H395.512z"/>
<g>
	<path style="fill:#454545;" d="M37.562,313.507h-0.016C37.578,309.938,37.609,308.775,37.562,313.507z"/>
	<path style="fill:#454545;" d="M458.628,290.824l-56.398,16.167c-3.196,0.9-5.71,3.367-6.718,6.501h-294.54
		c-1.024-3.15-3.522-5.601-6.718-6.501l-56.398-16.167c0.047-3.305,0.124-6.594,0.186-9.883h420.399
		C458.519,284.23,458.581,287.519,458.628,290.824z"/>
</g>
<polygon style="fill:#777777;" points="442.104,259.266 54.381,259.266 62.045,80.966 434.424,80.966 "/>
<path style="fill:#FFFFFF;" d="M405.38,416.497H91.105c-14.848,0-26.888,12.024-26.888,26.888h368.05
	C432.268,428.521,420.212,416.497,405.38,416.497z"/>
<g>
	<polygon style="fill:#454545;" points="376.072,327.238 366.809,341.388 129.676,341.388 120.413,327.238 	"/>
	<polygon style="fill:#454545;" points="228.057,376.111 205.607,363.233 137.263,363.233 142.848,376.111 	"/>
</g>
<circle style="fill:#E95353;" cx="92.129" cy="429.948" r="7.835"/>
<circle style="fill:#FFCB5A;" cx="94.146" cy="353.986" r="7.82"/>
<circle style="fill:#168DE2;" cx="72.052" cy="349.269" r="7.835"/>
<circle style="fill:#CD484B;" cx="49.974" cy="344.444" r="7.82"/>
<g>
	<polygon style="fill:#454545;" points="268.428,376.111 290.878,363.233 359.222,363.233 353.637,376.111 	"/>
	<polygon style="fill:#454545;" points="359.238,379.415 351.31,387.669 145.175,387.669 137.247,379.415 	"/>
</g>
<circle style="fill:#E95353;" cx="404.356" cy="429.948" r="7.835"/>
<circle style="fill:#FFCB5A;" cx="402.339" cy="353.986" r="7.82"/>
<circle style="fill:#168DE2;" cx="424.433" cy="349.269" r="7.835"/>
<circle style="fill:#CD484B;" cx="446.526" cy="344.444" r="7.82"/>
<circle style="fill:#CACACA;" cx="248.242" cy="360.13" r="15.981"/>
<path style="fill:#707070;" d="M70.796,163.413c8.72,0.528,16.043-6.454,16.043-15.174v-28.144c0-7.323,6.097-12.909,13.607-12.738
	c0,0,0,0,0.171,0c0,0,0,0,0.171,0c7.323-0.171,13.607,5.399,13.607,12.738v31.108c0,8.378,6.113,15.701,14.305,16.213
	c8.751,0.341,15.903-6.423,16.136-14.941v-41.55c0-8.735,7.261-15.701,16.089-15.313c8.239,0.496,14.429,7.851,14.429,16.089v39.672
	c0.233,8.006,6.346,15.081,14.383,15.577c8.89,0.357,16.043-6.625,16.043-15.344l0.171-33.792c0-8.72,7.152-15.701,16.043-15.344
	c8.192,0.528,14.476,7.851,14.476,16.213v36.585c0.171,8.192,6.982,14.817,15.174,14.817c8.549,0,15.344-6.982,15.344-15.344
	v-43.598c0-6.625,4.934-12.738,13.948-12.738c6.982-0.528,12.909,5.229,12.909,12.04v42.651c0,8.363,6.097,15.686,14.305,16.213
	c8.89,0.357,16.213-6.625,16.213-15.344v-31.806c0-6.982,5.756-12.738,12.722-12.738c9.356,0,14.646,6.439,14.646,13.421v24.483
	c0,8.192,6.284,15.701,14.476,16.043c8.72,0.528,16.213-6.454,16.213-15.174v-28.098c0-7.323,6.097-12.909,13.436-12.738
	c0.171,0,0.171,0,0.171,0c0.171,0,0.171,0,0.341,0c7.323-0.171,13.436,5.399,13.436,12.738v31.108
	c0,8.378,6.284,15.701,14.476,16.213c5.865,0.233,10.736-2.886,13.529-7.416l-3.398-79.034H62.045l-3.227,74.907
	C61.409,160.062,65.583,163.196,70.796,163.413z"/>
<g>
</g>
<g>
</g>
<g>
</g>
<g>
</g>
<g>
</g>
<g>
</g>
<g>
</g>
<g>
</g>
<g>
</g>
<g>
</g>
<g>
</g>
<g>
</g>
<g>
</g>
<g>
</g>
<g>
</g>
</svg>
