<?xml version="1.0" encoding="iso-8859-1"?>
<!-- Generator: Adobe Illustrator 19.0.0, SVG Export Plug-In . SVG Version: 6.00 Build 0)  -->
<svg version="1.1" id="Capa_1" xmlns="http://www.w3.org/2000/svg" xmlns:xlink="http://www.w3.org/1999/xlink" x="0px" y="0px"
	 viewBox="0 0 496.485 496.485" style="enable-background:new 0 0 496.485 496.485;" xml:space="preserve">
<path style="fill:#CACACA;" d="M374.319,193.071l11.605-10.302L248.242,27.4L110.561,182.768l11.605,10.302l47.445-53.527h157.277
	L374.319,193.071z M279.924,86.528h-63.348l31.666-35.731L279.924,86.528z M183.358,124.028l19.472-21.969h90.841l19.472,21.969
	H183.358z"/>
<g>
	<circle style="fill:#454545;" cx="196.236" cy="17.129" r="17.129"/>
	<circle style="fill:#454545;" cx="248.242" cy="17.129" r="17.129"/>
	<circle style="fill:#454545;" cx="300.249" cy="17.129" r="17.129"/>
</g>
<path style="fill:#FFDB6F;" d="M465.455,496.485H31.03c-17.144,0-31.03-13.902-31.03-31.03V187.92
	c0-17.129,13.886-31.03,31.03-31.03h434.424c17.129,0,31.03,13.902,31.03,31.03v277.535
	C496.485,482.599,482.583,496.485,465.455,496.485z"/>
<path style="fill:#6F6F6F;" d="M0,443.764v21.69c0,17.144,13.886,31.03,31.03,31.03h434.424c17.144,0,31.03-13.886,31.03-31.03
	v-21.69H0z"/>
<g>
	<rect x="380.121" y="187.92" style="fill:#168DE2;" width="85.333" height="138.768"/>
	<rect x="380.121" y="187.92" style="fill:#168DE2;" width="85.333" height="138.705"/>
</g>
<rect x="256" y="187.92" style="fill:#E95353;" width="93.091" height="242.331"/>
<rect x="31.03" y="187.92" style="fill:#168DE2;" width="85.333" height="138.768"/>
<rect x="147.394" y="187.92" style="fill:#E95353;" width="93.091" height="242.331"/>
<g>
	<path style="fill:#ED6262;" d="M147.394,187.92v242.316h38.291c5.167,0,9.899-3.956,10.116-9.247
		c0.326-5.492-4.065-10.116-9.573-10.116h-10.628c-4.624,0-8.145-3.848-8.037-8.58c0,0,0,0,0-0.109c0,0,0,0,0-0.109
		c-0.109-4.624,3.413-8.58,8.037-8.58h8.301c5.275,0,9.899-3.848,10.224-9.014c0.217-5.523-4.049-10.023-9.433-10.178h-8.89
		c-5.508,0-9.899-4.577-9.65-10.147c0.31-5.198,4.949-9.092,10.147-9.092h11.171c5.058-0.155,9.511-4.003,9.837-9.076
		c0.217-5.616-4.174-10.116-9.681-10.116l-13.452-0.109c-5.492,0-9.899-4.515-9.681-10.116c0.326-5.167,4.949-9.123,10.225-9.123
		h10.612c5.167-0.109,9.356-4.406,9.356-9.573c0-5.384-4.406-9.681-9.681-9.681h-9.045c-4.406,0-8.037-3.631-8.037-8.145v-0.667
		c-0.326-4.406,3.305-8.145,7.587-8.145h10.752c5.275,0,9.899-3.848,10.224-9.014c0.217-5.616-4.174-10.224-9.681-10.224h-9.899
		c-4.406,0-8.037-3.631-8.037-8.037c0-5.911,4.065-9.247,8.471-9.247h7.556c5.167,0,9.899-3.956,10.116-9.123
		c0.326-5.492-4.065-10.224-9.573-10.224h-9.883c-4.624,0-8.145-3.848-8.037-8.471c0-0.109,0-0.109,0-0.109c0-0.109,0-0.109,0-0.217
		c-0.109-4.624,3.413-8.471,8.037-8.471h8.844c5.275,0,9.899-3.956,10.224-9.138c0.217-5.617-4.174-10.116-9.681-10.116H147.394z"/>
	<path style="fill:#ED6262;" d="M349.091,187.92v242.316H310.8c-5.167,0-9.899-3.956-10.116-9.247
		c-0.326-5.492,4.065-10.116,9.573-10.116h10.628c4.624,0,8.145-3.848,8.037-8.58c0,0,0,0,0-0.109c0,0,0,0,0-0.109
		c0.109-4.624-3.413-8.58-8.037-8.58h-8.301c-5.275,0-9.899-3.848-10.225-9.014c-0.217-5.523,4.049-10.023,9.433-10.178h8.89
		c5.508,0,9.899-4.577,9.65-10.147c-0.31-5.198-4.949-9.092-10.147-9.092h-11.171c-5.058-0.155-9.511-4.003-9.837-9.076
		c-0.217-5.616,4.174-10.116,9.681-10.116l13.452-0.109c5.492,0,9.899-4.515,9.681-10.116c-0.326-5.167-4.949-9.123-10.224-9.123
		h-10.612c-5.167-0.109-9.356-4.406-9.356-9.573c0-5.384,4.406-9.681,9.681-9.681h9.045c4.406,0,8.037-3.631,8.037-8.145
		c0-5.958-3.506-8.797-7.587-8.797H310.21c-5.275,0-9.899-3.848-10.224-9.014c-0.217-5.616,4.174-10.224,9.681-10.224h9.899
		c4.406,0,8.037-3.631,8.037-8.037c0-5.911-4.065-9.247-8.471-9.247h-7.571c-5.167,0-9.899-3.956-10.116-9.123
		c-0.326-5.492,4.065-10.224,9.573-10.224h9.883c8.021,0,8.037-8.58,8.037-8.58c0-5.446-3.77-8.688-8.037-8.688h-8.844
		c-5.275,0-9.899-3.956-10.224-9.138c-0.217-5.616,4.189-10.116,9.681-10.116h37.578V187.92z"/>
</g>
<g>
	<path style="fill:#3AA2EB;" d="M465.47,187.92v138.705h-17.067v-0.931c-0.31-5.275-4.965-9.154-10.24-9.154h-10.705
		c-5.12-0.155-9.309-4.499-9.309-9.619c0-5.43,4.499-9.619,9.775-9.619h8.999c4.344,0,8.068-3.724,8.068-8.223v-0.621
		c0.31-4.344-3.413-8.068-7.602-8.068h-10.861c-5.275,0-9.775-3.879-10.24-9.154c-0.155-5.585,4.189-10.24,9.775-10.24h9.93
		c10.69,0,10.457-17.222-0.465-17.222h-7.602c-5.12,0-9.93-3.879-10.085-9.154c-0.31-5.43,4.034-10.24,9.464-10.24h9.93
		c4.655,0,8.223-3.724,8.068-8.378c0-0.155,0-0.155,0-0.155c0-0.155,0-0.155,0-0.155c0.155-4.655-3.413-8.533-8.068-8.533h-8.844
		c-5.275,0-9.93-3.879-10.24-9.154c-0.155-5.585,4.189-10.085,9.775-10.085L465.47,187.92L465.47,187.92z"/>
	<path style="fill:#3AA2EB;" d="M31.03,187.92v138.705h17.067v-0.931c0.31-5.275,4.965-9.154,10.24-9.154h10.705
		c5.12-0.155,9.309-4.499,9.309-9.619c0-5.43-4.499-9.619-9.775-9.619h-8.999c-4.344,0-8.068-3.724-8.068-8.223v-0.621
		c-0.31-4.344,3.413-8.068,7.602-8.068h10.861c5.275,0,9.775-3.879,10.24-9.154c0.155-5.585-4.189-10.24-9.775-10.24h-9.93
		c-4.344,0-7.913-3.568-7.913-7.913v-0.776c0-4.655,3.724-8.533,8.378-8.533h7.602c5.12,0,9.93-3.879,10.085-9.154
		c0.31-5.43-4.034-10.24-9.464-10.24h-9.93c-4.655,0-8.223-3.724-8.068-8.378c0-0.155,0-0.155,0-0.155c0-0.155,0-0.155,0-0.155
		c-0.155-4.655,3.413-8.533,8.068-8.533h8.844c5.275,0,9.93-3.879,10.24-9.154c0.155-5.585-4.189-10.085-9.775-10.085L31.03,187.92
		L31.03,187.92z"/>
</g>
<path style="fill:#ED6262;" d="M169.363,17.129c0,24.25,19.658,43.923,43.923,43.923h69.927c24.25,0,43.923-19.658,43.923-43.923
	C327.137,17.129,169.363,17.129,169.363,17.129z"/>
<g>
</g>
<g>
</g>
<g>
</g>
<g>
</g>
<g>
</g>
<g>
</g>
<g>
</g>
<g>
</g>
<g>
</g>
<g>
</g>
<g>
</g>
<g>
</g>
<g>
</g>
<g>
</g>
<g>
</g>
</svg>
