<?xml version="1.0" encoding="iso-8859-1"?>
<!-- Generator: Adobe Illustrator 19.0.0, SVG Export Plug-In . SVG Version: 6.00 Build 0)  -->
<svg version="1.1" id="Capa_1" xmlns="http://www.w3.org/2000/svg" xmlns:xlink="http://www.w3.org/1999/xlink" x="0px" y="0px"
	 viewBox="0 0 496.407 496.407" style="enable-background:new 0 0 496.407 496.407;" xml:space="preserve">
<g>
	
		<rect x="270.266" y="330.966" transform="matrix(-0.98 -0.1991 0.1991 -0.98 476.0478 795.5858)" style="fill:#E5E5E5;" width="15.515" height="85.785"/>
	
		<rect x="175.497" y="366.1" transform="matrix(-0.199 -0.98 0.98 -0.199 -104.5328 662.2762)" style="fill:#E5E5E5;" width="85.783" height="15.515"/>
</g>
<path style="fill:#3AA2EB;" d="M200.526,349.944h95.387c54.039-75.217,123.966-100.864,123.966-178.471
	C419.879,76.707,342.986,0,248.219,0S76.56,76.707,76.56,171.473C76.56,249.08,146.486,274.727,200.526,349.944z"/>
<path style="fill:#F3F3F3;" d="M279.591,349.944c35.545-75.217,81.548-100.864,81.548-178.471C361.138,76.707,310.559,0,248.219,0
	S135.3,76.691,135.3,171.458c0,77.622,46.002,103.253,81.548,178.471h62.743V349.944z"/>
<path style="fill:#3AA2EB;" d="M263.75,349.944c17.61-75.217,40.401-100.864,40.401-178.471C304.151,76.707,279.094,0,248.219,0
	s-55.932,76.707-55.932,171.473c0,77.622,22.792,103.253,40.401,178.471H263.75z"/>
<rect x="200.588" y="349.975" style="fill:#168DE2;" width="95.263" height="13.343"/>
<path style="fill:#FFBD49;" d="M298.287,406.233H198.152c-8.564,0-15.515,6.951-15.515,15.515v59.144
	c0,8.564,6.951,15.515,15.515,15.515h100.135c8.564,0,15.515-6.951,15.515-15.515v-59.144
	C313.802,413.184,306.851,406.233,298.287,406.233z"/>
<path style="opacity:0.1;fill:#231F20;enable-background:new    ;" d="M419.879,171.427c0,77.731-69.973,103.331-123.966,178.579
	H277.76c-7.913,0-14.274-6.516-13.964-14.739c0.465-7.447,7.137-13.188,14.739-13.188h25.755c6.175,0,11.481-4.592,11.481-12.412
	c0,0,0,0,0-0.31c0.155-6.672-4.81-12.102-11.481-12.102h-27.307c-7.913,0-14.274-6.827-13.808-14.895
	c0.31-7.447,7.137-13.188,14.584-13.188h59.733c6.672,0,12.257-5.43,12.257-12.257v-1.086c0-6.361-5.275-11.481-11.636-11.481
	h-62.991c-7.913,0-14.274-6.672-13.964-14.895c0.465-7.447,7.137-12.878,14.739-12.878h64.233c6.206,0,11.481-5.43,11.016-11.792
	c0-8.161-5.554-12.722-11.636-12.722h-61.75c-7.602,0-13.964-6.206-13.964-13.964c0-7.447,6.051-13.653,13.498-13.808h64.078
	c7.602,0,14.274-5.741,14.739-13.188c0.31-8.223-6.051-14.739-13.964-14.739l-68.267-0.155c-7.913,0-14.274-6.516-13.964-14.584
	c0.465-7.292,6.982-12.878,14.274-13.033h64.853c7.602,0,14.274-5.585,14.739-13.188c0.31-8.068-6.051-14.584-13.964-14.584h-61.595
	c-7.758-0.31-13.964-6.827-13.653-14.739c0.465-7.447,7.137-13.033,14.739-13.033h27.617c6.672,0,11.792-5.741,11.636-12.412
	c0-0.155,0-0.155,0-0.155c0-0.155,0-0.155,0-0.155c0.155-6.827-4.965-12.412-11.636-12.412h-31.03
	c-7.913,0-14.274-6.672-13.808-14.584c0.155-5.275,3.568-9.775,8.223-11.792C354.56,12.241,419.879,84.077,419.879,171.427z"/>
<path style="opacity:0.2;fill:#FFFFFF;enable-background:new    ;" d="M146.657,255.829c0,8.657,5.834,13.343,12.257,13.343h59.733
	c7.447,0,14.274,5.741,14.584,13.188c0.465,8.068-5.896,14.895-13.808,14.895h-27.152c-6.672,0-11.792,5.43-11.636,12.102
	c0,0.31,0,0.31,0,0.31c0,7.789,5.43,12.412,11.636,12.412h25.6c7.758,0,14.429,5.741,14.895,13.188
	c0.31,8.223-6.051,14.739-13.964,14.739h-18.308C146.502,274.758,76.528,249.158,76.528,171.427
	c0-87.35,65.319-159.185,149.566-169.891c4.655,2.017,8.068,6.516,8.223,11.792c0.465,7.913-5.896,14.584-13.809,14.584h-31.03
	c-6.672,0-11.792,5.585-11.636,12.412c0,0,0,0,0,0.155c0,0,0,0,0,0.155c-0.155,6.672,4.965,12.412,11.636,12.412h27.617
	c7.602,0,14.274,5.585,14.895,13.033c0.31,7.913-5.896,14.429-13.653,14.739h-61.595c-8.068,0-14.429,6.516-13.964,14.584
	c0.465,7.602,7.137,13.188,14.584,13.188h65.008c7.292,0.155,13.653,5.741,14.119,13.033c0.31,8.068-6.051,14.584-13.964,14.584
	l-68.267,0.155c-7.913,0-14.274,6.516-13.964,14.739c0.465,7.447,7.137,13.188,14.895,13.188h64.078
	c7.447,0.155,13.498,6.361,13.498,13.809c0,7.758-6.361,13.964-13.964,13.964h-61.905c-6.082,0-11.636,4.561-11.636,12.722
	c-0.465,6.361,4.81,11.792,11.016,11.792h64.233c7.758,0,14.429,5.43,14.895,12.878c0.31,8.223-6.051,14.895-13.964,14.895h-63.147
	C151.932,244.348,146.657,249.468,146.657,255.829z"/>
<path style="fill:#FFCB5A;" d="M191.729,453.43c5.415,0.326,9.961-4.003,9.961-9.418v-10.178c0-4.546,3.786-8.006,8.44-7.897
	c0,0,0,0,0.109,0c0,0,0,0,0.109,0c4.546-0.109,8.44,3.351,8.44,7.897v7.866c0,5.198,3.786,9.743,8.875,10.069
	c5.43,0.217,9.868-3.987,10.023-9.278v-8.456c0-5.415,4.499-9.743,9.992-9.495c5.12,0.295,8.952,4.872,8.952,9.992v10.69
	c0.155,4.965,3.941,9.356,8.937,9.681c5.523,0.217,9.961-4.112,9.961-9.526l0.109-12.94c0-5.415,4.437-9.744,9.961-9.526
	c5.089,0.326,8.983,4.872,8.983,10.069v10.147c0.109,5.089,4.329,9.201,9.418,9.201c5.306,0,9.526-4.329,9.526-9.526v-22.419
	c-0.729-7.882-7.152-14.134-15.236-14.134H198.152c-8.564,0-15.515,6.951-15.515,15.515v21.721
	C182.637,448.559,186.531,453.213,191.729,453.43z"/>
<g>
</g>
<g>
</g>
<g>
</g>
<g>
</g>
<g>
</g>
<g>
</g>
<g>
</g>
<g>
</g>
<g>
</g>
<g>
</g>
<g>
</g>
<g>
</g>
<g>
</g>
<g>
</g>
<g>
</g>
</svg>
