<?xml version="1.0" encoding="iso-8859-1"?>
<!-- Generator: Adobe Illustrator 19.0.0, SVG Export Plug-In . SVG Version: 6.00 Build 0)  -->
<svg version="1.1" id="Capa_1" xmlns="http://www.w3.org/2000/svg" xmlns:xlink="http://www.w3.org/1999/xlink" x="0px" y="0px"
	 viewBox="0 0 492.761 492.761" style="enable-background:new 0 0 492.761 492.761;" xml:space="preserve">
<polygon style="fill:#777777;" points="219.989,269.514 204.304,240.873 0,240.873 64.931,414.394 437.264,414.394 492.761,269.514 
	"/>
<path style="fill:#E5E5E5;" d="M459.683,179.96h-162.94c-8.673,0-15.701,7.028-15.701,15.701v73.852h194.343v-73.852
	C475.384,186.989,468.356,179.96,459.683,179.96z"/>
<rect x="322.389" y="90.407" style="fill:#F3F3F3;" width="114.331" height="89.553"/>
<path style="fill:#E5E5E5;" d="M441.453,78.367H317.642c-5.182,0-9.387,4.205-9.387,9.387c0,5.182,4.205,9.371,9.387,9.371h123.811
	c5.182,0,9.387-4.205,9.387-9.371C450.839,82.572,446.635,78.367,441.453,78.367z"/>
<g>
	<rect x="296.727" y="195.646" style="fill:#168DE2;" width="73.635" height="58.166"/>
	<rect x="386.048" y="195.646" style="fill:#168DE2;" width="73.635" height="58.166"/>
	<rect x="342.745" y="106.108" style="fill:#168DE2;" width="73.635" height="58.166"/>
</g>
<path style="fill:#FFCB5A;" d="M94.751,179.96H27.089c-4.282,0-7.758,3.475-7.758,7.758v45.397c0,4.282,3.475,7.758,7.758,7.758
	h67.662c4.282,0,7.758-3.475,7.758-7.758v-45.397C102.509,183.436,99.033,179.96,94.751,179.96z"/>
<path style="fill:#FFBD49;" d="M186.29,179.96h-67.662c-4.282,0-7.758,3.475-7.758,7.758v45.397c0,4.282,3.475,7.758,7.758,7.758
	h67.662c4.282,0,7.758-3.475,7.758-7.758v-45.397C194.048,183.436,190.573,179.96,186.29,179.96z"/>
<path style="fill:#EC9821;" d="M140.521,113.881H72.859c-4.282,0-7.758,3.475-7.758,7.758v45.413c0,4.282,3.475,7.758,7.758,7.758
	h67.662c4.282,0,7.758-3.475,7.758-7.758v-45.413C148.278,117.357,144.803,113.881,140.521,113.881z"/>
<path style="fill:#7F7F7F;" d="M422.54,334.476c-8.44-0.512-15.546,6.253-15.546,14.693v12.443c0,7.09-5.911,12.505-13.172,12.335
	c0,0,0,0-0.171,0c0,0,0,0-0.171,0c-7.09,0.171-13.172-5.244-13.172-12.335v-8.844c0-8.099-5.911-15.205-13.855-15.717
	c-8.471-0.326-15.407,6.222-15.624,14.476v9.775c0,8.456-7.028,15.205-15.593,14.832c-7.975-0.481-13.964-7.602-13.964-15.577
	v-13.265c-0.233-7.758-6.16-14.6-13.933-15.096c-8.611-0.341-15.546,6.408-15.546,14.864l-0.171,16.756
	c0,8.44-6.92,15.205-15.546,14.863c-7.944-0.512-14.026-7.602-14.026-15.717v-12.397c-0.171-7.944-6.765-14.352-14.693-14.352
	c-8.27,0-14.864,6.765-14.864,14.864v10.007c0,6.423-4.779,12.335-13.514,12.335c-6.749,0.512-12.505-5.058-12.505-11.652v-12.629
	c0-8.114-5.911-15.205-13.855-15.701c-8.611-0.341-15.701,6.423-15.701,14.864v11.311c0,6.454-4.794,12.335-13.343,12.335
	c-7.261,0-13.172-5.911-13.172-13.002v-7.727c0-7.944-6.082-15.205-14.026-15.546c-8.44-0.543-15.701,6.222-15.701,14.662v11.28
	c0,7.09-5.911,12.505-13.002,12.335c-0.171,0-0.171,0-0.171,0c-0.171,0-0.171,0-0.341,0c-7.09,0.171-13.002-5.244-13.002-12.335
	v-9.697c0-8.114-6.082-15.205-14.026-15.701c-8.611-0.341-15.546,6.423-15.546,14.864v62.448l0.326,0.869h371.79v-64.388
	C436.72,342.078,430.639,334.817,422.54,334.476z"/>
<path style="fill:#FFBD49;" d="M27.462,216.002c4.841,0.295,8.906-3.584,8.906-8.425v-9.433c0-4.065,3.382-7.168,7.556-7.075
	c0,0,0,0,0.093,0c0,0,0,0,0.093,0c4.065-0.093,7.556,3.01,7.556,7.075v7.37c0,4.655,3.382,8.72,7.944,9.014
	c4.856,0.186,8.828-3.568,8.952-8.301v-7.897c0-4.856,4.034-8.72,8.937-8.502c4.577,0.279,8.006,4.36,8.006,8.937v8.394
	c0.14,4.453,3.522,8.378,7.99,8.657c4.934,0.186,8.906-3.677,8.906-8.518l0.047-19.751c-0.109-4.189-3.506-7.571-7.727-7.571H27.089
	c-4.282,0-7.758,3.475-7.758,7.758v19.378C19.332,211.642,22.823,215.8,27.462,216.002z"/>
<path style="fill:#FCB542;" d="M119.032,216.002c4.841,0.295,8.906-3.584,8.906-8.425v-9.433c0-4.065,3.382-7.168,7.556-7.075
	c0,0,0,0,0.093,0c0,0,0,0,0.093,0c4.065-0.093,7.556,3.01,7.556,7.075v7.37c0,4.655,3.398,8.72,7.944,9.014
	c4.856,0.186,8.828-3.568,8.952-8.301v-7.897c0-4.856,4.034-8.72,8.937-8.502c4.577,0.279,8.006,4.36,8.006,8.937v8.394
	c0.14,4.453,3.522,8.378,7.99,8.657c4.934,0.186,8.906-3.677,8.906-8.518l0.047-19.751c-0.109-4.189-3.506-7.571-7.711-7.571
	h-67.662c-4.282,0-7.758,3.475-7.758,7.758v19.378C110.887,211.642,114.378,215.8,119.032,216.002z"/>
<g>
	<path style="fill:#3AA2EB;" d="M393.263,227.576c4.282,0.264,7.897-3.181,7.897-7.463v-8.347c0-3.6,3.01-6.346,6.687-6.268
		c0,0,0,0,0.078,0c0,0,0,0,0.093,0c3.6-0.078,6.687,2.669,6.687,6.268v6.532c0,4.112,3.01,7.727,7.028,7.975
		c4.298,0.171,7.82-3.165,7.928-7.354v-6.997c0-4.298,3.568-7.727,7.913-7.525c4.049,0.248,7.09,3.863,7.09,7.913v7.432
		c0.124,3.941,3.119,7.416,7.075,7.664c4.375,0.171,7.897-3.258,7.897-7.556l0.062-24.204h-73.635c-0.016,0-0.031,0.016-0.031,0.031
		v24.002C386.064,223.713,389.136,227.406,393.263,227.576z"/>
	<path style="fill:#3AA2EB;" d="M303.911,227.576c4.282,0.264,7.897-3.181,7.897-7.463v-8.347c0-3.6,3.01-6.346,6.687-6.268
		c0,0,0,0,0.093,0c0,0,0,0,0.093,0c3.6-0.078,6.687,2.669,6.687,6.268v6.532c0,4.112,3.01,7.727,7.028,7.975
		c4.298,0.171,7.82-3.165,7.928-7.354v-6.997c0-4.298,3.568-7.727,7.913-7.525c4.049,0.248,7.09,3.863,7.09,7.913v7.432
		c0.124,3.941,3.119,7.416,7.075,7.664c4.375,0.171,7.897-3.258,7.897-7.556l0.062-24.204h-73.635c-0.016,0-0.031,0.016-0.031,0.031
		v24.002C296.712,223.713,299.799,227.406,303.911,227.576z"/>
	<path style="fill:#3AA2EB;" d="M349.929,138.023c4.298,0.264,7.897-3.181,7.897-7.463v-8.347c0-3.6,2.994-6.346,6.687-6.268
		c0,0,0,0,0.093,0c0,0,0,0,0.093,0c3.6-0.078,6.687,2.669,6.687,6.268v6.532c0,4.112,3.01,7.711,7.028,7.975
		c4.298,0.171,7.82-3.165,7.928-7.354v-6.997c0-4.298,3.568-7.727,7.913-7.525c4.049,0.248,7.09,3.863,7.09,7.913v7.432
		c0.124,3.941,3.119,7.416,7.075,7.664c4.375,0.171,7.897-3.258,7.897-7.54l0.062-24.204h-73.635c-0.016,0-0.031,0.016-0.031,0.031
		v24.002C342.714,134.175,345.802,137.852,349.929,138.023z"/>
</g>
<path style="fill:#E58A1F;" d="M73.247,149.923c4.841,0.295,8.906-3.584,8.906-8.425v-9.418c0-4.065,3.382-7.168,7.556-7.075
	c0,0,0,0,0.093,0c0,0,0,0,0.093,0c4.065-0.093,7.556,3.01,7.556,7.075v7.37c0,4.639,3.382,8.72,7.944,8.999
	c4.856,0.186,8.828-3.568,8.952-8.301v-7.897c0-4.856,4.034-8.72,8.937-8.502c4.577,0.279,8.006,4.36,8.006,8.937v8.394
	c0.155,4.453,3.537,8.378,8.006,8.657c4.934,0.186,8.906-3.677,8.906-8.518l0.047-19.766c-0.093-4.189-3.491-7.571-7.711-7.571
	H72.875c-4.282,0-7.758,3.475-7.758,7.758v19.378C65.117,145.563,68.608,149.737,73.247,149.923z"/>
<g>
</g>
<g>
</g>
<g>
</g>
<g>
</g>
<g>
</g>
<g>
</g>
<g>
</g>
<g>
</g>
<g>
</g>
<g>
</g>
<g>
</g>
<g>
</g>
<g>
</g>
<g>
</g>
<g>
</g>
</svg>
