<?xml version="1.0" encoding="iso-8859-1"?>
<!-- Generator: Adobe Illustrator 19.0.0, SVG Export Plug-In . SVG Version: 6.00 Build 0)  -->
<svg version="1.1" id="Capa_1" xmlns="http://www.w3.org/2000/svg" xmlns:xlink="http://www.w3.org/1999/xlink" x="0px" y="0px"
	 viewBox="0 0 496.485 496.485" style="enable-background:new 0 0 496.485 496.485;" xml:space="preserve">
<g>
	<path style="fill:#454545;" d="M416.628,350.32v47.352c0,8.564,6.951,15.515,15.515,15.515h34.801
		c8.564,0,15.515-6.951,15.515-15.515V350.32H416.628z"/>
	<path style="fill:#454545;" d="M14.026,350.32v47.352c0,8.564,6.951,15.515,15.515,15.515h34.8c8.564,0,15.515-6.951,15.515-15.515
		V350.32H14.026z"/>
</g>
<g>
	<path style="fill:#CACACA;" d="M485.19,162.758H467.44c-6.237,0-11.295,5.058-11.295,11.295s-5.058,11.295-11.295,11.295h-9.775
		l4.484,7.277h45.63c6.237,0,11.295-5.058,11.295-11.295v-7.277C496.485,167.816,491.427,162.758,485.19,162.758z"/>
	<path style="fill:#CACACA;" d="M51.634,185.348c-6.237,0-11.295-5.058-11.295-11.295c0-6.237-5.058-11.295-11.295-11.295H11.295
		C5.058,162.758,0,167.816,0,174.053v7.277c0,6.237,5.058,11.295,11.295,11.295h45.63l4.484-7.277H51.634z"/>
</g>
<path style="fill:#F3F3F3;" d="M433.137,166.435c-11.792-40.603-33.233-72.13-77.265-78.181c-48.097-6.609-167.129-6.609-215.226,0
	c-44.048,6.066-65.489,37.578-77.265,78.181c-13.591,46.67-49.338,44.327-49.338,101.562v93.851H482.49v-93.851
	C482.475,212.53,446.061,210.855,433.137,166.435z"/>
<path style="fill:#168DE2;" d="M437.357,194.176c-4.949-7.432-8.983-15.794-11.667-24.917c-2.529-8.657-5.772-17.486-9.635-26.267
	c-10.923-24.778-34.397-42.946-61.254-46.825c-47.538-6.749-164.616-6.889-213.116,0c-40.944,5.896-60.168,36.368-70.904,73.092
	c-2.669,9.138-6.718,17.47-11.667,24.917C185.018,204.09,311.482,204.09,437.357,194.176z"/>
<g>
	<path style="fill:#CACACA;" d="M468.837,308.399c0,0-10.473,6.811-52.907,12.055c-42.434,5.244-45.584,38.245-45.584,38.245h70.734
		C479.31,347.698,468.837,308.399,468.837,308.399z"/>
	<path style="fill:#CACACA;" d="M443.873,215.432c-39.439,16.089-42.062,16.493-67.336,35.126
		C390.951,225.982,427.52,215.308,443.873,215.432z"/>
	<path style="fill:#CACACA;" d="M52.612,215.432c51.929,21.194,51.821,23.676,67.336,35.126
		C105.891,226.587,70.128,215.292,52.612,215.432z"/>
	<polygon style="fill:#CACACA;" points="365.351,337.567 357.236,354.339 139.248,354.339 131.134,337.567 	"/>
	<path style="fill:#CACACA;" d="M80.57,320.454c-42.434-5.244-52.907-12.055-52.907-12.055s-10.473,39.3,27.772,50.3h70.703
		C126.138,358.699,123.004,325.682,80.57,320.454z"/>
</g>
<g>
	<path style="fill:#ED6262;" d="M454.951,242.816c-50.207-4.282-84.263,34.49-84.263,34.49s-7.68,4.453,49.68,10.83
		c27.431,3.041,39.983-6.594,45.63-17.486C471.924,259.184,465.641,243.731,454.951,242.816z"/>
	<path style="fill:#ED6262;" d="M126.169,277.306c0,0-34.18-38.772-84.573-34.49c-10.736,0.915-17.036,16.368-11.093,27.819
		c5.663,10.892,18.261,20.527,45.801,17.486C133.88,281.759,126.169,277.306,126.169,277.306z"/>
</g>
<path style="fill:#6F6F6F;" d="M482.475,361.848v8.906c0,7.23-5.88,13.079-13.11,13.079H27.136c-7.23,0-13.11-5.849-13.11-13.079
	v-8.906H482.475z"/>
<path style="fill:#777777;" d="M384.403,298.546c-24.312-27.772-59.439-43.691-96.349-43.691h-79.624
	c-36.911,0-72.021,15.919-96.349,43.691c-7.897,9.014-1.489,23.133,10.488,23.133h251.345
	C385.893,321.679,392.301,307.561,384.403,298.546z"/>
<g>
	<path style="fill:#6F6F6F;" d="M190.309,275.336H306.16c2.622,0,4.763-2.126,4.763-4.763s-2.126-4.763-4.763-4.763H190.309
		c-2.638,0-4.763,2.126-4.763,4.763S187.687,275.336,190.309,275.336z"/>
	<path style="fill:#6F6F6F;" d="M175.973,293.07h144.524c2.622,0,4.763-2.126,4.763-4.763c0-2.622-2.126-4.763-4.763-4.763H175.973
		c-2.622,0-4.763,2.126-4.763,4.763C171.225,290.944,173.351,293.07,175.973,293.07z"/>
	<path style="fill:#6F6F6F;" d="M338.122,301.293H158.363c-2.622,0-4.763,2.126-4.763,4.763c0,2.622,2.126,4.763,4.763,4.763
		h179.759c2.622,0,4.763-2.126,4.763-4.763C342.885,303.418,340.744,301.293,338.122,301.293z"/>
</g>
<g>
	<circle style="fill:#FFCB5A;" cx="442.492" cy="263.249" r="15.717"/>
	<circle style="fill:#FFCB5A;" cx="53.931" cy="263.249" r="15.717"/>
</g>
<path style="fill:#1B95E0;" d="M263.494,147.817v-35.452c0-5.679,4.686-10.349,10.504-10.349h0.853
	c5.679-0.434,10.488,4.251,10.488,9.79v34.676c0,6.811,4.965,12.769,11.636,13.188c7.23,0.279,13.188-5.384,13.188-12.474v-25.879
	c0-5.679,4.686-10.349,10.349-10.349h0.853c6.097,0,11.062,4.965,11.062,10.923v19.906c0,6.672,5.104,12.769,11.776,13.048
	c7.09,0.434,13.188-5.244,13.188-12.335v-22.9c0-5.958,4.965-10.488,10.923-10.349c0.14,0,0.14,0,0.14,0c0.14,0,0.14,0,0.279,0
	c5.958-0.14,10.923,4.391,10.923,10.349v25.305c0,6.811,5.104,12.769,11.776,13.188c7.23,0.279,13.048-5.384,13.048-12.474v-21.178
	c-12.428-15.003-30.115-25.46-49.648-28.284c-47.569-6.765-164.662-6.873-213.116,0c-19.549,2.824-37.236,13.281-49.664,28.284
	v17.346c0,6.672,5.104,12.769,11.916,13.048c7.09,0.434,13.048-5.244,13.048-12.335v-22.9c0-5.958,4.965-10.488,11.062-10.349
	c0,0,0,0,0.14,0c0,0,0,0,0.14,0c5.927-0.14,11.031,4.391,11.031,10.349v25.305c0,6.811,4.965,12.769,11.636,13.188
	c7.106,0.279,12.924-5.229,13.126-12.148v-33.792c0-7.106,5.911-12.769,13.095-12.443c6.703,0.403,11.729,6.377,11.729,13.079
	v32.256c0.186,6.501,5.167,12.257,11.698,12.676c7.23,0.279,13.048-5.384,13.048-12.474l0.14-27.493
	c0-7.09,5.818-12.769,13.048-12.49c6.672,0.419,11.776,6.377,11.776,13.188v29.758c0.14,6.672,5.679,12.055,12.335,12.055
	C257.955,160.291,263.494,154.628,263.494,147.817z"/>
<g>
</g>
<g>
</g>
<g>
</g>
<g>
</g>
<g>
</g>
<g>
</g>
<g>
</g>
<g>
</g>
<g>
</g>
<g>
</g>
<g>
</g>
<g>
</g>
<g>
</g>
<g>
</g>
<g>
</g>
</svg>
