<?xml version="1.0" encoding="iso-8859-1"?>
<!-- Generator: Adobe Illustrator 19.0.0, SVG Export Plug-In . SVG Version: 6.00 Build 0)  -->
<svg version="1.1" id="Capa_1" xmlns="http://www.w3.org/2000/svg" xmlns:xlink="http://www.w3.org/1999/xlink" x="0px" y="0px"
	 viewBox="0 0 496.485 496.485" style="enable-background:new 0 0 496.485 496.485;" xml:space="preserve">
<rect x="221.51" style="fill:#ED6262;" width="53.465" height="49.695"/>
<rect x="123.749" y="117.884" style="fill:#E5E5E5;" width="249.018" height="200.471"/>
<path style="fill:#CACACA;" d="M387.072,98.521H109.413c-10.69,0-19.363,8.673-19.363,19.363c0,10.69,8.673,19.363,19.363,19.363
	h277.659c10.69,0,19.363-8.673,19.363-19.363C406.435,107.194,397.777,98.521,387.072,98.521z"/>
<g>
	<rect x="142.227" y="154.779" style="fill:#168DE2;" width="96.784" height="65.303"/>
	<rect x="257.396" y="154.779" style="fill:#168DE2;" width="96.784" height="65.303"/>
</g>
<polygon style="fill:#6F6F6F;" points="248.242,203.109 71.184,332.381 138.814,496.485 357.671,496.485 425.301,332.381 "/>
<polygon style="fill:#606060;" points="248.367,203.202 248.367,496.485 357.671,496.485 425.301,332.381 "/>
<path style="fill:#FFCB5A;" d="M319.488,48.842H176.981c-17.144,0-31.03,13.886-31.03,31.03v18.649h204.567V79.872
	C350.518,62.728,336.632,48.842,319.488,48.842z"/>
<g>
	<path style="fill:#3AA2EB;" d="M142.227,184.661c0.155,5.198,4.127,9.79,9.34,10.116c5.772,0.233,10.426-4.298,10.426-9.961
		l0.109-7.696c0-5.663,4.639-10.193,10.426-9.961c5.322,0.341,9.402,5.104,9.402,10.535v5.911c0.109,5.322,4.53,9.619,9.852,9.619
		c5.554,0,9.961-4.53,9.961-9.961v-7.478c0-4.53,3.739-8.27,8.378-8.27h0.683c4.53-0.341,8.378,3.398,8.378,7.82v9.2
		c0,5.43,3.956,10.193,9.294,10.535c5.772,0.233,10.535-4.298,10.535-9.961v-30.317h-96.784V184.661z"/>
	<path style="fill:#3AA2EB;" d="M257.474,184.661c0.155,5.198,4.127,9.79,9.34,10.116c5.772,0.233,10.411-4.298,10.411-9.961
		l0.109-7.696c0-5.663,4.639-10.193,10.426-9.961c5.322,0.341,9.402,5.104,9.402,10.535v5.911c0.109,5.322,4.53,9.619,9.852,9.619
		c5.554,0,9.961-4.53,9.961-9.961v-7.478c0-4.53,3.739-8.27,8.378-8.27h0.683c4.53-0.341,8.378,3.398,8.378,7.82v9.2
		c0,5.43,3.956,10.193,9.294,10.535c5.772,0.233,10.535-4.298,10.535-9.961v-30.317h-96.768L257.474,184.661L257.474,184.661z"/>
</g>
<path style="fill:#FFBD49;" d="M319.488,48.842H176.981c-16.601,0-30.037,13.064-30.875,29.448c1.226,0.869,2.591,1.52,4.189,1.583
	c4.81,0.295,8.859-3.568,8.859-8.378v-0.9c0-4.034,3.367-7.121,7.509-7.028c0,0,0,0,0.093,0c0,0,0,0,0.093,0
	c4.034-0.093,7.509,2.979,7.509,7.028v0.869c0,4.624,3.367,8.657,7.897,8.952c4.825,0.186,8.782-3.537,8.906-8.239v-0.078
	c0-4.825,4.003-8.657,8.89-8.44c4.546,0.279,7.959,4.329,7.959,8.875v3.025c0.14,4.422,3.506,8.316,7.944,8.595
	c4.903,0.202,8.859-3.662,8.859-8.471l0.093-1.35c0-4.81,3.941-8.673,8.859-8.471c4.53,0.295,7.99,4.329,7.99,8.952v-0.171
	c0.093,4.53,3.848,8.176,8.378,8.176c4.717,0,8.471-3.848,8.471-8.471v-2.126c0-3.677,2.746-7.028,7.696-7.028
	c3.848-0.295,7.121,2.886,7.121,6.64v-0.124c0,4.624,3.367,8.657,7.897,8.952c4.903,0.186,8.952-3.662,8.952-8.471v-0.434
	c0-3.646,2.715-7.028,7.602-7.028c4.143,0,7.509,3.367,7.509,7.401v1.195c0,4.53,3.46,8.657,7.99,8.859
	c4.81,0.295,8.952-3.568,8.952-8.378v-3.212c0-4.034,3.367-7.121,7.416-7.028c0.093,0,0.093,0,0.093,0c0.093,0,0.093,0,0.186,0
	c4.049-0.093,7.416,2.979,7.416,7.028v0.388c0,4.624,3.46,8.657,7.99,8.952c1.893,0.078,3.537-0.59,4.98-1.536
	C349.603,61.968,336.136,48.842,319.488,48.842z"/>
<g>
</g>
<g>
</g>
<g>
</g>
<g>
</g>
<g>
</g>
<g>
</g>
<g>
</g>
<g>
</g>
<g>
</g>
<g>
</g>
<g>
</g>
<g>
</g>
<g>
</g>
<g>
</g>
<g>
</g>
</svg>
