<?xml version="1.0" encoding="iso-8859-1"?>
<!-- Generator: Adobe Illustrator 19.0.0, SVG Export Plug-In . SVG Version: 6.00 Build 0)  -->
<svg version="1.1" id="Capa_1" xmlns="http://www.w3.org/2000/svg" xmlns:xlink="http://www.w3.org/1999/xlink" x="0px" y="0px"
	 viewBox="0 0 496.485 496.485" style="enable-background:new 0 0 496.485 496.485;" xml:space="preserve">
<path style="fill:#F3F3F3;" d="M403.394,128.644H0v215.35c0,17.144,13.886,31.03,31.03,31.03h434.424
	c17.144,0,31.03-13.886,31.03-31.03v-98.987L403.394,128.644z"/>
<rect x="160.815" y="159.674" style="fill:#ED6262;" width="136.844" height="184.336"/>
<g>
	<rect x="31.03" y="159.674" style="fill:#168DE2;" width="101.516" height="68.205"/>
	<polygon style="fill:#168DE2;" points="461.141,250.5 388.484,159.674 323.677,159.674 323.677,250.5 	"/>
</g>
<path style="fill:#CACACA;" d="M417.047,70.679H31.03C13.886,70.679,0,84.565,0,101.71v26.934h448.078V101.71
	C448.078,84.565,434.192,70.679,417.047,70.679z"/>
<circle style="fill:#454545;" cx="81.796" cy="375.04" r="50.766"/>
<circle style="fill:#777777;" cx="81.796" cy="375.04" r="33.218"/>
<circle style="fill:#454545;" cx="402.417" cy="375.04" r="50.766"/>
<circle style="fill:#777777;" cx="402.417" cy="375.04" r="33.218"/>
<path style="fill:#FFCB5A;" d="M465.532,308.325c0,14.879,11.016,28.269,30.953,28.269v-56.537
	C476.548,280.056,465.532,293.446,465.532,308.325z"/>
<path style="fill:#E95353;" d="M297.658,305.594c-0.016-0.248-0.124-0.45-0.124-0.698v-4.592c-0.124-5.492-4.686-9.945-10.178-9.945
	c-5.725,0-10.287,4.686-10.287,10.287v9.294c0,4.453-3.32,8.533-9.356,8.533c-4.67,0.357-8.657-3.506-8.657-8.068v-8.657
	c0-5.616-4.096-10.519-9.588-10.876c-5.958-0.233-10.876,4.437-10.876,10.287v1.381c0,4.437-3.305,8.533-9.232,8.533
	c-5.027,0-9.123-4.096-9.123-8.999v3.537c0-5.492-4.205-10.519-9.712-10.768c-5.849-0.357-10.876,4.329-10.876,10.178v-1.071
	c0,4.903-4.096,8.657-8.999,8.533c-0.124,0-0.124,0-0.124,0c-0.109,0-0.109,0-0.233,0c-4.918,0.124-8.999-3.631-8.999-8.533v-0.915
	c0-5.616-4.205-10.519-9.712-10.876c-5.958-0.233-10.752,4.437-10.752,10.287v41.55h136.844v-38.4H297.658z"/>
<g>
	<path style="fill:#C4C3C2;" d="M170.853,117.659v-15.05c0-9.759-7.121-18.308-16.679-18.913
		c-10.38-0.419-18.913,7.727-18.913,17.889v2.405c0,8.145-6.718,14.848-14.848,14.848c-10.954,0-17.082-7.556-17.082-15.67v6.144
		c0-9.557-7.323-18.308-16.88-18.711c-10.178-0.605-18.928,7.525-18.928,17.703v-1.877c0,8.533-7.121,15.05-15.655,14.848
		c-0.202,0-0.202,0-0.202,0c-0.202,0-0.202,0-0.403,0c-8.549,0.202-15.67-6.299-15.67-14.848v-1.583
		c0-9.759-7.323-18.308-16.88-18.913C8.347,85.512,0,93.657,0,103.82v24.824h176.562
		C173.18,126.053,170.853,122.128,170.853,117.659z"/>
	<path style="fill:#C4C3C2;" d="M292.274,86.443c-10.38-0.403-18.711,7.727-18.711,17.889l-0.202,4.732
		c0,10.162-8.347,18.308-18.711,17.904c-9.557-0.605-16.88-9.154-16.88-18.913v-7.99c-0.202-9.557-8.13-17.284-17.703-17.284
		c-9.961,0-17.904,8.13-17.904,17.904v16.167c0,4.918-2.607,9.092-6.392,11.807h117.884c-2.839-3.398-4.592-7.789-4.592-12.459
		v-11.574C308.783,95.286,301.646,87.048,292.274,86.443z"/>
	<path style="fill:#C4C3C2;" d="M430.995,90.601c-10.162-0.605-18.711,7.525-18.711,17.703v-1.877
		c0,8.533-7.121,15.05-15.856,14.848c0,0,0,0-0.202,0c0,0,0,0-0.202,0c-8.549,0.202-15.872-6.299-15.872-14.848v-1.583
		c0-9.759-7.121-18.308-16.679-18.913c-10.209-0.403-18.541,7.494-18.82,17.424v13.762c0,4.484-1.831,8.409-4.561,11.528h107.985
		v-19.332C448.078,99.755,440.754,91.004,430.995,90.601z"/>
</g>
<path style="fill:#3AA2EB;" d="M132.546,159.674H31.03v34.195c0,5.632,4.313,10.783,10.054,11.016
	c5.989,0.357,11.016-4.422,11.016-10.411v-9.107c0-5.027,4.189-8.859,9.34-8.735c0,0,0,0,0.124,0c0,0,0,0,0.124,0
	c5.027-0.124,9.34,3.708,9.34,8.735v11.14c0,5.741,4.189,10.783,9.821,11.14c6.004,0.233,10.907-4.406,11.078-10.256v-18.308
	c0-5.989,4.98-10.783,11.047-10.504c5.663,0.341,9.899,5.384,9.899,11.047v17.02c0.155,5.492,4.36,10.349,9.883,10.705
	c4.36,0.171,8.021-2.281,9.806-5.834v-41.844H132.546z"/>
<g>
</g>
<g>
</g>
<g>
</g>
<g>
</g>
<g>
</g>
<g>
</g>
<g>
</g>
<g>
</g>
<g>
</g>
<g>
</g>
<g>
</g>
<g>
</g>
<g>
</g>
<g>
</g>
<g>
</g>
</svg>
