<?xml version="1.0" encoding="iso-8859-1"?>
<!-- Generator: Adobe Illustrator 19.0.0, SVG Export Plug-In . SVG Version: 6.00 Build 0)  -->
<svg version="1.1" id="Capa_1" xmlns="http://www.w3.org/2000/svg" xmlns:xlink="http://www.w3.org/1999/xlink" x="0px" y="0px"
	 viewBox="0 0 496.485 496.485" style="enable-background:new 0 0 496.485 496.485;" xml:space="preserve">
<polygon style="fill:#CACACA;" points="435.945,236.141 481.202,236.141 481.202,186.29 465.687,186.29 465.687,220.625 
	435.945,220.625 "/>
<rect x="450.405" y="117.295" style="fill:#E95353;" width="46.08" height="81.439"/>
<polygon style="fill:#CACACA;" points="60.54,236.141 15.282,236.141 15.282,186.29 30.798,186.29 30.798,220.625 60.54,220.625 "/>
<rect y="117.295" style="fill:#E95353;" width="46.08" height="81.439"/>
<path style="fill:#F3F3F3;" d="M441.297,442.446V40.758c-123.609-51.2-262.501-51.2-386.11,0V442.43h386.11V442.446z"/>
<g>
	<path style="fill:#6F6F6F;" d="M55.187,442.446v36.166c0,8.564,6.951,15.515,15.515,15.515h54.582
		c8.564,0,15.515-6.951,15.515-15.515v-36.166H55.187z"/>
	<path style="fill:#6F6F6F;" d="M355.685,442.446v36.166c0,8.564,6.951,15.515,15.515,15.515h54.582
		c8.564,0,15.515-6.951,15.515-15.515v-36.166H355.685z"/>
</g>
<path style="fill:#E5E5E5;" d="M69.989,84.387c8.813,0.528,16.213-6.516,16.213-15.329V46.949c0-7.401,6.175-13.048,13.746-12.862
	c0,0,0,0,0.171,0c0,0,0,0,0.171,0c7.401-0.171,13.746,5.461,13.746,12.862v2.839c0,8.456,6.175,15.856,14.445,16.384
	c8.844,0.341,16.058-6.501,16.306-15.096V45.94c0-8.828,7.339-15.872,16.26-15.469c8.332,0.496,14.569,7.944,14.569,16.26v1.024
	c0.248,8.083,6.423,15.236,14.538,15.748c8.983,0.357,16.213-6.687,16.213-15.5l0.171-4.825c0-8.813,7.23-15.856,16.213-15.515
	c8.285,0.528,14.631,7.928,14.631,16.384v0.279c0.171,8.285,7.044,14.972,15.329,14.972c8.642,0,15.515-7.044,15.515-15.5v-3.351
	c0-7.044,5.818-12.862,13.033-12.862c9.588,0,14.103,5.679,14.103,12.148v6.097c0,8.456,6.159,15.856,14.445,16.384
	c8.983,0.357,16.384-6.703,16.384-15.515v-4.686c0-7.059,5.818-12.862,12.862-12.862c9.449,0,14.801,6.501,14.801,13.576v0.977
	c0,8.285,6.346,15.856,14.631,16.213c8.813,0.528,16.384-6.516,16.384-15.329v-1.241c0-7.401,6.159-13.033,13.56-12.862
	c8.952,0,14.103,6.004,14.103,12.862v22.869c0,8.456,6.346,15.856,14.631,16.384c6.206,0.248,11.388-3.165,14.119-8.13V40.758
	c-123.609-51.2-262.501-51.2-386.11,0v27.415C55.187,76.459,61.533,84.046,69.989,84.387z"/>
<path style="fill:#168DE2;" d="M408.545,252.85c-102.648,42.512-217.972,42.512-320.621,0c0-67.103,0-102.09,0-169.177
	c102.648-42.527,217.972-42.527,320.621,0C408.545,150.761,408.545,185.747,408.545,252.85z"/>
<path style="fill:#3AA2EB;" d="M87.94,83.658c0,14.336,0,58.042,0,70.066c1.071,5.834,5.648,10.768,11.792,11.016
	c7.292,0.434,13.405-5.399,13.405-12.676v-24.111c0-6.113,5.104-10.783,11.373-10.643c0,0,0,0,0.14,0c0,0,0,0,0.14,0
	c6.113-0.14,11.373,4.515,11.373,10.643v21.023c0,6.997,5.104,13.11,11.947,13.56c7.308,0.279,13.281-5.368,13.483-12.49v-21.83
	c0-7.292,6.066-13.126,13.452-12.8c6.889,0.419,12.055,6.563,12.055,13.452v24.824c0.202,6.687,5.306,12.598,12.024,13.017
	c7.432,0.295,13.405-5.539,13.405-12.816l0.14-27.85c0-7.292,5.973-13.126,13.405-12.831c6.842,0.434,12.102,6.563,12.102,13.56
	v24.08c0.14,6.842,5.834,12.397,12.676,12.397c7.137,0,12.831-5.834,12.831-12.831v-22.016c0-5.834,4.81-10.643,10.783-10.643h0.869
	c5.834-0.434,10.783,4.375,10.783,10.054v24.297c0,6.997,5.104,13.11,11.947,13.545c7.432,0.295,13.56-5.539,13.56-12.831v-23.133
	c0-5.834,4.81-10.643,10.643-10.643h0.869c6.268,0,11.373,5.104,11.373,11.217v20.061c0,6.858,5.244,13.11,12.102,13.405
	c7.292,0.434,13.56-5.399,13.56-12.676v-23.118c0-6.113,5.104-10.783,11.217-10.643c0.155,0,0.155,0,0.155,0c0.14,0,0.14,0,0.295,0
	c6.129-0.14,11.217,4.515,11.217,10.643v21.752c0,6.997,5.244,13.11,12.102,13.56c7.432,0.295,13.405-5.539,13.405-12.816
	c0-3.956,0-7.789,0-11.947c0-7.509,0-46.421,0-54.815C305.912,41.146,190.573,41.146,87.94,83.658z"/>
<path style="fill:#E8E8E8;" d="M427.101,402.51c-8.782-0.528-16.151,6.485-16.151,15.267v1.024c0,7.37-6.144,12.986-13.684,12.816
	c0,0,0,0-0.171,0c0,0,0,0-0.171,0c-7.37,0.171-13.684-5.446-13.684-12.816v2.715c0-8.425-6.144-15.794-14.383-16.322
	c-8.797-0.341-15.996,6.47-16.229,15.05v-1.753c0,8.782-7.308,15.794-16.198,15.407c-8.301-0.496-14.507-7.913-14.507-16.198v-1.877
	c-0.248-8.052-6.392-15.174-14.476-15.686c-8.952-0.357-16.136,6.672-16.136,15.438l-0.186,5.508
	c0,8.782-7.199,15.794-16.151,15.453c-8.254-0.527-14.569-7.897-14.569-16.322v-0.977c-0.171-8.254-7.028-14.926-15.267-14.926
	c-8.595,0-15.453,7.013-15.453,15.453v-1.505c0,7.013-5.787,12.816-12.986,12.816c-9.573,0-14.041-5.679-14.041-12.117v-1.226
	c0-8.425-6.144-15.794-14.398-16.322c-8.952-0.357-16.322,6.672-16.322,15.438v-0.155c0,6.64-4.934,12.815-13.871,12.815
	c-7.54,0-13.7-6.144-13.7-13.514v3.879c0-8.254-6.315-15.794-14.569-16.151c-8.782-0.527-16.322,6.485-16.322,15.267V418.8
	c0,7.37-6.144,12.986-13.514,12.816c-0.171,0-0.171,0-0.171,0c-0.171,0-0.171,0-0.357,0c-7.37,0.171-13.514-5.446-13.514-12.816
	v1.831c0-8.425-6.315-15.794-14.569-16.322c-8.952-0.357-16.136,6.672-16.151,15.438c0,4.779,0,9.371,0,14.398v8.301h386.11v-26.671
	C440.01,408.747,434.502,402.82,427.101,402.51z"/>
<circle style="fill:#FFFFFF;" cx="133.787" cy="346.965" r="45.847"/>
<circle style="fill:#FFBD49;" cx="133.787" cy="346.965" r="36.399"/>
<circle style="fill:#FFFFFF;" cx="362.698" cy="346.965" r="45.847"/>
<circle style="fill:#FFBD49;" cx="362.698" cy="346.965" r="36.399"/>
<g>
	<circle style="fill:#FFCB5A;" cx="125.502" cy="338.68" r="18.68"/>
	<circle style="fill:#FFCB5A;" cx="354.413" cy="338.68" r="18.68"/>
</g>
<rect x="197.492" y="331.109" style="fill:#E95353;" width="101.5" height="31.713"/>
<g>
</g>
<g>
</g>
<g>
</g>
<g>
</g>
<g>
</g>
<g>
</g>
<g>
</g>
<g>
</g>
<g>
</g>
<g>
</g>
<g>
</g>
<g>
</g>
<g>
</g>
<g>
</g>
<g>
</g>
</svg>
