<?xml version="1.0" encoding="iso-8859-1"?>
<!-- Generator: Adobe Illustrator 19.0.0, SVG Export Plug-In . SVG Version: 6.00 Build 0)  -->
<svg version="1.1" id="Capa_1" xmlns="http://www.w3.org/2000/svg" xmlns:xlink="http://www.w3.org/1999/xlink" x="0px" y="0px"
	 viewBox="0 0 496.485 496.485" style="enable-background:new 0 0 496.485 496.485;" xml:space="preserve">
<polygon style="fill:#CACACA;" points="79.438,278.714 16.306,278.714 16.306,230.307 31.822,230.307 31.822,263.199 
	79.438,263.199 "/>
<path style="fill:#ED6262;" d="M32.628,144.136H15.515C6.951,144.136,0,151.087,0,159.651v69.353
	c0,8.564,6.951,15.515,15.515,15.515h17.113c8.564,0,15.515-6.951,15.515-15.515v-69.353
	C48.144,151.087,41.193,144.136,32.628,144.136z"/>
<polygon style="fill:#CACACA;" points="417.047,278.714 480.178,278.714 480.178,230.307 464.663,230.307 464.663,263.199 
	417.047,263.199 "/>
<path style="fill:#ED6262;" d="M480.97,144.136h-17.113c-8.564,0-15.515,6.951-15.515,15.515v69.353
	c0,8.564,6.951,15.515,15.515,15.515h17.113c8.564,0,15.515-6.951,15.515-15.515v-69.353
	C496.485,151.087,489.534,144.136,480.97,144.136z"/>
<rect x="62.79" y="83.751" style="fill:#FFDB6F;" width="370.905" height="371.014"/>
<path style="fill:#666666;" d="M432.423,408.064H64.062c-8.564,0-15.515,6.951-15.515,15.515v15.67
	c0,8.564,6.951,15.515,15.515,15.515h368.361c8.564,0,15.515-6.951,15.515-15.515v-15.67
	C447.938,415.015,440.987,408.064,432.423,408.064z"/>
<path style="fill:#FFBD49;" d="M371.634,0H124.85C90.577,0,62.79,27.788,62.79,62.061v21.69h370.89v-21.69
	C433.695,27.788,405.907,0,371.634,0z"/>
<g>
	<path style="fill:#454545;" d="M95.961,454.765v26.205c0,8.564,6.951,15.515,15.515,15.515h54.908
		c8.564,0,15.515-6.951,15.515-15.515v-26.205H95.961z"/>
	<path style="fill:#454545;" d="M314.585,454.765v26.205c0,8.564,6.951,15.515,15.515,15.515h54.908
		c8.564,0,15.515-6.951,15.515-15.515v-26.205H314.585z"/>
</g>
<g>
	<rect x="93.82" y="114.781" style="fill:#168DE2;" width="138.907" height="143.686"/>
	<rect x="263.758" y="114.781" style="fill:#168DE2;" width="138.907" height="143.686"/>
</g>
<circle style="fill:#F3F3F3;" cx="134.703" cy="333.265" r="38.741"/>
<circle style="fill:#E95353;" cx="134.703" cy="333.265" r="30.968"/>
<circle style="fill:#F3F3F3;" cx="363.908" cy="333.265" r="38.741"/>
<circle style="fill:#E95353;" cx="363.908" cy="333.265" r="30.968"/>
<g>
	<circle style="fill:#ED6262;" cx="357.841" cy="327.199" r="16.462"/>
	<circle style="fill:#ED6262;" cx="128.279" cy="327.199" r="16.462"/>
</g>
<path style="fill:#FFBD49;" d="M288.939,356.026h-81.408c-12.567,0-22.761-10.193-22.761-22.761l0,0
	c0-12.567,10.193-22.745,22.761-22.745h81.408c12.567,0,22.745,10.193,22.745,22.745l0,0
	C311.699,345.833,301.506,356.026,288.939,356.026z"/>
<path style="fill:#F9B443;" d="M371.634,0H124.85C93.836,0,68.36,22.823,63.752,52.55c0.993,6.966,6.377,12.986,13.669,13.281
	c8.378,0.496,15.407-6.191,15.407-14.569V38.524c0-7.028,5.865-12.397,13.064-12.226c0,0,0,0,0.171,0c0,0,0,0,0.171,0
	c7.028-0.171,13.064,5.182,13.064,12.226v15.593c0,8.037,5.865,15.081,13.731,15.577c8.394,0.326,15.267-6.175,15.5-14.352V29.727
	c0-8.378,6.982-15.081,15.453-14.693c7.913,0.465,13.855,7.54,13.855,15.453v23.816c0.233,7.68,6.097,14.476,13.824,14.972
	c8.549,0.341,15.407-6.361,15.407-14.739l0.171-18.184c0-8.378,6.873-15.081,15.407-14.739c7.866,0.512,13.902,7.54,13.902,15.577
	v20.852c0.171,7.866,6.703,14.243,14.569,14.243c8.207,0,14.739-6.703,14.739-14.739V29.944c0-6.703,5.523-12.226,12.397-12.226
	c9.123,0,13.405,5.399,13.405,11.559v26.671c0,8.037,5.865,15.065,13.731,15.577c8.549,0.341,15.577-6.361,15.577-14.739v-16.26
	c0-6.703,5.523-12.226,12.226-12.226c8.999,0,14.072,6.191,14.072,12.893v9.232c0,7.882,6.035,15.081,13.902,15.407
	c8.378,0.496,15.577-6.191,15.577-14.569V38.524c0-7.028,5.865-12.397,12.893-12.226c0.171,0,0.171,0,0.171,0
	c8.301,0,13.234,5.756,13.234,12.226v15.593c0,8.037,6.035,15.081,13.902,15.577c8.549,0.326,15.407-6.361,15.407-14.739v-5.741
	C426.403,21.101,401.501,0,371.634,0z"/>
<g>
	<path style="fill:#3AA2EB;" d="M93.82,166.695c0,5.399,4.143,10.349,9.65,10.566c5.741,0.341,10.566-4.251,10.566-9.992v-27.834
		c0-4.825,4.018-8.502,8.968-8.394c0,0,0,0,0.109,0c0,0,0,0,0.109,0c4.825-0.109,8.968,3.568,8.968,8.394v25.398
		c0,5.508,4.018,10.333,9.418,10.69c5.756,0.217,10.473-4.236,10.628-9.837v-24.25c0-5.756,4.779-10.349,10.597-10.085
		c5.43,0.326,9.495,5.167,9.495,10.597v23.009c0.155,5.275,4.189,9.93,9.48,10.271c5.865,0.233,10.566-4.36,10.566-10.116
		l0.109-23.645c0-5.741,4.717-10.349,10.566-10.116c5.399,0.341,9.542,5.167,9.542,10.69v25.491
		c0.109,5.399,4.592,9.759,9.992,9.759c5.632,0,10.116-4.592,10.116-10.116v-52.395H93.82V166.695z"/>
	<path style="fill:#3AA2EB;" d="M263.758,166.695c0,5.399,4.143,10.349,9.65,10.566c5.741,0.341,10.566-4.251,10.566-9.992v-27.834
		c0-4.825,4.018-8.502,8.968-8.394c0,0,0,0,0.109,0c0,0,0,0,0.109,0c4.825-0.109,8.968,3.568,8.968,8.394v25.398
		c0,5.508,4.018,10.333,9.418,10.69c5.756,0.217,10.473-4.236,10.628-9.837v-24.25c0-5.756,4.779-10.349,10.597-10.085
		c5.43,0.326,9.495,5.167,9.495,10.597v23.009c0.155,5.275,4.189,9.93,9.48,10.271c5.865,0.233,10.566-4.36,10.566-10.116
		l0.109-23.645c0-5.741,4.717-10.349,10.566-10.116c5.399,0.341,9.542,5.167,9.542,10.69v25.491
		c0.109,5.399,4.592,9.759,9.992,9.759c5.632,0,10.116-4.592,10.116-10.116v-52.395H263.758V166.695z"/>
</g>
<g>
</g>
<g>
</g>
<g>
</g>
<g>
</g>
<g>
</g>
<g>
</g>
<g>
</g>
<g>
</g>
<g>
</g>
<g>
</g>
<g>
</g>
<g>
</g>
<g>
</g>
<g>
</g>
<g>
</g>
</svg>
