<?xml version="1.0" encoding="iso-8859-1"?>
<!-- Generator: Adobe Illustrator 19.0.0, SVG Export Plug-In . SVG Version: 6.00 Build 0)  -->
<svg version="1.1" id="Capa_1" xmlns="http://www.w3.org/2000/svg" xmlns:xlink="http://www.w3.org/1999/xlink" x="0px" y="0px"
	 viewBox="0 0 496.485 496.485" style="enable-background:new 0 0 496.485 496.485;" xml:space="preserve">
<rect x="19.192" y="125.96" style="fill:#F3F3F3;" width="458.1" height="274.866"/>
<g>
	<rect y="105.588" style="fill:#777777;" width="496.485" height="47.942"/>
	<rect y="373.256" style="fill:#777777;" width="496.485" height="47.942"/>
</g>
<g>
	<path style="fill:#ED6262;" d="M92.982,75.287H59.314c-8.564,0-15.515,6.951-15.515,15.515v14.786h64.698V90.802
		C108.497,82.238,101.547,75.287,92.982,75.287z"/>
	<path style="fill:#ED6262;" d="M179.029,75.287h-33.668c-8.564,0-15.515,6.951-15.515,15.515v14.786h64.698V90.802
		C194.544,82.238,187.594,75.287,179.029,75.287z"/>
	<path style="fill:#ED6262;" d="M265.076,75.287h-33.668c-8.564,0-15.515,6.951-15.515,15.515v14.786h64.698V90.802
		C280.592,82.238,273.641,75.287,265.076,75.287z"/>
	<path style="fill:#ED6262;" d="M351.123,75.287h-33.668c-8.564,0-15.515,6.951-15.515,15.515v14.786h64.698V90.802
		C366.639,82.238,359.688,75.287,351.123,75.287z"/>
	<path style="fill:#ED6262;" d="M437.17,75.287h-33.668c-8.564,0-15.515,6.951-15.515,15.515v14.786h64.698V90.802
		C452.686,82.238,445.735,75.287,437.17,75.287z"/>
</g>
<path style="fill:#EAEAEA;" d="M19.192,153.53v87.35c0,9.759,7.463,18.68,17.424,19.099c10.38,0.621,19.084-7.68,19.084-18.06
	v-33.482c0-8.72,7.261-15.36,16.182-15.143c0,0,0,0,0.202,0c0,0,0,0,0.202,0c8.72-0.202,16.182,6.439,16.182,15.143v37.004
	c0,9.961,7.261,18.68,17.02,19.301c10.411,0.403,18.913-7.649,19.192-17.78v-49.431c0-10.395,8.642-18.68,19.146-18.215
	c9.806,0.59,17.16,9.34,17.16,19.146v47.197c0.279,9.511,7.556,17.936,17.113,18.541c10.581,0.419,19.084-7.882,19.084-18.261
	l0.202-40.215c0-10.38,8.502-18.68,19.099-18.261c9.744,0.621,17.222,9.34,17.222,19.301v43.536
	c0.202,9.744,8.301,17.641,18.044,17.641c10.162,0,18.261-8.301,18.261-18.261V197.81c0-7.928,5.911-15.143,16.601-15.143
	c8.301-0.621,15.36,6.222,15.36,14.32v50.75c0,9.961,7.261,18.68,17.02,19.301c10.581,0.419,19.301-7.882,19.301-18.261v-37.841
	c0-7.897,5.88-15.143,16.384-15.143c8.921,0,16.182,7.261,16.182,15.981v29.122c0,9.759,7.463,18.68,17.222,19.099
	c10.38,0.621,19.301-7.68,19.301-18.06v-33.482c0-8.72,7.261-15.36,15.981-15.143c0.202,0,0.202,0,0.202,0c0.202,0,0.202,0,0.419,0
	c8.72-0.202,15.981,6.439,15.981,15.143v37.004c0,9.961,7.463,18.68,17.222,19.301c10.581,0.419,19.084-7.897,19.084-18.261v-92.951
	H19.192V153.53z"/>
<g>
	<path style="fill:#6B6B6B;" d="M306.797,110.088v13.017c0,10.845,7.897,20.325,18.51,21.008c11.512,0.45,21.008-8.58,21.008-19.875
		v1.04c0-9.045,7.447-16.493,16.493-16.493h1.35c9.712,0,17.61,7.897,17.61,17.392v-10.535c0,10.612,8.13,20.325,18.742,20.775
		c11.295,0.683,21.008-8.347,21.008-19.642v5.772c0-9.48,7.897-16.71,17.392-16.493c0.217,0,0.217,0,0.217,0c0.233,0,0.233,0,0.45,0
		c9.48-0.217,17.392,7.013,17.392,16.493v-1.939c0,10.845,8.13,20.325,18.742,21.008c11.512,0.45,20.775-8.58,20.775-19.875v-16.151
		H305.819C306.285,107.047,306.797,108.505,306.797,110.088z"/>
	<path style="fill:#6B6B6B;" d="M56.351,106.054c0,0,0,0,0.217,0c0,0,0,0,0.233,0c9.48-0.217,17.61,7.013,17.61,16.493v-1.939
		c0,10.845,7.897,20.325,18.51,21.008c11.326,0.434,20.589-8.316,20.883-19.347v-11.574c0-1.784,0.31-3.46,0.745-5.104H0v15.407
		c2.203,8.285,9.014,15.05,17.967,15.422c11.295,0.683,20.775-8.347,20.775-19.642v5.772
		C38.741,113.067,46.639,105.837,56.351,106.054z"/>
	<path style="fill:#6B6B6B;" d="M171.97,141.04c11.512,0.45,20.775-8.58,20.775-19.875l0.233-1.552
		c0-5.492,2.219-10.442,5.803-14.026h-46.561c0.59,1.97,1.133,3.987,1.133,6.113v9.154
		C153.647,131.219,161.559,140.373,171.97,141.04z"/>
	<path style="fill:#6B6B6B;" d="M226.025,105.588c3.91,3.894,6.47,9.247,6.47,15.158v5.167c0.233,10.612,9.03,19.192,19.642,19.192
		c11.062,0,19.875-9.03,19.875-19.875v-14.243c0-1.908,0.496-3.693,1.102-5.399C273.113,105.588,226.025,105.588,226.025,105.588z"
		/>
</g>
<polygon style="fill:#168DE2;" points="294.431,270.189 265.014,261.174 287.185,188.92 202.054,256.582 231.471,265.596 
	209.315,337.85 "/>
<g>
</g>
<g>
</g>
<g>
</g>
<g>
</g>
<g>
</g>
<g>
</g>
<g>
</g>
<g>
</g>
<g>
</g>
<g>
</g>
<g>
</g>
<g>
</g>
<g>
</g>
<g>
</g>
<g>
</g>
</svg>
