<?xml version="1.0" encoding="iso-8859-1"?>
<!-- Generator: Adobe Illustrator 19.0.0, SVG Export Plug-In . SVG Version: 6.00 Build 0)  -->
<svg version="1.1" id="Capa_1" xmlns="http://www.w3.org/2000/svg" xmlns:xlink="http://www.w3.org/1999/xlink" x="0px" y="0px"
	 viewBox="0 0 496.442 496.442" style="enable-background:new 0 0 496.442 496.442;" xml:space="preserve">
<path style="fill:#FFCB5A;" d="M409.788,156.926H85.506c-17.129,0-31.03,13.886-31.03,31.03V458.54
	c0,17.144,13.902,31.03,31.03,31.03h324.282c17.144,0,31.03-13.886,31.03-31.03V187.956
	C440.818,170.812,426.917,156.926,409.788,156.926z"/>
<path style="fill:#F3F3F3;" d="M54.476,388.645v69.88c0,17.144,13.902,31.03,31.03,31.03h324.282c17.144,0,31.03-13.886,31.03-31.03
	v-69.88H54.476z"/>
<rect x="54.429" y="388.645" style="fill:#ED6262;" width="386.343" height="15.67"/>
<g>
	<rect x="263.154" y="187.956" style="fill:#168DE2;" width="146.634" height="155.307"/>
	<rect x="85.459" y="187.956" style="fill:#168DE2;" width="146.634" height="155.307"/>
</g>
<path style="fill:#CACACA;" d="M292.044,126.004h-88.809c-8.564,0-15.515,6.951-15.515,15.515v15.407h119.839v-15.407
	C307.559,132.955,300.624,126.004,292.044,126.004z"/>
<rect x="224.708" y="43.836" style="fill:#F3F3F3;" width="45.878" height="82.168"/>
<path style="fill:#777777;" d="M0.157,90.661c-1.21-8.487,4.701-16.337,13.188-17.548L478.738,7.018
	c8.533-1.164,16.337,4.717,17.548,13.188c1.21,8.487-4.701,16.337-13.188,17.548L17.705,103.848
	C9.234,105.059,1.367,99.163,0.157,90.661z"/>
<g>
	<path style="fill:#3AA2EB;" d="M232.124,187.956H85.506v40.619c0,3.134,2.405,5.989,5.585,6.128
		c3.32,0.202,6.128-2.467,6.128-5.787v-14.01c0-2.793,2.327-4.918,5.198-4.856c0,0,0,0,0.062,0c0,0,0,0,0.062,0
		c2.793-0.062,5.198,2.064,5.198,4.856v12.598c0,3.196,2.327,5.989,5.461,6.191c3.336,0.124,6.066-2.451,6.16-5.71v-12.971
		c0-3.336,2.777-5.989,6.144-5.849c3.15,0.186,5.508,2.994,5.508,6.144v14.336c0.093,3.056,2.42,5.756,5.492,5.942
		c3.398,0.14,6.128-2.529,6.128-5.849l0.062-15.717c0-3.336,2.731-5.989,6.128-5.865c3.134,0.202,5.523,2.994,5.523,6.191v13.995
		c0.062,3.134,2.669,5.663,5.787,5.663c3.258,0,5.865-2.669,5.865-5.849v-13.048c0-2.669,2.203-4.856,4.934-4.856h0.403
		c2.669-0.202,4.934,2.001,4.934,4.592v14.088c0,3.196,2.327,5.989,5.461,6.191c3.398,0.14,6.191-2.529,6.191-5.849v-13.56
		c0-2.669,2.203-4.856,4.856-4.856h0.403c2.87,0,5.198,2.327,5.198,5.12v12.148c0,3.134,2.405,5.989,5.523,6.128
		c3.32,0.202,6.191-2.467,6.191-5.787v-13.56c0-2.793,2.327-4.918,5.12-4.856c0.062,0,0.062,0,0.062,0c0.062,0,0.062,0,0.14,0
		c2.793-0.062,5.12,2.064,5.12,4.856v12.924c0,3.196,2.389,5.989,5.523,6.191c3.398,0.14,6.128-2.529,6.128-5.865v-40.2H232.124z"/>
	<path style="fill:#3AA2EB;" d="M409.788,187.956H263.154v40.619c0,3.134,2.405,5.989,5.585,6.128
		c3.336,0.202,6.129-2.467,6.129-5.787v-14.01c0-2.793,2.327-4.918,5.198-4.856c0,0,0,0,0.062,0c0,0,0,0,0.062,0
		c2.793-0.062,5.198,2.064,5.198,4.856v12.598c0,3.196,2.327,5.989,5.461,6.191c3.336,0.124,6.066-2.451,6.159-5.71v-12.971
		c0-3.336,2.777-5.989,6.144-5.849c3.15,0.186,5.508,2.994,5.508,6.144v14.336c0.093,3.056,2.42,5.756,5.492,5.942
		c3.398,0.14,6.128-2.529,6.128-5.849l0.062-15.717c0-3.336,2.731-5.989,6.128-5.865c3.134,0.202,5.523,2.994,5.523,6.191v13.995
		c0.062,3.134,2.669,5.663,5.787,5.663c3.258,0,5.865-2.669,5.865-5.849v-13.048c0-2.669,2.203-4.856,4.918-4.856h0.403
		c2.669-0.202,4.918,2.001,4.918,4.592v14.088c0,3.196,2.327,5.989,5.461,6.191c3.398,0.14,6.191-2.529,6.191-5.849v-13.56
		c0-2.669,2.203-4.856,4.856-4.856h0.388c2.855,0,5.198,2.327,5.198,5.12v12.148c0,3.134,2.389,5.989,5.523,6.128
		c3.32,0.202,6.191-2.467,6.191-5.787v-13.56c0-2.793,2.327-4.918,5.12-4.856c0.062,0,0.062,0,0.062,0c0.062,0,0.062,0,0.14,0
		c2.793-0.062,5.12,2.064,5.12,4.856v12.924c0,3.196,2.389,5.989,5.523,6.191c3.398,0.14,6.128-2.529,6.128-5.865L409.788,187.956
		L409.788,187.956z"/>
</g>
<path style="fill:#E2E2E2;" d="M426.079,436.09c-8.766-0.528-16.136,6.485-16.136,15.251v4.406c0,7.37-6.144,12.971-13.684,12.8
	c0,0,0,0-0.171,0c0,0,0,0-0.171,0c-7.37,0.171-13.684-5.446-13.684-12.8v-0.667c0-8.409-6.144-15.779-14.383-16.306
	c-8.797-0.341-15.981,6.47-16.229,15.034v1.629c0,8.782-7.308,15.779-16.182,15.391c-8.285-0.496-14.507-7.897-14.507-16.182v-5.26
	c-0.233-8.052-6.392-15.158-14.476-15.67c-8.937-0.341-16.136,6.672-16.136,15.438l-0.171,8.89c0,8.766-7.184,15.794-16.136,15.438
	c-8.239-0.528-14.553-7.897-14.553-16.306v-4.36c-0.171-8.239-7.013-14.91-15.251-14.91c-8.595,0-15.438,7.013-15.438,15.438v1.877
	c0,6.703-4.996,12.8-14.026,12.8c-7.013,0.528-12.971-5.26-12.971-12.102v-4.608c0-8.425-6.144-15.779-14.383-16.306
	c-8.937-0.357-16.306,6.656-16.306,15.438v3.227c0,6.672-4.965,12.8-13.855,12.8c-7.54,0-13.684-6.128-13.684-13.498v0.481
	c0-8.239-6.315-15.779-14.553-16.136c-8.766-0.528-16.306,6.485-16.306,15.251v3.196c0,7.37-6.144,12.971-13.498,12.8
	c-0.171,0-0.171,0-0.171,0c-0.171,0-0.171,0-0.357,0c-7.37,0.171-13.498-5.446-13.498-12.8v-1.567
	c0-8.409-6.315-15.779-14.553-16.306c-8.937-0.341-16.136,6.672-16.136,15.438v5.213c0,17.144,13.902,31.03,31.03,31.03h324.282
	c17.144,0,31.03-13.886,31.03-31.03v-6.299C440.818,443.987,434.504,436.447,426.079,436.09z"/>
<g>
</g>
<g>
</g>
<g>
</g>
<g>
</g>
<g>
</g>
<g>
</g>
<g>
</g>
<g>
</g>
<g>
</g>
<g>
</g>
<g>
</g>
<g>
</g>
<g>
</g>
<g>
</g>
<g>
</g>
</svg>
