<?xml version="1.0" encoding="iso-8859-1"?>
<!-- Generator: Adobe Illustrator 19.0.0, SVG Export Plug-In . SVG Version: 6.00 Build 0)  -->
<svg version="1.1" id="Capa_1" xmlns="http://www.w3.org/2000/svg" xmlns:xlink="http://www.w3.org/1999/xlink" x="0px" y="0px"
	 viewBox="0 0 496.485 496.485" style="enable-background:new 0 0 496.485 496.485;" xml:space="preserve">
<path style="fill:#E95353;" d="M443.369,0H53.101C35.972,0,22.07,13.886,22.07,31.03v287.946c0,17.129,13.902,31.03,31.03,31.03
	h390.253c17.144,0,31.03-13.902,31.03-31.03V31.03C474.399,13.886,460.497,0,443.369,0z"/>
<path style="fill:#F3F3F3;" d="M405.419,77.002H91.051c-17.144,0-31.03,13.886-31.03,31.03v315.532h376.444V108.032
	C436.449,90.903,422.563,77.002,405.419,77.002z"/>
<rect x="91.051" y="108.048" style="fill:#168DE2;" width="314.384" height="163.731"/>
<path style="fill:#565656;" d="M435.254,408.855H61.215c-10.519,0-19.037,8.518-19.037,19.037l0,0
	c0,10.504,8.518,19.037,19.037,19.037h374.024c10.504,0,19.037-8.518,19.037-19.037l0,0
	C454.276,417.389,445.758,408.855,435.254,408.855z"/>
<g>
	<path style="fill:#777777;" d="M87.529,446.929v34.04c0,8.564,6.951,15.515,15.515,15.515h42.372
		c8.564,0,15.515-6.951,15.515-15.515v-34.04H87.529z"/>
	<path style="fill:#777777;" d="M335.538,446.929v34.04c0,8.564,6.951,15.515,15.515,15.515h42.372
		c8.564,0,15.515-6.951,15.515-15.515v-34.04H335.538z"/>
</g>
<circle style="fill:#FFFFFF;" cx="138.884" cy="340.309" r="38.959"/>
<circle style="fill:#FFCB5A;" cx="136.464" cy="338.727" r="30.084"/>
<circle style="fill:#FFFFFF;" cx="357.586" cy="340.309" r="38.959"/>
<circle style="fill:#FFCB5A;" cx="357.586" cy="340.309" r="30.084"/>
<rect x="190.487" y="318.061" style="fill:#ED6262;" width="113.773" height="44.761"/>
<path style="fill:#3AA2EB;" d="M405.419,108.048H91.051v76.66c0,6.703,5.136,12.847,11.993,13.126
	c7.137,0.434,13.126-5.275,13.126-12.412v-28.486c0-5.989,4.996-10.566,11.124-10.426c0,0,0,0,0.14,0c0,0,0,0,0.14,0
	c5.989-0.14,11.124,4.422,11.124,10.426v25.46c0,6.842,4.996,12.847,11.698,13.265c7.152,0.279,13.002-5.26,13.203-12.226v-33.994
	c0-7.152,5.942-12.847,13.172-12.521c6.749,0.403,11.807,6.423,11.807,13.172v32.458c0.202,6.547,5.198,12.335,11.776,12.753
	c7.277,0.279,13.126-5.415,13.126-12.552l0.14-27.664c0-7.137,5.849-12.847,13.126-12.552c6.703,0.434,11.838,6.423,11.838,13.265
	v29.944c0.14,6.703,5.71,12.133,12.412,12.133c6.997,0,12.552-5.71,12.552-12.552v-35.685c0-5.71,4.717-10.411,10.566-10.411h0.853
	c5.71-0.434,10.566,4.282,10.566,9.837v34.894c0,6.842,4.996,12.847,11.698,13.265c7.277,0.295,13.265-5.415,13.265-12.552v-26.019
	c0-5.71,4.717-10.426,10.426-10.426h0.853c6.144,0,11.14,4.996,11.14,10.985v20.03c0,6.703,5.135,12.847,11.838,13.126
	c7.137,0.434,13.265-5.275,13.265-12.412v-23.024c0-5.989,4.996-10.566,10.985-10.426c0.14,0,0.14,0,0.14,0c0.14,0,0.14,0,0.279,0
	c5.989-0.14,10.985,4.422,10.985,10.426v25.46c0,6.842,5.136,12.847,11.838,13.265c7.277,0.279,13.126-5.43,13.126-12.567v-75.047
	H405.419z"/>
<path style="fill:#ED6262;" d="M443.369,0H53.101C35.972,0,22.07,13.886,22.07,31.03v20.713c1.489,8.27,7.975,15.282,16.679,15.639
	c10.287,0.621,18.944-7.618,18.944-17.92v-2.312c0-8.642,7.199-15.236,16.058-15.034c0,0,0,0,0.202,0c0,0,0,0,0.202,0
	c8.642-0.202,16.058,6.377,16.058,15.034v-2.064c0,9.883,7.199,18.525,16.88,19.146c10.333,0.403,18.773-7.587,19.053-17.641V36.336
	c0-10.302,8.564-18.525,19.006-18.075c9.728,0.574,17.02,9.263,17.02,18.991v8.052c0.279,9.449,7.494,17.796,16.989,18.401
	c10.504,0.419,18.944-7.82,18.944-18.122l0.202-1.117c0-10.287,8.44-18.525,18.944-18.122c9.681,0.621,17.082,9.263,17.082,19.146
	v4.406c0.202,9.681,8.239,17.501,17.92,17.501c10.085,0,18.122-8.239,18.122-18.122v-12.66c0-8.239,6.796-15.034,15.236-15.034
	c11.217,0,16.477,6.64,16.477,14.196v11.559c0,9.883,7.199,18.525,16.88,19.146c10.504,0.419,19.146-7.82,19.146-18.122v1.241
	c0-8.239,6.796-15.034,15.034-15.034c11.062,0,17.299,7.618,17.299,15.856v-9.868c0,9.681,7.416,18.525,17.082,18.944
	c10.287,0.621,19.146-7.618,19.146-17.904v5.57c0-8.642,7.199-15.236,15.856-15.034c0.202,0,0.202,0,0.202,0
	c0.202,0,0.202,0,0.419,0c8.642-0.202,15.856,6.377,15.856,15.034v-2.079c0,9.883,7.416,18.525,17.082,19.146
	c9.402,0.372,16.803-6.33,18.323-15.096V31.03C474.399,13.886,460.497,0,443.369,0z"/>
<g>
</g>
<g>
</g>
<g>
</g>
<g>
</g>
<g>
</g>
<g>
</g>
<g>
</g>
<g>
</g>
<g>
</g>
<g>
</g>
<g>
</g>
<g>
</g>
<g>
</g>
<g>
</g>
<g>
</g>
</svg>
