<?xml version="1.0" encoding="iso-8859-1"?>
<!-- Generator: Adobe Illustrator 19.0.0, SVG Export Plug-In . SVG Version: 6.00 Build 0)  -->
<svg version="1.1" id="Capa_1" xmlns="http://www.w3.org/2000/svg" xmlns:xlink="http://www.w3.org/1999/xlink" x="0px" y="0px"
	 viewBox="0 0 496.44 496.44" style="enable-background:new 0 0 496.44 496.44;" xml:space="preserve">
<path style="fill:#CACACA;" d="M493.933,162.7c-0.915-3.956-4.437-6.765-8.502-6.765h-21.628c-4.825,0-8.735,3.91-8.735,8.735
	s-3.91,8.735-8.735,8.735h-3.382c1.334,3.227,2.669,6.532,4.034,9.992c0,0,0.047,0.047,0.062,0.062h40.665
	c5.616,0,9.759-5.213,8.502-10.69L493.933,162.7z"/>
<path style="fill:#454545;" d="M389.175,370.743v23.273c0,7.509,6.097,13.607,13.607,13.607h33.233
	c7.509,0,13.607-6.097,13.607-13.607v-23.273H389.175z"/>
<path style="fill:#CACACA;" d="M50.122,173.39c-4.825,0-8.735-3.91-8.735-8.735s-3.91-8.735-8.735-8.735H11.039
	c-4.065,0-7.587,2.808-8.502,6.765l-2.312,10.054c-1.257,5.461,2.901,10.69,8.502,10.69h40.681c0.016-0.016,0.062-0.062,0.062-0.062
	c1.365-3.475,2.7-6.78,4.034-9.992h-3.382V173.39z"/>
<path style="fill:#E5E5E5;" d="M447,183.398c-12.443-31.791-23.816-53.015-33.202-67.103
	c-11.497-17.268-30.999-27.477-51.728-27.477H134.4c-20.744,0-40.246,10.209-51.743,27.477
	c-9.356,14.088-20.744,35.297-33.187,67.103c-14.91,11.729-26.36,35.375-24.7,60.261c2.048,30.472,7.215,93.618,16.306,124.354
	c0.465,1.614,1.955,2.731,3.615,2.731h67.32c2.079,0,3.77-1.691,3.77-3.77s1.691-3.77,3.77-3.77h257.35
	c2.079,0,3.77,1.691,3.77,3.77c0,2.095,1.691,3.77,3.77,3.77h67.32c1.691,0,3.15-1.117,3.615-2.731
	c9.123-30.735,14.274-93.882,16.306-124.354C473.391,218.601,461.832,195.049,447,183.398z"/>
<path style="fill:#168DE2;" d="M439.04,184.406c-10.442-25.6-21.085-47.088-31.682-63.193
	c-10.007-15.22-26.934-24.623-45.273-24.638c-75.9,0-151.785,0-227.685,0c-18.354,0.047-35.281,9.433-45.289,24.638
	c-10.628,16.198-21.271,37.686-31.682,63.209C184.437,194.413,312.033,194.413,439.04,184.406z"/>
<path style="fill:#454545;" d="M46.833,370.743v23.273c0,7.509,6.097,13.607,13.607,13.607h33.233
	c7.509,0,13.607-6.097,13.607-13.607v-23.273H46.833z"/>
<path style="fill:#ED6262;" d="M409.267,222.604c0,0,34.63-0.59,42.62-6.361c0,0,13.312,45.723-33.296,43.504
	c-46.608-2.219-58.089,0.078-58.089,0.078C360.503,241.657,368.772,224.776,409.267,222.604z"/>
<path style="fill:#6F6F6F;" d="M329.643,227.336h-61.13c-8.176,0-14.801,6.625-14.801,14.801v21.892
	c0,8.176,6.625,14.801,14.801,14.801h40.882c19.363,0,35.049-15.686,35.049-35.049C344.445,233.031,337.587,227.336,329.643,227.336
	z"/>
<circle style="fill:#FFBD49;" cx="423.432" cy="240.292" r="15.701"/>
<g>
	<path style="fill:#777777;" d="M337.463,229.571v35.219c-1.303,1.753-2.793,3.398-4.437,4.856v-41.891
		C334.608,228.081,336.097,228.733,337.463,229.571z"/>
	<path style="fill:#777777;" d="M325.407,227.321v47.616c-1.427,0.76-2.901,1.396-4.437,1.924v-49.555h4.437V227.321z"/>
	<path style="fill:#777777;" d="M313.352,227.321v51.278c-1.288,0.155-2.622,0.217-3.956,0.217h-0.481v-51.495H313.352z"/>
	<rect x="296.875" y="227.274" style="fill:#777777;" width="4.437" height="51.495"/>
	<rect x="284.804" y="227.274" style="fill:#777777;" width="4.437" height="51.495"/>
	<rect x="272.749" y="227.274" style="fill:#777777;" width="4.437" height="51.495"/>
	<path style="fill:#777777;" d="M265.147,227.755v50.688c-1.598-0.357-3.087-0.993-4.437-1.846v-47.011
		C262.059,228.733,263.549,228.081,265.147,227.755z"/>
</g>
<path style="fill:#ED6262;" d="M87.203,222.604c0,0-34.63-0.59-42.62-6.361c0,0-13.328,45.723,33.296,43.504
	c46.623-2.219,58.104,0.078,58.104,0.078C135.967,241.657,127.698,224.776,87.203,222.604z"/>
<path style="fill:#6F6F6F;" d="M166.812,227.336h61.13c8.176,0,14.801,6.625,14.801,14.801v21.892
	c0,8.176-6.625,14.801-14.801,14.801h-40.882c-19.363,0-35.049-15.686-35.049-35.049
	C152.026,233.031,158.883,227.336,166.812,227.336z"/>
<path style="fill:#454545;" d="M450.072,326.913c-5.477-20.325-23.924-34.459-44.978-34.459H91.377
	c-21.054,0-39.502,14.134-44.978,34.459c-1.8,6.687,3.243,13.25,10.147,13.25H439.94C446.845,340.163,451.887,333.6,450.072,326.913
	z"/>
<circle style="fill:#FFBD49;" cx="73.038" cy="240.292" r="15.701"/>
<polygon style="fill:#E5E5E5;" points="396.219,312.685 100.267,312.685 109.173,305.052 387.297,305.052 "/>
<circle style="fill:#ED6262;" cx="71.595" cy="319.59" r="11.233"/>
<g>
	<path style="fill:#777777;" d="M159.007,229.571v35.219c1.303,1.753,2.793,3.398,4.437,4.856v-41.891
		C161.847,228.081,160.373,228.733,159.007,229.571z"/>
	<path style="fill:#777777;" d="M171.063,227.321v47.616c1.427,0.76,2.901,1.396,4.437,1.924v-49.555h-4.437V227.321z"/>
	<path style="fill:#777777;" d="M183.118,227.321v51.278c1.288,0.155,2.622,0.217,3.956,0.217h0.481v-51.495H183.118z"/>
	<rect x="195.173" y="227.274" style="fill:#777777;" width="4.437" height="51.495"/>
	<rect x="207.229" y="227.274" style="fill:#777777;" width="4.437" height="51.495"/>
	<rect x="219.284" y="227.274" style="fill:#777777;" width="4.437" height="51.495"/>
	<path style="fill:#777777;" d="M231.324,227.755v50.688c1.598-0.357,3.088-0.993,4.437-1.846v-47.011
		C234.411,228.733,232.922,228.081,231.324,227.755z"/>
</g>
<circle style="fill:#ED6262;" cx="424.875" cy="319.59" r="11.233"/>
<path style="fill:#1F9AE5;" d="M264.138,156.665v-36.973c0-5.911,4.887-10.799,10.954-10.799h0.884
	c5.911-0.45,10.938,4.437,10.938,10.209v36.181c0,7.106,5.182,13.312,12.133,13.762c7.54,0.295,13.762-5.616,13.762-13.017v-26.996
	c0-5.911,4.887-10.799,10.799-10.799h0.884c6.361,0,11.543,5.182,11.543,11.388v20.759c0,6.951,5.322,13.312,12.272,13.607
	c7.401,0.45,13.762-5.477,13.762-12.862v-23.862c0-6.206,5.182-10.938,11.388-10.799c0.14,0,0.14,0,0.14,0c0.155,0,0.155,0,0.295,0
	c6.206-0.155,11.388,4.577,11.388,10.799v26.391c0,7.09,5.322,13.312,12.272,13.762c7.54,0.295,13.607-5.617,13.607-13.017v-26.903
	c-1.272-2.079-2.544-4.344-3.817-6.268c-10.007-15.22-26.934-24.623-45.273-24.638c-75.9,0-151.785,0-227.685,0
	c-18.339,0.016-35.266,9.402-45.273,24.623c-1.272,1.924-2.544,4.174-3.817,6.268v22.916c0,6.951,5.322,13.312,12.428,13.607
	c7.401,0.45,13.607-5.477,13.607-12.862v-23.878c0-6.206,5.182-10.938,11.543-10.799c0,0,0,0,0.155,0c0,0,0,0,0.14,0
	c6.206-0.155,11.543,4.577,11.543,10.799v26.391c0,7.09,5.182,13.312,12.133,13.762c7.416,0.295,13.483-5.446,13.684-12.676v-35.25
	c0-7.401,6.16-13.312,13.653-12.986c6.982,0.419,12.226,6.656,12.226,13.653v33.652c0.202,6.796,5.384,12.784,12.21,13.219
	c7.54,0.295,13.607-5.616,13.607-13.017l0.155-28.672c0-7.401,6.066-13.312,13.607-13.017c6.951,0.45,12.272,6.656,12.272,13.762
	v31.03c0.155,6.951,5.911,12.567,12.878,12.567C258.366,169.682,264.138,163.771,264.138,156.665z"/>
<g>
</g>
<g>
</g>
<g>
</g>
<g>
</g>
<g>
</g>
<g>
</g>
<g>
</g>
<g>
</g>
<g>
</g>
<g>
</g>
<g>
</g>
<g>
</g>
<g>
</g>
<g>
</g>
<g>
</g>
</svg>
