<?xml version="1.0" encoding="iso-8859-1"?>
<!-- Generator: Adobe Illustrator 19.0.0, SVG Export Plug-In . SVG Version: 6.00 Build 0)  -->
<svg version="1.1" id="Capa_1" xmlns="http://www.w3.org/2000/svg" xmlns:xlink="http://www.w3.org/1999/xlink" x="0px" y="0px"
	 viewBox="0 0 496.175 496.175" style="enable-background:new 0 0 496.175 496.175;" xml:space="preserve">
<path style="fill:#CACACA;" d="M474.205,125.137c-3.708,0-6.718-3.01-6.718-6.718V89.623c0-0.853-0.698-1.552-1.552-1.552h-67.863
	c-3.708,0-6.718-3.01-6.718-6.718c0-3.724,3.01-6.718,6.718-6.718h67.863c8.27,0,14.988,6.734,14.988,14.988v28.781
	C480.923,122.127,477.913,125.137,474.205,125.137z"/>
<path style="fill:#454545;" d="M489.456,99.351h-30.503c-3.708,0-6.718,3.01-6.718,6.718v70.609c0,3.708,3.01,6.718,6.718,6.718
	h30.503c3.708,0,6.718-3.01,6.718-6.718v-70.609C496.175,102.346,493.165,99.351,489.456,99.351z"/>
<path style="fill:#CACACA;" d="M21.969,125.137c3.708,0,6.718-3.01,6.718-6.718V89.623c0-0.853,0.698-1.552,1.552-1.552h67.863
	c3.708,0,6.718-3.01,6.718-6.718c0-3.724-3.01-6.718-6.718-6.718H30.239c-8.27,0-14.988,6.734-14.988,14.988v28.781
	C15.251,122.127,18.261,125.137,21.969,125.137z"/>
<g>
	<path style="fill:#454545;" d="M37.221,99.351H6.718c-3.708,0-6.718,3.01-6.718,6.718v70.609c0,3.708,3.01,6.718,6.718,6.718
		h30.503c3.708,0,6.718-3.01,6.718-6.718v-70.609C43.939,102.346,40.929,99.351,37.221,99.351z"/>
	<path style="fill:#454545;" d="M103.564,432.477v34.785c0,7.416,6.02,13.436,13.436,13.436h41.053
		c7.432,0,13.436-6.02,13.436-13.436v-34.785H103.564z"/>
	<path style="fill:#454545;" d="M335.934,432.477v34.785c0,7.416,6.02,13.436,13.436,13.436h41.053
		c7.432,0,13.436-6.02,13.436-13.436v-34.785H335.934z"/>
</g>
<path style="fill:#FFCB5A;" d="M402.618,15.476H104.82c-22.28,0-40.324,18.06-40.324,40.324v255.1h378.461V55.816
	C442.942,33.536,424.882,15.476,402.618,15.476z"/>
<path style="fill:#777777;" d="M402.618,35.646H104.82c-11.124,0-20.17,9.045-20.17,20.17v234.93h338.137V55.816
	C422.788,44.691,413.743,35.646,402.618,35.646z"/>
<rect x="64.496" y="310.916" style="fill:#FFBD49;" width="378.446" height="74.131"/>
<path style="fill:#FFCB5A;" d="M64.496,385.047v34.785c0,14.848,12.04,26.888,26.888,26.888H416.07
	c14.848,0,26.888-12.04,26.888-26.888v-34.785H64.496z"/>
<g>
	<path style="fill:#FFFFFF;" d="M178.657,325.36h-67.119c-3.708,0-6.718,3.01-6.718,6.718v31.791c0,3.708,3.01,6.718,6.718,6.718
		h67.119c3.708,0,6.718-3.01,6.718-6.718v-31.791C185.375,328.37,182.365,325.36,178.657,325.36z"/>
	<path style="fill:#FFFFFF;" d="M395.9,325.36h-67.119c-3.708,0-6.718,3.01-6.718,6.718v31.791c0,3.708,3.01,6.718,6.718,6.718
		H395.9c3.708,0,6.718-3.01,6.718-6.718v-31.791C402.618,328.37,399.608,325.36,395.9,325.36z"/>
</g>
<path style="fill:#ED6262;" d="M278.342,347.982c0-5.741-4.375-10.674-11.109-13.529c-2.855-6.718-7.789-11.109-13.529-11.109
	s-10.674,4.375-13.529,11.109c-6.718,2.855-11.109,7.789-11.109,13.529s4.391,10.674,11.109,13.514
	c2.855,6.718,7.789,11.109,13.529,11.109s10.674-4.391,13.529-11.109C273.967,358.64,278.342,353.722,278.342,347.982z
	 M253.719,327.377c3.041,0,5.834,2.095,7.99,5.384c-5.554-1.226-10.442-1.21-15.981,0
	C247.87,329.472,250.678,327.377,253.719,327.377z M264.068,358.315c-6.439,2.265-13.886,2.389-20.682,0
	c-2.281-6.454-2.389-13.917,0-20.682c6.439-2.265,13.886-2.389,20.682,0C266.318,344.056,266.457,351.504,264.068,358.315z
	 M233.115,347.982c0-3.041,2.095-5.834,5.384-7.99c-1.21,5.554-1.21,10.426,0,15.981
	C235.21,353.815,233.115,351.023,233.115,347.982z M253.719,368.57c-3.041,0-5.834-2.095-7.99-5.384
	c5.539,1.21,10.426,1.21,15.981,0C259.553,366.476,256.76,368.57,253.719,368.57z M268.924,355.972c1.21-5.554,1.21-10.426,0-15.981
	c3.289,2.157,5.384,4.949,5.384,7.99C274.323,351.023,272.229,353.815,268.924,355.972z"/>
<circle style="fill:#E95353;" cx="343.583" cy="347.982" r="15.205"/>
<circle style="fill:#168DE2;" cx="381.052" cy="347.982" r="15.205"/>
<circle style="fill:#E95353;" cx="126.34" cy="347.982" r="15.205"/>
<circle style="fill:#168DE2;" cx="163.84" cy="347.982" r="15.205"/>
<g>
	<path style="fill:#E95353;" d="M118.97,403.386H97.264c-6.889,0-12.49,5.585-12.49,12.49c0,6.889,5.585,12.49,12.49,12.49h21.706
		c6.889,0,12.49-5.585,12.49-12.49C131.444,408.987,125.859,403.386,118.97,403.386z"/>
	<path style="fill:#E95353;" d="M410.174,403.386h-21.706c-6.889,0-12.49,5.585-12.49,12.49c0,6.889,5.585,12.49,12.49,12.49h21.706
		c6.889,0,12.49-5.585,12.49-12.49C422.664,408.987,417.078,403.386,410.174,403.386z"/>
</g>
<path style="fill:#6F6F6F;" d="M402.618,35.646H104.82c-11.14,0-20.17,9.03-20.17,20.17v56.398c0,7.215,5.523,13.808,12.893,14.119
	c7.68,0.465,14.119-5.679,14.119-13.359V88.211c0-6.454,5.368-11.357,11.978-11.202c0,0,0,0,0.155,0c0,0,0,0,0.155,0
	c6.439-0.155,11.962,4.763,11.962,11.202v27.384c0,7.37,5.368,13.808,12.583,14.274c7.696,0.295,13.995-5.663,14.196-13.157V80.159
	c0-7.68,6.392-13.824,14.165-13.467c7.246,0.434,12.691,6.904,12.691,14.165v34.909c0.217,7.044,5.585,13.265,12.66,13.715
	c7.835,0.31,14.119-5.834,14.119-13.498l0.155-29.743c0-7.68,6.299-13.824,14.119-13.514c7.215,0.465,12.738,6.904,12.738,14.274
	v32.209c0.155,7.215,6.144,13.048,13.359,13.048c7.525,0,13.514-6.144,13.514-13.514V80.361c0-6.144,5.058-11.202,11.357-11.202
	c8.332,0,12.272,4.918,12.272,10.581v37.531c0,7.37,5.368,13.808,12.583,14.274c7.835,0.31,14.274-5.834,14.274-13.498V90.058
	c0-5.849,4.36-11.202,12.117-11.202c6.594,0,11.978,5.368,11.978,11.823v21.551c0,7.215,5.523,13.808,12.738,14.119
	c7.68,0.465,14.274-5.679,14.274-13.359V88.211c0-5.942,4.577-11.202,11.978-11.202c0.155,0,0.155,0,0.31,0
	c6.439-0.155,11.823,4.763,11.823,11.202v27.384c0,7.37,5.523,13.808,12.738,14.274c7.835,0.31,14.119-5.834,14.119-13.514v-60.54
	C422.788,44.676,413.758,35.646,402.618,35.646z"/>
<g>
</g>
<g>
</g>
<g>
</g>
<g>
</g>
<g>
</g>
<g>
</g>
<g>
</g>
<g>
</g>
<g>
</g>
<g>
</g>
<g>
</g>
<g>
</g>
<g>
</g>
<g>
</g>
<g>
</g>
</svg>
