<?xml version="1.0" encoding="iso-8859-1"?>
<!-- Generator: Adobe Illustrator 19.0.0, SVG Export Plug-In . SVG Version: 6.00 Build 0)  -->
<svg version="1.1" id="Capa_1" xmlns="http://www.w3.org/2000/svg" xmlns:xlink="http://www.w3.org/1999/xlink" x="0px" y="0px"
	 viewBox="0 0 496.485 496.485" style="enable-background:new 0 0 496.485 496.485;" xml:space="preserve">
<path style="fill:#F3F3F3;" d="M401.222,165.966H353.28v190.681h143.205v-95.418C496.485,208.632,453.818,165.966,401.222,165.966z"
	/>
<path style="fill:#168DE2;" d="M480.52,256.776c-2.374-41.875-36.848-75.295-79.298-75.295h-32.427v75.295H480.52z"/>
<rect y="94.922" style="fill:#CACACA;" width="353.327" height="261.741"/>
<circle style="fill:#5E5E5E;" cx="67.491" cy="356.662" r="45.677"/>
<circle style="fill:#CACACA;" cx="67.491" cy="356.662" r="24.142"/>
<circle style="fill:#5E5E5E;" cx="424.665" cy="356.662" r="45.677"/>
<circle style="fill:#CACACA;" cx="424.665" cy="356.662" r="24.142"/>
<rect x="25.166" y="121.949" style="fill:#E95353;" width="99.949" height="119.234"/>
<g>
	<path style="fill:#FFFFFF;" d="M132.872,248.941H17.408V114.192h115.464V248.941z M32.923,233.425h84.433V129.707H32.923V233.425z"
		/>
	<path style="opacity:0.25;fill:#FFFFFF;enable-background:new    ;" d="M353.28,356.662V94.146h-59.439
		c-5.601,0-10.721,4.282-10.969,10.007c-0.357,5.958,4.406,10.969,10.364,10.969h19.223c5.011,0,8.813,4.174,8.704,9.294
		c0,0,0,0,0,0.124c0,0,0,0,0,0.124c0.124,5.011-3.693,9.294-8.704,9.294h-21.256c-5.725,0-10.721,4.174-11.078,9.775
		c-0.233,5.973,4.391,10.861,10.209,11.016h28.377c5.973,0,10.721,4.965,10.457,11c-0.341,5.632-5.368,9.852-11,9.852h-27.105
		c-5.461,0.155-10.302,4.344-10.643,9.837c-0.233,6.082,4.53,10.969,10.488,10.969l23.102,0.124c5.958,0,10.721,4.887,10.488,10.969
		c-0.357,5.601-5.368,9.883-11.078,9.883h-24.995c-5.601,0.124-10.131,4.763-10.131,10.364c0,5.834,4.763,10.488,10.488,10.488
		h29.789c4.561,0,8.704,3.382,8.704,9.526c0.357,4.763-3.568,8.813-8.223,8.813h-29.137c-5.725,0-10.721,4.174-11.078,9.775
		c-0.233,6.082,4.53,11.078,10.488,11.078h21.737c4.53,0,8.704,3.367,8.704,9.418c0,5.12-4.174,9.294-9.169,9.294h-16.725
		c-5.601,0-10.721,4.282-10.969,9.883c-0.357,5.958,4.406,11.078,10.364,11.078h19.223c5.011,0,8.813,4.174,8.704,9.169
		c0,0.124,0,0.124,0,0.124c0,0.124,0,0.124,0,0.233c0.124,5.011-3.693,9.169-8.704,9.169h-21.256
		c-14.646,0-14.383,20.852-0.59,20.852h62.635V356.662z"/>
</g>
<g>
</g>
<g>
</g>
<g>
</g>
<g>
</g>
<g>
</g>
<g>
</g>
<g>
</g>
<g>
</g>
<g>
</g>
<g>
</g>
<g>
</g>
<g>
</g>
<g>
</g>
<g>
</g>
<g>
</g>
</svg>
