<?xml version="1.0" encoding="iso-8859-1"?>
<!-- Generator: Adobe Illustrator 19.0.0, SVG Export Plug-In . SVG Version: 6.00 Build 0)  -->
<svg version="1.1" id="Capa_1" xmlns="http://www.w3.org/2000/svg" xmlns:xlink="http://www.w3.org/1999/xlink" x="0px" y="0px"
	 viewBox="0 0 496.485 496.485" style="enable-background:new 0 0 496.485 496.485;" xml:space="preserve">
<path style="fill:#FFDB6F;" d="M488.277,156.408l-41.007-56.382c-8.068-11.109-20.976-17.672-34.707-17.672H42.915
	C19.208,82.354,0,101.562,0,125.269v199.23c0,17.144,13.886,31.03,31.03,31.03h434.424c17.144,0,31.03-13.886,31.03-31.03V181.651
	C496.485,172.575,493.615,163.747,488.277,156.408z"/>
<g>
	<rect x="257.086" y="97.87" style="fill:#168DE2;" width="105.441" height="101.329"/>
	<rect x="133.958" y="97.87" style="fill:#168DE2;" width="105.441" height="101.329"/>
	<path style="fill:#168DE2;" d="M475.741,165.531l-41.007-56.382c-5.135-7.075-13.405-11.28-22.14-11.28h-32.349v101.329H480.97
		v-17.563C480.97,175.818,479.154,170.248,475.741,165.531z"/>
	<path style="fill:#168DE2;" d="M42.915,97.87c-15.112,0-27.4,12.288-27.4,27.384v73.93h100.755V97.87H42.915z"/>
</g>
<path style="fill:#FFCB5A;" d="M496.485,199.199H0v84.992c0,10.597,8.114,20.278,18.928,20.728
	c11.264,0.683,20.728-8.332,20.728-19.611V264.13c0-9.464,7.882-16.679,17.579-16.446c11.326,0,18.029,7.866,18.029,16.446v16.384
	c0,10.814,7.897,20.278,18.479,20.961c11.295,0.434,20.542-8.301,20.852-19.316v-17.61c0-11.28,9.387-20.278,20.79-19.782
	c10.643,0.636,18.634,10.147,18.634,20.79v22.264c0.31,10.349,8.208,19.487,18.587,20.139c11.497,0.45,20.728-8.564,20.728-19.828
	l0.217-26.934c0-11.264,9.232-20.294,20.728-19.828c10.597,0.683,18.711,10.147,18.711,20.961v21.116
	c0.233,10.597,9.014,19.161,19.611,19.161c11.047,0,19.828-9.014,19.828-19.828v-17.936c0-9.014,7.432-16.446,16.679-16.446
	c12.21,0,18.029,7.199,18.029,15.546v21.426c0,10.814,7.882,20.278,18.479,20.961c11.497,0.45,20.961-8.564,20.961-19.828V266.83
	c0-8.595,6.408-16.446,17.796-16.446c9.697,0,17.579,7.882,17.579,17.346v14.879c0,10.597,8.114,20.294,18.711,20.744
	c11.264,0.683,20.961-8.347,20.961-19.611v-19.627c0-9.464,7.882-16.679,17.346-16.446c0.233,0,0.233,0,0.233,0
	c11.171,0,17.796,7.742,17.796,16.446v17.517c0,10.814,8.114,20.278,18.711,20.961c11.497,0.45,20.728-8.564,20.728-19.828v-83.565
	H496.485z"/>
<circle style="fill:#6F6F6F;" cx="93.929" cy="355.53" r="58.601"/>
<circle style="fill:#E5E5E5;" cx="93.929" cy="355.53" r="32.039"/>
<circle style="fill:#6F6F6F;" cx="402.572" cy="355.53" r="58.601"/>
<circle style="fill:#E5E5E5;" cx="402.572" cy="355.53" r="32.039"/>
<g>
	<path style="fill:#3AA2EB;" d="M133.958,130.762c0,4.096,3.134,7.851,7.323,8.021c4.36,0.264,8.021-3.227,8.021-7.587v-8.208
		c0-3.662,3.056-6.454,6.796-6.361c0,0,0,0,0.093,0c0,0,0,0,0.093,0c3.662-0.093,6.796,2.7,6.796,6.361v6.346
		c0,4.189,3.056,7.851,7.152,8.114c4.375,0.171,7.944-3.212,8.068-7.478v-6.811c0-4.36,3.631-7.851,8.052-7.649
		c4.127,0.248,7.215,3.925,7.215,8.052v8.626c0.124,4.003,3.181,7.54,7.199,7.789c4.453,0.171,8.021-3.32,8.021-7.68l0.093-10.426
		c0-4.36,3.568-7.851,8.021-7.68c4.096,0.264,7.246,3.925,7.246,8.114v8.176c0.093,4.096,3.491,7.416,7.587,7.416
		c4.282,0,7.68-3.491,7.68-7.68V97.87H133.958V130.762z"/>
	<path style="fill:#3AA2EB;" d="M257.086,130.762c0,4.096,3.134,7.851,7.323,8.021c4.36,0.264,8.021-3.227,8.021-7.587v-8.208
		c0-3.662,3.057-6.454,6.796-6.361c0,0,0,0,0.093,0c0,0,0,0,0.093,0c3.662-0.093,6.796,2.7,6.796,6.361v6.346
		c0,4.189,3.056,7.851,7.152,8.114c4.375,0.171,7.944-3.212,8.068-7.478v-6.811c0-4.36,3.631-7.851,8.052-7.649
		c4.127,0.248,7.215,3.925,7.215,8.052v8.626c0.124,4.003,3.181,7.54,7.199,7.789c4.453,0.171,8.021-3.32,8.021-7.68l0.093-10.426
		c0-4.36,3.568-7.851,8.021-7.68c4.096,0.264,7.23,3.925,7.23,8.114v8.176c0.093,4.096,3.491,7.416,7.587,7.416
		c11.435,0,7.68-16.337,7.68-40.014H257.086V130.762z"/>
	<path style="fill:#3AA2EB;" d="M395.574,131.196c0-7.571-1.055-14.739,6.796-14.553c0,0,0,0,0.093,0c0,0,0,0,0.093,0
		c3.662-0.093,6.796,2.7,6.796,6.361v6.346c0,4.189,3.056,7.851,7.152,8.114c4.375,0.171,7.944-3.212,8.068-7.478v-6.827
		c0-4.36,3.631-7.851,8.052-7.649c4.127,0.248,7.215,3.925,7.215,8.052v8.611c0.124,4.003,3.181,7.54,7.199,7.789
		c3.134,0.124,5.756-1.629,7.075-4.158l-19.394-26.655c-5.135-7.075-13.405-11.28-22.14-11.28H380.23v32.892
		C380.23,141.359,395.574,141.265,395.574,131.196z"/>
	<path style="fill:#3AA2EB;" d="M42.915,97.87c-15.112,0-27.4,12.288-27.4,27.384v12.831c0.822,0.372,1.691,0.636,2.638,0.683
		c4.36,0.264,8.021-3.227,8.021-7.587v-8.192c0-3.662,3.056-6.454,6.796-6.361c0,0,0,0,0.078,0c0,0,0,0,0.093,0
		c3.662-0.093,6.796,2.7,6.796,6.361v6.346c0,4.189,3.056,7.851,7.152,8.114c4.375,0.171,7.944-3.212,8.068-7.478v-6.811
		c0-4.36,3.631-7.851,8.052-7.649c4.127,0.233,7.23,3.91,7.23,8.037v8.611c0.124,4.003,3.181,7.54,7.199,7.789
		c4.437,0.186,8.021-3.305,8.021-7.665l0.093-10.426c0-4.36,3.584-7.851,8.021-7.68c4.08,0.279,7.23,3.941,7.23,8.13v8.176
		c0.093,4.096,3.491,7.416,7.587,7.416c4.282,0,7.68-3.491,7.68-7.68V97.87H42.915z"/>
</g>
<rect x="474.764" y="256.776" style="fill:#ED6262;" width="21.721" height="46.856"/>
<g>
</g>
<g>
</g>
<g>
</g>
<g>
</g>
<g>
</g>
<g>
</g>
<g>
</g>
<g>
</g>
<g>
</g>
<g>
</g>
<g>
</g>
<g>
</g>
<g>
</g>
<g>
</g>
<g>
</g>
</svg>
