<?xml version="1.0" encoding="iso-8859-1"?>
<!-- Generator: Adobe Illustrator 19.0.0, SVG Export Plug-In . SVG Version: 6.00 Build 0)  -->
<svg version="1.1" id="Capa_1" xmlns="http://www.w3.org/2000/svg" xmlns:xlink="http://www.w3.org/1999/xlink" x="0px" y="0px"
	 viewBox="0 0 491.908 491.908" style="enable-background:new 0 0 491.908 491.908;" xml:space="preserve">
<g>
	<path style="fill:#454545;" d="M345.243,431.942v44.451c0,8.564,6.951,15.515,15.515,15.515h34.056
		c8.564,0,15.515-6.951,15.515-15.515v-44.451H345.243z"/>
	<path style="fill:#454545;" d="M81.563,431.942v44.435c0,8.564,6.951,15.515,15.515,15.515h34.056
		c8.564,0,15.515-6.951,15.515-15.515v-44.435H81.563z"/>
	<path style="fill:#454545;" d="M312.956,0h-134.02c-49.323,0-91.152,36.274-98.118,85.116h330.24
		C404.108,36.274,362.279,0,312.956,0z"/>
</g>
<rect x="404.697" y="109.925" style="fill:#CACACA;" width="41.767" height="12.893"/>
<rect x="427.939" y="104.386" style="fill:#E95353;" width="30.999" height="82.541"/>
<rect x="45.428" y="109.925" style="fill:#CACACA;" width="41.767" height="12.893"/>
<rect x="32.97" y="104.386" style="fill:#E95353;" width="30.984" height="82.541"/>
<path style="fill:#E5E5E5;" d="M381.766,380.106h-28.765c30.518-86.559,70.78-86.683,70.78-86.683s-35.995-11.621-55.389,33.249
	c-4.143,6.051-11.109,9.852-18.696,9.852h-207.5c-7.277,0-14.367-3.537-18.696-9.852c-19.394-44.885-55.42-33.249-55.42-33.249
	v138.504c0,8.564,6.951,15.515,15.515,15.515h324.67c8.564,0,15.515-6.951,15.515-15.515v-106.93
	C399.857,321.241,381.766,380.106,381.766,380.106z"/>
<path style="fill:#6F6F6F;" d="M411.648,85.116c-116.907-26.484-214.512-26.484-331.419,0c0,69.384-9.123,138.768-11.543,208.151
	c4.701-1.257,36.864-8.114,54.815,33.42c4.158,6.066,11.124,9.852,18.696,9.852h207.5c7.323,0,14.398-3.584,18.696-9.852
	c17.967-41.581,50.16-34.661,54.815-33.42C420.786,223.884,411.648,154.5,411.648,85.116z"/>
<path style="fill:#3AA2EB;" d="M402.292,207.019c-2.684-35.328-5.477-72.223-6.051-109.18
	c-53.201-10.597-102.54-17.206-150.295-17.082c-47.756-0.124-97.078,6.485-150.295,17.082c-0.574,36.926-3.367,73.79-6.051,109.103
	c-1.707,22.559-3.444,45.537-4.592,68.36c105.782,25.398,216.08,25.398,321.862,0C405.737,252.494,403.999,229.531,402.292,207.019z
	"/>
<g>
	<path style="fill:#FFCB5A;" d="M353.001,380.106h28.765c0,0,18.091-58.865,42.015-55.11v-31.573
		C423.781,293.423,383.519,293.547,353.001,380.106z"/>
	<path style="fill:#FFCB5A;" d="M68.096,293.438v31.573c23.94-3.755,42.015,55.094,42.015,55.094h28.781
		C108.389,293.562,68.096,293.438,68.096,293.438z"/>
</g>
<circle style="fill:#FFFFFF;" cx="125.549" cy="388.81" r="32.597"/>
<circle style="fill:#E95353;" cx="125.549" cy="388.81" r="25.616"/>
<circle style="fill:#FFFFFF;" cx="366.344" cy="388.81" r="32.597"/>
<circle style="fill:#E95353;" cx="366.344" cy="388.81" r="25.616"/>
<path style="fill:#CACACA;" d="M291.313,366.918h-90.748c-12.35,0-22.357,10.007-22.357,22.357s10.007,22.357,22.357,22.357h90.748
	c12.35,0,22.357-10.007,22.357-22.357C313.67,376.925,303.663,366.918,291.313,366.918z"/>
<path style="fill:#3FACEF;" d="M394.271,148.34c1.412,0.062,2.7-0.295,3.987-0.652c-0.962-16.648-1.769-33.373-2.017-50.067
	c-53.232-11.326-102.524-16.865-150.295-16.865s-97.047,5.523-150.28,16.865c-0.233,15.562-1.024,31.123-1.877,46.654
	c0.884,0.248,1.707,0.652,2.669,0.683c7.339,0.434,13.514-5.43,13.514-12.784v-23.707c0-6.175,5.136-10.876,11.466-10.721
	c0,0,0,0,0.14,0c0,0,0,0,0.155,0c6.175-0.155,11.466,4.546,11.466,10.721v26.205c0,7.059,5.151,13.219,12.04,13.669
	c7.37,0.295,13.39-5.415,13.591-12.583v-35.002c0-7.354,6.113-13.219,13.56-12.893c6.951,0.419,12.148,6.609,12.148,13.56v33.42
	c0.202,6.734,5.353,12.691,12.117,13.126c7.494,0.295,13.514-5.585,13.514-12.924l0.14-28.47c0-7.354,6.02-13.219,13.514-12.924
	c6.904,0.434,12.195,6.609,12.195,13.669v30.798c0.14,6.904,5.88,12.49,12.784,12.49c7.199,0,12.924-5.88,12.924-12.924v-36.724
	c0-5.88,4.856-10.721,10.876-10.721h0.884c5.88-0.434,10.876,4.406,10.876,10.131v35.933c0,7.059,5.135,13.219,12.055,13.653
	c7.494,0.295,13.669-5.585,13.669-12.924v-26.795c0-5.88,4.856-10.721,10.721-10.721h0.884c6.315,0,11.466,5.136,11.466,11.311
	v20.62c0,6.904,5.291,13.219,12.195,13.514c7.339,0.434,13.669-5.43,13.669-12.784v-23.707c0-6.175,5.135-10.876,11.311-10.721
	c0.155,0,0.155,0,0.155,0c0.14,0,0.14,0,0.295,0c6.175-0.155,11.311,4.546,11.311,10.721v26.205
	C382.076,141.731,387.367,147.906,394.271,148.34z"/>
<g>
</g>
<g>
</g>
<g>
</g>
<g>
</g>
<g>
</g>
<g>
</g>
<g>
</g>
<g>
</g>
<g>
</g>
<g>
</g>
<g>
</g>
<g>
</g>
<g>
</g>
<g>
</g>
<g>
</g>
</svg>
