<?xml version="1.0" encoding="iso-8859-1"?>
<!-- Generator: Adobe Illustrator 19.0.0, SVG Export Plug-In . SVG Version: 6.00 Build 0)  -->
<svg version="1.1" id="Capa_1" xmlns="http://www.w3.org/2000/svg" xmlns:xlink="http://www.w3.org/1999/xlink" x="0px" y="0px"
	 viewBox="0 0 495.833 495.833" style="enable-background:new 0 0 495.833 495.833;" xml:space="preserve">
<path style="fill:#6F6F6F;" d="M247.924,0C111.003,0,0.008,110.995,0.008,247.917c0,55.374,18.385,106.341,49.059,147.611h397.7
	c30.689-41.27,49.059-92.222,49.059-147.611C495.841,110.995,384.846,0,247.924,0z"/>
<path style="fill:#F3F3F3;" d="M351.891,110.033h-35.219V96.07c0-8.533-6.982-15.515-15.515-15.515H194.723
	c-8.688,0-15.515,6.982-15.515,15.515v13.964h-35.219c-25.6,0-46.545,20.945-46.545,46.545V387.91
	c0,25.755,20.945,46.545,46.545,46.545h207.903c25.6,0,46.545-20.79,46.545-46.545V156.579
	C398.437,130.979,377.491,110.033,351.891,110.033z"/>
<path style="fill:#168DE2;" d="M367.345,286.006V156.641c0-8.564-6.966-15.515-15.515-15.515h-207.81
	c-8.549,0-15.515,6.951-15.515,15.515v129.365H367.345z"/>
<circle style="fill:#FFFFFF;" cx="173.405" cy="363.442" r="35.08"/>
<circle style="fill:#E95353;" cx="173.405" cy="363.442" r="27.648"/>
<circle style="fill:#EF6C6C;" cx="166.718" cy="356.755" r="14.817"/>
<circle style="fill:#FFFFFF;" cx="322.444" cy="363.442" r="35.08"/>
<path style="fill:#CACACA;" d="M142.918,434.455l-45.475,61.378h43.722l11.202-21.302h191.147l11.202,21.302h43.722l-45.475-61.378
	H142.918z M333.165,454.858H162.7l9.185-17.47h152.08L333.165,454.858z"/>
<path style="fill:#3AA2EB;" d="M351.829,141.126h-207.81c-8.549,0-15.515,6.951-15.515,15.515v48.64c0,5.089,3.91,9.759,9.107,9.976
	c5.415,0.326,9.976-4.018,9.976-9.433v-25.693c0-4.546,3.801-8.021,8.456-7.913c0,0,0,0,0.109,0c0,0,0,0,0.109,0
	c4.546-0.109,8.456,3.367,8.456,7.913v23.397c0,5.198,3.801,9.759,8.89,10.085c5.446,0.202,9.883-4.003,10.023-9.294v-23.986
	c0-5.43,4.515-9.759,10.007-9.511c5.12,0.31,8.968,4.887,8.968,10.007v26.236c0.155,4.98,3.956,9.371,8.937,9.697
	c5.523,0.217,9.976-4.112,9.976-9.542l0.109-28.47c0-5.415,4.437-9.759,9.976-9.542c5.089,0.326,8.999,4.872,8.999,10.085v25.678
	c0.109,5.089,4.344,9.216,9.433,9.216c5.306,0,9.542-4.344,9.542-9.542v-24.142c0-4.143,3.088-7.913,8.673-7.913
	c4.344-0.326,8.021,3.258,8.021,7.478v25.817c0,5.213,3.801,9.759,8.89,10.085c5.523,0.217,10.085-4.127,10.085-9.542V181.45
	c0-4.344,3.584-7.913,7.913-7.913c5.818,0,9.107,4.018,9.107,8.347v22.683c0,5.089,3.91,9.759,8.999,9.976
	c5.415,0.326,10.085-4.018,10.085-9.433v-24.948c0-4.546,3.801-8.021,8.347-7.913c0.109,0,0.109,0,0.109,0c0.109,0,0.109,0,0.217,0
	c4.561-0.109,8.347,3.367,8.347,7.913v23.94c0,5.198,3.91,9.759,8.999,10.085c5.523,0.217,9.976-4.127,9.976-9.542v-47.957
	C367.345,148.092,360.378,141.126,351.829,141.126z"/>
<g>
	<path style="fill:#E2E2E2;" d="M123.198,409.786c-0.31,6.206-5.585,11.016-11.636,11.481c-8.688-8.378-14.119-20.325-14.119-33.358
		v-43.598c1.552,4.655,5.896,7.913,11.016,7.913h0.931c6.672,0.155,11.947,5.741,11.636,12.567
		c-0.31,6.361-6.051,11.016-12.567,11.016h-0.155c-5.229,0-9.93,4.298-9.93,10.705c0,0.155,0,0.155,0,0.155
		c-0.155,5.896,4.189,10.705,9.93,10.705h2.948C118.078,397.374,123.508,402.96,123.198,409.786z"/>
	<path style="fill:#E2E2E2;" d="M107.217,280.855c-3.879,0-7.447,1.707-9.775,4.344V156.579c0-13.343,5.741-25.6,14.895-34.133
		c5.585,1.241,9.619,6.206,9.464,12.257c-0.465,6.361-6.206,11.171-12.722,11.171h-0.776c-5.741,0-10.085,4.81-9.93,10.55
		c0,0.155,0,0.155,0,0.155s0,0,0,0.155c-0.155,5.741,4.189,10.55,9.93,10.55h2.017c6.827,0,12.257,5.741,11.947,12.567
		c-0.31,6.051-5.741,10.861-11.792,11.326c-5.741,0-10.55,4.655-10.55,10.55c0,6.842,4.779,10.705,9.93,10.705h2.172
		c6.827,0,12.257,5.741,11.947,12.567c-0.465,6.361-6.051,11.171-12.567,11.171h-3.258c-5.275,0-9.775,4.655-9.309,10.085
		c0,6.966,4.748,10.861,9.93,10.861h1.086c6.516,0,11.947,5.275,11.947,11.947c0,6.361-5.275,11.636-11.636,11.792
		C110.165,280.855,107.217,280.855,107.217,280.855z"/>
	<path style="fill:#E2E2E2;" d="M97.443,336.244v-35.84c2.172,2.638,5.43,4.189,8.999,4.189l6.516,0.155
		c6.827,0,12.257,5.585,11.947,12.412c-0.31,6.361-5.896,11.016-12.102,11.326h-3.724C103.959,328.487,99.15,331.59,97.443,336.244z
		"/>
	<path style="fill:#E2E2E2;" d="M398.437,199.09c-1.552-4.655-5.896-7.913-11.016-7.913h-0.931
		c-6.672-0.155-11.947-5.741-11.636-12.567c0.31-6.361,6.051-11.171,12.567-11.171h0.155c9.976,0,9.914-10.705,9.93-10.705
		c0-0.155,0-0.155,0-0.155c0.155-5.741-4.189-10.55-9.93-10.55h-2.948c-6.827,0-12.257-5.741-11.947-12.412
		c0.31-5.741,4.965-10.395,10.55-11.326C401.897,139.388,398.437,156.144,398.437,199.09z"/>
	<path style="fill:#E2E2E2;" d="M398.437,207.158v35.84c-2.172-2.638-5.43-4.189-8.999-4.189l-6.516-0.155
		c-6.827,0-12.257-5.585-11.947-12.567c0.31-6.206,5.896-11.016,12.102-11.171h3.724
		C391.921,214.916,396.73,211.813,398.437,207.158z"/>
	<path style="fill:#E2E2E2;" d="M388.662,262.547c3.879,0,7.447-1.707,9.775-4.499V387.91c0,13.033-5.43,24.824-13.964,33.202
		c-6.051-0.776-10.55-6.051-10.395-12.412c0.465-6.361,6.206-11.326,12.722-11.326h0.776c5.322,0,9.93-3.894,9.93-10.705
		c0,0,0,0,0-0.155c0.155-5.585-4.189-10.395-9.93-10.395h-2.017c-6.827,0-12.257-5.896-11.947-12.567
		c0.31-6.361,6.206-11.326,12.567-11.326c5.167-0.45,9.775-4.515,9.775-11.326c0-5.43-4.499-9.93-9.93-9.93h-2.172
		c-6.827,0-12.257-5.741-11.947-12.722c0.465-6.361,6.051-11.016,12.567-11.016h3.258c4.98,0,9.309-3.475,9.309-10.861
		c0-5.585-4.499-10.085-9.93-10.085h-1.086c-6.516,0-11.947-5.275-11.947-11.947c0-6.361,5.275-11.636,11.636-11.792H388.662z"/>
</g>
<circle style="fill:#E95353;" cx="322.444" cy="363.442" r="27.648"/>
<circle style="fill:#EF6C6C;" cx="315.757" cy="356.755" r="14.817"/>
<g>
</g>
<g>
</g>
<g>
</g>
<g>
</g>
<g>
</g>
<g>
</g>
<g>
</g>
<g>
</g>
<g>
</g>
<g>
</g>
<g>
</g>
<g>
</g>
<g>
</g>
<g>
</g>
<g>
</g>
</svg>
